  0
SECTION
  2
HEADER
  9
$ANGBASE
  50
0.0
  9
$ANGDIR
  70
  1
  9
$MEASUREMENT
  70
0
  0
ENDSEC
  0
SECTION
  2
TABLES
  0
TABLE
  2
LTYPE
  70
4
  0
LTYPE
  5
40F
  2
CONTINUOUS
  70
0
  3
Solid line
  72
65
  73
0
  40
0.0
  0
LTYPE
  5
410
  2
DASHDOT
 70
0
  3
Dash Dot ____ _ ____ _
 72
65
 73
4
 40
2.0
 49
1.25
 49
-0.25
 49
0.25
 49
-0.25
  0
LTYPE
  5
411
  2
DASHED
 70
0
  3
Dashed __ __ __ __ __
 72
65
 73
2
 40
0.75
 49
0.5
 49
-0.25
  0
LTYPE
  5
43B
  2
DOTTED
 70
0
  3
Dotted .  .  .  .
 72
65
 73
2
 40
0.2
 49
0.0
 49
-0.2
  0
ENDTAB
  0
TABLE
  2
STYLE
  70
4
  0
STYLE
  2
KICAD
  70
0
  40
0
  41
1
  42
1
  50
0
  71
0
  3
isocp.shx
  0
STYLE
  2
KICADB
  70
0
  40
0
  41
1
  42
1
  50
0
  71
0
  3
isocp.shx
  0
STYLE
  2
KICADI
  70
0
  40
0
  41
1
  42
1
  50
15
  71
0
  3
isocp.shx
  0
STYLE
  2
KICADBI
  70
0
  40
0
  41
1
  42
1
  50
15
  71
0
  3
isocp.shx
  0
ENDTAB
  0
TABLE
  2
LAYER
  70
30
  0
LAYER
  2
BLACK
  70
0
  62
7
  6
CONTINUOUS
  0
LAYER
  2
GRAY1
  70
0
  62
251
  6
CONTINUOUS
  0
LAYER
  2
GRAY2
  70
0
  62
8
  6
CONTINUOUS
  0
LAYER
  2
GRAY3
  70
0
  62
9
  6
CONTINUOUS
  0
LAYER
  2
WHITE
  70
0
  62
7
  6
CONTINUOUS
  0
LAYER
  2
LYELLOW
  70
0
  62
51
  6
CONTINUOUS
  0
LAYER
  2
BLUE1
  70
0
  62
178
  6
CONTINUOUS
  0
LAYER
  2
GREEN1
  70
0
  62
98
  6
CONTINUOUS
  0
LAYER
  2
CYAN1
  70
0
  62
138
  6
CONTINUOUS
  0
LAYER
  2
RED1
  70
0
  62
18
  6
CONTINUOUS
  0
LAYER
  2
MAGENTA1
  70
0
  62
228
  6
CONTINUOUS
  0
LAYER
  2
BROWN1
  70
0
  62
58
  6
CONTINUOUS
  0
LAYER
  2
BLUE2
  70
0
  62
5
  6
CONTINUOUS
  0
LAYER
  2
GREEN2
  70
0
  62
3
  6
CONTINUOUS
  0
LAYER
  2
CYAN2
  70
0
  62
4
  6
CONTINUOUS
  0
LAYER
  2
RED2
  70
0
  62
1
  6
CONTINUOUS
  0
LAYER
  2
MAGENTA2
  70
0
  62
6
  6
CONTINUOUS
  0
LAYER
  2
BROWN2
  70
0
  62
54
  6
CONTINUOUS
  0
LAYER
  2
BLUE3
  70
0
  62
171
  6
CONTINUOUS
  0
LAYER
  2
GREEN3
  70
0
  62
91
  6
CONTINUOUS
  0
LAYER
  2
CYAN3
  70
0
  62
131
  6
CONTINUOUS
  0
LAYER
  2
RED3
  70
0
  62
11
  6
CONTINUOUS
  0
LAYER
  2
MAGENTA3
  70
0
  62
221
  6
CONTINUOUS
  0
LAYER
  2
YELLOW3
  70
0
  62
2
  6
CONTINUOUS
  0
LAYER
  2
BLUE4
  70
0
  62
5
  6
CONTINUOUS
  0
LAYER
  2
GREEN4
  70
0
  62
3
  6
CONTINUOUS
  0
LAYER
  2
CYAN4
  70
0
  62
4
  6
CONTINUOUS
  0
LAYER
  2
RED4
  70
0
  62
1
  6
CONTINUOUS
  0
LAYER
  2
MAGENTA4
  70
0
  62
6
  6
CONTINUOUS
  0
LAYER
  2
YELLOW4
  70
0
  62
2
  6
CONTINUOUS
  0
ENDTAB
  0
ENDSEC
  0
SECTION
  2
ENTITIES
0
LINE
8
BLACK
6
CONTINUOUS
10
3.17257
20
-76.2249
11
3.17256
21
-76.2249
0
LINE
8
BLACK
6
CONTINUOUS
10
3.17256
20
-76.2249
11
2.55587
21
-76.1644
0
LINE
8
BLACK
6
CONTINUOUS
10
2.55587
20
-76.1644
11
2.55552
21
-76.1644
0
LINE
8
BLACK
6
CONTINUOUS
10
2.55552
20
-76.1644
11
2.55328
21
-76.1639
0
LINE
8
BLACK
6
CONTINUOUS
10
2.55328
20
-76.1639
11
2.55108
21
-76.1635
0
LINE
8
BLACK
6
CONTINUOUS
10
2.55108
20
-76.1635
11
1.95788
21
-75.9844
0
LINE
8
BLACK
6
CONTINUOUS
10
1.95788
20
-75.9844
11
1.95754
21
-75.9843
0
LINE
8
BLACK
6
CONTINUOUS
10
1.95754
20
-75.9843
11
1.95546
21
-75.9834
0
LINE
8
BLACK
6
CONTINUOUS
10
1.95546
20
-75.9834
11
1.95337
21
-75.9825
0
LINE
8
BLACK
6
CONTINUOUS
10
1.95337
20
-75.9825
11
1.40624
21
-75.6916
0
LINE
8
BLACK
6
CONTINUOUS
10
1.40624
20
-75.6916
11
1.40594
21
-75.6914
0
LINE
8
BLACK
6
CONTINUOUS
10
1.40594
20
-75.6914
11
1.40408
21
-75.6902
0
LINE
8
BLACK
6
CONTINUOUS
10
1.40408
20
-75.6902
11
1.40218
21
-75.6889
0
LINE
8
BLACK
6
CONTINUOUS
10
1.40218
20
-75.6889
11
0.921985
21
-75.2973
0
LINE
8
BLACK
6
CONTINUOUS
10
0.921985
20
-75.2973
11
0.921716
21
-75.297
0
LINE
8
BLACK
6
CONTINUOUS
10
0.921716
20
-75.297
11
0.920122
21
-75.2954
0
LINE
8
BLACK
6
CONTINUOUS
10
0.920122
20
-75.2954
11
0.918523
21
-75.2938
0
LINE
8
BLACK
6
CONTINUOUS
10
0.918523
20
-75.2938
11
0.523543
21
-74.8164
0
LINE
8
BLACK
6
CONTINUOUS
10
0.523543
20
-74.8164
11
0.523322
21
-74.8161
0
LINE
8
BLACK
6
CONTINUOUS
10
0.523322
20
-74.8161
11
0.522064
21
-74.8142
0
LINE
8
BLACK
6
CONTINUOUS
10
0.522064
20
-74.8142
11
0.520815
21
-74.8123
0
LINE
8
BLACK
6
CONTINUOUS
10
0.520815
20
-74.8123
11
0.226093
21
-74.2673
0
LINE
8
BLACK
6
CONTINUOUS
10
0.226093
20
-74.2673
11
0.225929
21
-74.2669
0
LINE
8
BLACK
6
CONTINUOUS
10
0.225929
20
-74.2669
11
0.225076
21
-74.2648
0
LINE
8
BLACK
6
CONTINUOUS
10
0.225076
20
-74.2648
11
0.224202
21
-74.2628
0
LINE
8
BLACK
6
CONTINUOUS
10
0.224202
20
-74.2628
11
0.040967
21
-73.6708
0
LINE
8
BLACK
6
CONTINUOUS
10
0.040967
20
-73.6708
11
0.040866
21
-73.6705
0
LINE
8
BLACK
6
CONTINUOUS
10
0.040866
20
-73.6705
11
0.040442
21
-73.6683
0
LINE
8
BLACK
6
CONTINUOUS
10
0.040442
20
-73.6683
11
0.039986
21
-73.666
0
LINE
8
BLACK
6
CONTINUOUS
10
0.039986
20
-73.666
11
-0.024786
21
-73.0498
0
LINE
8
BLACK
6
CONTINUOUS
10
-0.024786
20
-73.0498
11
-0.024821
21
-73.0494
0
LINE
8
BLACK
6
CONTINUOUS
10
-0.024821
20
-73.0494
11
-0.024813
21
-73.0483
0
LINE
8
BLACK
6
CONTINUOUS
10
-0.024813
20
-73.0483
11
-0.024923
21
-73.0473
0
LINE
8
BLACK
6
CONTINUOUS
10
-0.024923
20
-73.0473
11
-0.024996
21
-73.0262
0
LINE
8
BLACK
6
CONTINUOUS
10
-0.024996
20
-73.0262
11
-0.024999
21
-73.0262
0
LINE
8
BLACK
6
CONTINUOUS
10
-0.024999
20
-73.0262
11
-0.024999
21
-73.0254
0
LINE
8
BLACK
6
CONTINUOUS
10
-0.024999
20
-73.0254
11
-0.025
21
-73.0251
0
LINE
8
BLACK
6
CONTINUOUS
10
-0.025
20
-73.0251
11
-0.024999
21
-73.0247
0
LINE
8
BLACK
6
CONTINUOUS
10
-0.024999
20
-73.0247
11
-0.025
21
-3.17378
0
LINE
8
BLACK
6
CONTINUOUS
10
-0.025
20
-3.17378
11
-0.024881
21
-3.17258
0
LINE
8
BLACK
6
CONTINUOUS
10
-0.024881
20
-3.17258
11
-0.024881
21
-3.17256
0
LINE
8
BLACK
6
CONTINUOUS
10
-0.024881
20
-3.17256
11
0.035586
21
-2.55587
0
LINE
8
BLACK
6
CONTINUOUS
10
0.035586
20
-2.55587
11
0.035622
21
-2.55552
0
LINE
8
BLACK
6
CONTINUOUS
10
0.035622
20
-2.55552
11
0.036098
21
-2.55328
0
LINE
8
BLACK
6
CONTINUOUS
10
0.036098
20
-2.55328
11
0.036534
21
-2.55108
0
LINE
8
BLACK
6
CONTINUOUS
10
0.036534
20
-2.55108
11
0.215633
21
-1.95788
0
LINE
8
BLACK
6
CONTINUOUS
10
0.215633
20
-1.95788
11
0.215736
21
-1.95754
0
LINE
8
BLACK
6
CONTINUOUS
10
0.215736
20
-1.95754
11
0.216629
21
-1.95546
0
LINE
8
BLACK
6
CONTINUOUS
10
0.216629
20
-1.95546
11
0.217492
21
-1.95337
0
LINE
8
BLACK
6
CONTINUOUS
10
0.217492
20
-1.95337
11
0.508401
21
-1.40624
0
LINE
8
BLACK
6
CONTINUOUS
10
0.508401
20
-1.40624
11
0.508567
21
-1.40594
0
LINE
8
BLACK
6
CONTINUOUS
10
0.508567
20
-1.40594
11
0.50984
21
-1.40408
0
LINE
8
BLACK
6
CONTINUOUS
10
0.50984
20
-1.40408
11
0.511101
21
-1.40218
0
LINE
8
BLACK
6
CONTINUOUS
10
0.511101
20
-1.40218
11
0.902739
21
-0.921985
0
LINE
8
BLACK
6
CONTINUOUS
10
0.902739
20
-0.921985
11
0.902962
21
-0.921716
0
LINE
8
BLACK
6
CONTINUOUS
10
0.902962
20
-0.921716
11
0.90457
21
-0.920141
0
LINE
8
BLACK
6
CONTINUOUS
10
0.90457
20
-0.920141
11
0.906177
21
-0.918523
0
LINE
8
BLACK
6
CONTINUOUS
10
0.906177
20
-0.918523
11
1.38363
21
-0.523543
0
LINE
8
BLACK
6
CONTINUOUS
10
1.38363
20
-0.523543
11
1.3839
21
-0.523322
0
LINE
8
BLACK
6
CONTINUOUS
10
1.3839
20
-0.523322
11
1.38582
21
-0.522064
0
LINE
8
BLACK
6
CONTINUOUS
10
1.38582
20
-0.522064
11
1.38767
21
-0.520815
0
LINE
8
BLACK
6
CONTINUOUS
10
1.38767
20
-0.520815
11
1.93275
21
-0.226093
0
LINE
8
BLACK
6
CONTINUOUS
10
1.93275
20
-0.226093
11
1.93305
21
-0.225929
0
LINE
8
BLACK
6
CONTINUOUS
10
1.93305
20
-0.225929
11
1.93517
21
-0.225076
0
LINE
8
BLACK
6
CONTINUOUS
10
1.93517
20
-0.225076
11
1.93724
21
-0.224202
0
LINE
8
BLACK
6
CONTINUOUS
10
1.93724
20
-0.224202
11
2.52918
21
-0.040968
0
LINE
8
BLACK
6
CONTINUOUS
10
2.52918
20
-0.040968
11
2.52919
21
-0.040966
0
LINE
8
BLACK
6
CONTINUOUS
10
2.52919
20
-0.040966
11
2.52952
21
-0.040866
0
LINE
8
BLACK
6
CONTINUOUS
10
2.52952
20
-0.040866
11
2.53177
21
-0.040436
0
LINE
8
BLACK
6
CONTINUOUS
10
2.53177
20
-0.040436
11
2.53396
21
-0.039986
0
LINE
8
BLACK
6
CONTINUOUS
10
2.53396
20
-0.039986
11
3.15022
21
0.024786
0
LINE
8
BLACK
6
CONTINUOUS
10
3.15022
20
0.024786
11
3.15057
21
0.024821
0
LINE
8
BLACK
6
CONTINUOUS
10
3.15057
20
0.024821
11
3.15166
21
0.024813
0
LINE
8
BLACK
6
CONTINUOUS
10
3.15166
20
0.024813
11
3.15275
21
0.024923
0
LINE
8
BLACK
6
CONTINUOUS
10
3.15275
20
0.024923
11
3.17374
21
0.024996
0
LINE
8
BLACK
6
CONTINUOUS
10
3.17374
20
0.024996
11
3.17378
21
0.025
0
LINE
8
BLACK
6
CONTINUOUS
10
3.17378
20
0.025
11
136.526
21
0.025
0
LINE
8
BLACK
6
CONTINUOUS
10
136.526
20
0.025
11
136.527
21
0.024881
0
LINE
8
BLACK
6
CONTINUOUS
10
136.527
20
0.024881
11
136.527
21
0.024881
0
LINE
8
BLACK
6
CONTINUOUS
10
136.527
20
0.024881
11
137.144
21
-0.035586
0
LINE
8
BLACK
6
CONTINUOUS
10
137.144
20
-0.035586
11
137.144
21
-0.035622
0
LINE
8
BLACK
6
CONTINUOUS
10
137.144
20
-0.035622
11
137.147
21
-0.036098
0
LINE
8
BLACK
6
CONTINUOUS
10
137.147
20
-0.036098
11
137.149
21
-0.036534
0
LINE
8
BLACK
6
CONTINUOUS
10
137.149
20
-0.036534
11
137.742
21
-0.215633
0
LINE
8
BLACK
6
CONTINUOUS
10
137.742
20
-0.215633
11
137.742
21
-0.215736
0
LINE
8
BLACK
6
CONTINUOUS
10
137.742
20
-0.215736
11
137.745
21
-0.216629
0
LINE
8
BLACK
6
CONTINUOUS
10
137.745
20
-0.216629
11
137.747
21
-0.217492
0
LINE
8
BLACK
6
CONTINUOUS
10
137.747
20
-0.217492
11
138.294
21
-0.508401
0
LINE
8
BLACK
6
CONTINUOUS
10
138.294
20
-0.508401
11
138.294
21
-0.508567
0
LINE
8
BLACK
6
CONTINUOUS
10
138.294
20
-0.508567
11
138.296
21
-0.50984
0
LINE
8
BLACK
6
CONTINUOUS
10
138.296
20
-0.50984
11
138.298
21
-0.511101
0
LINE
8
BLACK
6
CONTINUOUS
10
138.298
20
-0.511101
11
138.778
21
-0.902739
0
LINE
8
BLACK
6
CONTINUOUS
10
138.778
20
-0.902739
11
138.778
21
-0.902962
0
LINE
8
BLACK
6
CONTINUOUS
10
138.778
20
-0.902962
11
138.78
21
-0.90457
0
LINE
8
BLACK
6
CONTINUOUS
10
138.78
20
-0.90457
11
138.781
21
-0.906177
0
LINE
8
BLACK
6
CONTINUOUS
10
138.781
20
-0.906177
11
139.176
21
-1.38363
0
LINE
8
BLACK
6
CONTINUOUS
10
139.176
20
-1.38363
11
139.177
21
-1.3839
0
LINE
8
BLACK
6
CONTINUOUS
10
139.177
20
-1.3839
11
139.178
21
-1.38582
0
LINE
8
BLACK
6
CONTINUOUS
10
139.178
20
-1.38582
11
139.179
21
-1.38767
0
LINE
8
BLACK
6
CONTINUOUS
10
139.179
20
-1.38767
11
139.474
21
-1.93275
0
LINE
8
BLACK
6
CONTINUOUS
10
139.474
20
-1.93275
11
139.474
21
-1.93305
0
LINE
8
BLACK
6
CONTINUOUS
10
139.474
20
-1.93305
11
139.475
21
-1.93517
0
LINE
8
BLACK
6
CONTINUOUS
10
139.475
20
-1.93517
11
139.476
21
-1.93724
0
LINE
8
BLACK
6
CONTINUOUS
10
139.476
20
-1.93724
11
139.659
21
-2.52919
0
LINE
8
BLACK
6
CONTINUOUS
10
139.659
20
-2.52919
11
139.659
21
-2.52952
0
LINE
8
BLACK
6
CONTINUOUS
10
139.659
20
-2.52952
11
139.66
21
-2.53177
0
LINE
8
BLACK
6
CONTINUOUS
10
139.66
20
-2.53177
11
139.66
21
-2.53396
0
LINE
8
BLACK
6
CONTINUOUS
10
139.66
20
-2.53396
11
139.725
21
-3.15022
0
LINE
8
BLACK
6
CONTINUOUS
10
139.725
20
-3.15022
11
139.725
21
-3.15057
0
LINE
8
BLACK
6
CONTINUOUS
10
139.725
20
-3.15057
11
139.725
21
-3.15166
0
LINE
8
BLACK
6
CONTINUOUS
10
139.725
20
-3.15166
11
139.725
21
-3.15275
0
LINE
8
BLACK
6
CONTINUOUS
10
139.725
20
-3.15275
11
139.725
21
-3.17374
0
LINE
8
BLACK
6
CONTINUOUS
10
139.725
20
-3.17374
11
139.725
21
-3.17378
0
LINE
8
BLACK
6
CONTINUOUS
10
139.725
20
-3.17378
11
139.725
21
-73.0262
0
LINE
8
BLACK
6
CONTINUOUS
10
139.725
20
-73.0262
11
139.725
21
-73.0274
0
LINE
8
BLACK
6
CONTINUOUS
10
139.725
20
-73.0274
11
139.725
21
-73.0274
0
LINE
8
BLACK
6
CONTINUOUS
10
139.725
20
-73.0274
11
139.664
21
-73.6441
0
LINE
8
BLACK
6
CONTINUOUS
10
139.664
20
-73.6441
11
139.664
21
-73.6445
0
LINE
8
BLACK
6
CONTINUOUS
10
139.664
20
-73.6445
11
139.664
21
-73.6467
0
LINE
8
BLACK
6
CONTINUOUS
10
139.664
20
-73.6467
11
139.663
21
-73.6489
0
LINE
8
BLACK
6
CONTINUOUS
10
139.663
20
-73.6489
11
139.484
21
-74.2421
0
LINE
8
BLACK
6
CONTINUOUS
10
139.484
20
-74.2421
11
139.484
21
-74.2425
0
LINE
8
BLACK
6
CONTINUOUS
10
139.484
20
-74.2425
11
139.483
21
-74.2445
0
LINE
8
BLACK
6
CONTINUOUS
10
139.483
20
-74.2445
11
139.483
21
-74.2466
0
LINE
8
BLACK
6
CONTINUOUS
10
139.483
20
-74.2466
11
139.192
21
-74.7938
0
LINE
8
BLACK
6
CONTINUOUS
10
139.192
20
-74.7938
11
139.191
21
-74.7941
0
LINE
8
BLACK
6
CONTINUOUS
10
139.191
20
-74.7941
11
139.19
21
-74.7959
0
LINE
8
BLACK
6
CONTINUOUS
10
139.19
20
-74.7959
11
139.189
21
-74.7978
0
LINE
8
BLACK
6
CONTINUOUS
10
139.189
20
-74.7978
11
138.797
21
-75.278
0
LINE
8
BLACK
6
CONTINUOUS
10
138.797
20
-75.278
11
138.797
21
-75.2783
0
LINE
8
BLACK
6
CONTINUOUS
10
138.797
20
-75.2783
11
138.795
21
-75.2799
0
LINE
8
BLACK
6
CONTINUOUS
10
138.795
20
-75.2799
11
138.794
21
-75.2815
0
LINE
8
BLACK
6
CONTINUOUS
10
138.794
20
-75.2815
11
138.316
21
-75.6765
0
LINE
8
BLACK
6
CONTINUOUS
10
138.316
20
-75.6765
11
138.316
21
-75.6767
0
LINE
8
BLACK
6
CONTINUOUS
10
138.316
20
-75.6767
11
138.314
21
-75.6779
0
LINE
8
BLACK
6
CONTINUOUS
10
138.314
20
-75.6779
11
138.312
21
-75.6792
0
LINE
8
BLACK
6
CONTINUOUS
10
138.312
20
-75.6792
11
137.767
21
-75.9739
0
LINE
8
BLACK
6
CONTINUOUS
10
137.767
20
-75.9739
11
137.767
21
-75.9741
0
LINE
8
BLACK
6
CONTINUOUS
10
137.767
20
-75.9741
11
137.765
21
-75.9749
0
LINE
8
BLACK
6
CONTINUOUS
10
137.765
20
-75.9749
11
137.763
21
-75.9758
0
LINE
8
BLACK
6
CONTINUOUS
10
137.763
20
-75.9758
11
137.171
21
-76.159
0
LINE
8
BLACK
6
CONTINUOUS
10
137.171
20
-76.159
11
137.17
21
-76.1591
0
LINE
8
BLACK
6
CONTINUOUS
10
137.17
20
-76.1591
11
137.168
21
-76.1596
0
LINE
8
BLACK
6
CONTINUOUS
10
137.168
20
-76.1596
11
137.166
21
-76.16
0
LINE
8
BLACK
6
CONTINUOUS
10
137.166
20
-76.16
11
136.55
21
-76.2248
0
LINE
8
BLACK
6
CONTINUOUS
10
136.55
20
-76.2248
11
136.549
21
-76.2248
0
LINE
8
BLACK
6
CONTINUOUS
10
136.549
20
-76.2248
11
136.548
21
-76.2248
0
LINE
8
BLACK
6
CONTINUOUS
10
136.548
20
-76.2248
11
136.547
21
-76.2249
0
LINE
8
BLACK
6
CONTINUOUS
10
136.547
20
-76.2249
11
136.526
21
-76.225
0
LINE
8
BLACK
6
CONTINUOUS
10
136.526
20
-76.225
11
136.526
21
-76.225
0
LINE
8
BLACK
6
CONTINUOUS
10
136.526
20
-76.225
11
3.17378
21
-76.225
0
LINE
8
BLACK
6
CONTINUOUS
10
3.17378
20
-76.225
11
3.17257
21
-76.2249
0
LINE
8
BLACK
6
CONTINUOUS
10
3.17509
20
-0.025
11
3.15419
21
-0.025073
0
LINE
8
BLACK
6
CONTINUOUS
10
3.15419
20
-0.025073
11
2.54163
21
-0.089456
0
LINE
8
BLACK
6
CONTINUOUS
10
2.54163
20
-0.089456
11
1.95437
21
-0.271242
0
LINE
8
BLACK
6
CONTINUOUS
10
1.95437
20
-0.271242
11
1.41361
21
-0.563632
0
LINE
8
BLACK
6
CONTINUOUS
10
1.41361
20
-0.563632
11
0.939938
21
-0.955486
0
LINE
8
BLACK
6
CONTINUOUS
10
0.939938
20
-0.955486
11
0.551398
21
-1.43188
0
LINE
8
BLACK
6
CONTINUOUS
10
0.551398
20
-1.43188
11
0.26279
21
-1.97468
0
LINE
8
BLACK
6
CONTINUOUS
10
0.26279
20
-1.97468
11
0.085109
21
-2.56318
0
LINE
8
BLACK
6
CONTINUOUS
10
0.085109
20
-2.56318
11
0.025
21
-3.17623
0
LINE
8
BLACK
6
CONTINUOUS
10
0.025
20
-3.17623
11
0.025
21
-73.0249
0
LINE
8
BLACK
6
CONTINUOUS
10
0.025
20
-73.0249
11
0.025073
21
-73.0458
0
LINE
8
BLACK
6
CONTINUOUS
10
0.025073
20
-73.0458
11
0.089456
21
-73.6584
0
LINE
8
BLACK
6
CONTINUOUS
10
0.089456
20
-73.6584
11
0.271241
21
-74.2456
0
LINE
8
BLACK
6
CONTINUOUS
10
0.271241
20
-74.2456
11
0.56363
21
-74.7864
0
LINE
8
BLACK
6
CONTINUOUS
10
0.56363
20
-74.7864
11
0.955486
21
-75.2601
0
LINE
8
BLACK
6
CONTINUOUS
10
0.955486
20
-75.2601
11
1.43188
21
-75.6486
0
LINE
8
BLACK
6
CONTINUOUS
10
1.43188
20
-75.6486
11
1.97468
21
-75.9372
0
LINE
8
BLACK
6
CONTINUOUS
10
1.97468
20
-75.9372
11
2.56318
21
-76.1149
0
LINE
8
BLACK
6
CONTINUOUS
10
2.56318
20
-76.1149
11
3.17623
21
-76.175
0
LINE
8
BLACK
6
CONTINUOUS
10
3.17623
20
-76.175
11
136.525
21
-76.175
0
LINE
8
BLACK
6
CONTINUOUS
10
136.525
20
-76.175
11
136.546
21
-76.1749
0
LINE
8
BLACK
6
CONTINUOUS
10
136.546
20
-76.1749
11
137.158
21
-76.1105
0
LINE
8
BLACK
6
CONTINUOUS
10
137.158
20
-76.1105
11
137.746
21
-75.9288
0
LINE
8
BLACK
6
CONTINUOUS
10
137.746
20
-75.9288
11
138.286
21
-75.6364
0
LINE
8
BLACK
6
CONTINUOUS
10
138.286
20
-75.6364
11
138.76
21
-75.2445
0
LINE
8
BLACK
6
CONTINUOUS
10
138.76
20
-75.2445
11
139.149
21
-74.7681
0
LINE
8
BLACK
6
CONTINUOUS
10
139.149
20
-74.7681
11
139.437
21
-74.2253
0
LINE
8
BLACK
6
CONTINUOUS
10
139.437
20
-74.2253
11
139.615
21
-73.6368
0
LINE
8
BLACK
6
CONTINUOUS
10
139.615
20
-73.6368
11
139.675
21
-73.0238
0
LINE
8
BLACK
6
CONTINUOUS
10
139.675
20
-73.0238
11
139.675
21
-3.1751
0
LINE
8
BLACK
6
CONTINUOUS
10
139.675
20
-3.1751
11
139.675
21
-3.17509
0
LINE
8
BLACK
6
CONTINUOUS
10
139.675
20
-3.17509
11
139.675
21
-3.15419
0
LINE
8
BLACK
6
CONTINUOUS
10
139.675
20
-3.15419
11
139.611
21
-2.54163
0
LINE
8
BLACK
6
CONTINUOUS
10
139.611
20
-2.54163
11
139.429
21
-1.95437
0
LINE
8
BLACK
6
CONTINUOUS
10
139.429
20
-1.95437
11
139.136
21
-1.41361
0
LINE
8
BLACK
6
CONTINUOUS
10
139.136
20
-1.41361
11
138.745
21
-0.939938
0
LINE
8
BLACK
6
CONTINUOUS
10
138.745
20
-0.939938
11
138.268
21
-0.551398
0
LINE
8
BLACK
6
CONTINUOUS
10
138.268
20
-0.551398
11
137.725
21
-0.26279
0
LINE
8
BLACK
6
CONTINUOUS
10
137.725
20
-0.26279
11
137.137
21
-0.085109
0
LINE
8
BLACK
6
CONTINUOUS
10
137.137
20
-0.085109
11
136.524
21
-0.025
0
LINE
8
BLACK
6
CONTINUOUS
10
136.524
20
-0.025
11
3.17509
21
-0.025
  0
ENDSEC
  0
EOF
