  0
SECTION
  2
HEADER
  9
$ANGBASE
  50
0.0
  9
$ANGDIR
  70
  1
  9
$MEASUREMENT
  70
0
  0
ENDSEC
  0
SECTION
  2
TABLES
  0
TABLE
  2
LTYPE
  70
4
  0
LTYPE
  5
40F
  2
CONTINUOUS
  70
0
  3
Solid line
  72
65
  73
0
  40
0.0
  0
LTYPE
  5
410
  2
DASHDOT
 70
0
  3
Dash Dot ____ _ ____ _
 72
65
 73
4
 40
2.0
 49
1.25
 49
-0.25
 49
0.25
 49
-0.25
  0
LTYPE
  5
411
  2
DASHED
 70
0
  3
Dashed __ __ __ __ __
 72
65
 73
2
 40
0.75
 49
0.5
 49
-0.25
  0
LTYPE
  5
43B
  2
DOTTED
 70
0
  3
Dotted .  .  .  .
 72
65
 73
2
 40
0.2
 49
0.0
 49
-0.2
  0
ENDTAB
  0
TABLE
  2
STYLE
  70
4
  0
STYLE
  2
KICAD
  70
0
  40
0
  41
1
  42
1
  50
0
  71
0
  3
isocp.shx
  0
STYLE
  2
KICADB
  70
0
  40
0
  41
1
  42
1
  50
0
  71
0
  3
isocp.shx
  0
STYLE
  2
KICADI
  70
0
  40
0
  41
1
  42
1
  50
15
  71
0
  3
isocp.shx
  0
STYLE
  2
KICADBI
  70
0
  40
0
  41
1
  42
1
  50
15
  71
0
  3
isocp.shx
  0
ENDTAB
  0
TABLE
  2
LAYER
  70
30
  0
LAYER
  2
BLACK
  70
0
  62
7
  6
CONTINUOUS
  0
LAYER
  2
GRAY1
  70
0
  62
251
  6
CONTINUOUS
  0
LAYER
  2
GRAY2
  70
0
  62
8
  6
CONTINUOUS
  0
LAYER
  2
GRAY3
  70
0
  62
9
  6
CONTINUOUS
  0
LAYER
  2
WHITE
  70
0
  62
7
  6
CONTINUOUS
  0
LAYER
  2
LYELLOW
  70
0
  62
51
  6
CONTINUOUS
  0
LAYER
  2
BLUE1
  70
0
  62
178
  6
CONTINUOUS
  0
LAYER
  2
GREEN1
  70
0
  62
98
  6
CONTINUOUS
  0
LAYER
  2
CYAN1
  70
0
  62
138
  6
CONTINUOUS
  0
LAYER
  2
RED1
  70
0
  62
18
  6
CONTINUOUS
  0
LAYER
  2
MAGENTA1
  70
0
  62
228
  6
CONTINUOUS
  0
LAYER
  2
BROWN1
  70
0
  62
58
  6
CONTINUOUS
  0
LAYER
  2
BLUE2
  70
0
  62
5
  6
CONTINUOUS
  0
LAYER
  2
GREEN2
  70
0
  62
3
  6
CONTINUOUS
  0
LAYER
  2
CYAN2
  70
0
  62
4
  6
CONTINUOUS
  0
LAYER
  2
RED2
  70
0
  62
1
  6
CONTINUOUS
  0
LAYER
  2
MAGENTA2
  70
0
  62
6
  6
CONTINUOUS
  0
LAYER
  2
BROWN2
  70
0
  62
54
  6
CONTINUOUS
  0
LAYER
  2
BLUE3
  70
0
  62
171
  6
CONTINUOUS
  0
LAYER
  2
GREEN3
  70
0
  62
91
  6
CONTINUOUS
  0
LAYER
  2
CYAN3
  70
0
  62
131
  6
CONTINUOUS
  0
LAYER
  2
RED3
  70
0
  62
11
  6
CONTINUOUS
  0
LAYER
  2
MAGENTA3
  70
0
  62
221
  6
CONTINUOUS
  0
LAYER
  2
YELLOW3
  70
0
  62
2
  6
CONTINUOUS
  0
LAYER
  2
BLUE4
  70
0
  62
5
  6
CONTINUOUS
  0
LAYER
  2
GREEN4
  70
0
  62
3
  6
CONTINUOUS
  0
LAYER
  2
CYAN4
  70
0
  62
4
  6
CONTINUOUS
  0
LAYER
  2
RED4
  70
0
  62
1
  6
CONTINUOUS
  0
LAYER
  2
MAGENTA4
  70
0
  62
6
  6
CONTINUOUS
  0
LAYER
  2
YELLOW4
  70
0
  62
2
  6
CONTINUOUS
  0
ENDTAB
  0
ENDSEC
  0
SECTION
  2
ENTITIES
0
ARC
8
BLACK
10
136.525
20
-3.175
40
3.175
50
-0
51
90
0
ARC
8
BLACK
10
136.525
20
-73.025
40
3.175
50
-90
51
-0
0
ARC
8
BLACK
10
3.175
20
-73.025
40
3.175
50
180
51
270
0
ARC
8
BLACK
10
3.175
20
-3.175
40
3.175
50
90
51
180
0
LINE
8
BLACK
6
CONTINUOUS
10
136.525
20
0
11
3.175
21
0
0
LINE
8
BLACK
6
CONTINUOUS
10
139.7
20
-73.025
11
139.7
21
-3.175
0
LINE
8
BLACK
6
CONTINUOUS
10
3.175
20
-76.2
11
136.525
21
-76.2
0
LINE
8
BLACK
6
CONTINUOUS
10
0
20
-3.175
11
0
21
-73.025
0
LINE
8
BLACK
6
CONTINUOUS
10
90.24
20
-31.34
11
92.34
21
-33.44
0
LINE
8
BLACK
6
CONTINUOUS
10
92.34
20
-31.34
11
90.24
21
-33.44
0
LINE
8
BLACK
6
CONTINUOUS
10
103.24
20
-19.24
11
105.34
21
-21.34
0
LINE
8
BLACK
6
CONTINUOUS
10
105.34
20
-19.24
11
103.24
21
-21.34
0
LINE
8
BLACK
6
CONTINUOUS
10
63.57
20
-31.34
11
65.67
21
-33.44
0
LINE
8
BLACK
6
CONTINUOUS
10
65.67
20
-31.34
11
63.57
21
-33.44
0
LINE
8
BLACK
6
CONTINUOUS
10
76.57
20
-19.24
11
78.67
21
-21.34
0
LINE
8
BLACK
6
CONTINUOUS
10
78.67
20
-19.24
11
76.57
21
-21.34
0
LINE
8
BLACK
6
CONTINUOUS
10
116.91
20
-31.34
11
119.01
21
-33.44
0
LINE
8
BLACK
6
CONTINUOUS
10
119.01
20
-31.34
11
116.91
21
-33.44
0
LINE
8
BLACK
6
CONTINUOUS
10
129.91
20
-19.24
11
132.01
21
-21.34
0
LINE
8
BLACK
6
CONTINUOUS
10
132.01
20
-19.24
11
129.91
21
-21.34
0
CIRCLE
8
BLACK
10
3.175
20
-73.025
40
1.6
0
CIRCLE
8
BLACK
10
136.525
20
-73.025
40
1.6
0
CIRCLE
8
BLACK
10
3.175
20
-3.175
40
1.6
0
CIRCLE
8
BLACK
10
136.525
20
-3.175
40
1.6
0
LINE
8
BLACK
6
CONTINUOUS
10
2.83928
20
-80.8821
11
2.83928
21
-77.8821
0
LINE
8
BLACK
6
CONTINUOUS
10
2.83928
20
-77.8821
11
3.55357
21
-77.8821
0
LINE
8
BLACK
6
CONTINUOUS
10
3.55357
20
-77.8821
11
3.98214
21
-78.025
0
LINE
8
BLACK
6
CONTINUOUS
10
3.98214
20
-78.025
11
4.26786
21
-78.3107
0
LINE
8
BLACK
6
CONTINUOUS
10
4.26786
20
-78.3107
11
4.41071
21
-78.5964
0
LINE
8
BLACK
6
CONTINUOUS
10
4.41071
20
-78.5964
11
4.55357
21
-79.1679
0
LINE
8
BLACK
6
CONTINUOUS
10
4.55357
20
-79.1679
11
4.55357
21
-79.5964
0
LINE
8
BLACK
6
CONTINUOUS
10
4.55357
20
-79.5964
11
4.41071
21
-80.1679
0
LINE
8
BLACK
6
CONTINUOUS
10
4.41071
20
-80.1679
11
4.26786
21
-80.4536
0
LINE
8
BLACK
6
CONTINUOUS
10
4.26786
20
-80.4536
11
3.98214
21
-80.7393
0
LINE
8
BLACK
6
CONTINUOUS
10
3.98214
20
-80.7393
11
3.55357
21
-80.8821
0
LINE
8
BLACK
6
CONTINUOUS
10
3.55357
20
-80.8821
11
2.83928
21
-80.8821
0
LINE
8
BLACK
6
CONTINUOUS
10
5.83928
20
-80.8821
11
5.83928
21
-78.8821
0
LINE
8
BLACK
6
CONTINUOUS
10
5.83928
20
-79.4536
11
5.98214
21
-79.1679
0
LINE
8
BLACK
6
CONTINUOUS
10
5.98214
20
-79.1679
11
6.125
21
-79.025
0
LINE
8
BLACK
6
CONTINUOUS
10
6.125
20
-79.025
11
6.41071
21
-78.8821
0
LINE
8
BLACK
6
CONTINUOUS
10
6.41071
20
-78.8821
11
6.69643
21
-78.8821
0
LINE
8
BLACK
6
CONTINUOUS
10
7.69643
20
-80.8821
11
7.69643
21
-78.8821
0
LINE
8
BLACK
6
CONTINUOUS
10
7.69643
20
-77.8821
11
7.55357
21
-78.025
0
LINE
8
BLACK
6
CONTINUOUS
10
7.55357
20
-78.025
11
7.69643
21
-78.1679
0
LINE
8
BLACK
6
CONTINUOUS
10
7.69643
20
-78.1679
11
7.83928
21
-78.025
0
LINE
8
BLACK
6
CONTINUOUS
10
7.83928
20
-78.025
11
7.69643
21
-77.8821
0
LINE
8
BLACK
6
CONTINUOUS
10
7.69643
20
-77.8821
11
7.69643
21
-78.1679
0
LINE
8
BLACK
6
CONTINUOUS
10
9.55357
20
-80.8821
11
9.26786
21
-80.7393
0
LINE
8
BLACK
6
CONTINUOUS
10
9.26786
20
-80.7393
11
9.125
21
-80.4536
0
LINE
8
BLACK
6
CONTINUOUS
10
9.125
20
-80.4536
11
9.125
21
-77.8821
0
LINE
8
BLACK
6
CONTINUOUS
10
11.125
20
-80.8821
11
10.8393
21
-80.7393
0
LINE
8
BLACK
6
CONTINUOUS
10
10.8393
20
-80.7393
11
10.6964
21
-80.4536
0
LINE
8
BLACK
6
CONTINUOUS
10
10.6964
20
-80.4536
11
10.6964
21
-77.8821
0
LINE
8
BLACK
6
CONTINUOUS
10
14.5536
20
-80.8821
11
14.5536
21
-77.8821
0
LINE
8
BLACK
6
CONTINUOUS
10
14.5536
20
-77.8821
11
15.5536
21
-80.025
0
LINE
8
BLACK
6
CONTINUOUS
10
15.5536
20
-80.025
11
16.5536
21
-77.8821
0
LINE
8
BLACK
6
CONTINUOUS
10
16.5536
20
-77.8821
11
16.5536
21
-80.8821
0
LINE
8
BLACK
6
CONTINUOUS
10
19.2679
20
-80.8821
11
19.2679
21
-79.3107
0
LINE
8
BLACK
6
CONTINUOUS
10
19.2679
20
-79.3107
11
19.125
21
-79.025
0
LINE
8
BLACK
6
CONTINUOUS
10
19.125
20
-79.025
11
18.8393
21
-78.8821
0
LINE
8
BLACK
6
CONTINUOUS
10
18.8393
20
-78.8821
11
18.2679
21
-78.8821
0
LINE
8
BLACK
6
CONTINUOUS
10
18.2679
20
-78.8821
11
17.9821
21
-79.025
0
LINE
8
BLACK
6
CONTINUOUS
10
19.2679
20
-80.7393
11
18.9821
21
-80.8821
0
LINE
8
BLACK
6
CONTINUOUS
10
18.9821
20
-80.8821
11
18.2679
21
-80.8821
0
LINE
8
BLACK
6
CONTINUOUS
10
18.2679
20
-80.8821
11
17.9821
21
-80.7393
0
LINE
8
BLACK
6
CONTINUOUS
10
17.9821
20
-80.7393
11
17.8393
21
-80.4536
0
LINE
8
BLACK
6
CONTINUOUS
10
17.8393
20
-80.4536
11
17.8393
21
-80.1679
0
LINE
8
BLACK
6
CONTINUOUS
10
17.8393
20
-80.1679
11
17.9821
21
-79.8821
0
LINE
8
BLACK
6
CONTINUOUS
10
17.9821
20
-79.8821
11
18.2679
21
-79.7393
0
LINE
8
BLACK
6
CONTINUOUS
10
18.2679
20
-79.7393
11
18.9821
21
-79.7393
0
LINE
8
BLACK
6
CONTINUOUS
10
18.9821
20
-79.7393
11
19.2679
21
-79.5964
0
LINE
8
BLACK
6
CONTINUOUS
10
20.6964
20
-78.8821
11
20.6964
21
-81.8821
0
LINE
8
BLACK
6
CONTINUOUS
10
20.6964
20
-79.025
11
20.9821
21
-78.8821
0
LINE
8
BLACK
6
CONTINUOUS
10
20.9821
20
-78.8821
11
21.5536
21
-78.8821
0
LINE
8
BLACK
6
CONTINUOUS
10
21.5536
20
-78.8821
11
21.8393
21
-79.025
0
LINE
8
BLACK
6
CONTINUOUS
10
21.8393
20
-79.025
11
21.9821
21
-79.1679
0
LINE
8
BLACK
6
CONTINUOUS
10
21.9821
20
-79.1679
11
22.125
21
-79.4536
0
LINE
8
BLACK
6
CONTINUOUS
10
22.125
20
-79.4536
11
22.125
21
-80.3107
0
LINE
8
BLACK
6
CONTINUOUS
10
22.125
20
-80.3107
11
21.9821
21
-80.5964
0
LINE
8
BLACK
6
CONTINUOUS
10
21.9821
20
-80.5964
11
21.8393
21
-80.7393
0
LINE
8
BLACK
6
CONTINUOUS
10
21.8393
20
-80.7393
11
21.5536
21
-80.8821
0
LINE
8
BLACK
6
CONTINUOUS
10
21.5536
20
-80.8821
11
20.9821
21
-80.8821
0
LINE
8
BLACK
6
CONTINUOUS
10
20.9821
20
-80.8821
11
20.6964
21
-80.7393
0
LINE
8
BLACK
6
CONTINUOUS
10
23.4107
20
-80.5964
11
23.5536
21
-80.7393
0
LINE
8
BLACK
6
CONTINUOUS
10
23.5536
20
-80.7393
11
23.4107
21
-80.8821
0
LINE
8
BLACK
6
CONTINUOUS
10
23.4107
20
-80.8821
11
23.2679
21
-80.7393
0
LINE
8
BLACK
6
CONTINUOUS
10
23.2679
20
-80.7393
11
23.4107
21
-80.5964
0
LINE
8
BLACK
6
CONTINUOUS
10
23.4107
20
-80.5964
11
23.4107
21
-80.8821
0
LINE
8
BLACK
6
CONTINUOUS
10
23.4107
20
-79.025
11
23.5536
21
-79.1679
0
LINE
8
BLACK
6
CONTINUOUS
10
23.5536
20
-79.1679
11
23.4107
21
-79.3107
0
LINE
8
BLACK
6
CONTINUOUS
10
23.4107
20
-79.3107
11
23.2679
21
-79.1679
0
LINE
8
BLACK
6
CONTINUOUS
10
23.2679
20
-79.1679
11
23.4107
21
-79.025
0
LINE
8
BLACK
6
CONTINUOUS
10
23.4107
20
-79.025
11
23.4107
21
-79.3107
0
LINE
8
BLACK
6
CONTINUOUS
10
-2.125
20
-84.775
11
-0.025001
21
-86.875
0
LINE
8
BLACK
6
CONTINUOUS
10
-0.025001
20
-84.775
11
-2.125
21
-86.875
0
LINE
8
BLACK
6
CONTINUOUS
10
2.69643
20
-84.4679
11
2.83928
21
-84.325
0
LINE
8
BLACK
6
CONTINUOUS
10
2.83928
20
-84.325
11
3.125
21
-84.1821
0
LINE
8
BLACK
6
CONTINUOUS
10
3.125
20
-84.1821
11
3.83928
21
-84.1821
0
LINE
8
BLACK
6
CONTINUOUS
10
3.83928
20
-84.1821
11
4.125
21
-84.325
0
LINE
8
BLACK
6
CONTINUOUS
10
4.125
20
-84.325
11
4.26786
21
-84.4679
0
LINE
8
BLACK
6
CONTINUOUS
10
4.26786
20
-84.4679
11
4.41071
21
-84.7536
0
LINE
8
BLACK
6
CONTINUOUS
10
4.41071
20
-84.7536
11
4.41071
21
-85.0393
0
LINE
8
BLACK
6
CONTINUOUS
10
4.41071
20
-85.0393
11
4.26786
21
-85.4679
0
LINE
8
BLACK
6
CONTINUOUS
10
4.26786
20
-85.4679
11
2.55357
21
-87.1821
0
LINE
8
BLACK
6
CONTINUOUS
10
2.55357
20
-87.1821
11
4.41071
21
-87.1821
0
LINE
8
BLACK
6
CONTINUOUS
10
5.69643
20
-86.8964
11
5.83928
21
-87.0393
0
LINE
8
BLACK
6
CONTINUOUS
10
5.83928
20
-87.0393
11
5.69643
21
-87.1821
0
LINE
8
BLACK
6
CONTINUOUS
10
5.69643
20
-87.1821
11
5.55357
21
-87.0393
0
LINE
8
BLACK
6
CONTINUOUS
10
5.55357
20
-87.0393
11
5.69643
21
-86.8964
0
LINE
8
BLACK
6
CONTINUOUS
10
5.69643
20
-86.8964
11
5.69643
21
-87.1821
0
LINE
8
BLACK
6
CONTINUOUS
10
8.69643
20
-87.1821
11
6.98214
21
-87.1821
0
LINE
8
BLACK
6
CONTINUOUS
10
7.83928
20
-87.1821
11
7.83928
21
-84.1821
0
LINE
8
BLACK
6
CONTINUOUS
10
7.83928
20
-84.1821
11
7.55357
21
-84.6107
0
LINE
8
BLACK
6
CONTINUOUS
10
7.55357
20
-84.6107
11
7.26786
21
-84.8964
0
LINE
8
BLACK
6
CONTINUOUS
10
7.26786
20
-84.8964
11
6.98214
21
-85.0393
0
LINE
8
BLACK
6
CONTINUOUS
10
10.5536
20
-84.1821
11
10.8393
21
-84.1821
0
LINE
8
BLACK
6
CONTINUOUS
10
10.8393
20
-84.1821
11
11.125
21
-84.325
0
LINE
8
BLACK
6
CONTINUOUS
10
11.125
20
-84.325
11
11.2679
21
-84.4679
0
LINE
8
BLACK
6
CONTINUOUS
10
11.2679
20
-84.4679
11
11.4107
21
-84.7536
0
LINE
8
BLACK
6
CONTINUOUS
10
11.4107
20
-84.7536
11
11.5536
21
-85.325
0
LINE
8
BLACK
6
CONTINUOUS
10
11.5536
20
-85.325
11
11.5536
21
-86.0393
0
LINE
8
BLACK
6
CONTINUOUS
10
11.5536
20
-86.0393
11
11.4107
21
-86.6107
0
LINE
8
BLACK
6
CONTINUOUS
10
11.4107
20
-86.6107
11
11.2679
21
-86.8964
0
LINE
8
BLACK
6
CONTINUOUS
10
11.2679
20
-86.8964
11
11.125
21
-87.0393
0
LINE
8
BLACK
6
CONTINUOUS
10
11.125
20
-87.0393
11
10.8393
21
-87.1821
0
LINE
8
BLACK
6
CONTINUOUS
10
10.8393
20
-87.1821
11
10.5536
21
-87.1821
0
LINE
8
BLACK
6
CONTINUOUS
10
10.5536
20
-87.1821
11
10.2679
21
-87.0393
0
LINE
8
BLACK
6
CONTINUOUS
10
10.2679
20
-87.0393
11
10.125
21
-86.8964
0
LINE
8
BLACK
6
CONTINUOUS
10
10.125
20
-86.8964
11
9.98214
21
-86.6107
0
LINE
8
BLACK
6
CONTINUOUS
10
9.98214
20
-86.6107
11
9.83928
21
-86.0393
0
LINE
8
BLACK
6
CONTINUOUS
10
9.83928
20
-86.0393
11
9.83928
21
-85.325
0
LINE
8
BLACK
6
CONTINUOUS
10
9.83928
20
-85.325
11
9.98214
21
-84.7536
0
LINE
8
BLACK
6
CONTINUOUS
10
9.98214
20
-84.7536
11
10.125
21
-84.4679
0
LINE
8
BLACK
6
CONTINUOUS
10
10.125
20
-84.4679
11
10.2679
21
-84.325
0
LINE
8
BLACK
6
CONTINUOUS
10
10.2679
20
-84.325
11
10.5536
21
-84.1821
0
LINE
8
BLACK
6
CONTINUOUS
10
12.8393
20
-87.1821
11
12.8393
21
-85.1821
0
LINE
8
BLACK
6
CONTINUOUS
10
12.8393
20
-85.4679
11
12.9821
21
-85.325
0
LINE
8
BLACK
6
CONTINUOUS
10
12.9821
20
-85.325
11
13.2679
21
-85.1821
0
LINE
8
BLACK
6
CONTINUOUS
10
13.2679
20
-85.1821
11
13.6964
21
-85.1821
0
LINE
8
BLACK
6
CONTINUOUS
10
13.6964
20
-85.1821
11
13.9821
21
-85.325
0
LINE
8
BLACK
6
CONTINUOUS
10
13.9821
20
-85.325
11
14.125
21
-85.6107
0
LINE
8
BLACK
6
CONTINUOUS
10
14.125
20
-85.6107
11
14.125
21
-87.1821
0
LINE
8
BLACK
6
CONTINUOUS
10
14.125
20
-85.6107
11
14.2679
21
-85.325
0
LINE
8
BLACK
6
CONTINUOUS
10
14.2679
20
-85.325
11
14.5536
21
-85.1821
0
LINE
8
BLACK
6
CONTINUOUS
10
14.5536
20
-85.1821
11
14.9821
21
-85.1821
0
LINE
8
BLACK
6
CONTINUOUS
10
14.9821
20
-85.1821
11
15.2679
21
-85.325
0
LINE
8
BLACK
6
CONTINUOUS
10
15.2679
20
-85.325
11
15.4107
21
-85.6107
0
LINE
8
BLACK
6
CONTINUOUS
10
15.4107
20
-85.6107
11
15.4107
21
-87.1821
0
LINE
8
BLACK
6
CONTINUOUS
10
16.8393
20
-87.1821
11
16.8393
21
-85.1821
0
LINE
8
BLACK
6
CONTINUOUS
10
16.8393
20
-85.4679
11
16.9821
21
-85.325
0
LINE
8
BLACK
6
CONTINUOUS
10
16.9821
20
-85.325
11
17.2679
21
-85.1821
0
LINE
8
BLACK
6
CONTINUOUS
10
17.2679
20
-85.1821
11
17.6964
21
-85.1821
0
LINE
8
BLACK
6
CONTINUOUS
10
17.6964
20
-85.1821
11
17.9821
21
-85.325
0
LINE
8
BLACK
6
CONTINUOUS
10
17.9821
20
-85.325
11
18.125
21
-85.6107
0
LINE
8
BLACK
6
CONTINUOUS
10
18.125
20
-85.6107
11
18.125
21
-87.1821
0
LINE
8
BLACK
6
CONTINUOUS
10
18.125
20
-85.6107
11
18.2679
21
-85.325
0
LINE
8
BLACK
6
CONTINUOUS
10
18.2679
20
-85.325
11
18.5536
21
-85.1821
0
LINE
8
BLACK
6
CONTINUOUS
10
18.5536
20
-85.1821
11
18.9821
21
-85.1821
0
LINE
8
BLACK
6
CONTINUOUS
10
18.9821
20
-85.1821
11
19.2679
21
-85.325
0
LINE
8
BLACK
6
CONTINUOUS
10
19.2679
20
-85.325
11
19.4107
21
-85.6107
0
LINE
8
BLACK
6
CONTINUOUS
10
19.4107
20
-85.6107
11
19.4107
21
-87.1821
0
LINE
8
BLACK
6
CONTINUOUS
10
25.2679
20
-84.0393
11
22.6964
21
-87.8964
0
LINE
8
BLACK
6
CONTINUOUS
10
29.125
20
-84.1821
11
29.4107
21
-84.1821
0
LINE
8
BLACK
6
CONTINUOUS
10
29.4107
20
-84.1821
11
29.6964
21
-84.325
0
LINE
8
BLACK
6
CONTINUOUS
10
29.6964
20
-84.325
11
29.8393
21
-84.4679
0
LINE
8
BLACK
6
CONTINUOUS
10
29.8393
20
-84.4679
11
29.9821
21
-84.7536
0
LINE
8
BLACK
6
CONTINUOUS
10
29.9821
20
-84.7536
11
30.125
21
-85.325
0
LINE
8
BLACK
6
CONTINUOUS
10
30.125
20
-85.325
11
30.125
21
-86.0393
0
LINE
8
BLACK
6
CONTINUOUS
10
30.125
20
-86.0393
11
29.9821
21
-86.6107
0
LINE
8
BLACK
6
CONTINUOUS
10
29.9821
20
-86.6107
11
29.8393
21
-86.8964
0
LINE
8
BLACK
6
CONTINUOUS
10
29.8393
20
-86.8964
11
29.6964
21
-87.0393
0
LINE
8
BLACK
6
CONTINUOUS
10
29.6964
20
-87.0393
11
29.4107
21
-87.1821
0
LINE
8
BLACK
6
CONTINUOUS
10
29.4107
20
-87.1821
11
29.125
21
-87.1821
0
LINE
8
BLACK
6
CONTINUOUS
10
29.125
20
-87.1821
11
28.8393
21
-87.0393
0
LINE
8
BLACK
6
CONTINUOUS
10
28.8393
20
-87.0393
11
28.6964
21
-86.8964
0
LINE
8
BLACK
6
CONTINUOUS
10
28.6964
20
-86.8964
11
28.5536
21
-86.6107
0
LINE
8
BLACK
6
CONTINUOUS
10
28.5536
20
-86.6107
11
28.4107
21
-86.0393
0
LINE
8
BLACK
6
CONTINUOUS
10
28.4107
20
-86.0393
11
28.4107
21
-85.325
0
LINE
8
BLACK
6
CONTINUOUS
10
28.4107
20
-85.325
11
28.5536
21
-84.7536
0
LINE
8
BLACK
6
CONTINUOUS
10
28.5536
20
-84.7536
11
28.6964
21
-84.4679
0
LINE
8
BLACK
6
CONTINUOUS
10
28.6964
20
-84.4679
11
28.8393
21
-84.325
0
LINE
8
BLACK
6
CONTINUOUS
10
28.8393
20
-84.325
11
29.125
21
-84.1821
0
LINE
8
BLACK
6
CONTINUOUS
10
31.4107
20
-86.8964
11
31.5536
21
-87.0393
0
LINE
8
BLACK
6
CONTINUOUS
10
31.5536
20
-87.0393
11
31.4107
21
-87.1821
0
LINE
8
BLACK
6
CONTINUOUS
10
31.4107
20
-87.1821
11
31.2679
21
-87.0393
0
LINE
8
BLACK
6
CONTINUOUS
10
31.2679
20
-87.0393
11
31.4107
21
-86.8964
0
LINE
8
BLACK
6
CONTINUOUS
10
31.4107
20
-86.8964
11
31.4107
21
-87.1821
0
LINE
8
BLACK
6
CONTINUOUS
10
33.4107
20
-84.1821
11
33.6964
21
-84.1821
0
LINE
8
BLACK
6
CONTINUOUS
10
33.6964
20
-84.1821
11
33.9821
21
-84.325
0
LINE
8
BLACK
6
CONTINUOUS
10
33.9821
20
-84.325
11
34.125
21
-84.4679
0
LINE
8
BLACK
6
CONTINUOUS
10
34.125
20
-84.4679
11
34.2679
21
-84.7536
0
LINE
8
BLACK
6
CONTINUOUS
10
34.2679
20
-84.7536
11
34.4107
21
-85.325
0
LINE
8
BLACK
6
CONTINUOUS
10
34.4107
20
-85.325
11
34.4107
21
-86.0393
0
LINE
8
BLACK
6
CONTINUOUS
10
34.4107
20
-86.0393
11
34.2679
21
-86.6107
0
LINE
8
BLACK
6
CONTINUOUS
10
34.2679
20
-86.6107
11
34.125
21
-86.8964
0
LINE
8
BLACK
6
CONTINUOUS
10
34.125
20
-86.8964
11
33.9821
21
-87.0393
0
LINE
8
BLACK
6
CONTINUOUS
10
33.9821
20
-87.0393
11
33.6964
21
-87.1821
0
LINE
8
BLACK
6
CONTINUOUS
10
33.6964
20
-87.1821
11
33.4107
21
-87.1821
0
LINE
8
BLACK
6
CONTINUOUS
10
33.4107
20
-87.1821
11
33.125
21
-87.0393
0
LINE
8
BLACK
6
CONTINUOUS
10
33.125
20
-87.0393
11
32.9821
21
-86.8964
0
LINE
8
BLACK
6
CONTINUOUS
10
32.9821
20
-86.8964
11
32.8393
21
-86.6107
0
LINE
8
BLACK
6
CONTINUOUS
10
32.8393
20
-86.6107
11
32.6964
21
-86.0393
0
LINE
8
BLACK
6
CONTINUOUS
10
32.6964
20
-86.0393
11
32.6964
21
-85.325
0
LINE
8
BLACK
6
CONTINUOUS
10
32.6964
20
-85.325
11
32.8393
21
-84.7536
0
LINE
8
BLACK
6
CONTINUOUS
10
32.8393
20
-84.7536
11
32.9821
21
-84.4679
0
LINE
8
BLACK
6
CONTINUOUS
10
32.9821
20
-84.4679
11
33.125
21
-84.325
0
LINE
8
BLACK
6
CONTINUOUS
10
33.125
20
-84.325
11
33.4107
21
-84.1821
0
LINE
8
BLACK
6
CONTINUOUS
10
36.125
20
-85.4679
11
35.8393
21
-85.325
0
LINE
8
BLACK
6
CONTINUOUS
10
35.8393
20
-85.325
11
35.6964
21
-85.1821
0
LINE
8
BLACK
6
CONTINUOUS
10
35.6964
20
-85.1821
11
35.5536
21
-84.8964
0
LINE
8
BLACK
6
CONTINUOUS
10
35.5536
20
-84.8964
11
35.5536
21
-84.7536
0
LINE
8
BLACK
6
CONTINUOUS
10
35.5536
20
-84.7536
11
35.6964
21
-84.4679
0
LINE
8
BLACK
6
CONTINUOUS
10
35.6964
20
-84.4679
11
35.8393
21
-84.325
0
LINE
8
BLACK
6
CONTINUOUS
10
35.8393
20
-84.325
11
36.125
21
-84.1821
0
LINE
8
BLACK
6
CONTINUOUS
10
36.125
20
-84.1821
11
36.6964
21
-84.1821
0
LINE
8
BLACK
6
CONTINUOUS
10
36.6964
20
-84.1821
11
36.9821
21
-84.325
0
LINE
8
BLACK
6
CONTINUOUS
10
36.9821
20
-84.325
11
37.125
21
-84.4679
0
LINE
8
BLACK
6
CONTINUOUS
10
37.125
20
-84.4679
11
37.2679
21
-84.7536
0
LINE
8
BLACK
6
CONTINUOUS
10
37.2679
20
-84.7536
11
37.2679
21
-84.8964
0
LINE
8
BLACK
6
CONTINUOUS
10
37.2679
20
-84.8964
11
37.125
21
-85.1821
0
LINE
8
BLACK
6
CONTINUOUS
10
37.125
20
-85.1821
11
36.9821
21
-85.325
0
LINE
8
BLACK
6
CONTINUOUS
10
36.9821
20
-85.325
11
36.6964
21
-85.4679
0
LINE
8
BLACK
6
CONTINUOUS
10
36.6964
20
-85.4679
11
36.125
21
-85.4679
0
LINE
8
BLACK
6
CONTINUOUS
10
36.125
20
-85.4679
11
35.8393
21
-85.6107
0
LINE
8
BLACK
6
CONTINUOUS
10
35.8393
20
-85.6107
11
35.6964
21
-85.7536
0
LINE
8
BLACK
6
CONTINUOUS
10
35.6964
20
-85.7536
11
35.5536
21
-86.0393
0
LINE
8
BLACK
6
CONTINUOUS
10
35.5536
20
-86.0393
11
35.5536
21
-86.6107
0
LINE
8
BLACK
6
CONTINUOUS
10
35.5536
20
-86.6107
11
35.6964
21
-86.8964
0
LINE
8
BLACK
6
CONTINUOUS
10
35.6964
20
-86.8964
11
35.8393
21
-87.0393
0
LINE
8
BLACK
6
CONTINUOUS
10
35.8393
20
-87.0393
11
36.125
21
-87.1821
0
LINE
8
BLACK
6
CONTINUOUS
10
36.125
20
-87.1821
11
36.6964
21
-87.1821
0
LINE
8
BLACK
6
CONTINUOUS
10
36.6964
20
-87.1821
11
36.9821
21
-87.0393
0
LINE
8
BLACK
6
CONTINUOUS
10
36.9821
20
-87.0393
11
37.125
21
-86.8964
0
LINE
8
BLACK
6
CONTINUOUS
10
37.125
20
-86.8964
11
37.2679
21
-86.6107
0
LINE
8
BLACK
6
CONTINUOUS
10
37.2679
20
-86.6107
11
37.2679
21
-86.0393
0
LINE
8
BLACK
6
CONTINUOUS
10
37.2679
20
-86.0393
11
37.125
21
-85.7536
0
LINE
8
BLACK
6
CONTINUOUS
10
37.125
20
-85.7536
11
36.9821
21
-85.6107
0
LINE
8
BLACK
6
CONTINUOUS
10
36.9821
20
-85.6107
11
36.6964
21
-85.4679
0
LINE
8
BLACK
6
CONTINUOUS
10
38.2679
20
-84.1821
11
40.125
21
-84.1821
0
LINE
8
BLACK
6
CONTINUOUS
10
40.125
20
-84.1821
11
39.125
21
-85.325
0
LINE
8
BLACK
6
CONTINUOUS
10
39.125
20
-85.325
11
39.5536
21
-85.325
0
LINE
8
BLACK
6
CONTINUOUS
10
39.5536
20
-85.325
11
39.8393
21
-85.4679
0
LINE
8
BLACK
6
CONTINUOUS
10
39.8393
20
-85.4679
11
39.9821
21
-85.6107
0
LINE
8
BLACK
6
CONTINUOUS
10
39.9821
20
-85.6107
11
40.125
21
-85.8964
0
LINE
8
BLACK
6
CONTINUOUS
10
40.125
20
-85.8964
11
40.125
21
-86.6107
0
LINE
8
BLACK
6
CONTINUOUS
10
40.125
20
-86.6107
11
39.9821
21
-86.8964
0
LINE
8
BLACK
6
CONTINUOUS
10
39.9821
20
-86.8964
11
39.8393
21
-87.0393
0
LINE
8
BLACK
6
CONTINUOUS
10
39.8393
20
-87.0393
11
39.5536
21
-87.1821
0
LINE
8
BLACK
6
CONTINUOUS
10
39.5536
20
-87.1821
11
38.6964
21
-87.1821
0
LINE
8
BLACK
6
CONTINUOUS
10
38.6964
20
-87.1821
11
38.4107
21
-87.0393
0
LINE
8
BLACK
6
CONTINUOUS
10
38.4107
20
-87.0393
11
38.2679
21
-86.8964
0
LINE
8
BLACK
6
CONTINUOUS
10
41.2679
20
-84.1821
11
41.2679
21
-84.7536
0
LINE
8
BLACK
6
CONTINUOUS
10
42.4107
20
-84.1821
11
42.4107
21
-84.7536
0
LINE
8
BLACK
6
CONTINUOUS
10
46.8393
20
-88.325
11
46.6964
21
-88.1821
0
LINE
8
BLACK
6
CONTINUOUS
10
46.6964
20
-88.1821
11
46.4107
21
-87.7536
0
LINE
8
BLACK
6
CONTINUOUS
10
46.4107
20
-87.7536
11
46.2679
21
-87.4679
0
LINE
8
BLACK
6
CONTINUOUS
10
46.2679
20
-87.4679
11
46.125
21
-87.0393
0
LINE
8
BLACK
6
CONTINUOUS
10
46.125
20
-87.0393
11
45.9821
21
-86.325
0
LINE
8
BLACK
6
CONTINUOUS
10
45.9821
20
-86.325
11
45.9821
21
-85.7536
0
LINE
8
BLACK
6
CONTINUOUS
10
45.9821
20
-85.7536
11
46.125
21
-85.0393
0
LINE
8
BLACK
6
CONTINUOUS
10
46.125
20
-85.0393
11
46.2679
21
-84.6107
0
LINE
8
BLACK
6
CONTINUOUS
10
46.2679
20
-84.6107
11
46.4107
21
-84.325
0
LINE
8
BLACK
6
CONTINUOUS
10
46.4107
20
-84.325
11
46.6964
21
-83.8964
0
LINE
8
BLACK
6
CONTINUOUS
10
46.6964
20
-83.8964
11
46.8393
21
-83.7536
0
LINE
8
BLACK
6
CONTINUOUS
10
49.2679
20
-84.1821
11
48.6964
21
-84.1821
0
LINE
8
BLACK
6
CONTINUOUS
10
48.6964
20
-84.1821
11
48.4107
21
-84.325
0
LINE
8
BLACK
6
CONTINUOUS
10
48.4107
20
-84.325
11
48.2679
21
-84.4679
0
LINE
8
BLACK
6
CONTINUOUS
10
48.2679
20
-84.4679
11
47.9821
21
-84.8964
0
LINE
8
BLACK
6
CONTINUOUS
10
47.9821
20
-84.8964
11
47.8393
21
-85.4679
0
LINE
8
BLACK
6
CONTINUOUS
10
47.8393
20
-85.4679
11
47.8393
21
-86.6107
0
LINE
8
BLACK
6
CONTINUOUS
10
47.8393
20
-86.6107
11
47.9821
21
-86.8964
0
LINE
8
BLACK
6
CONTINUOUS
10
47.9821
20
-86.8964
11
48.125
21
-87.0393
0
LINE
8
BLACK
6
CONTINUOUS
10
48.125
20
-87.0393
11
48.4107
21
-87.1821
0
LINE
8
BLACK
6
CONTINUOUS
10
48.4107
20
-87.1821
11
48.9821
21
-87.1821
0
LINE
8
BLACK
6
CONTINUOUS
10
48.9821
20
-87.1821
11
49.2679
21
-87.0393
0
LINE
8
BLACK
6
CONTINUOUS
10
49.2679
20
-87.0393
11
49.4107
21
-86.8964
0
LINE
8
BLACK
6
CONTINUOUS
10
49.4107
20
-86.8964
11
49.5536
21
-86.6107
0
LINE
8
BLACK
6
CONTINUOUS
10
49.5536
20
-86.6107
11
49.5536
21
-85.8964
0
LINE
8
BLACK
6
CONTINUOUS
10
49.5536
20
-85.8964
11
49.4107
21
-85.6107
0
LINE
8
BLACK
6
CONTINUOUS
10
49.4107
20
-85.6107
11
49.2679
21
-85.4679
0
LINE
8
BLACK
6
CONTINUOUS
10
49.2679
20
-85.4679
11
48.9821
21
-85.325
0
LINE
8
BLACK
6
CONTINUOUS
10
48.9821
20
-85.325
11
48.4107
21
-85.325
0
LINE
8
BLACK
6
CONTINUOUS
10
48.4107
20
-85.325
11
48.125
21
-85.4679
0
LINE
8
BLACK
6
CONTINUOUS
10
48.125
20
-85.4679
11
47.9821
21
-85.6107
0
LINE
8
BLACK
6
CONTINUOUS
10
47.9821
20
-85.6107
11
47.8393
21
-85.8964
0
LINE
8
BLACK
6
CONTINUOUS
10
53.125
20
-87.1821
11
53.125
21
-84.1821
0
LINE
8
BLACK
6
CONTINUOUS
10
54.4107
20
-87.1821
11
54.4107
21
-85.6107
0
LINE
8
BLACK
6
CONTINUOUS
10
54.4107
20
-85.6107
11
54.2679
21
-85.325
0
LINE
8
BLACK
6
CONTINUOUS
10
54.2679
20
-85.325
11
53.9821
21
-85.1821
0
LINE
8
BLACK
6
CONTINUOUS
10
53.9821
20
-85.1821
11
53.5536
21
-85.1821
0
LINE
8
BLACK
6
CONTINUOUS
10
53.5536
20
-85.1821
11
53.2679
21
-85.325
0
LINE
8
BLACK
6
CONTINUOUS
10
53.2679
20
-85.325
11
53.125
21
-85.4679
0
LINE
8
BLACK
6
CONTINUOUS
10
56.2679
20
-87.1821
11
55.9821
21
-87.0393
0
LINE
8
BLACK
6
CONTINUOUS
10
55.9821
20
-87.0393
11
55.8393
21
-86.8964
0
LINE
8
BLACK
6
CONTINUOUS
10
55.8393
20
-86.8964
11
55.6964
21
-86.6107
0
LINE
8
BLACK
6
CONTINUOUS
10
55.6964
20
-86.6107
11
55.6964
21
-85.7536
0
LINE
8
BLACK
6
CONTINUOUS
10
55.6964
20
-85.7536
11
55.8393
21
-85.4679
0
LINE
8
BLACK
6
CONTINUOUS
10
55.8393
20
-85.4679
11
55.9821
21
-85.325
0
LINE
8
BLACK
6
CONTINUOUS
10
55.9821
20
-85.325
11
56.2679
21
-85.1821
0
LINE
8
BLACK
6
CONTINUOUS
10
56.2679
20
-85.1821
11
56.6964
21
-85.1821
0
LINE
8
BLACK
6
CONTINUOUS
10
56.6964
20
-85.1821
11
56.9821
21
-85.325
0
LINE
8
BLACK
6
CONTINUOUS
10
56.9821
20
-85.325
11
57.125
21
-85.4679
0
LINE
8
BLACK
6
CONTINUOUS
10
57.125
20
-85.4679
11
57.2679
21
-85.7536
0
LINE
8
BLACK
6
CONTINUOUS
10
57.2679
20
-85.7536
11
57.2679
21
-86.6107
0
LINE
8
BLACK
6
CONTINUOUS
10
57.2679
20
-86.6107
11
57.125
21
-86.8964
0
LINE
8
BLACK
6
CONTINUOUS
10
57.125
20
-86.8964
11
56.9821
21
-87.0393
0
LINE
8
BLACK
6
CONTINUOUS
10
56.9821
20
-87.0393
11
56.6964
21
-87.1821
0
LINE
8
BLACK
6
CONTINUOUS
10
56.6964
20
-87.1821
11
56.2679
21
-87.1821
0
LINE
8
BLACK
6
CONTINUOUS
10
58.9821
20
-87.1821
11
58.6964
21
-87.0393
0
LINE
8
BLACK
6
CONTINUOUS
10
58.6964
20
-87.0393
11
58.5536
21
-86.7536
0
LINE
8
BLACK
6
CONTINUOUS
10
58.5536
20
-86.7536
11
58.5536
21
-84.1821
0
LINE
8
BLACK
6
CONTINUOUS
10
61.2679
20
-87.0393
11
60.9821
21
-87.1821
0
LINE
8
BLACK
6
CONTINUOUS
10
60.9821
20
-87.1821
11
60.4107
21
-87.1821
0
LINE
8
BLACK
6
CONTINUOUS
10
60.4107
20
-87.1821
11
60.125
21
-87.0393
0
LINE
8
BLACK
6
CONTINUOUS
10
60.125
20
-87.0393
11
59.9821
21
-86.7536
0
LINE
8
BLACK
6
CONTINUOUS
10
59.9821
20
-86.7536
11
59.9821
21
-85.6107
0
LINE
8
BLACK
6
CONTINUOUS
10
59.9821
20
-85.6107
11
60.125
21
-85.325
0
LINE
8
BLACK
6
CONTINUOUS
10
60.125
20
-85.325
11
60.4107
21
-85.1821
0
LINE
8
BLACK
6
CONTINUOUS
10
60.4107
20
-85.1821
11
60.9821
21
-85.1821
0
LINE
8
BLACK
6
CONTINUOUS
10
60.9821
20
-85.1821
11
61.2679
21
-85.325
0
LINE
8
BLACK
6
CONTINUOUS
10
61.2679
20
-85.325
11
61.4107
21
-85.6107
0
LINE
8
BLACK
6
CONTINUOUS
10
61.4107
20
-85.6107
11
61.4107
21
-85.8964
0
LINE
8
BLACK
6
CONTINUOUS
10
61.4107
20
-85.8964
11
59.9821
21
-86.1821
0
LINE
8
BLACK
6
CONTINUOUS
10
62.5536
20
-87.0393
11
62.8393
21
-87.1821
0
LINE
8
BLACK
6
CONTINUOUS
10
62.8393
20
-87.1821
11
63.4107
21
-87.1821
0
LINE
8
BLACK
6
CONTINUOUS
10
63.4107
20
-87.1821
11
63.6964
21
-87.0393
0
LINE
8
BLACK
6
CONTINUOUS
10
63.6964
20
-87.0393
11
63.8393
21
-86.7536
0
LINE
8
BLACK
6
CONTINUOUS
10
63.8393
20
-86.7536
11
63.8393
21
-86.6107
0
LINE
8
BLACK
6
CONTINUOUS
10
63.8393
20
-86.6107
11
63.6964
21
-86.325
0
LINE
8
BLACK
6
CONTINUOUS
10
63.6964
20
-86.325
11
63.4107
21
-86.1821
0
LINE
8
BLACK
6
CONTINUOUS
10
63.4107
20
-86.1821
11
62.9821
21
-86.1821
0
LINE
8
BLACK
6
CONTINUOUS
10
62.9821
20
-86.1821
11
62.6964
21
-86.0393
0
LINE
8
BLACK
6
CONTINUOUS
10
62.6964
20
-86.0393
11
62.5536
21
-85.7536
0
LINE
8
BLACK
6
CONTINUOUS
10
62.5536
20
-85.7536
11
62.5536
21
-85.6107
0
LINE
8
BLACK
6
CONTINUOUS
10
62.5536
20
-85.6107
11
62.6964
21
-85.325
0
LINE
8
BLACK
6
CONTINUOUS
10
62.6964
20
-85.325
11
62.9821
21
-85.1821
0
LINE
8
BLACK
6
CONTINUOUS
10
62.9821
20
-85.1821
11
63.4107
21
-85.1821
0
LINE
8
BLACK
6
CONTINUOUS
10
63.4107
20
-85.1821
11
63.6964
21
-85.325
0
LINE
8
BLACK
6
CONTINUOUS
10
64.8393
20
-88.325
11
64.9821
21
-88.1821
0
LINE
8
BLACK
6
CONTINUOUS
10
64.9821
20
-88.1821
11
65.2679
21
-87.7536
0
LINE
8
BLACK
6
CONTINUOUS
10
65.2679
20
-87.7536
11
65.4107
21
-87.4679
0
LINE
8
BLACK
6
CONTINUOUS
10
65.4107
20
-87.4679
11
65.5536
21
-87.0393
0
LINE
8
BLACK
6
CONTINUOUS
10
65.5536
20
-87.0393
11
65.6964
21
-86.325
0
LINE
8
BLACK
6
CONTINUOUS
10
65.6964
20
-86.325
11
65.6964
21
-85.7536
0
LINE
8
BLACK
6
CONTINUOUS
10
65.6964
20
-85.7536
11
65.5536
21
-85.0393
0
LINE
8
BLACK
6
CONTINUOUS
10
65.5536
20
-85.0393
11
65.4107
21
-84.6107
0
LINE
8
BLACK
6
CONTINUOUS
10
65.4107
20
-84.6107
11
65.2679
21
-84.325
0
LINE
8
BLACK
6
CONTINUOUS
10
65.2679
20
-84.325
11
64.9821
21
-83.8964
0
LINE
8
BLACK
6
CONTINUOUS
10
64.9821
20
-83.8964
11
64.8393
21
-83.7536
0
LINE
8
BLACK
6
CONTINUOUS
10
70.2679
20
-88.325
11
70.125
21
-88.1821
0
LINE
8
BLACK
6
CONTINUOUS
10
70.125
20
-88.1821
11
69.8393
21
-87.7536
0
LINE
8
BLACK
6
CONTINUOUS
10
69.8393
20
-87.7536
11
69.6964
21
-87.4679
0
LINE
8
BLACK
6
CONTINUOUS
10
69.6964
20
-87.4679
11
69.5536
21
-87.0393
0
LINE
8
BLACK
6
CONTINUOUS
10
69.5536
20
-87.0393
11
69.4107
21
-86.325
0
LINE
8
BLACK
6
CONTINUOUS
10
69.4107
20
-86.325
11
69.4107
21
-85.7536
0
LINE
8
BLACK
6
CONTINUOUS
10
69.4107
20
-85.7536
11
69.5536
21
-85.0393
0
LINE
8
BLACK
6
CONTINUOUS
10
69.5536
20
-85.0393
11
69.6964
21
-84.6107
0
LINE
8
BLACK
6
CONTINUOUS
10
69.6964
20
-84.6107
11
69.8393
21
-84.325
0
LINE
8
BLACK
6
CONTINUOUS
10
69.8393
20
-84.325
11
70.125
21
-83.8964
0
LINE
8
BLACK
6
CONTINUOUS
10
70.125
20
-83.8964
11
70.2679
21
-83.7536
0
LINE
8
BLACK
6
CONTINUOUS
10
71.4107
20
-85.1821
11
71.4107
21
-87.1821
0
LINE
8
BLACK
6
CONTINUOUS
10
71.4107
20
-85.4679
11
71.5536
21
-85.325
0
LINE
8
BLACK
6
CONTINUOUS
10
71.5536
20
-85.325
11
71.8393
21
-85.1821
0
LINE
8
BLACK
6
CONTINUOUS
10
71.8393
20
-85.1821
11
72.2679
21
-85.1821
0
LINE
8
BLACK
6
CONTINUOUS
10
72.2679
20
-85.1821
11
72.5536
21
-85.325
0
LINE
8
BLACK
6
CONTINUOUS
10
72.5536
20
-85.325
11
72.6964
21
-85.6107
0
LINE
8
BLACK
6
CONTINUOUS
10
72.6964
20
-85.6107
11
72.6964
21
-87.1821
0
LINE
8
BLACK
6
CONTINUOUS
10
74.5536
20
-87.1821
11
74.2679
21
-87.0393
0
LINE
8
BLACK
6
CONTINUOUS
10
74.2679
20
-87.0393
11
74.125
21
-86.8964
0
LINE
8
BLACK
6
CONTINUOUS
10
74.125
20
-86.8964
11
73.9821
21
-86.6107
0
LINE
8
BLACK
6
CONTINUOUS
10
73.9821
20
-86.6107
11
73.9821
21
-85.7536
0
LINE
8
BLACK
6
CONTINUOUS
10
73.9821
20
-85.7536
11
74.125
21
-85.4679
0
LINE
8
BLACK
6
CONTINUOUS
10
74.125
20
-85.4679
11
74.2679
21
-85.325
0
LINE
8
BLACK
6
CONTINUOUS
10
74.2679
20
-85.325
11
74.5536
21
-85.1821
0
LINE
8
BLACK
6
CONTINUOUS
10
74.5536
20
-85.1821
11
74.9821
21
-85.1821
0
LINE
8
BLACK
6
CONTINUOUS
10
74.9821
20
-85.1821
11
75.2679
21
-85.325
0
LINE
8
BLACK
6
CONTINUOUS
10
75.2679
20
-85.325
11
75.4107
21
-85.4679
0
LINE
8
BLACK
6
CONTINUOUS
10
75.4107
20
-85.4679
11
75.5536
21
-85.7536
0
LINE
8
BLACK
6
CONTINUOUS
10
75.5536
20
-85.7536
11
75.5536
21
-86.6107
0
LINE
8
BLACK
6
CONTINUOUS
10
75.5536
20
-86.6107
11
75.4107
21
-86.8964
0
LINE
8
BLACK
6
CONTINUOUS
10
75.4107
20
-86.8964
11
75.2679
21
-87.0393
0
LINE
8
BLACK
6
CONTINUOUS
10
75.2679
20
-87.0393
11
74.9821
21
-87.1821
0
LINE
8
BLACK
6
CONTINUOUS
10
74.9821
20
-87.1821
11
74.5536
21
-87.1821
0
LINE
8
BLACK
6
CONTINUOUS
10
76.4107
20
-85.1821
11
77.5536
21
-85.1821
0
LINE
8
BLACK
6
CONTINUOUS
10
76.8393
20
-84.1821
11
76.8393
21
-86.7536
0
LINE
8
BLACK
6
CONTINUOUS
10
76.8393
20
-86.7536
11
76.9821
21
-87.0393
0
LINE
8
BLACK
6
CONTINUOUS
10
76.9821
20
-87.0393
11
77.2679
21
-87.1821
0
LINE
8
BLACK
6
CONTINUOUS
10
77.2679
20
-87.1821
11
77.5536
21
-87.1821
0
LINE
8
BLACK
6
CONTINUOUS
10
80.8393
20
-85.1821
11
80.8393
21
-88.1821
0
LINE
8
BLACK
6
CONTINUOUS
10
80.8393
20
-85.325
11
81.125
21
-85.1821
0
LINE
8
BLACK
6
CONTINUOUS
10
81.125
20
-85.1821
11
81.6964
21
-85.1821
0
LINE
8
BLACK
6
CONTINUOUS
10
81.6964
20
-85.1821
11
81.9821
21
-85.325
0
LINE
8
BLACK
6
CONTINUOUS
10
81.9821
20
-85.325
11
82.125
21
-85.4679
0
LINE
8
BLACK
6
CONTINUOUS
10
82.125
20
-85.4679
11
82.2679
21
-85.7536
0
LINE
8
BLACK
6
CONTINUOUS
10
82.2679
20
-85.7536
11
82.2679
21
-86.6107
0
LINE
8
BLACK
6
CONTINUOUS
10
82.2679
20
-86.6107
11
82.125
21
-86.8964
0
LINE
8
BLACK
6
CONTINUOUS
10
82.125
20
-86.8964
11
81.9821
21
-87.0393
0
LINE
8
BLACK
6
CONTINUOUS
10
81.9821
20
-87.0393
11
81.6964
21
-87.1821
0
LINE
8
BLACK
6
CONTINUOUS
10
81.6964
20
-87.1821
11
81.125
21
-87.1821
0
LINE
8
BLACK
6
CONTINUOUS
10
81.125
20
-87.1821
11
80.8393
21
-87.0393
0
LINE
8
BLACK
6
CONTINUOUS
10
83.9821
20
-87.1821
11
83.6964
21
-87.0393
0
LINE
8
BLACK
6
CONTINUOUS
10
83.6964
20
-87.0393
11
83.5536
21
-86.7536
0
LINE
8
BLACK
6
CONTINUOUS
10
83.5536
20
-86.7536
11
83.5536
21
-84.1821
0
LINE
8
BLACK
6
CONTINUOUS
10
86.4107
20
-87.1821
11
86.4107
21
-85.6107
0
LINE
8
BLACK
6
CONTINUOUS
10
86.4107
20
-85.6107
11
86.2679
21
-85.325
0
LINE
8
BLACK
6
CONTINUOUS
10
86.2679
20
-85.325
11
85.9821
21
-85.1821
0
LINE
8
BLACK
6
CONTINUOUS
10
85.9821
20
-85.1821
11
85.4107
21
-85.1821
0
LINE
8
BLACK
6
CONTINUOUS
10
85.4107
20
-85.1821
11
85.125
21
-85.325
0
LINE
8
BLACK
6
CONTINUOUS
10
86.4107
20
-87.0393
11
86.125
21
-87.1821
0
LINE
8
BLACK
6
CONTINUOUS
10
86.125
20
-87.1821
11
85.4107
21
-87.1821
0
LINE
8
BLACK
6
CONTINUOUS
10
85.4107
20
-87.1821
11
85.125
21
-87.0393
0
LINE
8
BLACK
6
CONTINUOUS
10
85.125
20
-87.0393
11
84.9821
21
-86.7536
0
LINE
8
BLACK
6
CONTINUOUS
10
84.9821
20
-86.7536
11
84.9821
21
-86.4679
0
LINE
8
BLACK
6
CONTINUOUS
10
84.9821
20
-86.4679
11
85.125
21
-86.1821
0
LINE
8
BLACK
6
CONTINUOUS
10
85.125
20
-86.1821
11
85.4107
21
-86.0393
0
LINE
8
BLACK
6
CONTINUOUS
10
85.4107
20
-86.0393
11
86.125
21
-86.0393
0
LINE
8
BLACK
6
CONTINUOUS
10
86.125
20
-86.0393
11
86.4107
21
-85.8964
0
LINE
8
BLACK
6
CONTINUOUS
10
87.4107
20
-85.1821
11
88.5536
21
-85.1821
0
LINE
8
BLACK
6
CONTINUOUS
10
87.8393
20
-84.1821
11
87.8393
21
-86.7536
0
LINE
8
BLACK
6
CONTINUOUS
10
87.8393
20
-86.7536
11
87.9821
21
-87.0393
0
LINE
8
BLACK
6
CONTINUOUS
10
87.9821
20
-87.0393
11
88.2679
21
-87.1821
0
LINE
8
BLACK
6
CONTINUOUS
10
88.2679
20
-87.1821
11
88.5536
21
-87.1821
0
LINE
8
BLACK
6
CONTINUOUS
10
90.6964
20
-87.0393
11
90.4107
21
-87.1821
0
LINE
8
BLACK
6
CONTINUOUS
10
90.4107
20
-87.1821
11
89.8393
21
-87.1821
0
LINE
8
BLACK
6
CONTINUOUS
10
89.8393
20
-87.1821
11
89.5536
21
-87.0393
0
LINE
8
BLACK
6
CONTINUOUS
10
89.5536
20
-87.0393
11
89.4107
21
-86.7536
0
LINE
8
BLACK
6
CONTINUOUS
10
89.4107
20
-86.7536
11
89.4107
21
-85.6107
0
LINE
8
BLACK
6
CONTINUOUS
10
89.4107
20
-85.6107
11
89.5536
21
-85.325
0
LINE
8
BLACK
6
CONTINUOUS
10
89.5536
20
-85.325
11
89.8393
21
-85.1821
0
LINE
8
BLACK
6
CONTINUOUS
10
89.8393
20
-85.1821
11
90.4107
21
-85.1821
0
LINE
8
BLACK
6
CONTINUOUS
10
90.4107
20
-85.1821
11
90.6964
21
-85.325
0
LINE
8
BLACK
6
CONTINUOUS
10
90.6964
20
-85.325
11
90.8393
21
-85.6107
0
LINE
8
BLACK
6
CONTINUOUS
10
90.8393
20
-85.6107
11
90.8393
21
-85.8964
0
LINE
8
BLACK
6
CONTINUOUS
10
90.8393
20
-85.8964
11
89.4107
21
-86.1821
0
LINE
8
BLACK
6
CONTINUOUS
10
93.4107
20
-87.1821
11
93.4107
21
-84.1821
0
LINE
8
BLACK
6
CONTINUOUS
10
93.4107
20
-87.0393
11
93.125
21
-87.1821
0
LINE
8
BLACK
6
CONTINUOUS
10
93.125
20
-87.1821
11
92.5536
21
-87.1821
0
LINE
8
BLACK
6
CONTINUOUS
10
92.5536
20
-87.1821
11
92.2679
21
-87.0393
0
LINE
8
BLACK
6
CONTINUOUS
10
92.2679
20
-87.0393
11
92.125
21
-86.8964
0
LINE
8
BLACK
6
CONTINUOUS
10
92.125
20
-86.8964
11
91.9821
21
-86.6107
0
LINE
8
BLACK
6
CONTINUOUS
10
91.9821
20
-86.6107
11
91.9821
21
-85.7536
0
LINE
8
BLACK
6
CONTINUOUS
10
91.9821
20
-85.7536
11
92.125
21
-85.4679
0
LINE
8
BLACK
6
CONTINUOUS
10
92.125
20
-85.4679
11
92.2679
21
-85.325
0
LINE
8
BLACK
6
CONTINUOUS
10
92.2679
20
-85.325
11
92.5536
21
-85.1821
0
LINE
8
BLACK
6
CONTINUOUS
10
92.5536
20
-85.1821
11
93.125
21
-85.1821
0
LINE
8
BLACK
6
CONTINUOUS
10
93.125
20
-85.1821
11
93.4107
21
-85.325
0
LINE
8
BLACK
6
CONTINUOUS
10
94.5536
20
-88.325
11
94.6964
21
-88.1821
0
LINE
8
BLACK
6
CONTINUOUS
10
94.6964
20
-88.1821
11
94.9821
21
-87.7536
0
LINE
8
BLACK
6
CONTINUOUS
10
94.9821
20
-87.7536
11
95.125
21
-87.4679
0
LINE
8
BLACK
6
CONTINUOUS
10
95.125
20
-87.4679
11
95.2679
21
-87.0393
0
LINE
8
BLACK
6
CONTINUOUS
10
95.2679
20
-87.0393
11
95.4107
21
-86.325
0
LINE
8
BLACK
6
CONTINUOUS
10
95.4107
20
-86.325
11
95.4107
21
-85.7536
0
LINE
8
BLACK
6
CONTINUOUS
10
95.4107
20
-85.7536
11
95.2679
21
-85.0393
0
LINE
8
BLACK
6
CONTINUOUS
10
95.2679
20
-85.0393
11
95.125
21
-84.6107
0
LINE
8
BLACK
6
CONTINUOUS
10
95.125
20
-84.6107
11
94.9821
21
-84.325
0
LINE
8
BLACK
6
CONTINUOUS
10
94.9821
20
-84.325
11
94.6964
21
-83.8964
0
LINE
8
BLACK
6
CONTINUOUS
10
94.6964
20
-83.8964
11
94.5536
21
-83.7536
0
CIRCLE
8
BLACK
10
-1.625
20
-89.785
40
1.6
0
LINE
8
BLACK
6
CONTINUOUS
10
2.55357
20
-88.1421
11
4.41071
21
-88.1421
0
LINE
8
BLACK
6
CONTINUOUS
10
4.41071
20
-88.1421
11
3.41071
21
-89.285
0
LINE
8
BLACK
6
CONTINUOUS
10
3.41071
20
-89.285
11
3.83928
21
-89.285
0
LINE
8
BLACK
6
CONTINUOUS
10
3.83928
20
-89.285
11
4.125
21
-89.4279
0
LINE
8
BLACK
6
CONTINUOUS
10
4.125
20
-89.4279
11
4.26786
21
-89.5707
0
LINE
8
BLACK
6
CONTINUOUS
10
4.26786
20
-89.5707
11
4.41071
21
-89.8564
0
LINE
8
BLACK
6
CONTINUOUS
10
4.41071
20
-89.8564
11
4.41071
21
-90.5707
0
LINE
8
BLACK
6
CONTINUOUS
10
4.41071
20
-90.5707
11
4.26786
21
-90.8564
0
LINE
8
BLACK
6
CONTINUOUS
10
4.26786
20
-90.8564
11
4.125
21
-90.9993
0
LINE
8
BLACK
6
CONTINUOUS
10
4.125
20
-90.9993
11
3.83928
21
-91.1421
0
LINE
8
BLACK
6
CONTINUOUS
10
3.83928
20
-91.1421
11
2.98214
21
-91.1421
0
LINE
8
BLACK
6
CONTINUOUS
10
2.98214
20
-91.1421
11
2.69643
21
-90.9993
0
LINE
8
BLACK
6
CONTINUOUS
10
2.69643
20
-90.9993
11
2.55357
21
-90.8564
0
LINE
8
BLACK
6
CONTINUOUS
10
5.69643
20
-90.8564
11
5.83928
21
-90.9993
0
LINE
8
BLACK
6
CONTINUOUS
10
5.83928
20
-90.9993
11
5.69643
21
-91.1421
0
LINE
8
BLACK
6
CONTINUOUS
10
5.69643
20
-91.1421
11
5.55357
21
-90.9993
0
LINE
8
BLACK
6
CONTINUOUS
10
5.55357
20
-90.9993
11
5.69643
21
-90.8564
0
LINE
8
BLACK
6
CONTINUOUS
10
5.69643
20
-90.8564
11
5.69643
21
-91.1421
0
LINE
8
BLACK
6
CONTINUOUS
10
6.98214
20
-88.4279
11
7.125
21
-88.285
0
LINE
8
BLACK
6
CONTINUOUS
10
7.125
20
-88.285
11
7.41071
21
-88.1421
0
LINE
8
BLACK
6
CONTINUOUS
10
7.41071
20
-88.1421
11
8.125
21
-88.1421
0
LINE
8
BLACK
6
CONTINUOUS
10
8.125
20
-88.1421
11
8.41071
21
-88.285
0
LINE
8
BLACK
6
CONTINUOUS
10
8.41071
20
-88.285
11
8.55357
21
-88.4279
0
LINE
8
BLACK
6
CONTINUOUS
10
8.55357
20
-88.4279
11
8.69643
21
-88.7136
0
LINE
8
BLACK
6
CONTINUOUS
10
8.69643
20
-88.7136
11
8.69643
21
-88.9993
0
LINE
8
BLACK
6
CONTINUOUS
10
8.69643
20
-88.9993
11
8.55357
21
-89.4279
0
LINE
8
BLACK
6
CONTINUOUS
10
8.55357
20
-89.4279
11
6.83928
21
-91.1421
0
LINE
8
BLACK
6
CONTINUOUS
10
6.83928
20
-91.1421
11
8.69643
21
-91.1421
0
LINE
8
BLACK
6
CONTINUOUS
10
10.5536
20
-88.1421
11
10.8393
21
-88.1421
0
LINE
8
BLACK
6
CONTINUOUS
10
10.8393
20
-88.1421
11
11.125
21
-88.285
0
LINE
8
BLACK
6
CONTINUOUS
10
11.125
20
-88.285
11
11.2679
21
-88.4279
0
LINE
8
BLACK
6
CONTINUOUS
10
11.2679
20
-88.4279
11
11.4107
21
-88.7136
0
LINE
8
BLACK
6
CONTINUOUS
10
11.4107
20
-88.7136
11
11.5536
21
-89.285
0
LINE
8
BLACK
6
CONTINUOUS
10
11.5536
20
-89.285
11
11.5536
21
-89.9993
0
LINE
8
BLACK
6
CONTINUOUS
10
11.5536
20
-89.9993
11
11.4107
21
-90.5707
0
LINE
8
BLACK
6
CONTINUOUS
10
11.4107
20
-90.5707
11
11.2679
21
-90.8564
0
LINE
8
BLACK
6
CONTINUOUS
10
11.2679
20
-90.8564
11
11.125
21
-90.9993
0
LINE
8
BLACK
6
CONTINUOUS
10
11.125
20
-90.9993
11
10.8393
21
-91.1421
0
LINE
8
BLACK
6
CONTINUOUS
10
10.8393
20
-91.1421
11
10.5536
21
-91.1421
0
LINE
8
BLACK
6
CONTINUOUS
10
10.5536
20
-91.1421
11
10.2679
21
-90.9993
0
LINE
8
BLACK
6
CONTINUOUS
10
10.2679
20
-90.9993
11
10.125
21
-90.8564
0
LINE
8
BLACK
6
CONTINUOUS
10
10.125
20
-90.8564
11
9.98214
21
-90.5707
0
LINE
8
BLACK
6
CONTINUOUS
10
9.98214
20
-90.5707
11
9.83928
21
-89.9993
0
LINE
8
BLACK
6
CONTINUOUS
10
9.83928
20
-89.9993
11
9.83928
21
-89.285
0
LINE
8
BLACK
6
CONTINUOUS
10
9.83928
20
-89.285
11
9.98214
21
-88.7136
0
LINE
8
BLACK
6
CONTINUOUS
10
9.98214
20
-88.7136
11
10.125
21
-88.4279
0
LINE
8
BLACK
6
CONTINUOUS
10
10.125
20
-88.4279
11
10.2679
21
-88.285
0
LINE
8
BLACK
6
CONTINUOUS
10
10.2679
20
-88.285
11
10.5536
21
-88.1421
0
LINE
8
BLACK
6
CONTINUOUS
10
12.8393
20
-91.1421
11
12.8393
21
-89.1421
0
LINE
8
BLACK
6
CONTINUOUS
10
12.8393
20
-89.4279
11
12.9821
21
-89.285
0
LINE
8
BLACK
6
CONTINUOUS
10
12.9821
20
-89.285
11
13.2679
21
-89.1421
0
LINE
8
BLACK
6
CONTINUOUS
10
13.2679
20
-89.1421
11
13.6964
21
-89.1421
0
LINE
8
BLACK
6
CONTINUOUS
10
13.6964
20
-89.1421
11
13.9821
21
-89.285
0
LINE
8
BLACK
6
CONTINUOUS
10
13.9821
20
-89.285
11
14.125
21
-89.5707
0
LINE
8
BLACK
6
CONTINUOUS
10
14.125
20
-89.5707
11
14.125
21
-91.1421
0
LINE
8
BLACK
6
CONTINUOUS
10
14.125
20
-89.5707
11
14.2679
21
-89.285
0
LINE
8
BLACK
6
CONTINUOUS
10
14.2679
20
-89.285
11
14.5536
21
-89.1421
0
LINE
8
BLACK
6
CONTINUOUS
10
14.5536
20
-89.1421
11
14.9821
21
-89.1421
0
LINE
8
BLACK
6
CONTINUOUS
10
14.9821
20
-89.1421
11
15.2679
21
-89.285
0
LINE
8
BLACK
6
CONTINUOUS
10
15.2679
20
-89.285
11
15.4107
21
-89.5707
0
LINE
8
BLACK
6
CONTINUOUS
10
15.4107
20
-89.5707
11
15.4107
21
-91.1421
0
LINE
8
BLACK
6
CONTINUOUS
10
16.8393
20
-91.1421
11
16.8393
21
-89.1421
0
LINE
8
BLACK
6
CONTINUOUS
10
16.8393
20
-89.4279
11
16.9821
21
-89.285
0
LINE
8
BLACK
6
CONTINUOUS
10
16.9821
20
-89.285
11
17.2679
21
-89.1421
0
LINE
8
BLACK
6
CONTINUOUS
10
17.2679
20
-89.1421
11
17.6964
21
-89.1421
0
LINE
8
BLACK
6
CONTINUOUS
10
17.6964
20
-89.1421
11
17.9821
21
-89.285
0
LINE
8
BLACK
6
CONTINUOUS
10
17.9821
20
-89.285
11
18.125
21
-89.5707
0
LINE
8
BLACK
6
CONTINUOUS
10
18.125
20
-89.5707
11
18.125
21
-91.1421
0
LINE
8
BLACK
6
CONTINUOUS
10
18.125
20
-89.5707
11
18.2679
21
-89.285
0
LINE
8
BLACK
6
CONTINUOUS
10
18.2679
20
-89.285
11
18.5536
21
-89.1421
0
LINE
8
BLACK
6
CONTINUOUS
10
18.5536
20
-89.1421
11
18.9821
21
-89.1421
0
LINE
8
BLACK
6
CONTINUOUS
10
18.9821
20
-89.1421
11
19.2679
21
-89.285
0
LINE
8
BLACK
6
CONTINUOUS
10
19.2679
20
-89.285
11
19.4107
21
-89.5707
0
LINE
8
BLACK
6
CONTINUOUS
10
19.4107
20
-89.5707
11
19.4107
21
-91.1421
0
LINE
8
BLACK
6
CONTINUOUS
10
25.2679
20
-87.9993
11
22.6964
21
-91.8564
0
LINE
8
BLACK
6
CONTINUOUS
10
29.125
20
-88.1421
11
29.4107
21
-88.1421
0
LINE
8
BLACK
6
CONTINUOUS
10
29.4107
20
-88.1421
11
29.6964
21
-88.285
0
LINE
8
BLACK
6
CONTINUOUS
10
29.6964
20
-88.285
11
29.8393
21
-88.4279
0
LINE
8
BLACK
6
CONTINUOUS
10
29.8393
20
-88.4279
11
29.9821
21
-88.7136
0
LINE
8
BLACK
6
CONTINUOUS
10
29.9821
20
-88.7136
11
30.125
21
-89.285
0
LINE
8
BLACK
6
CONTINUOUS
10
30.125
20
-89.285
11
30.125
21
-89.9993
0
LINE
8
BLACK
6
CONTINUOUS
10
30.125
20
-89.9993
11
29.9821
21
-90.5707
0
LINE
8
BLACK
6
CONTINUOUS
10
29.9821
20
-90.5707
11
29.8393
21
-90.8564
0
LINE
8
BLACK
6
CONTINUOUS
10
29.8393
20
-90.8564
11
29.6964
21
-90.9993
0
LINE
8
BLACK
6
CONTINUOUS
10
29.6964
20
-90.9993
11
29.4107
21
-91.1421
0
LINE
8
BLACK
6
CONTINUOUS
10
29.4107
20
-91.1421
11
29.125
21
-91.1421
0
LINE
8
BLACK
6
CONTINUOUS
10
29.125
20
-91.1421
11
28.8393
21
-90.9993
0
LINE
8
BLACK
6
CONTINUOUS
10
28.8393
20
-90.9993
11
28.6964
21
-90.8564
0
LINE
8
BLACK
6
CONTINUOUS
10
28.6964
20
-90.8564
11
28.5536
21
-90.5707
0
LINE
8
BLACK
6
CONTINUOUS
10
28.5536
20
-90.5707
11
28.4107
21
-89.9993
0
LINE
8
BLACK
6
CONTINUOUS
10
28.4107
20
-89.9993
11
28.4107
21
-89.285
0
LINE
8
BLACK
6
CONTINUOUS
10
28.4107
20
-89.285
11
28.5536
21
-88.7136
0
LINE
8
BLACK
6
CONTINUOUS
10
28.5536
20
-88.7136
11
28.6964
21
-88.4279
0
LINE
8
BLACK
6
CONTINUOUS
10
28.6964
20
-88.4279
11
28.8393
21
-88.285
0
LINE
8
BLACK
6
CONTINUOUS
10
28.8393
20
-88.285
11
29.125
21
-88.1421
0
LINE
8
BLACK
6
CONTINUOUS
10
31.4107
20
-90.8564
11
31.5536
21
-90.9993
0
LINE
8
BLACK
6
CONTINUOUS
10
31.5536
20
-90.9993
11
31.4107
21
-91.1421
0
LINE
8
BLACK
6
CONTINUOUS
10
31.4107
20
-91.1421
11
31.2679
21
-90.9993
0
LINE
8
BLACK
6
CONTINUOUS
10
31.2679
20
-90.9993
11
31.4107
21
-90.8564
0
LINE
8
BLACK
6
CONTINUOUS
10
31.4107
20
-90.8564
11
31.4107
21
-91.1421
0
LINE
8
BLACK
6
CONTINUOUS
10
34.4107
20
-91.1421
11
32.6964
21
-91.1421
0
LINE
8
BLACK
6
CONTINUOUS
10
33.5536
20
-91.1421
11
33.5536
21
-88.1421
0
LINE
8
BLACK
6
CONTINUOUS
10
33.5536
20
-88.1421
11
33.2679
21
-88.5707
0
LINE
8
BLACK
6
CONTINUOUS
10
33.2679
20
-88.5707
11
32.9821
21
-88.8564
0
LINE
8
BLACK
6
CONTINUOUS
10
32.9821
20
-88.8564
11
32.6964
21
-88.9993
0
LINE
8
BLACK
6
CONTINUOUS
10
35.5536
20
-88.4279
11
35.6964
21
-88.285
0
LINE
8
BLACK
6
CONTINUOUS
10
35.6964
20
-88.285
11
35.9821
21
-88.1421
0
LINE
8
BLACK
6
CONTINUOUS
10
35.9821
20
-88.1421
11
36.6964
21
-88.1421
0
LINE
8
BLACK
6
CONTINUOUS
10
36.6964
20
-88.1421
11
36.9821
21
-88.285
0
LINE
8
BLACK
6
CONTINUOUS
10
36.9821
20
-88.285
11
37.125
21
-88.4279
0
LINE
8
BLACK
6
CONTINUOUS
10
37.125
20
-88.4279
11
37.2679
21
-88.7136
0
LINE
8
BLACK
6
CONTINUOUS
10
37.2679
20
-88.7136
11
37.2679
21
-88.9993
0
LINE
8
BLACK
6
CONTINUOUS
10
37.2679
20
-88.9993
11
37.125
21
-89.4279
0
LINE
8
BLACK
6
CONTINUOUS
10
37.125
20
-89.4279
11
35.4107
21
-91.1421
0
LINE
8
BLACK
6
CONTINUOUS
10
35.4107
20
-91.1421
11
37.2679
21
-91.1421
0
LINE
8
BLACK
6
CONTINUOUS
10
39.8393
20
-88.1421
11
39.2679
21
-88.1421
0
LINE
8
BLACK
6
CONTINUOUS
10
39.2679
20
-88.1421
11
38.9821
21
-88.285
0
LINE
8
BLACK
6
CONTINUOUS
10
38.9821
20
-88.285
11
38.8393
21
-88.4279
0
LINE
8
BLACK
6
CONTINUOUS
10
38.8393
20
-88.4279
11
38.5536
21
-88.8564
0
LINE
8
BLACK
6
CONTINUOUS
10
38.5536
20
-88.8564
11
38.4107
21
-89.4279
0
LINE
8
BLACK
6
CONTINUOUS
10
38.4107
20
-89.4279
11
38.4107
21
-90.5707
0
LINE
8
BLACK
6
CONTINUOUS
10
38.4107
20
-90.5707
11
38.5536
21
-90.8564
0
LINE
8
BLACK
6
CONTINUOUS
10
38.5536
20
-90.8564
11
38.6964
21
-90.9993
0
LINE
8
BLACK
6
CONTINUOUS
10
38.6964
20
-90.9993
11
38.9821
21
-91.1421
0
LINE
8
BLACK
6
CONTINUOUS
10
38.9821
20
-91.1421
11
39.5536
21
-91.1421
0
LINE
8
BLACK
6
CONTINUOUS
10
39.5536
20
-91.1421
11
39.8393
21
-90.9993
0
LINE
8
BLACK
6
CONTINUOUS
10
39.8393
20
-90.9993
11
39.9821
21
-90.8564
0
LINE
8
BLACK
6
CONTINUOUS
10
39.9821
20
-90.8564
11
40.125
21
-90.5707
0
LINE
8
BLACK
6
CONTINUOUS
10
40.125
20
-90.5707
11
40.125
21
-89.8564
0
LINE
8
BLACK
6
CONTINUOUS
10
40.125
20
-89.8564
11
39.9821
21
-89.5707
0
LINE
8
BLACK
6
CONTINUOUS
10
39.9821
20
-89.5707
11
39.8393
21
-89.4279
0
LINE
8
BLACK
6
CONTINUOUS
10
39.8393
20
-89.4279
11
39.5536
21
-89.285
0
LINE
8
BLACK
6
CONTINUOUS
10
39.5536
20
-89.285
11
38.9821
21
-89.285
0
LINE
8
BLACK
6
CONTINUOUS
10
38.9821
20
-89.285
11
38.6964
21
-89.4279
0
LINE
8
BLACK
6
CONTINUOUS
10
38.6964
20
-89.4279
11
38.5536
21
-89.5707
0
LINE
8
BLACK
6
CONTINUOUS
10
38.5536
20
-89.5707
11
38.4107
21
-89.8564
0
LINE
8
BLACK
6
CONTINUOUS
10
41.2679
20
-88.1421
11
41.2679
21
-88.7136
0
LINE
8
BLACK
6
CONTINUOUS
10
42.4107
20
-88.1421
11
42.4107
21
-88.7136
0
LINE
8
BLACK
6
CONTINUOUS
10
46.8393
20
-92.285
11
46.6964
21
-92.1421
0
LINE
8
BLACK
6
CONTINUOUS
10
46.6964
20
-92.1421
11
46.4107
21
-91.7136
0
LINE
8
BLACK
6
CONTINUOUS
10
46.4107
20
-91.7136
11
46.2679
21
-91.4279
0
LINE
8
BLACK
6
CONTINUOUS
10
46.2679
20
-91.4279
11
46.125
21
-90.9993
0
LINE
8
BLACK
6
CONTINUOUS
10
46.125
20
-90.9993
11
45.9821
21
-90.285
0
LINE
8
BLACK
6
CONTINUOUS
10
45.9821
20
-90.285
11
45.9821
21
-89.7136
0
LINE
8
BLACK
6
CONTINUOUS
10
45.9821
20
-89.7136
11
46.125
21
-88.9993
0
LINE
8
BLACK
6
CONTINUOUS
10
46.125
20
-88.9993
11
46.2679
21
-88.5707
0
LINE
8
BLACK
6
CONTINUOUS
10
46.2679
20
-88.5707
11
46.4107
21
-88.285
0
LINE
8
BLACK
6
CONTINUOUS
10
46.4107
20
-88.285
11
46.6964
21
-87.8564
0
LINE
8
BLACK
6
CONTINUOUS
10
46.6964
20
-87.8564
11
46.8393
21
-87.7136
0
LINE
8
BLACK
6
CONTINUOUS
10
49.2679
20
-89.1421
11
49.2679
21
-91.1421
0
LINE
8
BLACK
6
CONTINUOUS
10
48.5536
20
-87.9993
11
47.8393
21
-90.1421
0
LINE
8
BLACK
6
CONTINUOUS
10
47.8393
20
-90.1421
11
49.6964
21
-90.1421
0
LINE
8
BLACK
6
CONTINUOUS
10
53.125
20
-91.1421
11
53.125
21
-88.1421
0
LINE
8
BLACK
6
CONTINUOUS
10
54.4107
20
-91.1421
11
54.4107
21
-89.5707
0
LINE
8
BLACK
6
CONTINUOUS
10
54.4107
20
-89.5707
11
54.2679
21
-89.285
0
LINE
8
BLACK
6
CONTINUOUS
10
54.2679
20
-89.285
11
53.9821
21
-89.1421
0
LINE
8
BLACK
6
CONTINUOUS
10
53.9821
20
-89.1421
11
53.5536
21
-89.1421
0
LINE
8
BLACK
6
CONTINUOUS
10
53.5536
20
-89.1421
11
53.2679
21
-89.285
0
LINE
8
BLACK
6
CONTINUOUS
10
53.2679
20
-89.285
11
53.125
21
-89.4279
0
LINE
8
BLACK
6
CONTINUOUS
10
56.2679
20
-91.1421
11
55.9821
21
-90.9993
0
LINE
8
BLACK
6
CONTINUOUS
10
55.9821
20
-90.9993
11
55.8393
21
-90.8564
0
LINE
8
BLACK
6
CONTINUOUS
10
55.8393
20
-90.8564
11
55.6964
21
-90.5707
0
LINE
8
BLACK
6
CONTINUOUS
10
55.6964
20
-90.5707
11
55.6964
21
-89.7136
0
LINE
8
BLACK
6
CONTINUOUS
10
55.6964
20
-89.7136
11
55.8393
21
-89.4279
0
LINE
8
BLACK
6
CONTINUOUS
10
55.8393
20
-89.4279
11
55.9821
21
-89.285
0
LINE
8
BLACK
6
CONTINUOUS
10
55.9821
20
-89.285
11
56.2679
21
-89.1421
0
LINE
8
BLACK
6
CONTINUOUS
10
56.2679
20
-89.1421
11
56.6964
21
-89.1421
0
LINE
8
BLACK
6
CONTINUOUS
10
56.6964
20
-89.1421
11
56.9821
21
-89.285
0
LINE
8
BLACK
6
CONTINUOUS
10
56.9821
20
-89.285
11
57.125
21
-89.4279
0
LINE
8
BLACK
6
CONTINUOUS
10
57.125
20
-89.4279
11
57.2679
21
-89.7136
0
LINE
8
BLACK
6
CONTINUOUS
10
57.2679
20
-89.7136
11
57.2679
21
-90.5707
0
LINE
8
BLACK
6
CONTINUOUS
10
57.2679
20
-90.5707
11
57.125
21
-90.8564
0
LINE
8
BLACK
6
CONTINUOUS
10
57.125
20
-90.8564
11
56.9821
21
-90.9993
0
LINE
8
BLACK
6
CONTINUOUS
10
56.9821
20
-90.9993
11
56.6964
21
-91.1421
0
LINE
8
BLACK
6
CONTINUOUS
10
56.6964
20
-91.1421
11
56.2679
21
-91.1421
0
LINE
8
BLACK
6
CONTINUOUS
10
58.9821
20
-91.1421
11
58.6964
21
-90.9993
0
LINE
8
BLACK
6
CONTINUOUS
10
58.6964
20
-90.9993
11
58.5536
21
-90.7136
0
LINE
8
BLACK
6
CONTINUOUS
10
58.5536
20
-90.7136
11
58.5536
21
-88.1421
0
LINE
8
BLACK
6
CONTINUOUS
10
61.2679
20
-90.9993
11
60.9821
21
-91.1421
0
LINE
8
BLACK
6
CONTINUOUS
10
60.9821
20
-91.1421
11
60.4107
21
-91.1421
0
LINE
8
BLACK
6
CONTINUOUS
10
60.4107
20
-91.1421
11
60.125
21
-90.9993
0
LINE
8
BLACK
6
CONTINUOUS
10
60.125
20
-90.9993
11
59.9821
21
-90.7136
0
LINE
8
BLACK
6
CONTINUOUS
10
59.9821
20
-90.7136
11
59.9821
21
-89.5707
0
LINE
8
BLACK
6
CONTINUOUS
10
59.9821
20
-89.5707
11
60.125
21
-89.285
0
LINE
8
BLACK
6
CONTINUOUS
10
60.125
20
-89.285
11
60.4107
21
-89.1421
0
LINE
8
BLACK
6
CONTINUOUS
10
60.4107
20
-89.1421
11
60.9821
21
-89.1421
0
LINE
8
BLACK
6
CONTINUOUS
10
60.9821
20
-89.1421
11
61.2679
21
-89.285
0
LINE
8
BLACK
6
CONTINUOUS
10
61.2679
20
-89.285
11
61.4107
21
-89.5707
0
LINE
8
BLACK
6
CONTINUOUS
10
61.4107
20
-89.5707
11
61.4107
21
-89.8564
0
LINE
8
BLACK
6
CONTINUOUS
10
61.4107
20
-89.8564
11
59.9821
21
-90.1421
0
LINE
8
BLACK
6
CONTINUOUS
10
62.5536
20
-90.9993
11
62.8393
21
-91.1421
0
LINE
8
BLACK
6
CONTINUOUS
10
62.8393
20
-91.1421
11
63.4107
21
-91.1421
0
LINE
8
BLACK
6
CONTINUOUS
10
63.4107
20
-91.1421
11
63.6964
21
-90.9993
0
LINE
8
BLACK
6
CONTINUOUS
10
63.6964
20
-90.9993
11
63.8393
21
-90.7136
0
LINE
8
BLACK
6
CONTINUOUS
10
63.8393
20
-90.7136
11
63.8393
21
-90.5707
0
LINE
8
BLACK
6
CONTINUOUS
10
63.8393
20
-90.5707
11
63.6964
21
-90.285
0
LINE
8
BLACK
6
CONTINUOUS
10
63.6964
20
-90.285
11
63.4107
21
-90.1421
0
LINE
8
BLACK
6
CONTINUOUS
10
63.4107
20
-90.1421
11
62.9821
21
-90.1421
0
LINE
8
BLACK
6
CONTINUOUS
10
62.9821
20
-90.1421
11
62.6964
21
-89.9993
0
LINE
8
BLACK
6
CONTINUOUS
10
62.6964
20
-89.9993
11
62.5536
21
-89.7136
0
LINE
8
BLACK
6
CONTINUOUS
10
62.5536
20
-89.7136
11
62.5536
21
-89.5707
0
LINE
8
BLACK
6
CONTINUOUS
10
62.5536
20
-89.5707
11
62.6964
21
-89.285
0
LINE
8
BLACK
6
CONTINUOUS
10
62.6964
20
-89.285
11
62.9821
21
-89.1421
0
LINE
8
BLACK
6
CONTINUOUS
10
62.9821
20
-89.1421
11
63.4107
21
-89.1421
0
LINE
8
BLACK
6
CONTINUOUS
10
63.4107
20
-89.1421
11
63.6964
21
-89.285
0
LINE
8
BLACK
6
CONTINUOUS
10
64.8393
20
-92.285
11
64.9821
21
-92.1421
0
LINE
8
BLACK
6
CONTINUOUS
10
64.9821
20
-92.1421
11
65.2679
21
-91.7136
0
LINE
8
BLACK
6
CONTINUOUS
10
65.2679
20
-91.7136
11
65.4107
21
-91.4279
0
LINE
8
BLACK
6
CONTINUOUS
10
65.4107
20
-91.4279
11
65.5536
21
-90.9993
0
LINE
8
BLACK
6
CONTINUOUS
10
65.5536
20
-90.9993
11
65.6964
21
-90.285
0
LINE
8
BLACK
6
CONTINUOUS
10
65.6964
20
-90.285
11
65.6964
21
-89.7136
0
LINE
8
BLACK
6
CONTINUOUS
10
65.6964
20
-89.7136
11
65.5536
21
-88.9993
0
LINE
8
BLACK
6
CONTINUOUS
10
65.5536
20
-88.9993
11
65.4107
21
-88.5707
0
LINE
8
BLACK
6
CONTINUOUS
10
65.4107
20
-88.5707
11
65.2679
21
-88.285
0
LINE
8
BLACK
6
CONTINUOUS
10
65.2679
20
-88.285
11
64.9821
21
-87.8564
0
LINE
8
BLACK
6
CONTINUOUS
10
64.9821
20
-87.8564
11
64.8393
21
-87.7136
0
LINE
8
BLACK
6
CONTINUOUS
10
70.2679
20
-92.285
11
70.125
21
-92.1421
0
LINE
8
BLACK
6
CONTINUOUS
10
70.125
20
-92.1421
11
69.8393
21
-91.7136
0
LINE
8
BLACK
6
CONTINUOUS
10
69.8393
20
-91.7136
11
69.6964
21
-91.4279
0
LINE
8
BLACK
6
CONTINUOUS
10
69.6964
20
-91.4279
11
69.5536
21
-90.9993
0
LINE
8
BLACK
6
CONTINUOUS
10
69.5536
20
-90.9993
11
69.4107
21
-90.285
0
LINE
8
BLACK
6
CONTINUOUS
10
69.4107
20
-90.285
11
69.4107
21
-89.7136
0
LINE
8
BLACK
6
CONTINUOUS
10
69.4107
20
-89.7136
11
69.5536
21
-88.9993
0
LINE
8
BLACK
6
CONTINUOUS
10
69.5536
20
-88.9993
11
69.6964
21
-88.5707
0
LINE
8
BLACK
6
CONTINUOUS
10
69.6964
20
-88.5707
11
69.8393
21
-88.285
0
LINE
8
BLACK
6
CONTINUOUS
10
69.8393
20
-88.285
11
70.125
21
-87.8564
0
LINE
8
BLACK
6
CONTINUOUS
10
70.125
20
-87.8564
11
70.2679
21
-87.7136
0
LINE
8
BLACK
6
CONTINUOUS
10
71.4107
20
-89.1421
11
71.4107
21
-91.1421
0
LINE
8
BLACK
6
CONTINUOUS
10
71.4107
20
-89.4279
11
71.5536
21
-89.285
0
LINE
8
BLACK
6
CONTINUOUS
10
71.5536
20
-89.285
11
71.8393
21
-89.1421
0
LINE
8
BLACK
6
CONTINUOUS
10
71.8393
20
-89.1421
11
72.2679
21
-89.1421
0
LINE
8
BLACK
6
CONTINUOUS
10
72.2679
20
-89.1421
11
72.5536
21
-89.285
0
LINE
8
BLACK
6
CONTINUOUS
10
72.5536
20
-89.285
11
72.6964
21
-89.5707
0
LINE
8
BLACK
6
CONTINUOUS
10
72.6964
20
-89.5707
11
72.6964
21
-91.1421
0
LINE
8
BLACK
6
CONTINUOUS
10
74.5536
20
-91.1421
11
74.2679
21
-90.9993
0
LINE
8
BLACK
6
CONTINUOUS
10
74.2679
20
-90.9993
11
74.125
21
-90.8564
0
LINE
8
BLACK
6
CONTINUOUS
10
74.125
20
-90.8564
11
73.9821
21
-90.5707
0
LINE
8
BLACK
6
CONTINUOUS
10
73.9821
20
-90.5707
11
73.9821
21
-89.7136
0
LINE
8
BLACK
6
CONTINUOUS
10
73.9821
20
-89.7136
11
74.125
21
-89.4279
0
LINE
8
BLACK
6
CONTINUOUS
10
74.125
20
-89.4279
11
74.2679
21
-89.285
0
LINE
8
BLACK
6
CONTINUOUS
10
74.2679
20
-89.285
11
74.5536
21
-89.1421
0
LINE
8
BLACK
6
CONTINUOUS
10
74.5536
20
-89.1421
11
74.9821
21
-89.1421
0
LINE
8
BLACK
6
CONTINUOUS
10
74.9821
20
-89.1421
11
75.2679
21
-89.285
0
LINE
8
BLACK
6
CONTINUOUS
10
75.2679
20
-89.285
11
75.4107
21
-89.4279
0
LINE
8
BLACK
6
CONTINUOUS
10
75.4107
20
-89.4279
11
75.5536
21
-89.7136
0
LINE
8
BLACK
6
CONTINUOUS
10
75.5536
20
-89.7136
11
75.5536
21
-90.5707
0
LINE
8
BLACK
6
CONTINUOUS
10
75.5536
20
-90.5707
11
75.4107
21
-90.8564
0
LINE
8
BLACK
6
CONTINUOUS
10
75.4107
20
-90.8564
11
75.2679
21
-90.9993
0
LINE
8
BLACK
6
CONTINUOUS
10
75.2679
20
-90.9993
11
74.9821
21
-91.1421
0
LINE
8
BLACK
6
CONTINUOUS
10
74.9821
20
-91.1421
11
74.5536
21
-91.1421
0
LINE
8
BLACK
6
CONTINUOUS
10
76.4107
20
-89.1421
11
77.5536
21
-89.1421
0
LINE
8
BLACK
6
CONTINUOUS
10
76.8393
20
-88.1421
11
76.8393
21
-90.7136
0
LINE
8
BLACK
6
CONTINUOUS
10
76.8393
20
-90.7136
11
76.9821
21
-90.9993
0
LINE
8
BLACK
6
CONTINUOUS
10
76.9821
20
-90.9993
11
77.2679
21
-91.1421
0
LINE
8
BLACK
6
CONTINUOUS
10
77.2679
20
-91.1421
11
77.5536
21
-91.1421
0
LINE
8
BLACK
6
CONTINUOUS
10
80.8393
20
-89.1421
11
80.8393
21
-92.1421
0
LINE
8
BLACK
6
CONTINUOUS
10
80.8393
20
-89.285
11
81.125
21
-89.1421
0
LINE
8
BLACK
6
CONTINUOUS
10
81.125
20
-89.1421
11
81.6964
21
-89.1421
0
LINE
8
BLACK
6
CONTINUOUS
10
81.6964
20
-89.1421
11
81.9821
21
-89.285
0
LINE
8
BLACK
6
CONTINUOUS
10
81.9821
20
-89.285
11
82.125
21
-89.4279
0
LINE
8
BLACK
6
CONTINUOUS
10
82.125
20
-89.4279
11
82.2679
21
-89.7136
0
LINE
8
BLACK
6
CONTINUOUS
10
82.2679
20
-89.7136
11
82.2679
21
-90.5707
0
LINE
8
BLACK
6
CONTINUOUS
10
82.2679
20
-90.5707
11
82.125
21
-90.8564
0
LINE
8
BLACK
6
CONTINUOUS
10
82.125
20
-90.8564
11
81.9821
21
-90.9993
0
LINE
8
BLACK
6
CONTINUOUS
10
81.9821
20
-90.9993
11
81.6964
21
-91.1421
0
LINE
8
BLACK
6
CONTINUOUS
10
81.6964
20
-91.1421
11
81.125
21
-91.1421
0
LINE
8
BLACK
6
CONTINUOUS
10
81.125
20
-91.1421
11
80.8393
21
-90.9993
0
LINE
8
BLACK
6
CONTINUOUS
10
83.9821
20
-91.1421
11
83.6964
21
-90.9993
0
LINE
8
BLACK
6
CONTINUOUS
10
83.6964
20
-90.9993
11
83.5536
21
-90.7136
0
LINE
8
BLACK
6
CONTINUOUS
10
83.5536
20
-90.7136
11
83.5536
21
-88.1421
0
LINE
8
BLACK
6
CONTINUOUS
10
86.4107
20
-91.1421
11
86.4107
21
-89.5707
0
LINE
8
BLACK
6
CONTINUOUS
10
86.4107
20
-89.5707
11
86.2679
21
-89.285
0
LINE
8
BLACK
6
CONTINUOUS
10
86.2679
20
-89.285
11
85.9821
21
-89.1421
0
LINE
8
BLACK
6
CONTINUOUS
10
85.9821
20
-89.1421
11
85.4107
21
-89.1421
0
LINE
8
BLACK
6
CONTINUOUS
10
85.4107
20
-89.1421
11
85.125
21
-89.285
0
LINE
8
BLACK
6
CONTINUOUS
10
86.4107
20
-90.9993
11
86.125
21
-91.1421
0
LINE
8
BLACK
6
CONTINUOUS
10
86.125
20
-91.1421
11
85.4107
21
-91.1421
0
LINE
8
BLACK
6
CONTINUOUS
10
85.4107
20
-91.1421
11
85.125
21
-90.9993
0
LINE
8
BLACK
6
CONTINUOUS
10
85.125
20
-90.9993
11
84.9821
21
-90.7136
0
LINE
8
BLACK
6
CONTINUOUS
10
84.9821
20
-90.7136
11
84.9821
21
-90.4279
0
LINE
8
BLACK
6
CONTINUOUS
10
84.9821
20
-90.4279
11
85.125
21
-90.1421
0
LINE
8
BLACK
6
CONTINUOUS
10
85.125
20
-90.1421
11
85.4107
21
-89.9993
0
LINE
8
BLACK
6
CONTINUOUS
10
85.4107
20
-89.9993
11
86.125
21
-89.9993
0
LINE
8
BLACK
6
CONTINUOUS
10
86.125
20
-89.9993
11
86.4107
21
-89.8564
0
LINE
8
BLACK
6
CONTINUOUS
10
87.4107
20
-89.1421
11
88.5536
21
-89.1421
0
LINE
8
BLACK
6
CONTINUOUS
10
87.8393
20
-88.1421
11
87.8393
21
-90.7136
0
LINE
8
BLACK
6
CONTINUOUS
10
87.8393
20
-90.7136
11
87.9821
21
-90.9993
0
LINE
8
BLACK
6
CONTINUOUS
10
87.9821
20
-90.9993
11
88.2679
21
-91.1421
0
LINE
8
BLACK
6
CONTINUOUS
10
88.2679
20
-91.1421
11
88.5536
21
-91.1421
0
LINE
8
BLACK
6
CONTINUOUS
10
90.6964
20
-90.9993
11
90.4107
21
-91.1421
0
LINE
8
BLACK
6
CONTINUOUS
10
90.4107
20
-91.1421
11
89.8393
21
-91.1421
0
LINE
8
BLACK
6
CONTINUOUS
10
89.8393
20
-91.1421
11
89.5536
21
-90.9993
0
LINE
8
BLACK
6
CONTINUOUS
10
89.5536
20
-90.9993
11
89.4107
21
-90.7136
0
LINE
8
BLACK
6
CONTINUOUS
10
89.4107
20
-90.7136
11
89.4107
21
-89.5707
0
LINE
8
BLACK
6
CONTINUOUS
10
89.4107
20
-89.5707
11
89.5536
21
-89.285
0
LINE
8
BLACK
6
CONTINUOUS
10
89.5536
20
-89.285
11
89.8393
21
-89.1421
0
LINE
8
BLACK
6
CONTINUOUS
10
89.8393
20
-89.1421
11
90.4107
21
-89.1421
0
LINE
8
BLACK
6
CONTINUOUS
10
90.4107
20
-89.1421
11
90.6964
21
-89.285
0
LINE
8
BLACK
6
CONTINUOUS
10
90.6964
20
-89.285
11
90.8393
21
-89.5707
0
LINE
8
BLACK
6
CONTINUOUS
10
90.8393
20
-89.5707
11
90.8393
21
-89.8564
0
LINE
8
BLACK
6
CONTINUOUS
10
90.8393
20
-89.8564
11
89.4107
21
-90.1421
0
LINE
8
BLACK
6
CONTINUOUS
10
93.4107
20
-91.1421
11
93.4107
21
-88.1421
0
LINE
8
BLACK
6
CONTINUOUS
10
93.4107
20
-90.9993
11
93.125
21
-91.1421
0
LINE
8
BLACK
6
CONTINUOUS
10
93.125
20
-91.1421
11
92.5536
21
-91.1421
0
LINE
8
BLACK
6
CONTINUOUS
10
92.5536
20
-91.1421
11
92.2679
21
-90.9993
0
LINE
8
BLACK
6
CONTINUOUS
10
92.2679
20
-90.9993
11
92.125
21
-90.8564
0
LINE
8
BLACK
6
CONTINUOUS
10
92.125
20
-90.8564
11
91.9821
21
-90.5707
0
LINE
8
BLACK
6
CONTINUOUS
10
91.9821
20
-90.5707
11
91.9821
21
-89.7136
0
LINE
8
BLACK
6
CONTINUOUS
10
91.9821
20
-89.7136
11
92.125
21
-89.4279
0
LINE
8
BLACK
6
CONTINUOUS
10
92.125
20
-89.4279
11
92.2679
21
-89.285
0
LINE
8
BLACK
6
CONTINUOUS
10
92.2679
20
-89.285
11
92.5536
21
-89.1421
0
LINE
8
BLACK
6
CONTINUOUS
10
92.5536
20
-89.1421
11
93.125
21
-89.1421
0
LINE
8
BLACK
6
CONTINUOUS
10
93.125
20
-89.1421
11
93.4107
21
-89.285
0
LINE
8
BLACK
6
CONTINUOUS
10
94.5536
20
-92.285
11
94.6964
21
-92.1421
0
LINE
8
BLACK
6
CONTINUOUS
10
94.6964
20
-92.1421
11
94.9821
21
-91.7136
0
LINE
8
BLACK
6
CONTINUOUS
10
94.9821
20
-91.7136
11
95.125
21
-91.4279
0
LINE
8
BLACK
6
CONTINUOUS
10
95.125
20
-91.4279
11
95.2679
21
-90.9993
0
LINE
8
BLACK
6
CONTINUOUS
10
95.2679
20
-90.9993
11
95.4107
21
-90.285
0
LINE
8
BLACK
6
CONTINUOUS
10
95.4107
20
-90.285
11
95.4107
21
-89.7136
0
LINE
8
BLACK
6
CONTINUOUS
10
95.4107
20
-89.7136
11
95.2679
21
-88.9993
0
LINE
8
BLACK
6
CONTINUOUS
10
95.2679
20
-88.9993
11
95.125
21
-88.5707
0
LINE
8
BLACK
6
CONTINUOUS
10
95.125
20
-88.5707
11
94.9821
21
-88.285
0
LINE
8
BLACK
6
CONTINUOUS
10
94.9821
20
-88.285
11
94.6964
21
-87.8564
0
LINE
8
BLACK
6
CONTINUOUS
10
94.6964
20
-87.8564
11
94.5536
21
-87.7136
  0
ENDSEC
  0
EOF
