G04 #@! TF.GenerationSoftware,KiCad,Pcbnew,(5.1.2)-1*
G04 #@! TF.CreationDate,2019-06-10T17:23:03-04:00*
G04 #@! TF.ProjectId,pev_uvw_sw,7065765f-7576-4775-9f73-772e6b696361,rev?*
G04 #@! TF.SameCoordinates,Original*
G04 #@! TF.FileFunction,Legend,Top*
G04 #@! TF.FilePolarity,Positive*
%FSLAX46Y46*%
G04 Gerber Fmt 4.6, Leading zero omitted, Abs format (unit mm)*
G04 Created by KiCad (PCBNEW (5.1.2)-1) date 2019-06-10 17:23:03*
%MOMM*%
%LPD*%
G04 APERTURE LIST*
%ADD10C,0.100000*%
%ADD11C,0.120000*%
%ADD12C,0.150000*%
G04 APERTURE END LIST*
D10*
X96183809Y-74352142D02*
X96793333Y-74352142D01*
X96488571Y-74656904D02*
X96488571Y-74047380D01*
X97555238Y-73856904D02*
X97174285Y-73856904D01*
X97136190Y-74237857D01*
X97174285Y-74199761D01*
X97250476Y-74161666D01*
X97440952Y-74161666D01*
X97517142Y-74199761D01*
X97555238Y-74237857D01*
X97593333Y-74314047D01*
X97593333Y-74504523D01*
X97555238Y-74580714D01*
X97517142Y-74618809D01*
X97440952Y-74656904D01*
X97250476Y-74656904D01*
X97174285Y-74618809D01*
X97136190Y-74580714D01*
X97821904Y-73856904D02*
X98088571Y-74656904D01*
X98355238Y-73856904D01*
X98431428Y-74733095D02*
X99040952Y-74733095D01*
X99231428Y-74237857D02*
X99498095Y-74237857D01*
X99612380Y-74656904D02*
X99231428Y-74656904D01*
X99231428Y-73856904D01*
X99612380Y-73856904D01*
X99879047Y-73856904D02*
X100412380Y-74656904D01*
X100412380Y-73856904D02*
X99879047Y-74656904D01*
X100602857Y-73856904D02*
X101060000Y-73856904D01*
X100831428Y-74656904D02*
X100831428Y-73856904D01*
X101326666Y-74352142D02*
X101936190Y-74352142D01*
D11*
X90170000Y-58420000D02*
X92710000Y-55880000D01*
X90170000Y-74930000D02*
X90170000Y-58420000D01*
X72390000Y-58420000D02*
X74930000Y-55880000D01*
X72390000Y-74930000D02*
X72390000Y-58420000D01*
D12*
X64778333Y-71842380D02*
X65111666Y-72842380D01*
X65445000Y-71842380D01*
X66111666Y-72318571D02*
X66254523Y-72366190D01*
X66302142Y-72413809D01*
X66349761Y-72509047D01*
X66349761Y-72651904D01*
X66302142Y-72747142D01*
X66254523Y-72794761D01*
X66159285Y-72842380D01*
X65778333Y-72842380D01*
X65778333Y-71842380D01*
X66111666Y-71842380D01*
X66206904Y-71890000D01*
X66254523Y-71937619D01*
X66302142Y-72032857D01*
X66302142Y-72128095D01*
X66254523Y-72223333D01*
X66206904Y-72270952D01*
X66111666Y-72318571D01*
X65778333Y-72318571D01*
X66730714Y-72556666D02*
X67206904Y-72556666D01*
X66635476Y-72842380D02*
X66968809Y-71842380D01*
X67302142Y-72842380D01*
X67492619Y-71842380D02*
X68064047Y-71842380D01*
X67778333Y-72842380D02*
X67778333Y-71842380D01*
X68397380Y-72318571D02*
X69159285Y-72318571D01*
X69159285Y-72604285D02*
X68397380Y-72604285D01*
X70111666Y-71842380D02*
X69635476Y-71842380D01*
X69587857Y-72318571D01*
X69635476Y-72270952D01*
X69730714Y-72223333D01*
X69968809Y-72223333D01*
X70064047Y-72270952D01*
X70111666Y-72318571D01*
X70159285Y-72413809D01*
X70159285Y-72651904D01*
X70111666Y-72747142D01*
X70064047Y-72794761D01*
X69968809Y-72842380D01*
X69730714Y-72842380D01*
X69635476Y-72794761D01*
X69587857Y-72747142D01*
X70445000Y-71842380D02*
X70778333Y-72842380D01*
X71111666Y-71842380D01*
D11*
X11430000Y-53975000D02*
X26035000Y-53975000D01*
X9525000Y-55880000D02*
X11430000Y-53975000D01*
X44450000Y-60960000D02*
X43180000Y-62230000D01*
X44450000Y-53975000D02*
X44450000Y-60960000D01*
X34925000Y-69215000D02*
X34925000Y-74930000D01*
X36195000Y-67945000D02*
X34925000Y-69215000D01*
X36195000Y-62865000D02*
X36195000Y-67945000D01*
D12*
X9797023Y-2517142D02*
X9749404Y-2564761D01*
X9606547Y-2612380D01*
X9511309Y-2612380D01*
X9368452Y-2564761D01*
X9273214Y-2469523D01*
X9225595Y-2374285D01*
X9177976Y-2183809D01*
X9177976Y-2040952D01*
X9225595Y-1850476D01*
X9273214Y-1755238D01*
X9368452Y-1660000D01*
X9511309Y-1612380D01*
X9606547Y-1612380D01*
X9749404Y-1660000D01*
X9797023Y-1707619D01*
X10225595Y-2612380D02*
X10225595Y-1945714D01*
X10225595Y-1612380D02*
X10177976Y-1660000D01*
X10225595Y-1707619D01*
X10273214Y-1660000D01*
X10225595Y-1612380D01*
X10225595Y-1707619D01*
X10558928Y-1945714D02*
X10939880Y-1945714D01*
X10701785Y-1612380D02*
X10701785Y-2469523D01*
X10749404Y-2564761D01*
X10844642Y-2612380D01*
X10939880Y-2612380D01*
X11177976Y-1945714D02*
X11416071Y-2612380D01*
X11654166Y-1945714D02*
X11416071Y-2612380D01*
X11320833Y-2850476D01*
X11273214Y-2898095D01*
X11177976Y-2945714D01*
X12749404Y-2564761D02*
X12892261Y-2612380D01*
X13130357Y-2612380D01*
X13225595Y-2564761D01*
X13273214Y-2517142D01*
X13320833Y-2421904D01*
X13320833Y-2326666D01*
X13273214Y-2231428D01*
X13225595Y-2183809D01*
X13130357Y-2136190D01*
X12939880Y-2088571D01*
X12844642Y-2040952D01*
X12797023Y-1993333D01*
X12749404Y-1898095D01*
X12749404Y-1802857D01*
X12797023Y-1707619D01*
X12844642Y-1660000D01*
X12939880Y-1612380D01*
X13177976Y-1612380D01*
X13320833Y-1660000D01*
X14177976Y-2564761D02*
X14082738Y-2612380D01*
X13892261Y-2612380D01*
X13797023Y-2564761D01*
X13749404Y-2517142D01*
X13701785Y-2421904D01*
X13701785Y-2136190D01*
X13749404Y-2040952D01*
X13797023Y-1993333D01*
X13892261Y-1945714D01*
X14082738Y-1945714D01*
X14177976Y-1993333D01*
X14606547Y-2612380D02*
X14606547Y-1945714D01*
X14606547Y-1612380D02*
X14558928Y-1660000D01*
X14606547Y-1707619D01*
X14654166Y-1660000D01*
X14606547Y-1612380D01*
X14606547Y-1707619D01*
X15463690Y-2564761D02*
X15368452Y-2612380D01*
X15177976Y-2612380D01*
X15082738Y-2564761D01*
X15035119Y-2469523D01*
X15035119Y-2088571D01*
X15082738Y-1993333D01*
X15177976Y-1945714D01*
X15368452Y-1945714D01*
X15463690Y-1993333D01*
X15511309Y-2088571D01*
X15511309Y-2183809D01*
X15035119Y-2279047D01*
X15939880Y-1945714D02*
X15939880Y-2612380D01*
X15939880Y-2040952D02*
X15987500Y-1993333D01*
X16082738Y-1945714D01*
X16225595Y-1945714D01*
X16320833Y-1993333D01*
X16368452Y-2088571D01*
X16368452Y-2612380D01*
X17273214Y-2564761D02*
X17177976Y-2612380D01*
X16987500Y-2612380D01*
X16892261Y-2564761D01*
X16844642Y-2517142D01*
X16797023Y-2421904D01*
X16797023Y-2136190D01*
X16844642Y-2040952D01*
X16892261Y-1993333D01*
X16987500Y-1945714D01*
X17177976Y-1945714D01*
X17273214Y-1993333D01*
X18082738Y-2564761D02*
X17987500Y-2612380D01*
X17797023Y-2612380D01*
X17701785Y-2564761D01*
X17654166Y-2469523D01*
X17654166Y-2088571D01*
X17701785Y-1993333D01*
X17797023Y-1945714D01*
X17987500Y-1945714D01*
X18082738Y-1993333D01*
X18130357Y-2088571D01*
X18130357Y-2183809D01*
X17654166Y-2279047D01*
X19320833Y-2231428D02*
X20082738Y-2231428D01*
X21320833Y-2612380D02*
X21320833Y-1612380D01*
X21654166Y-2326666D01*
X21987500Y-1612380D01*
X21987500Y-2612380D01*
X22463690Y-2612380D02*
X22463690Y-1612380D01*
X22797023Y-1612380D02*
X23368452Y-1612380D01*
X23082738Y-2612380D02*
X23082738Y-1612380D01*
X24463690Y-2612380D02*
X24463690Y-1612380D01*
X24797023Y-2326666D01*
X25130357Y-1612380D01*
X25130357Y-2612380D01*
X25987499Y-2564761D02*
X25892261Y-2612380D01*
X25701785Y-2612380D01*
X25606547Y-2564761D01*
X25558928Y-2469523D01*
X25558928Y-2088571D01*
X25606547Y-1993333D01*
X25701785Y-1945714D01*
X25892261Y-1945714D01*
X25987499Y-1993333D01*
X26035119Y-2088571D01*
X26035119Y-2183809D01*
X25558928Y-2279047D01*
X26892261Y-2612380D02*
X26892261Y-1612380D01*
X26892261Y-2564761D02*
X26797023Y-2612380D01*
X26606547Y-2612380D01*
X26511309Y-2564761D01*
X26463690Y-2517142D01*
X26416071Y-2421904D01*
X26416071Y-2136190D01*
X26463690Y-2040952D01*
X26511309Y-1993333D01*
X26606547Y-1945714D01*
X26797023Y-1945714D01*
X26892261Y-1993333D01*
X27368452Y-2612380D02*
X27368452Y-1945714D01*
X27368452Y-1612380D02*
X27320833Y-1660000D01*
X27368452Y-1707619D01*
X27416071Y-1660000D01*
X27368452Y-1612380D01*
X27368452Y-1707619D01*
X28273214Y-2612380D02*
X28273214Y-2088571D01*
X28225595Y-1993333D01*
X28130357Y-1945714D01*
X27939880Y-1945714D01*
X27844642Y-1993333D01*
X28273214Y-2564761D02*
X28177976Y-2612380D01*
X27939880Y-2612380D01*
X27844642Y-2564761D01*
X27797023Y-2469523D01*
X27797023Y-2374285D01*
X27844642Y-2279047D01*
X27939880Y-2231428D01*
X28177976Y-2231428D01*
X28273214Y-2183809D01*
X29987499Y-2612380D02*
X29511309Y-2612380D01*
X29511309Y-1612380D01*
X30749404Y-2612380D02*
X30749404Y-2088571D01*
X30701785Y-1993333D01*
X30606547Y-1945714D01*
X30416071Y-1945714D01*
X30320833Y-1993333D01*
X30749404Y-2564761D02*
X30654166Y-2612380D01*
X30416071Y-2612380D01*
X30320833Y-2564761D01*
X30273214Y-2469523D01*
X30273214Y-2374285D01*
X30320833Y-2279047D01*
X30416071Y-2231428D01*
X30654166Y-2231428D01*
X30749404Y-2183809D01*
X31225595Y-2612380D02*
X31225595Y-1612380D01*
X31225595Y-1993333D02*
X31320833Y-1945714D01*
X31511309Y-1945714D01*
X31606547Y-1993333D01*
X31654166Y-2040952D01*
X31701785Y-2136190D01*
X31701785Y-2421904D01*
X31654166Y-2517142D01*
X31606547Y-2564761D01*
X31511309Y-2612380D01*
X31320833Y-2612380D01*
X31225595Y-2564761D01*
X9225595Y-3262380D02*
X9225595Y-4071904D01*
X9273214Y-4167142D01*
X9320833Y-4214761D01*
X9416071Y-4262380D01*
X9606547Y-4262380D01*
X9701785Y-4214761D01*
X9749404Y-4167142D01*
X9797023Y-4071904D01*
X9797023Y-3262380D01*
X10130357Y-3262380D02*
X10463690Y-4262380D01*
X10797023Y-3262380D01*
X11035119Y-3262380D02*
X11273214Y-4262380D01*
X11463690Y-3548095D01*
X11654166Y-4262380D01*
X11892261Y-3262380D01*
X12987500Y-4214761D02*
X13082738Y-4262380D01*
X13273214Y-4262380D01*
X13368452Y-4214761D01*
X13416071Y-4119523D01*
X13416071Y-4071904D01*
X13368452Y-3976666D01*
X13273214Y-3929047D01*
X13130357Y-3929047D01*
X13035119Y-3881428D01*
X12987500Y-3786190D01*
X12987500Y-3738571D01*
X13035119Y-3643333D01*
X13130357Y-3595714D01*
X13273214Y-3595714D01*
X13368452Y-3643333D01*
X13749404Y-3595714D02*
X13939880Y-4262380D01*
X14130357Y-3786190D01*
X14320833Y-4262380D01*
X14511309Y-3595714D01*
X14892261Y-4262380D02*
X14892261Y-3595714D01*
X14892261Y-3262380D02*
X14844642Y-3310000D01*
X14892261Y-3357619D01*
X14939880Y-3310000D01*
X14892261Y-3262380D01*
X14892261Y-3357619D01*
X15225595Y-3595714D02*
X15606547Y-3595714D01*
X15368452Y-3262380D02*
X15368452Y-4119523D01*
X15416071Y-4214761D01*
X15511309Y-4262380D01*
X15606547Y-4262380D01*
X16368452Y-4214761D02*
X16273214Y-4262380D01*
X16082738Y-4262380D01*
X15987499Y-4214761D01*
X15939880Y-4167142D01*
X15892261Y-4071904D01*
X15892261Y-3786190D01*
X15939880Y-3690952D01*
X15987499Y-3643333D01*
X16082738Y-3595714D01*
X16273214Y-3595714D01*
X16368452Y-3643333D01*
X16797023Y-4262380D02*
X16797023Y-3262380D01*
X17225595Y-4262380D02*
X17225595Y-3738571D01*
X17177976Y-3643333D01*
X17082738Y-3595714D01*
X16939880Y-3595714D01*
X16844642Y-3643333D01*
X16797023Y-3690952D01*
X18416071Y-3357619D02*
X18463690Y-3310000D01*
X18558928Y-3262380D01*
X18797023Y-3262380D01*
X18892261Y-3310000D01*
X18939880Y-3357619D01*
X18987499Y-3452857D01*
X18987499Y-3548095D01*
X18939880Y-3690952D01*
X18368452Y-4262380D01*
X18987499Y-4262380D01*
X19416071Y-4167142D02*
X19463690Y-4214761D01*
X19416071Y-4262380D01*
X19368452Y-4214761D01*
X19416071Y-4167142D01*
X19416071Y-4262380D01*
X20082738Y-3262380D02*
X20177976Y-3262380D01*
X20273214Y-3310000D01*
X20320833Y-3357619D01*
X20368452Y-3452857D01*
X20416071Y-3643333D01*
X20416071Y-3881428D01*
X20368452Y-4071904D01*
X20320833Y-4167142D01*
X20273214Y-4214761D01*
X20177976Y-4262380D01*
X20082738Y-4262380D01*
X19987499Y-4214761D01*
X19939880Y-4167142D01*
X19892261Y-4071904D01*
X19844642Y-3881428D01*
X19844642Y-3643333D01*
X19892261Y-3452857D01*
X19939880Y-3357619D01*
X19987499Y-3310000D01*
X20082738Y-3262380D01*
X9225595Y-5912380D02*
X9225595Y-4912380D01*
X9463690Y-4912380D01*
X9606547Y-4960000D01*
X9701785Y-5055238D01*
X9749404Y-5150476D01*
X9797023Y-5340952D01*
X9797023Y-5483809D01*
X9749404Y-5674285D01*
X9701785Y-5769523D01*
X9606547Y-5864761D01*
X9463690Y-5912380D01*
X9225595Y-5912380D01*
X10177976Y-5626666D02*
X10654166Y-5626666D01*
X10082738Y-5912380D02*
X10416071Y-4912380D01*
X10749404Y-5912380D01*
X11082738Y-5912380D02*
X11082738Y-4912380D01*
X11654166Y-5912380D01*
X11654166Y-4912380D01*
X12701785Y-5817142D02*
X12654166Y-5864761D01*
X12511309Y-5912380D01*
X12416071Y-5912380D01*
X12273214Y-5864761D01*
X12177976Y-5769523D01*
X12130357Y-5674285D01*
X12082738Y-5483809D01*
X12082738Y-5340952D01*
X12130357Y-5150476D01*
X12177976Y-5055238D01*
X12273214Y-4960000D01*
X12416071Y-4912380D01*
X12511309Y-4912380D01*
X12654166Y-4960000D01*
X12701785Y-5007619D01*
X13130357Y-5912380D02*
X13130357Y-4912380D01*
X13130357Y-5388571D02*
X13701785Y-5388571D01*
X13701785Y-5912380D02*
X13701785Y-4912380D01*
X14368452Y-4912380D02*
X14558928Y-4912380D01*
X14654166Y-4960000D01*
X14749404Y-5055238D01*
X14797023Y-5245714D01*
X14797023Y-5579047D01*
X14749404Y-5769523D01*
X14654166Y-5864761D01*
X14558928Y-5912380D01*
X14368452Y-5912380D01*
X14273214Y-5864761D01*
X14177976Y-5769523D01*
X14130357Y-5579047D01*
X14130357Y-5245714D01*
X14177976Y-5055238D01*
X14273214Y-4960000D01*
X14368452Y-4912380D01*
X15225595Y-4912380D02*
X15225595Y-5721904D01*
X15273214Y-5817142D01*
X15320833Y-5864761D01*
X15416071Y-5912380D01*
X15606547Y-5912380D01*
X15701785Y-5864761D01*
X15749404Y-5817142D01*
X15797023Y-5721904D01*
X15797023Y-4912380D01*
X16177976Y-4912380D02*
X16844642Y-4912380D01*
X16177976Y-5912380D01*
X16844642Y-5912380D01*
X17225595Y-5912380D02*
X17225595Y-4912380D01*
X17225595Y-5388571D02*
X17797023Y-5388571D01*
X17797023Y-5912380D02*
X17797023Y-4912380D01*
X18463690Y-4912380D02*
X18654166Y-4912380D01*
X18749404Y-4960000D01*
X18844642Y-5055238D01*
X18892261Y-5245714D01*
X18892261Y-5579047D01*
X18844642Y-5769523D01*
X18749404Y-5864761D01*
X18654166Y-5912380D01*
X18463690Y-5912380D01*
X18368452Y-5864761D01*
X18273214Y-5769523D01*
X18225595Y-5579047D01*
X18225595Y-5245714D01*
X18273214Y-5055238D01*
X18368452Y-4960000D01*
X18463690Y-4912380D01*
X19320833Y-4912380D02*
X19320833Y-5721904D01*
X19368452Y-5817142D01*
X19416071Y-5864761D01*
X19511309Y-5912380D01*
X19701785Y-5912380D01*
X19797023Y-5864761D01*
X19844642Y-5817142D01*
X19892261Y-5721904D01*
X19892261Y-4912380D01*
X21082738Y-5007619D02*
X21130357Y-4960000D01*
X21225595Y-4912380D01*
X21463690Y-4912380D01*
X21558928Y-4960000D01*
X21606547Y-5007619D01*
X21654166Y-5102857D01*
X21654166Y-5198095D01*
X21606547Y-5340952D01*
X21035119Y-5912380D01*
X21654166Y-5912380D01*
X22273214Y-4912380D02*
X22368452Y-4912380D01*
X22463690Y-4960000D01*
X22511309Y-5007619D01*
X22558928Y-5102857D01*
X22606547Y-5293333D01*
X22606547Y-5531428D01*
X22558928Y-5721904D01*
X22511309Y-5817142D01*
X22463690Y-5864761D01*
X22368452Y-5912380D01*
X22273214Y-5912380D01*
X22177976Y-5864761D01*
X22130357Y-5817142D01*
X22082738Y-5721904D01*
X22035119Y-5531428D01*
X22035119Y-5293333D01*
X22082738Y-5102857D01*
X22130357Y-5007619D01*
X22177976Y-4960000D01*
X22273214Y-4912380D01*
X23558928Y-5912380D02*
X22987499Y-5912380D01*
X23273214Y-5912380D02*
X23273214Y-4912380D01*
X23177976Y-5055238D01*
X23082738Y-5150476D01*
X22987499Y-5198095D01*
X24035119Y-5912380D02*
X24225595Y-5912380D01*
X24320833Y-5864761D01*
X24368452Y-5817142D01*
X24463690Y-5674285D01*
X24511309Y-5483809D01*
X24511309Y-5102857D01*
X24463690Y-5007619D01*
X24416071Y-4960000D01*
X24320833Y-4912380D01*
X24130357Y-4912380D01*
X24035119Y-4960000D01*
X23987499Y-5007619D01*
X23939880Y-5102857D01*
X23939880Y-5340952D01*
X23987499Y-5436190D01*
X24035119Y-5483809D01*
X24130357Y-5531428D01*
X24320833Y-5531428D01*
X24416071Y-5483809D01*
X24463690Y-5436190D01*
X24511309Y-5340952D01*
X24939880Y-5531428D02*
X25701785Y-5531428D01*
X26368452Y-4912380D02*
X26463690Y-4912380D01*
X26558928Y-4960000D01*
X26606547Y-5007619D01*
X26654166Y-5102857D01*
X26701785Y-5293333D01*
X26701785Y-5531428D01*
X26654166Y-5721904D01*
X26606547Y-5817142D01*
X26558928Y-5864761D01*
X26463690Y-5912380D01*
X26368452Y-5912380D01*
X26273214Y-5864761D01*
X26225595Y-5817142D01*
X26177976Y-5721904D01*
X26130357Y-5531428D01*
X26130357Y-5293333D01*
X26177976Y-5102857D01*
X26225595Y-5007619D01*
X26273214Y-4960000D01*
X26368452Y-4912380D01*
X27558928Y-4912380D02*
X27368452Y-4912380D01*
X27273214Y-4960000D01*
X27225595Y-5007619D01*
X27130357Y-5150476D01*
X27082738Y-5340952D01*
X27082738Y-5721904D01*
X27130357Y-5817142D01*
X27177976Y-5864761D01*
X27273214Y-5912380D01*
X27463690Y-5912380D01*
X27558928Y-5864761D01*
X27606547Y-5817142D01*
X27654166Y-5721904D01*
X27654166Y-5483809D01*
X27606547Y-5388571D01*
X27558928Y-5340952D01*
X27463690Y-5293333D01*
X27273214Y-5293333D01*
X27177976Y-5340952D01*
X27130357Y-5388571D01*
X27082738Y-5483809D01*
X71286666Y-63229761D02*
X71286666Y-62753571D01*
X71572380Y-63325000D02*
X70572380Y-62991666D01*
X71572380Y-62658333D01*
X70572380Y-62467857D02*
X71572380Y-62134523D01*
X70572380Y-61801190D01*
X71572380Y-60896428D02*
X71096190Y-61229761D01*
X71572380Y-61467857D02*
X70572380Y-61467857D01*
X70572380Y-61086904D01*
X70620000Y-60991666D01*
X70667619Y-60944047D01*
X70762857Y-60896428D01*
X70905714Y-60896428D01*
X71000952Y-60944047D01*
X71048571Y-60991666D01*
X71096190Y-61086904D01*
X71096190Y-61467857D01*
X71667619Y-60705952D02*
X71667619Y-59944047D01*
X71572380Y-59134523D02*
X71096190Y-59467857D01*
X71572380Y-59705952D02*
X70572380Y-59705952D01*
X70572380Y-59325000D01*
X70620000Y-59229761D01*
X70667619Y-59182142D01*
X70762857Y-59134523D01*
X70905714Y-59134523D01*
X71000952Y-59182142D01*
X71048571Y-59229761D01*
X71096190Y-59325000D01*
X71096190Y-59705952D01*
X71524761Y-58753571D02*
X71572380Y-58610714D01*
X71572380Y-58372619D01*
X71524761Y-58277380D01*
X71477142Y-58229761D01*
X71381904Y-58182142D01*
X71286666Y-58182142D01*
X71191428Y-58229761D01*
X71143809Y-58277380D01*
X71096190Y-58372619D01*
X71048571Y-58563095D01*
X71000952Y-58658333D01*
X70953333Y-58705952D01*
X70858095Y-58753571D01*
X70762857Y-58753571D01*
X70667619Y-58705952D01*
X70620000Y-58658333D01*
X70572380Y-58563095D01*
X70572380Y-58325000D01*
X70620000Y-58182142D01*
X70572380Y-57896428D02*
X70572380Y-57325000D01*
X71572380Y-57610714D02*
X70572380Y-57610714D01*
X9717738Y-40092380D02*
X10051071Y-41092380D01*
X10384404Y-40092380D01*
X10717738Y-40568571D02*
X11051071Y-40568571D01*
X11193928Y-41092380D02*
X10717738Y-41092380D01*
X10717738Y-40092380D01*
X11193928Y-40092380D01*
X11574880Y-41044761D02*
X11717738Y-41092380D01*
X11955833Y-41092380D01*
X12051071Y-41044761D01*
X12098690Y-40997142D01*
X12146309Y-40901904D01*
X12146309Y-40806666D01*
X12098690Y-40711428D01*
X12051071Y-40663809D01*
X11955833Y-40616190D01*
X11765357Y-40568571D01*
X11670119Y-40520952D01*
X11622500Y-40473333D01*
X11574880Y-40378095D01*
X11574880Y-40282857D01*
X11622500Y-40187619D01*
X11670119Y-40140000D01*
X11765357Y-40092380D01*
X12003452Y-40092380D01*
X12146309Y-40140000D01*
X13146309Y-40997142D02*
X13098690Y-41044761D01*
X12955833Y-41092380D01*
X12860595Y-41092380D01*
X12717738Y-41044761D01*
X12622500Y-40949523D01*
X12574880Y-40854285D01*
X12527261Y-40663809D01*
X12527261Y-40520952D01*
X12574880Y-40330476D01*
X12622500Y-40235238D01*
X12717738Y-40140000D01*
X12860595Y-40092380D01*
X12955833Y-40092380D01*
X13098690Y-40140000D01*
X13146309Y-40187619D01*
X9225595Y-10612380D02*
X9225595Y-9612380D01*
X9558928Y-10326666D01*
X9892261Y-9612380D01*
X9892261Y-10612380D01*
X10511309Y-10612380D02*
X10416071Y-10564761D01*
X10368452Y-10517142D01*
X10320833Y-10421904D01*
X10320833Y-10136190D01*
X10368452Y-10040952D01*
X10416071Y-9993333D01*
X10511309Y-9945714D01*
X10654166Y-9945714D01*
X10749404Y-9993333D01*
X10797023Y-10040952D01*
X10844642Y-10136190D01*
X10844642Y-10421904D01*
X10797023Y-10517142D01*
X10749404Y-10564761D01*
X10654166Y-10612380D01*
X10511309Y-10612380D01*
X11130357Y-9945714D02*
X11511309Y-9945714D01*
X11273214Y-9612380D02*
X11273214Y-10469523D01*
X11320833Y-10564761D01*
X11416071Y-10612380D01*
X11511309Y-10612380D01*
X11987500Y-10612380D02*
X11892261Y-10564761D01*
X11844642Y-10517142D01*
X11797023Y-10421904D01*
X11797023Y-10136190D01*
X11844642Y-10040952D01*
X11892261Y-9993333D01*
X11987500Y-9945714D01*
X12130357Y-9945714D01*
X12225595Y-9993333D01*
X12273214Y-10040952D01*
X12320833Y-10136190D01*
X12320833Y-10421904D01*
X12273214Y-10517142D01*
X12225595Y-10564761D01*
X12130357Y-10612380D01*
X11987500Y-10612380D01*
X12749404Y-10612380D02*
X12749404Y-9945714D01*
X12749404Y-10136190D02*
X12797023Y-10040952D01*
X12844642Y-9993333D01*
X12939880Y-9945714D01*
X13035119Y-9945714D01*
X9558928Y-25328571D02*
X9701785Y-25376190D01*
X9749404Y-25423809D01*
X9797023Y-25519047D01*
X9797023Y-25661904D01*
X9749404Y-25757142D01*
X9701785Y-25804761D01*
X9606547Y-25852380D01*
X9225595Y-25852380D01*
X9225595Y-24852380D01*
X9558928Y-24852380D01*
X9654166Y-24900000D01*
X9701785Y-24947619D01*
X9749404Y-25042857D01*
X9749404Y-25138095D01*
X9701785Y-25233333D01*
X9654166Y-25280952D01*
X9558928Y-25328571D01*
X9225595Y-25328571D01*
X10654166Y-25852380D02*
X10654166Y-25328571D01*
X10606547Y-25233333D01*
X10511309Y-25185714D01*
X10320833Y-25185714D01*
X10225595Y-25233333D01*
X10654166Y-25804761D02*
X10558928Y-25852380D01*
X10320833Y-25852380D01*
X10225595Y-25804761D01*
X10177976Y-25709523D01*
X10177976Y-25614285D01*
X10225595Y-25519047D01*
X10320833Y-25471428D01*
X10558928Y-25471428D01*
X10654166Y-25423809D01*
X10987500Y-25185714D02*
X11368452Y-25185714D01*
X11130357Y-25852380D02*
X11130357Y-24995238D01*
X11177976Y-24900000D01*
X11273214Y-24852380D01*
X11368452Y-24852380D01*
X12130357Y-25852380D02*
X12130357Y-25328571D01*
X12082738Y-25233333D01*
X11987500Y-25185714D01*
X11797023Y-25185714D01*
X11701785Y-25233333D01*
X12130357Y-25804761D02*
X12035119Y-25852380D01*
X11797023Y-25852380D01*
X11701785Y-25804761D01*
X11654166Y-25709523D01*
X11654166Y-25614285D01*
X11701785Y-25519047D01*
X11797023Y-25471428D01*
X12035119Y-25471428D01*
X12130357Y-25423809D01*
X12606547Y-25185714D02*
X12606547Y-25852380D01*
X12606547Y-25280952D02*
X12654166Y-25233333D01*
X12749404Y-25185714D01*
X12892261Y-25185714D01*
X12987500Y-25233333D01*
X13035119Y-25328571D01*
X13035119Y-25852380D01*
X13939880Y-25185714D02*
X13939880Y-25995238D01*
X13892261Y-26090476D01*
X13844642Y-26138095D01*
X13749404Y-26185714D01*
X13606547Y-26185714D01*
X13511309Y-26138095D01*
X13939880Y-25804761D02*
X13844642Y-25852380D01*
X13654166Y-25852380D01*
X13558928Y-25804761D01*
X13511309Y-25757142D01*
X13463690Y-25661904D01*
X13463690Y-25376190D01*
X13511309Y-25280952D01*
X13558928Y-25233333D01*
X13654166Y-25185714D01*
X13844642Y-25185714D01*
X13939880Y-25233333D01*
X15606547Y-25804761D02*
X15511309Y-25852380D01*
X15320833Y-25852380D01*
X15225595Y-25804761D01*
X15177976Y-25757142D01*
X15130357Y-25661904D01*
X15130357Y-25376190D01*
X15177976Y-25280952D01*
X15225595Y-25233333D01*
X15320833Y-25185714D01*
X15511309Y-25185714D01*
X15606547Y-25233333D01*
X16177976Y-25852380D02*
X16082738Y-25804761D01*
X16035119Y-25757142D01*
X15987500Y-25661904D01*
X15987500Y-25376190D01*
X16035119Y-25280952D01*
X16082738Y-25233333D01*
X16177976Y-25185714D01*
X16320833Y-25185714D01*
X16416071Y-25233333D01*
X16463690Y-25280952D01*
X16511309Y-25376190D01*
X16511309Y-25661904D01*
X16463690Y-25757142D01*
X16416071Y-25804761D01*
X16320833Y-25852380D01*
X16177976Y-25852380D01*
X16939880Y-25185714D02*
X16939880Y-25852380D01*
X16939880Y-25280952D02*
X16987500Y-25233333D01*
X17082738Y-25185714D01*
X17225595Y-25185714D01*
X17320833Y-25233333D01*
X17368452Y-25328571D01*
X17368452Y-25852380D01*
X17701785Y-25185714D02*
X18082738Y-25185714D01*
X17844642Y-24852380D02*
X17844642Y-25709523D01*
X17892261Y-25804761D01*
X17987500Y-25852380D01*
X18082738Y-25852380D01*
X18416071Y-25852380D02*
X18416071Y-25185714D01*
X18416071Y-25376190D02*
X18463690Y-25280952D01*
X18511309Y-25233333D01*
X18606547Y-25185714D01*
X18701785Y-25185714D01*
X19177976Y-25852380D02*
X19082738Y-25804761D01*
X19035119Y-25757142D01*
X18987500Y-25661904D01*
X18987500Y-25376190D01*
X19035119Y-25280952D01*
X19082738Y-25233333D01*
X19177976Y-25185714D01*
X19320833Y-25185714D01*
X19416071Y-25233333D01*
X19463690Y-25280952D01*
X19511309Y-25376190D01*
X19511309Y-25661904D01*
X19463690Y-25757142D01*
X19416071Y-25804761D01*
X19320833Y-25852380D01*
X19177976Y-25852380D01*
X20082738Y-25852380D02*
X19987500Y-25804761D01*
X19939880Y-25709523D01*
X19939880Y-24852380D01*
X20606547Y-25852380D02*
X20511309Y-25804761D01*
X20463690Y-25709523D01*
X20463690Y-24852380D01*
X21368452Y-25804761D02*
X21273214Y-25852380D01*
X21082738Y-25852380D01*
X20987500Y-25804761D01*
X20939880Y-25709523D01*
X20939880Y-25328571D01*
X20987500Y-25233333D01*
X21082738Y-25185714D01*
X21273214Y-25185714D01*
X21368452Y-25233333D01*
X21416071Y-25328571D01*
X21416071Y-25423809D01*
X20939880Y-25519047D01*
X21844642Y-25852380D02*
X21844642Y-25185714D01*
X21844642Y-25376190D02*
X21892261Y-25280952D01*
X21939880Y-25233333D01*
X22035119Y-25185714D01*
X22130357Y-25185714D01*
D10*
X74092619Y-73895000D02*
X74016428Y-73856904D01*
X73902142Y-73856904D01*
X73787857Y-73895000D01*
X73711666Y-73971190D01*
X73673571Y-74047380D01*
X73635476Y-74199761D01*
X73635476Y-74314047D01*
X73673571Y-74466428D01*
X73711666Y-74542619D01*
X73787857Y-74618809D01*
X73902142Y-74656904D01*
X73978333Y-74656904D01*
X74092619Y-74618809D01*
X74130714Y-74580714D01*
X74130714Y-74314047D01*
X73978333Y-74314047D01*
X74473571Y-74656904D02*
X74473571Y-73856904D01*
X74930714Y-74656904D01*
X74930714Y-73856904D01*
X75311666Y-74656904D02*
X75311666Y-73856904D01*
X75502142Y-73856904D01*
X75616428Y-73895000D01*
X75692619Y-73971190D01*
X75730714Y-74047380D01*
X75768809Y-74199761D01*
X75768809Y-74314047D01*
X75730714Y-74466428D01*
X75692619Y-74542619D01*
X75616428Y-74618809D01*
X75502142Y-74656904D01*
X75311666Y-74656904D01*
X77178333Y-74580714D02*
X77140238Y-74618809D01*
X77025952Y-74656904D01*
X76949761Y-74656904D01*
X76835476Y-74618809D01*
X76759285Y-74542619D01*
X76721190Y-74466428D01*
X76683095Y-74314047D01*
X76683095Y-74199761D01*
X76721190Y-74047380D01*
X76759285Y-73971190D01*
X76835476Y-73895000D01*
X76949761Y-73856904D01*
X77025952Y-73856904D01*
X77140238Y-73895000D01*
X77178333Y-73933095D01*
X77483095Y-74428333D02*
X77864047Y-74428333D01*
X77406904Y-74656904D02*
X77673571Y-73856904D01*
X77940238Y-74656904D01*
X78206904Y-74656904D02*
X78206904Y-73856904D01*
X78664047Y-74656904D01*
X78664047Y-73856904D01*
X78854523Y-74733095D02*
X79464047Y-74733095D01*
X79654523Y-74656904D02*
X79654523Y-73856904D01*
X79654523Y-74237857D02*
X80111666Y-74237857D01*
X80111666Y-74656904D02*
X80111666Y-73856904D01*
X81559285Y-74580714D02*
X81521190Y-74618809D01*
X81406904Y-74656904D01*
X81330714Y-74656904D01*
X81216428Y-74618809D01*
X81140238Y-74542619D01*
X81102142Y-74466428D01*
X81064047Y-74314047D01*
X81064047Y-74199761D01*
X81102142Y-74047380D01*
X81140238Y-73971190D01*
X81216428Y-73895000D01*
X81330714Y-73856904D01*
X81406904Y-73856904D01*
X81521190Y-73895000D01*
X81559285Y-73933095D01*
X81864047Y-74428333D02*
X82245000Y-74428333D01*
X81787857Y-74656904D02*
X82054523Y-73856904D01*
X82321190Y-74656904D01*
X82587857Y-74656904D02*
X82587857Y-73856904D01*
X83045000Y-74656904D01*
X83045000Y-73856904D01*
X83235476Y-74733095D02*
X83845000Y-74733095D01*
X84416428Y-74656904D02*
X84035476Y-74656904D01*
X84035476Y-73856904D01*
X85559285Y-74237857D02*
X85673571Y-74275952D01*
X85711666Y-74314047D01*
X85749761Y-74390238D01*
X85749761Y-74504523D01*
X85711666Y-74580714D01*
X85673571Y-74618809D01*
X85597380Y-74656904D01*
X85292619Y-74656904D01*
X85292619Y-73856904D01*
X85559285Y-73856904D01*
X85635476Y-73895000D01*
X85673571Y-73933095D01*
X85711666Y-74009285D01*
X85711666Y-74085476D01*
X85673571Y-74161666D01*
X85635476Y-74199761D01*
X85559285Y-74237857D01*
X85292619Y-74237857D01*
X86054523Y-74428333D02*
X86435476Y-74428333D01*
X85978333Y-74656904D02*
X86245000Y-73856904D01*
X86511666Y-74656904D01*
X86664047Y-73856904D02*
X87121190Y-73856904D01*
X86892619Y-74656904D02*
X86892619Y-73856904D01*
X87273571Y-73856904D02*
X87730714Y-73856904D01*
X87502142Y-74656904D02*
X87502142Y-73856904D01*
D11*
X14141267Y-68705000D02*
X13798733Y-68705000D01*
X14141267Y-69725000D02*
X13798733Y-69725000D01*
X13506267Y-59815000D02*
X13163733Y-59815000D01*
X13506267Y-60835000D02*
X13163733Y-60835000D01*
X80713733Y-54735000D02*
X81056267Y-54735000D01*
X80713733Y-55755000D02*
X81056267Y-55755000D01*
X76710000Y-62796267D02*
X76710000Y-62453733D01*
X75690000Y-62796267D02*
X75690000Y-62453733D01*
X43305000Y-65336267D02*
X43305000Y-64993733D01*
X44325000Y-65336267D02*
X44325000Y-64993733D01*
X49993733Y-60200000D02*
X50336267Y-60200000D01*
X49993733Y-59180000D02*
X50336267Y-59180000D01*
X43775000Y-57215000D02*
X43775000Y-58015000D01*
X43775044Y-58015000D02*
X39325000Y-58015000D01*
X43225000Y-55015000D02*
X39325000Y-55015000D01*
X49165000Y-56205000D02*
X52025000Y-56205000D01*
X52025000Y-56205000D02*
X52025000Y-54285000D01*
X52025000Y-54285000D02*
X49165000Y-54285000D01*
X59395000Y-40275000D02*
X63245000Y-40275000D01*
X59395000Y-42275000D02*
X63245000Y-42275000D01*
X59395000Y-40275000D02*
X59395000Y-42275000D01*
X3303748Y-55320000D02*
X3826252Y-55320000D01*
X3303748Y-53900000D02*
X3826252Y-53900000D01*
X4524000Y-57552000D02*
X4524000Y-58002000D01*
X2674000Y-57552000D02*
X4524000Y-57552000D01*
X124000Y-65352000D02*
X374000Y-65352000D01*
X124000Y-57552000D02*
X374000Y-57552000D01*
X2674000Y-65352000D02*
X4524000Y-65352000D01*
X4524000Y-65352000D02*
X4524000Y-64902000D01*
X5074000Y-59752000D02*
X5074000Y-60202000D01*
X5074000Y-59752000D02*
X4624000Y-59752000D01*
X74275000Y-67390000D02*
X74275000Y-73360000D01*
X74275000Y-73360000D02*
X86895000Y-73360000D01*
X86895000Y-73360000D02*
X86895000Y-67390000D01*
X86895000Y-67390000D02*
X74275000Y-67390000D01*
X77585000Y-67400000D02*
X77585000Y-68150000D01*
X77585000Y-68150000D02*
X83585000Y-68150000D01*
X83585000Y-68150000D02*
X83585000Y-67400000D01*
X83585000Y-67400000D02*
X77585000Y-67400000D01*
X74285000Y-67400000D02*
X74285000Y-68150000D01*
X74285000Y-68150000D02*
X76085000Y-68150000D01*
X76085000Y-68150000D02*
X76085000Y-67400000D01*
X76085000Y-67400000D02*
X74285000Y-67400000D01*
X85085000Y-67400000D02*
X85085000Y-68150000D01*
X85085000Y-68150000D02*
X86885000Y-68150000D01*
X86885000Y-68150000D02*
X86885000Y-67400000D01*
X86885000Y-67400000D02*
X85085000Y-67400000D01*
X74285000Y-69650000D02*
X75035000Y-69650000D01*
X75035000Y-69650000D02*
X75035000Y-72600000D01*
X75035000Y-72600000D02*
X80585000Y-72600000D01*
X86885000Y-69650000D02*
X86135000Y-69650000D01*
X86135000Y-69650000D02*
X86135000Y-72600000D01*
X86135000Y-72600000D02*
X80585000Y-72600000D01*
X75235000Y-67100000D02*
X73985000Y-67100000D01*
X73985000Y-67100000D02*
X73985000Y-68350000D01*
X9370000Y-13430000D02*
X9370000Y-18150000D01*
X9370000Y-18150000D02*
X23490000Y-18150000D01*
X23490000Y-18150000D02*
X23490000Y-13430000D01*
X23490000Y-13430000D02*
X9370000Y-13430000D01*
X11130000Y-13430000D02*
X11130000Y-13230000D01*
X11130000Y-13230000D02*
X10830000Y-13230000D01*
X10830000Y-13230000D02*
X10830000Y-13430000D01*
X11130000Y-13330000D02*
X10830000Y-13330000D01*
X11930000Y-13430000D02*
X11930000Y-14040000D01*
X11930000Y-14040000D02*
X9980000Y-14040000D01*
X9980000Y-14040000D02*
X9980000Y-17540000D01*
X9980000Y-17540000D02*
X22880000Y-17540000D01*
X22880000Y-17540000D02*
X22880000Y-14040000D01*
X22880000Y-14040000D02*
X20930000Y-14040000D01*
X20930000Y-14040000D02*
X20930000Y-13430000D01*
X9370000Y-14740000D02*
X9980000Y-14740000D01*
X9370000Y-16040000D02*
X9980000Y-16040000D01*
X23490000Y-14740000D02*
X22880000Y-14740000D01*
X23490000Y-16040000D02*
X22880000Y-16040000D01*
X12330000Y-17540000D02*
X12330000Y-17040000D01*
X12330000Y-17040000D02*
X12530000Y-17040000D01*
X12530000Y-17040000D02*
X12530000Y-17540000D01*
X12430000Y-17540000D02*
X12430000Y-17040000D01*
X14330000Y-17540000D02*
X14330000Y-17040000D01*
X14330000Y-17040000D02*
X14530000Y-17040000D01*
X14530000Y-17040000D02*
X14530000Y-17540000D01*
X14430000Y-17540000D02*
X14430000Y-17040000D01*
X16330000Y-17540000D02*
X16330000Y-17040000D01*
X16330000Y-17040000D02*
X16530000Y-17040000D01*
X16530000Y-17040000D02*
X16530000Y-17540000D01*
X16430000Y-17540000D02*
X16430000Y-17040000D01*
X18330000Y-17540000D02*
X18330000Y-17040000D01*
X18330000Y-17040000D02*
X18530000Y-17040000D01*
X18530000Y-17040000D02*
X18530000Y-17540000D01*
X18430000Y-17540000D02*
X18430000Y-17040000D01*
X20330000Y-17540000D02*
X20330000Y-17040000D01*
X20330000Y-17040000D02*
X20530000Y-17040000D01*
X20530000Y-17040000D02*
X20530000Y-17540000D01*
X20430000Y-17540000D02*
X20430000Y-17040000D01*
X10320000Y-13130000D02*
X9070000Y-13130000D01*
X9070000Y-13130000D02*
X9070000Y-14380000D01*
X9070000Y-28370000D02*
X9070000Y-29620000D01*
X10320000Y-28370000D02*
X9070000Y-28370000D01*
X20430000Y-32780000D02*
X20430000Y-32280000D01*
X20530000Y-32280000D02*
X20530000Y-32780000D01*
X20330000Y-32280000D02*
X20530000Y-32280000D01*
X20330000Y-32780000D02*
X20330000Y-32280000D01*
X18430000Y-32780000D02*
X18430000Y-32280000D01*
X18530000Y-32280000D02*
X18530000Y-32780000D01*
X18330000Y-32280000D02*
X18530000Y-32280000D01*
X18330000Y-32780000D02*
X18330000Y-32280000D01*
X16430000Y-32780000D02*
X16430000Y-32280000D01*
X16530000Y-32280000D02*
X16530000Y-32780000D01*
X16330000Y-32280000D02*
X16530000Y-32280000D01*
X16330000Y-32780000D02*
X16330000Y-32280000D01*
X14430000Y-32780000D02*
X14430000Y-32280000D01*
X14530000Y-32280000D02*
X14530000Y-32780000D01*
X14330000Y-32280000D02*
X14530000Y-32280000D01*
X14330000Y-32780000D02*
X14330000Y-32280000D01*
X12430000Y-32780000D02*
X12430000Y-32280000D01*
X12530000Y-32280000D02*
X12530000Y-32780000D01*
X12330000Y-32280000D02*
X12530000Y-32280000D01*
X12330000Y-32780000D02*
X12330000Y-32280000D01*
X23490000Y-31280000D02*
X22880000Y-31280000D01*
X23490000Y-29980000D02*
X22880000Y-29980000D01*
X9370000Y-31280000D02*
X9980000Y-31280000D01*
X9370000Y-29980000D02*
X9980000Y-29980000D01*
X20930000Y-29280000D02*
X20930000Y-28670000D01*
X22880000Y-29280000D02*
X20930000Y-29280000D01*
X22880000Y-32780000D02*
X22880000Y-29280000D01*
X9980000Y-32780000D02*
X22880000Y-32780000D01*
X9980000Y-29280000D02*
X9980000Y-32780000D01*
X11930000Y-29280000D02*
X9980000Y-29280000D01*
X11930000Y-28670000D02*
X11930000Y-29280000D01*
X11130000Y-28570000D02*
X10830000Y-28570000D01*
X10830000Y-28470000D02*
X10830000Y-28670000D01*
X11130000Y-28470000D02*
X10830000Y-28470000D01*
X11130000Y-28670000D02*
X11130000Y-28470000D01*
X23490000Y-28670000D02*
X9370000Y-28670000D01*
X23490000Y-33390000D02*
X23490000Y-28670000D01*
X9370000Y-33390000D02*
X23490000Y-33390000D01*
X9370000Y-28670000D02*
X9370000Y-33390000D01*
X9370000Y-43910000D02*
X9370000Y-48630000D01*
X9370000Y-48630000D02*
X23490000Y-48630000D01*
X23490000Y-48630000D02*
X23490000Y-43910000D01*
X23490000Y-43910000D02*
X9370000Y-43910000D01*
X11130000Y-43910000D02*
X11130000Y-43710000D01*
X11130000Y-43710000D02*
X10830000Y-43710000D01*
X10830000Y-43710000D02*
X10830000Y-43910000D01*
X11130000Y-43810000D02*
X10830000Y-43810000D01*
X11930000Y-43910000D02*
X11930000Y-44520000D01*
X11930000Y-44520000D02*
X9980000Y-44520000D01*
X9980000Y-44520000D02*
X9980000Y-48020000D01*
X9980000Y-48020000D02*
X22880000Y-48020000D01*
X22880000Y-48020000D02*
X22880000Y-44520000D01*
X22880000Y-44520000D02*
X20930000Y-44520000D01*
X20930000Y-44520000D02*
X20930000Y-43910000D01*
X9370000Y-45220000D02*
X9980000Y-45220000D01*
X9370000Y-46520000D02*
X9980000Y-46520000D01*
X23490000Y-45220000D02*
X22880000Y-45220000D01*
X23490000Y-46520000D02*
X22880000Y-46520000D01*
X12330000Y-48020000D02*
X12330000Y-47520000D01*
X12330000Y-47520000D02*
X12530000Y-47520000D01*
X12530000Y-47520000D02*
X12530000Y-48020000D01*
X12430000Y-48020000D02*
X12430000Y-47520000D01*
X14330000Y-48020000D02*
X14330000Y-47520000D01*
X14330000Y-47520000D02*
X14530000Y-47520000D01*
X14530000Y-47520000D02*
X14530000Y-48020000D01*
X14430000Y-48020000D02*
X14430000Y-47520000D01*
X16330000Y-48020000D02*
X16330000Y-47520000D01*
X16330000Y-47520000D02*
X16530000Y-47520000D01*
X16530000Y-47520000D02*
X16530000Y-48020000D01*
X16430000Y-48020000D02*
X16430000Y-47520000D01*
X18330000Y-48020000D02*
X18330000Y-47520000D01*
X18330000Y-47520000D02*
X18530000Y-47520000D01*
X18530000Y-47520000D02*
X18530000Y-48020000D01*
X18430000Y-48020000D02*
X18430000Y-47520000D01*
X20330000Y-48020000D02*
X20330000Y-47520000D01*
X20330000Y-47520000D02*
X20530000Y-47520000D01*
X20530000Y-47520000D02*
X20530000Y-48020000D01*
X20430000Y-48020000D02*
X20430000Y-47520000D01*
X10320000Y-43610000D02*
X9070000Y-43610000D01*
X9070000Y-43610000D02*
X9070000Y-44860000D01*
X6080000Y-16640000D02*
X4080000Y-16640000D01*
X6080000Y-13840000D02*
X6080000Y-16640000D01*
X4080000Y-13840000D02*
X6080000Y-13840000D01*
X4080000Y-16640000D02*
X4080000Y-13840000D01*
X4080000Y-31880000D02*
X4080000Y-29080000D01*
X4080000Y-29080000D02*
X6080000Y-29080000D01*
X6080000Y-29080000D02*
X6080000Y-31880000D01*
X6080000Y-31880000D02*
X4080000Y-31880000D01*
X6080000Y-47120000D02*
X4080000Y-47120000D01*
X6080000Y-44320000D02*
X6080000Y-47120000D01*
X4080000Y-44320000D02*
X6080000Y-44320000D01*
X4080000Y-47120000D02*
X4080000Y-44320000D01*
X68890000Y-43055000D02*
X67960000Y-43055000D01*
X65730000Y-43055000D02*
X66660000Y-43055000D01*
X65730000Y-43055000D02*
X65730000Y-45215000D01*
X68890000Y-43055000D02*
X68890000Y-44515000D01*
X12236267Y-64645000D02*
X11893733Y-64645000D01*
X12236267Y-63625000D02*
X11893733Y-63625000D01*
X12871267Y-62740000D02*
X12528733Y-62740000D01*
X12871267Y-61720000D02*
X12528733Y-61720000D01*
X15068733Y-71245000D02*
X15411267Y-71245000D01*
X15068733Y-72265000D02*
X15411267Y-72265000D01*
X56926267Y-55120000D02*
X56583733Y-55120000D01*
X56926267Y-54100000D02*
X56583733Y-54100000D01*
X41103733Y-60200000D02*
X41446267Y-60200000D01*
X41103733Y-59180000D02*
X41446267Y-59180000D01*
X37975000Y-65233733D02*
X37975000Y-65576267D01*
X36955000Y-65233733D02*
X36955000Y-65576267D01*
X38860000Y-65233733D02*
X38860000Y-65576267D01*
X39880000Y-65233733D02*
X39880000Y-65576267D01*
X56390000Y-58986267D02*
X56390000Y-58643733D01*
X55370000Y-58986267D02*
X55370000Y-58643733D01*
X45845000Y-55948733D02*
X45845000Y-56291267D01*
X46865000Y-55948733D02*
X46865000Y-56291267D01*
X50336267Y-58295000D02*
X49993733Y-58295000D01*
X50336267Y-57275000D02*
X49993733Y-57275000D01*
X65530000Y-48088733D02*
X65530000Y-48431267D01*
X66550000Y-48088733D02*
X66550000Y-48431267D01*
X64010000Y-48088733D02*
X64010000Y-48431267D01*
X62990000Y-48088733D02*
X62990000Y-48431267D01*
X69635000Y-62500000D02*
X69635000Y-58000000D01*
X65635000Y-63750000D02*
X67135000Y-63750000D01*
X63135000Y-58000000D02*
X63135000Y-62500000D01*
X67135000Y-56750000D02*
X65635000Y-56750000D01*
X13905000Y-57085000D02*
X15305000Y-57085000D01*
X15305000Y-57085000D02*
X15305000Y-58485000D01*
X15305000Y-58485000D02*
X13905000Y-58485000D01*
X13905000Y-58485000D02*
X13905000Y-57085000D01*
X16445000Y-59120000D02*
X16445000Y-57720000D01*
X17845000Y-59120000D02*
X16445000Y-59120000D01*
X17845000Y-57720000D02*
X17845000Y-59120000D01*
X16445000Y-57720000D02*
X17845000Y-57720000D01*
X18985000Y-57085000D02*
X20385000Y-57085000D01*
X20385000Y-57085000D02*
X20385000Y-58485000D01*
X20385000Y-58485000D02*
X18985000Y-58485000D01*
X18985000Y-58485000D02*
X18985000Y-57085000D01*
X22795000Y-73725000D02*
X22795000Y-72325000D01*
X24195000Y-73725000D02*
X22795000Y-73725000D01*
X24195000Y-72325000D02*
X24195000Y-73725000D01*
X22795000Y-72325000D02*
X24195000Y-72325000D01*
X29145000Y-72325000D02*
X30545000Y-72325000D01*
X30545000Y-72325000D02*
X30545000Y-73725000D01*
X30545000Y-73725000D02*
X29145000Y-73725000D01*
X29145000Y-73725000D02*
X29145000Y-72325000D01*
X24065000Y-57085000D02*
X25465000Y-57085000D01*
X25465000Y-57085000D02*
X25465000Y-58485000D01*
X25465000Y-58485000D02*
X24065000Y-58485000D01*
X24065000Y-58485000D02*
X24065000Y-57085000D01*
X21525000Y-57850000D02*
X21525000Y-56450000D01*
X22925000Y-57850000D02*
X21525000Y-57850000D01*
X22925000Y-56450000D02*
X22925000Y-57850000D01*
X21525000Y-56450000D02*
X22925000Y-56450000D01*
X26605000Y-57850000D02*
X26605000Y-56450000D01*
X28005000Y-57850000D02*
X26605000Y-57850000D01*
X28005000Y-56450000D02*
X28005000Y-57850000D01*
X26605000Y-56450000D02*
X28005000Y-56450000D01*
X27875000Y-68515000D02*
X29275000Y-68515000D01*
X29275000Y-68515000D02*
X29275000Y-69915000D01*
X29275000Y-69915000D02*
X27875000Y-69915000D01*
X27875000Y-69915000D02*
X27875000Y-68515000D01*
X25335000Y-73725000D02*
X25335000Y-72325000D01*
X26735000Y-73725000D02*
X25335000Y-73725000D01*
X26735000Y-72325000D02*
X26735000Y-73725000D01*
X25335000Y-72325000D02*
X26735000Y-72325000D01*
X59120000Y-67880000D02*
X59120000Y-69280000D01*
X59120000Y-69280000D02*
X57720000Y-69280000D01*
X57720000Y-69280000D02*
X57720000Y-67880000D01*
X57720000Y-67880000D02*
X59120000Y-67880000D01*
X58355000Y-65340000D02*
X59755000Y-65340000D01*
X58355000Y-66740000D02*
X58355000Y-65340000D01*
X59755000Y-66740000D02*
X58355000Y-66740000D01*
X59755000Y-65340000D02*
X59755000Y-66740000D01*
X58355000Y-60260000D02*
X59755000Y-60260000D01*
X58355000Y-61660000D02*
X58355000Y-60260000D01*
X59755000Y-61660000D02*
X58355000Y-61660000D01*
X59755000Y-60260000D02*
X59755000Y-61660000D01*
X59120000Y-62800000D02*
X59120000Y-64200000D01*
X59120000Y-64200000D02*
X57720000Y-64200000D01*
X57720000Y-64200000D02*
X57720000Y-62800000D01*
X57720000Y-62800000D02*
X59120000Y-62800000D01*
X59755000Y-70420000D02*
X59755000Y-71820000D01*
X59755000Y-71820000D02*
X58355000Y-71820000D01*
X58355000Y-71820000D02*
X58355000Y-70420000D01*
X58355000Y-70420000D02*
X59755000Y-70420000D01*
X57720000Y-59120000D02*
X57720000Y-57720000D01*
X59120000Y-59120000D02*
X57720000Y-59120000D01*
X59120000Y-57720000D02*
X59120000Y-59120000D01*
X57720000Y-57720000D02*
X59120000Y-57720000D01*
X21273198Y-60617887D02*
X20955000Y-60299689D01*
X20955000Y-60299689D02*
X20636802Y-60617887D01*
X25742113Y-65086802D02*
X26060311Y-65405000D01*
X26060311Y-65405000D02*
X25742113Y-65723198D01*
X16167887Y-65723198D02*
X15849689Y-65405000D01*
X15849689Y-65405000D02*
X16167887Y-65086802D01*
X20636802Y-70192113D02*
X20955000Y-70510311D01*
X20955000Y-70510311D02*
X21273198Y-70192113D01*
X21273198Y-70192113D02*
X22185366Y-71104281D01*
X78085000Y-60960000D02*
X78085000Y-62910000D01*
X78085000Y-60960000D02*
X78085000Y-59010000D01*
X83205000Y-60960000D02*
X83205000Y-62910000D01*
X83205000Y-60960000D02*
X83205000Y-57510000D01*
D12*
X47175000Y-63685000D02*
X47175000Y-63910000D01*
X54425000Y-63685000D02*
X54425000Y-64010000D01*
X54425000Y-70935000D02*
X54425000Y-70610000D01*
X47175000Y-70935000D02*
X47175000Y-70610000D01*
X47175000Y-63685000D02*
X47500000Y-63685000D01*
X47175000Y-70935000D02*
X47500000Y-70935000D01*
X54425000Y-70935000D02*
X54100000Y-70935000D01*
X54425000Y-63685000D02*
X54100000Y-63685000D01*
X47175000Y-63910000D02*
X45750000Y-63910000D01*
D11*
X41345000Y-68050000D02*
X43345000Y-68050000D01*
X43345000Y-71650000D02*
X41345000Y-71650000D01*
X43745000Y-70600000D02*
X44145000Y-70600000D01*
X41345000Y-71850000D02*
X43345000Y-71850000D01*
X43345000Y-68050000D02*
X43745000Y-68050000D01*
X43345000Y-71650000D02*
X43745000Y-71650000D01*
X43345000Y-71850000D02*
X43745000Y-71850000D01*
X41345000Y-71650000D02*
X41345000Y-71500000D01*
X43745000Y-71650000D02*
X43745000Y-71500000D01*
X43745000Y-70600000D02*
X43745000Y-70650000D01*
X43745000Y-68050000D02*
X43745000Y-68200000D01*
X41345000Y-68050000D02*
X41345000Y-68200000D01*
X17951267Y-74170000D02*
X17608733Y-74170000D01*
X17951267Y-73150000D02*
X17608733Y-73150000D01*
X12236267Y-65530000D02*
X11893733Y-65530000D01*
X12236267Y-66550000D02*
X11893733Y-66550000D01*
X27373733Y-59815000D02*
X27716267Y-59815000D01*
X27373733Y-60835000D02*
X27716267Y-60835000D01*
X69345000Y-69485000D02*
X69345000Y-71485000D01*
X66545000Y-69485000D02*
X69345000Y-69485000D01*
X66545000Y-71485000D02*
X66545000Y-69485000D01*
X69345000Y-71485000D02*
X66545000Y-71485000D01*
D12*
X27940000Y-34290000D02*
X29210000Y-34290000D01*
X27940000Y-33020000D02*
X27940000Y-34290000D01*
X27940000Y-32385000D02*
X29845000Y-34290000D01*
X27940000Y-26670000D02*
X27940000Y-32385000D01*
X55880000Y-34290000D02*
X29845000Y-34290000D01*
X55880000Y-26670000D02*
X55880000Y-34290000D01*
X27940000Y-26670000D02*
X55880000Y-26670000D01*
X27940000Y-11430000D02*
X55880000Y-11430000D01*
X55880000Y-11430000D02*
X55880000Y-19050000D01*
X55880000Y-19050000D02*
X29845000Y-19050000D01*
X27940000Y-11430000D02*
X27940000Y-17145000D01*
X27940000Y-17145000D02*
X29845000Y-19050000D01*
X27940000Y-17780000D02*
X27940000Y-19050000D01*
X27940000Y-19050000D02*
X29210000Y-19050000D01*
X27940000Y-41910000D02*
X55880000Y-41910000D01*
X55880000Y-41910000D02*
X55880000Y-49530000D01*
X55880000Y-49530000D02*
X29845000Y-49530000D01*
X27940000Y-41910000D02*
X27940000Y-47625000D01*
X27940000Y-47625000D02*
X29845000Y-49530000D01*
X27940000Y-48260000D02*
X27940000Y-49530000D01*
X27940000Y-49530000D02*
X29210000Y-49530000D01*
D11*
X37340000Y-59758733D02*
X37340000Y-60101267D01*
X36320000Y-59758733D02*
X36320000Y-60101267D01*
X32316267Y-68070000D02*
X31973733Y-68070000D01*
X32316267Y-69090000D02*
X31973733Y-69090000D01*
X35545000Y-58370000D02*
X35545000Y-64620000D01*
X30495000Y-58370000D02*
X30495000Y-64620000D01*
X30495000Y-58370000D02*
G75*
G02X35545000Y-58370000I2525000J0D01*
G01*
X30495000Y-64620000D02*
G75*
G03X35545000Y-64620000I2525000J0D01*
G01*
D12*
X83320000Y-11190000D02*
X58920000Y-11190000D01*
X83320000Y-38090000D02*
X83320000Y-11190000D01*
X58920000Y-38090000D02*
X83320000Y-38090000D01*
X58920000Y-38090000D02*
X58920000Y-11190000D01*
X85590000Y-38090000D02*
X85590000Y-11190000D01*
X85590000Y-38090000D02*
X109990000Y-38090000D01*
X109990000Y-38090000D02*
X109990000Y-11190000D01*
X109990000Y-11190000D02*
X85590000Y-11190000D01*
X112260000Y-38090000D02*
X112260000Y-11190000D01*
X112260000Y-38090000D02*
X136660000Y-38090000D01*
X136660000Y-38090000D02*
X136660000Y-11190000D01*
X136660000Y-11190000D02*
X112260000Y-11190000D01*
D11*
X115741267Y-67435000D02*
X115398733Y-67435000D01*
X115741267Y-68455000D02*
X115398733Y-68455000D01*
X111000000Y-64941267D02*
X111000000Y-64598733D01*
X109980000Y-64941267D02*
X109980000Y-64598733D01*
X125605000Y-60393733D02*
X125605000Y-60736267D01*
X124585000Y-60393733D02*
X124585000Y-60736267D01*
X111050000Y-54220000D02*
X110600000Y-54220000D01*
X104850000Y-54220000D02*
X105300000Y-54220000D01*
X104850000Y-60420000D02*
X105300000Y-60420000D01*
X104850000Y-60420000D02*
X104850000Y-54220000D01*
X111050000Y-60420000D02*
X110600000Y-60420000D01*
X111050000Y-54220000D02*
X111050000Y-60420000D01*
X117442064Y-71480000D02*
X116237936Y-71480000D01*
X117442064Y-73300000D02*
X116237936Y-73300000D01*
X121410000Y-62298733D02*
X121410000Y-62641267D01*
X122430000Y-62298733D02*
X122430000Y-62641267D01*
X124335000Y-66898733D02*
X124335000Y-67241267D01*
X123315000Y-66898733D02*
X123315000Y-67241267D01*
X115741267Y-69340000D02*
X115398733Y-69340000D01*
X115741267Y-70360000D02*
X115398733Y-70360000D01*
X116205000Y-60940000D02*
X112755000Y-60940000D01*
X116205000Y-60940000D02*
X118155000Y-60940000D01*
X116205000Y-66060000D02*
X114255000Y-66060000D01*
X116205000Y-66060000D02*
X118155000Y-66060000D01*
X122617000Y-57085000D02*
X124017000Y-57085000D01*
X124017000Y-57085000D02*
X124017000Y-58485000D01*
X124017000Y-58485000D02*
X122617000Y-58485000D01*
X122617000Y-58485000D02*
X122617000Y-57085000D01*
X108390000Y-73687500D02*
X108390000Y-66927500D01*
X104970000Y-73687500D02*
X108390000Y-73687500D01*
X104970000Y-66927500D02*
X104970000Y-73687500D01*
X126645000Y-56550000D02*
X126645000Y-64610000D01*
X131165000Y-56550000D02*
X126645000Y-56550000D01*
X131165000Y-64610000D02*
X131165000Y-56550000D01*
X136245000Y-64610000D02*
X136245000Y-56550000D01*
X136245000Y-56550000D02*
X131725000Y-56550000D01*
X131725000Y-56550000D02*
X131725000Y-64610000D01*
X120875000Y-60070000D02*
X115475000Y-60070000D01*
X120875000Y-56770000D02*
X115475000Y-56770000D01*
X120875000Y-60070000D02*
X120875000Y-56770000D01*
X95230000Y-67390000D02*
X95230000Y-73360000D01*
X95230000Y-73360000D02*
X102850000Y-73360000D01*
X102850000Y-73360000D02*
X102850000Y-67390000D01*
X102850000Y-67390000D02*
X95230000Y-67390000D01*
X98540000Y-67400000D02*
X98540000Y-68150000D01*
X98540000Y-68150000D02*
X99540000Y-68150000D01*
X99540000Y-68150000D02*
X99540000Y-67400000D01*
X99540000Y-67400000D02*
X98540000Y-67400000D01*
X95240000Y-67400000D02*
X95240000Y-68150000D01*
X95240000Y-68150000D02*
X97040000Y-68150000D01*
X97040000Y-68150000D02*
X97040000Y-67400000D01*
X97040000Y-67400000D02*
X95240000Y-67400000D01*
X101040000Y-67400000D02*
X101040000Y-68150000D01*
X101040000Y-68150000D02*
X102840000Y-68150000D01*
X102840000Y-68150000D02*
X102840000Y-67400000D01*
X102840000Y-67400000D02*
X101040000Y-67400000D01*
X95240000Y-69650000D02*
X95990000Y-69650000D01*
X95990000Y-69650000D02*
X95990000Y-72600000D01*
X95990000Y-72600000D02*
X99040000Y-72600000D01*
X102840000Y-69650000D02*
X102090000Y-69650000D01*
X102090000Y-69650000D02*
X102090000Y-72600000D01*
X102090000Y-72600000D02*
X99040000Y-72600000D01*
X96190000Y-67100000D02*
X94940000Y-67100000D01*
X94940000Y-67100000D02*
X94940000Y-68350000D01*
D12*
X10628333Y-69572142D02*
X10580714Y-69619761D01*
X10437857Y-69667380D01*
X10342619Y-69667380D01*
X10199761Y-69619761D01*
X10104523Y-69524523D01*
X10056904Y-69429285D01*
X10009285Y-69238809D01*
X10009285Y-69095952D01*
X10056904Y-68905476D01*
X10104523Y-68810238D01*
X10199761Y-68715000D01*
X10342619Y-68667380D01*
X10437857Y-68667380D01*
X10580714Y-68715000D01*
X10628333Y-68762619D01*
X11104523Y-69667380D02*
X11295000Y-69667380D01*
X11390238Y-69619761D01*
X11437857Y-69572142D01*
X11533095Y-69429285D01*
X11580714Y-69238809D01*
X11580714Y-68857857D01*
X11533095Y-68762619D01*
X11485476Y-68715000D01*
X11390238Y-68667380D01*
X11199761Y-68667380D01*
X11104523Y-68715000D01*
X11056904Y-68762619D01*
X11009285Y-68857857D01*
X11009285Y-69095952D01*
X11056904Y-69191190D01*
X11104523Y-69238809D01*
X11199761Y-69286428D01*
X11390238Y-69286428D01*
X11485476Y-69238809D01*
X11533095Y-69191190D01*
X11580714Y-69095952D01*
X9517142Y-60682142D02*
X9469523Y-60729761D01*
X9326666Y-60777380D01*
X9231428Y-60777380D01*
X9088571Y-60729761D01*
X8993333Y-60634523D01*
X8945714Y-60539285D01*
X8898095Y-60348809D01*
X8898095Y-60205952D01*
X8945714Y-60015476D01*
X8993333Y-59920238D01*
X9088571Y-59825000D01*
X9231428Y-59777380D01*
X9326666Y-59777380D01*
X9469523Y-59825000D01*
X9517142Y-59872619D01*
X10469523Y-60777380D02*
X9898095Y-60777380D01*
X10183809Y-60777380D02*
X10183809Y-59777380D01*
X10088571Y-59920238D01*
X9993333Y-60015476D01*
X9898095Y-60063095D01*
X11088571Y-59777380D02*
X11183809Y-59777380D01*
X11279047Y-59825000D01*
X11326666Y-59872619D01*
X11374285Y-59967857D01*
X11421904Y-60158333D01*
X11421904Y-60396428D01*
X11374285Y-60586904D01*
X11326666Y-60682142D01*
X11279047Y-60729761D01*
X11183809Y-60777380D01*
X11088571Y-60777380D01*
X10993333Y-60729761D01*
X10945714Y-60682142D01*
X10898095Y-60586904D01*
X10850476Y-60396428D01*
X10850476Y-60158333D01*
X10898095Y-59967857D01*
X10945714Y-59872619D01*
X10993333Y-59825000D01*
X11088571Y-59777380D01*
X80242142Y-54172142D02*
X80194523Y-54219761D01*
X80051666Y-54267380D01*
X79956428Y-54267380D01*
X79813571Y-54219761D01*
X79718333Y-54124523D01*
X79670714Y-54029285D01*
X79623095Y-53838809D01*
X79623095Y-53695952D01*
X79670714Y-53505476D01*
X79718333Y-53410238D01*
X79813571Y-53315000D01*
X79956428Y-53267380D01*
X80051666Y-53267380D01*
X80194523Y-53315000D01*
X80242142Y-53362619D01*
X81194523Y-54267380D02*
X80623095Y-54267380D01*
X80908809Y-54267380D02*
X80908809Y-53267380D01*
X80813571Y-53410238D01*
X80718333Y-53505476D01*
X80623095Y-53553095D01*
X82146904Y-54267380D02*
X81575476Y-54267380D01*
X81861190Y-54267380D02*
X81861190Y-53267380D01*
X81765952Y-53410238D01*
X81670714Y-53505476D01*
X81575476Y-53553095D01*
X75127142Y-63267857D02*
X75174761Y-63315476D01*
X75222380Y-63458333D01*
X75222380Y-63553571D01*
X75174761Y-63696428D01*
X75079523Y-63791666D01*
X74984285Y-63839285D01*
X74793809Y-63886904D01*
X74650952Y-63886904D01*
X74460476Y-63839285D01*
X74365238Y-63791666D01*
X74270000Y-63696428D01*
X74222380Y-63553571D01*
X74222380Y-63458333D01*
X74270000Y-63315476D01*
X74317619Y-63267857D01*
X75222380Y-62315476D02*
X75222380Y-62886904D01*
X75222380Y-62601190D02*
X74222380Y-62601190D01*
X74365238Y-62696428D01*
X74460476Y-62791666D01*
X74508095Y-62886904D01*
X74317619Y-61934523D02*
X74270000Y-61886904D01*
X74222380Y-61791666D01*
X74222380Y-61553571D01*
X74270000Y-61458333D01*
X74317619Y-61410714D01*
X74412857Y-61363095D01*
X74508095Y-61363095D01*
X74650952Y-61410714D01*
X75222380Y-61982142D01*
X75222380Y-61363095D01*
X42742142Y-65807857D02*
X42789761Y-65855476D01*
X42837380Y-65998333D01*
X42837380Y-66093571D01*
X42789761Y-66236428D01*
X42694523Y-66331666D01*
X42599285Y-66379285D01*
X42408809Y-66426904D01*
X42265952Y-66426904D01*
X42075476Y-66379285D01*
X41980238Y-66331666D01*
X41885000Y-66236428D01*
X41837380Y-66093571D01*
X41837380Y-65998333D01*
X41885000Y-65855476D01*
X41932619Y-65807857D01*
X42837380Y-64855476D02*
X42837380Y-65426904D01*
X42837380Y-65141190D02*
X41837380Y-65141190D01*
X41980238Y-65236428D01*
X42075476Y-65331666D01*
X42123095Y-65426904D01*
X41837380Y-64522142D02*
X41837380Y-63903095D01*
X42218333Y-64236428D01*
X42218333Y-64093571D01*
X42265952Y-63998333D01*
X42313571Y-63950714D01*
X42408809Y-63903095D01*
X42646904Y-63903095D01*
X42742142Y-63950714D01*
X42789761Y-63998333D01*
X42837380Y-64093571D01*
X42837380Y-64379285D01*
X42789761Y-64474523D01*
X42742142Y-64522142D01*
X52697142Y-60047142D02*
X52649523Y-60094761D01*
X52506666Y-60142380D01*
X52411428Y-60142380D01*
X52268571Y-60094761D01*
X52173333Y-59999523D01*
X52125714Y-59904285D01*
X52078095Y-59713809D01*
X52078095Y-59570952D01*
X52125714Y-59380476D01*
X52173333Y-59285238D01*
X52268571Y-59190000D01*
X52411428Y-59142380D01*
X52506666Y-59142380D01*
X52649523Y-59190000D01*
X52697142Y-59237619D01*
X53649523Y-60142380D02*
X53078095Y-60142380D01*
X53363809Y-60142380D02*
X53363809Y-59142380D01*
X53268571Y-59285238D01*
X53173333Y-59380476D01*
X53078095Y-59428095D01*
X54506666Y-59475714D02*
X54506666Y-60142380D01*
X54268571Y-59094761D02*
X54030476Y-59809047D01*
X54649523Y-59809047D01*
X36726904Y-56967380D02*
X36726904Y-55967380D01*
X36965000Y-55967380D01*
X37107857Y-56015000D01*
X37203095Y-56110238D01*
X37250714Y-56205476D01*
X37298333Y-56395952D01*
X37298333Y-56538809D01*
X37250714Y-56729285D01*
X37203095Y-56824523D01*
X37107857Y-56919761D01*
X36965000Y-56967380D01*
X36726904Y-56967380D01*
X37631666Y-55967380D02*
X38250714Y-55967380D01*
X37917380Y-56348333D01*
X38060238Y-56348333D01*
X38155476Y-56395952D01*
X38203095Y-56443571D01*
X38250714Y-56538809D01*
X38250714Y-56776904D01*
X38203095Y-56872142D01*
X38155476Y-56919761D01*
X38060238Y-56967380D01*
X37774523Y-56967380D01*
X37679285Y-56919761D01*
X37631666Y-56872142D01*
X52601904Y-55697380D02*
X52601904Y-54697380D01*
X52840000Y-54697380D01*
X52982857Y-54745000D01*
X53078095Y-54840238D01*
X53125714Y-54935476D01*
X53173333Y-55125952D01*
X53173333Y-55268809D01*
X53125714Y-55459285D01*
X53078095Y-55554523D01*
X52982857Y-55649761D01*
X52840000Y-55697380D01*
X52601904Y-55697380D01*
X54030476Y-55030714D02*
X54030476Y-55697380D01*
X53792380Y-54649761D02*
X53554285Y-55364047D01*
X54173333Y-55364047D01*
X60729904Y-39822380D02*
X60729904Y-38822380D01*
X60968000Y-38822380D01*
X61110857Y-38870000D01*
X61206095Y-38965238D01*
X61253714Y-39060476D01*
X61301333Y-39250952D01*
X61301333Y-39393809D01*
X61253714Y-39584285D01*
X61206095Y-39679523D01*
X61110857Y-39774761D01*
X60968000Y-39822380D01*
X60729904Y-39822380D01*
X62206095Y-38822380D02*
X61729904Y-38822380D01*
X61682285Y-39298571D01*
X61729904Y-39250952D01*
X61825142Y-39203333D01*
X62063238Y-39203333D01*
X62158476Y-39250952D01*
X62206095Y-39298571D01*
X62253714Y-39393809D01*
X62253714Y-39631904D01*
X62206095Y-39727142D01*
X62158476Y-39774761D01*
X62063238Y-39822380D01*
X61825142Y-39822380D01*
X61729904Y-39774761D01*
X61682285Y-39727142D01*
X6541666Y-54538571D02*
X6208333Y-54538571D01*
X6208333Y-55062380D02*
X6208333Y-54062380D01*
X6684523Y-54062380D01*
X7398809Y-54538571D02*
X7541666Y-54586190D01*
X7589285Y-54633809D01*
X7636904Y-54729047D01*
X7636904Y-54871904D01*
X7589285Y-54967142D01*
X7541666Y-55014761D01*
X7446428Y-55062380D01*
X7065476Y-55062380D01*
X7065476Y-54062380D01*
X7398809Y-54062380D01*
X7494047Y-54110000D01*
X7541666Y-54157619D01*
X7589285Y-54252857D01*
X7589285Y-54348095D01*
X7541666Y-54443333D01*
X7494047Y-54490952D01*
X7398809Y-54538571D01*
X7065476Y-54538571D01*
X8589285Y-55062380D02*
X8017857Y-55062380D01*
X8303571Y-55062380D02*
X8303571Y-54062380D01*
X8208333Y-54205238D01*
X8113095Y-54300476D01*
X8017857Y-54348095D01*
X2413095Y-8072380D02*
X2413095Y-7072380D01*
X2413095Y-7548571D02*
X2984523Y-7548571D01*
X2984523Y-8072380D02*
X2984523Y-7072380D01*
X3984523Y-8072380D02*
X3413095Y-8072380D01*
X3698809Y-8072380D02*
X3698809Y-7072380D01*
X3603571Y-7215238D01*
X3508333Y-7310476D01*
X3413095Y-7358095D01*
X2413095Y-69032380D02*
X2413095Y-68032380D01*
X2413095Y-68508571D02*
X2984523Y-68508571D01*
X2984523Y-69032380D02*
X2984523Y-68032380D01*
X3413095Y-68127619D02*
X3460714Y-68080000D01*
X3555952Y-68032380D01*
X3794047Y-68032380D01*
X3889285Y-68080000D01*
X3936904Y-68127619D01*
X3984523Y-68222857D01*
X3984523Y-68318095D01*
X3936904Y-68460952D01*
X3365476Y-69032380D01*
X3984523Y-69032380D01*
X135763095Y-8072380D02*
X135763095Y-7072380D01*
X135763095Y-7548571D02*
X136334523Y-7548571D01*
X136334523Y-8072380D02*
X136334523Y-7072380D01*
X136715476Y-7072380D02*
X137334523Y-7072380D01*
X137001190Y-7453333D01*
X137144047Y-7453333D01*
X137239285Y-7500952D01*
X137286904Y-7548571D01*
X137334523Y-7643809D01*
X137334523Y-7881904D01*
X137286904Y-7977142D01*
X137239285Y-8024761D01*
X137144047Y-8072380D01*
X136858333Y-8072380D01*
X136763095Y-8024761D01*
X136715476Y-7977142D01*
X135763095Y-69032380D02*
X135763095Y-68032380D01*
X135763095Y-68508571D02*
X136334523Y-68508571D01*
X136334523Y-69032380D02*
X136334523Y-68032380D01*
X137239285Y-68365714D02*
X137239285Y-69032380D01*
X137001190Y-67984761D02*
X136763095Y-68699047D01*
X137382142Y-68699047D01*
X5326380Y-61785333D02*
X6040666Y-61785333D01*
X6183523Y-61832952D01*
X6278761Y-61928190D01*
X6326380Y-62071047D01*
X6326380Y-62166285D01*
X6326380Y-60785333D02*
X6326380Y-61356761D01*
X6326380Y-61071047D02*
X5326380Y-61071047D01*
X5469238Y-61166285D01*
X5564476Y-61261523D01*
X5612095Y-61356761D01*
X80251666Y-65752380D02*
X80251666Y-66466666D01*
X80204047Y-66609523D01*
X80108809Y-66704761D01*
X79965952Y-66752380D01*
X79870714Y-66752380D01*
X80680238Y-65847619D02*
X80727857Y-65800000D01*
X80823095Y-65752380D01*
X81061190Y-65752380D01*
X81156428Y-65800000D01*
X81204047Y-65847619D01*
X81251666Y-65942857D01*
X81251666Y-66038095D01*
X81204047Y-66180952D01*
X80632619Y-66752380D01*
X81251666Y-66752380D01*
X16096666Y-11792380D02*
X16096666Y-12506666D01*
X16049047Y-12649523D01*
X15953809Y-12744761D01*
X15810952Y-12792380D01*
X15715714Y-12792380D01*
X17001428Y-12125714D02*
X17001428Y-12792380D01*
X16763333Y-11744761D02*
X16525238Y-12459047D01*
X17144285Y-12459047D01*
X16096666Y-27032380D02*
X16096666Y-27746666D01*
X16049047Y-27889523D01*
X15953809Y-27984761D01*
X15810952Y-28032380D01*
X15715714Y-28032380D01*
X17001428Y-27032380D02*
X16810952Y-27032380D01*
X16715714Y-27080000D01*
X16668095Y-27127619D01*
X16572857Y-27270476D01*
X16525238Y-27460952D01*
X16525238Y-27841904D01*
X16572857Y-27937142D01*
X16620476Y-27984761D01*
X16715714Y-28032380D01*
X16906190Y-28032380D01*
X17001428Y-27984761D01*
X17049047Y-27937142D01*
X17096666Y-27841904D01*
X17096666Y-27603809D01*
X17049047Y-27508571D01*
X17001428Y-27460952D01*
X16906190Y-27413333D01*
X16715714Y-27413333D01*
X16620476Y-27460952D01*
X16572857Y-27508571D01*
X16525238Y-27603809D01*
X16096666Y-42272380D02*
X16096666Y-42986666D01*
X16049047Y-43129523D01*
X15953809Y-43224761D01*
X15810952Y-43272380D01*
X15715714Y-43272380D01*
X16715714Y-42700952D02*
X16620476Y-42653333D01*
X16572857Y-42605714D01*
X16525238Y-42510476D01*
X16525238Y-42462857D01*
X16572857Y-42367619D01*
X16620476Y-42320000D01*
X16715714Y-42272380D01*
X16906190Y-42272380D01*
X17001428Y-42320000D01*
X17049047Y-42367619D01*
X17096666Y-42462857D01*
X17096666Y-42510476D01*
X17049047Y-42605714D01*
X17001428Y-42653333D01*
X16906190Y-42700952D01*
X16715714Y-42700952D01*
X16620476Y-42748571D01*
X16572857Y-42796190D01*
X16525238Y-42891428D01*
X16525238Y-43081904D01*
X16572857Y-43177142D01*
X16620476Y-43224761D01*
X16715714Y-43272380D01*
X16906190Y-43272380D01*
X17001428Y-43224761D01*
X17049047Y-43177142D01*
X17096666Y-43081904D01*
X17096666Y-42891428D01*
X17049047Y-42796190D01*
X17001428Y-42748571D01*
X16906190Y-42700952D01*
X7532619Y-14406666D02*
X6818333Y-14406666D01*
X6675476Y-14359047D01*
X6580238Y-14263809D01*
X6532619Y-14120952D01*
X6532619Y-14025714D01*
X6532619Y-14882857D02*
X7532619Y-14882857D01*
X7532619Y-15263809D01*
X7485000Y-15359047D01*
X7437380Y-15406666D01*
X7342142Y-15454285D01*
X7199285Y-15454285D01*
X7104047Y-15406666D01*
X7056428Y-15359047D01*
X7008809Y-15263809D01*
X7008809Y-14882857D01*
X7532619Y-15787619D02*
X7532619Y-16406666D01*
X7151666Y-16073333D01*
X7151666Y-16216190D01*
X7104047Y-16311428D01*
X7056428Y-16359047D01*
X6961190Y-16406666D01*
X6723095Y-16406666D01*
X6627857Y-16359047D01*
X6580238Y-16311428D01*
X6532619Y-16216190D01*
X6532619Y-15930476D01*
X6580238Y-15835238D01*
X6627857Y-15787619D01*
X7622619Y-29646666D02*
X6908333Y-29646666D01*
X6765476Y-29599047D01*
X6670238Y-29503809D01*
X6622619Y-29360952D01*
X6622619Y-29265714D01*
X6622619Y-30122857D02*
X7622619Y-30122857D01*
X7622619Y-30503809D01*
X7575000Y-30599047D01*
X7527380Y-30646666D01*
X7432142Y-30694285D01*
X7289285Y-30694285D01*
X7194047Y-30646666D01*
X7146428Y-30599047D01*
X7098809Y-30503809D01*
X7098809Y-30122857D01*
X7289285Y-31551428D02*
X6622619Y-31551428D01*
X7670238Y-31313333D02*
X6955952Y-31075238D01*
X6955952Y-31694285D01*
X7532619Y-44886666D02*
X6818333Y-44886666D01*
X6675476Y-44839047D01*
X6580238Y-44743809D01*
X6532619Y-44600952D01*
X6532619Y-44505714D01*
X6532619Y-45362857D02*
X7532619Y-45362857D01*
X7532619Y-45743809D01*
X7485000Y-45839047D01*
X7437380Y-45886666D01*
X7342142Y-45934285D01*
X7199285Y-45934285D01*
X7104047Y-45886666D01*
X7056428Y-45839047D01*
X7008809Y-45743809D01*
X7008809Y-45362857D01*
X7532619Y-46839047D02*
X7532619Y-46362857D01*
X7056428Y-46315238D01*
X7104047Y-46362857D01*
X7151666Y-46458095D01*
X7151666Y-46696190D01*
X7104047Y-46791428D01*
X7056428Y-46839047D01*
X6961190Y-46886666D01*
X6723095Y-46886666D01*
X6627857Y-46839047D01*
X6580238Y-46791428D01*
X6532619Y-46696190D01*
X6532619Y-46458095D01*
X6580238Y-46362857D01*
X6627857Y-46315238D01*
X65357619Y-43910238D02*
X65310000Y-44005476D01*
X65214761Y-44100714D01*
X65071904Y-44243571D01*
X65024285Y-44338809D01*
X65024285Y-44434047D01*
X65262380Y-44386428D02*
X65214761Y-44481666D01*
X65119523Y-44576904D01*
X64929047Y-44624523D01*
X64595714Y-44624523D01*
X64405238Y-44576904D01*
X64310000Y-44481666D01*
X64262380Y-44386428D01*
X64262380Y-44195952D01*
X64310000Y-44100714D01*
X64405238Y-44005476D01*
X64595714Y-43957857D01*
X64929047Y-43957857D01*
X65119523Y-44005476D01*
X65214761Y-44100714D01*
X65262380Y-44195952D01*
X65262380Y-44386428D01*
X65262380Y-43005476D02*
X65262380Y-43576904D01*
X65262380Y-43291190D02*
X64262380Y-43291190D01*
X64405238Y-43386428D01*
X64500476Y-43481666D01*
X64548095Y-43576904D01*
X8723333Y-64587380D02*
X8390000Y-64111190D01*
X8151904Y-64587380D02*
X8151904Y-63587380D01*
X8532857Y-63587380D01*
X8628095Y-63635000D01*
X8675714Y-63682619D01*
X8723333Y-63777857D01*
X8723333Y-63920714D01*
X8675714Y-64015952D01*
X8628095Y-64063571D01*
X8532857Y-64111190D01*
X8151904Y-64111190D01*
X9580476Y-63920714D02*
X9580476Y-64587380D01*
X9342380Y-63539761D02*
X9104285Y-64254047D01*
X9723333Y-64254047D01*
X9358333Y-62682380D02*
X9025000Y-62206190D01*
X8786904Y-62682380D02*
X8786904Y-61682380D01*
X9167857Y-61682380D01*
X9263095Y-61730000D01*
X9310714Y-61777619D01*
X9358333Y-61872857D01*
X9358333Y-62015714D01*
X9310714Y-62110952D01*
X9263095Y-62158571D01*
X9167857Y-62206190D01*
X8786904Y-62206190D01*
X10263095Y-61682380D02*
X9786904Y-61682380D01*
X9739285Y-62158571D01*
X9786904Y-62110952D01*
X9882142Y-62063333D01*
X10120238Y-62063333D01*
X10215476Y-62110952D01*
X10263095Y-62158571D01*
X10310714Y-62253809D01*
X10310714Y-62491904D01*
X10263095Y-62587142D01*
X10215476Y-62634761D01*
X10120238Y-62682380D01*
X9882142Y-62682380D01*
X9786904Y-62634761D01*
X9739285Y-62587142D01*
X11898333Y-72207380D02*
X11565000Y-71731190D01*
X11326904Y-72207380D02*
X11326904Y-71207380D01*
X11707857Y-71207380D01*
X11803095Y-71255000D01*
X11850714Y-71302619D01*
X11898333Y-71397857D01*
X11898333Y-71540714D01*
X11850714Y-71635952D01*
X11803095Y-71683571D01*
X11707857Y-71731190D01*
X11326904Y-71731190D01*
X12755476Y-71207380D02*
X12565000Y-71207380D01*
X12469761Y-71255000D01*
X12422142Y-71302619D01*
X12326904Y-71445476D01*
X12279285Y-71635952D01*
X12279285Y-72016904D01*
X12326904Y-72112142D01*
X12374523Y-72159761D01*
X12469761Y-72207380D01*
X12660238Y-72207380D01*
X12755476Y-72159761D01*
X12803095Y-72112142D01*
X12850714Y-72016904D01*
X12850714Y-71778809D01*
X12803095Y-71683571D01*
X12755476Y-71635952D01*
X12660238Y-71588333D01*
X12469761Y-71588333D01*
X12374523Y-71635952D01*
X12326904Y-71683571D01*
X12279285Y-71778809D01*
X59763333Y-55062380D02*
X59430000Y-54586190D01*
X59191904Y-55062380D02*
X59191904Y-54062380D01*
X59572857Y-54062380D01*
X59668095Y-54110000D01*
X59715714Y-54157619D01*
X59763333Y-54252857D01*
X59763333Y-54395714D01*
X59715714Y-54490952D01*
X59668095Y-54538571D01*
X59572857Y-54586190D01*
X59191904Y-54586190D01*
X60096666Y-54062380D02*
X60763333Y-54062380D01*
X60334761Y-55062380D01*
X41108333Y-62047380D02*
X40775000Y-61571190D01*
X40536904Y-62047380D02*
X40536904Y-61047380D01*
X40917857Y-61047380D01*
X41013095Y-61095000D01*
X41060714Y-61142619D01*
X41108333Y-61237857D01*
X41108333Y-61380714D01*
X41060714Y-61475952D01*
X41013095Y-61523571D01*
X40917857Y-61571190D01*
X40536904Y-61571190D01*
X41679761Y-61475952D02*
X41584523Y-61428333D01*
X41536904Y-61380714D01*
X41489285Y-61285476D01*
X41489285Y-61237857D01*
X41536904Y-61142619D01*
X41584523Y-61095000D01*
X41679761Y-61047380D01*
X41870238Y-61047380D01*
X41965476Y-61095000D01*
X42013095Y-61142619D01*
X42060714Y-61237857D01*
X42060714Y-61285476D01*
X42013095Y-61380714D01*
X41965476Y-61428333D01*
X41870238Y-61475952D01*
X41679761Y-61475952D01*
X41584523Y-61523571D01*
X41536904Y-61571190D01*
X41489285Y-61666428D01*
X41489285Y-61856904D01*
X41536904Y-61952142D01*
X41584523Y-61999761D01*
X41679761Y-62047380D01*
X41870238Y-62047380D01*
X41965476Y-61999761D01*
X42013095Y-61952142D01*
X42060714Y-61856904D01*
X42060714Y-61666428D01*
X42013095Y-61571190D01*
X41965476Y-61523571D01*
X41870238Y-61475952D01*
X37917380Y-68746666D02*
X37441190Y-69080000D01*
X37917380Y-69318095D02*
X36917380Y-69318095D01*
X36917380Y-68937142D01*
X36965000Y-68841904D01*
X37012619Y-68794285D01*
X37107857Y-68746666D01*
X37250714Y-68746666D01*
X37345952Y-68794285D01*
X37393571Y-68841904D01*
X37441190Y-68937142D01*
X37441190Y-69318095D01*
X37917380Y-68270476D02*
X37917380Y-68080000D01*
X37869761Y-67984761D01*
X37822142Y-67937142D01*
X37679285Y-67841904D01*
X37488809Y-67794285D01*
X37107857Y-67794285D01*
X37012619Y-67841904D01*
X36965000Y-67889523D01*
X36917380Y-67984761D01*
X36917380Y-68175238D01*
X36965000Y-68270476D01*
X37012619Y-68318095D01*
X37107857Y-68365714D01*
X37345952Y-68365714D01*
X37441190Y-68318095D01*
X37488809Y-68270476D01*
X37536428Y-68175238D01*
X37536428Y-67984761D01*
X37488809Y-67889523D01*
X37441190Y-67841904D01*
X37345952Y-67794285D01*
X41092380Y-66047857D02*
X40616190Y-66381190D01*
X41092380Y-66619285D02*
X40092380Y-66619285D01*
X40092380Y-66238333D01*
X40140000Y-66143095D01*
X40187619Y-66095476D01*
X40282857Y-66047857D01*
X40425714Y-66047857D01*
X40520952Y-66095476D01*
X40568571Y-66143095D01*
X40616190Y-66238333D01*
X40616190Y-66619285D01*
X41092380Y-65095476D02*
X41092380Y-65666904D01*
X41092380Y-65381190D02*
X40092380Y-65381190D01*
X40235238Y-65476428D01*
X40330476Y-65571666D01*
X40378095Y-65666904D01*
X40092380Y-64476428D02*
X40092380Y-64381190D01*
X40140000Y-64285952D01*
X40187619Y-64238333D01*
X40282857Y-64190714D01*
X40473333Y-64143095D01*
X40711428Y-64143095D01*
X40901904Y-64190714D01*
X40997142Y-64238333D01*
X41044761Y-64285952D01*
X41092380Y-64381190D01*
X41092380Y-64476428D01*
X41044761Y-64571666D01*
X40997142Y-64619285D01*
X40901904Y-64666904D01*
X40711428Y-64714523D01*
X40473333Y-64714523D01*
X40282857Y-64666904D01*
X40187619Y-64619285D01*
X40140000Y-64571666D01*
X40092380Y-64476428D01*
X56332380Y-62632857D02*
X55856190Y-62966190D01*
X56332380Y-63204285D02*
X55332380Y-63204285D01*
X55332380Y-62823333D01*
X55380000Y-62728095D01*
X55427619Y-62680476D01*
X55522857Y-62632857D01*
X55665714Y-62632857D01*
X55760952Y-62680476D01*
X55808571Y-62728095D01*
X55856190Y-62823333D01*
X55856190Y-63204285D01*
X56332380Y-61680476D02*
X56332380Y-62251904D01*
X56332380Y-61966190D02*
X55332380Y-61966190D01*
X55475238Y-62061428D01*
X55570476Y-62156666D01*
X55618095Y-62251904D01*
X56332380Y-60728095D02*
X56332380Y-61299523D01*
X56332380Y-61013809D02*
X55332380Y-61013809D01*
X55475238Y-61109047D01*
X55570476Y-61204285D01*
X55618095Y-61299523D01*
X46807380Y-60572857D02*
X46331190Y-60906190D01*
X46807380Y-61144285D02*
X45807380Y-61144285D01*
X45807380Y-60763333D01*
X45855000Y-60668095D01*
X45902619Y-60620476D01*
X45997857Y-60572857D01*
X46140714Y-60572857D01*
X46235952Y-60620476D01*
X46283571Y-60668095D01*
X46331190Y-60763333D01*
X46331190Y-61144285D01*
X46807380Y-59620476D02*
X46807380Y-60191904D01*
X46807380Y-59906190D02*
X45807380Y-59906190D01*
X45950238Y-60001428D01*
X46045476Y-60096666D01*
X46093095Y-60191904D01*
X45902619Y-59239523D02*
X45855000Y-59191904D01*
X45807380Y-59096666D01*
X45807380Y-58858571D01*
X45855000Y-58763333D01*
X45902619Y-58715714D01*
X45997857Y-58668095D01*
X46093095Y-58668095D01*
X46235952Y-58715714D01*
X46807380Y-59287142D01*
X46807380Y-58668095D01*
X52697142Y-58237380D02*
X52363809Y-57761190D01*
X52125714Y-58237380D02*
X52125714Y-57237380D01*
X52506666Y-57237380D01*
X52601904Y-57285000D01*
X52649523Y-57332619D01*
X52697142Y-57427857D01*
X52697142Y-57570714D01*
X52649523Y-57665952D01*
X52601904Y-57713571D01*
X52506666Y-57761190D01*
X52125714Y-57761190D01*
X53649523Y-58237380D02*
X53078095Y-58237380D01*
X53363809Y-58237380D02*
X53363809Y-57237380D01*
X53268571Y-57380238D01*
X53173333Y-57475476D01*
X53078095Y-57523095D01*
X53982857Y-57237380D02*
X54601904Y-57237380D01*
X54268571Y-57618333D01*
X54411428Y-57618333D01*
X54506666Y-57665952D01*
X54554285Y-57713571D01*
X54601904Y-57808809D01*
X54601904Y-58046904D01*
X54554285Y-58142142D01*
X54506666Y-58189761D01*
X54411428Y-58237380D01*
X54125714Y-58237380D01*
X54030476Y-58189761D01*
X53982857Y-58142142D01*
X66492380Y-52077857D02*
X66016190Y-52411190D01*
X66492380Y-52649285D02*
X65492380Y-52649285D01*
X65492380Y-52268333D01*
X65540000Y-52173095D01*
X65587619Y-52125476D01*
X65682857Y-52077857D01*
X65825714Y-52077857D01*
X65920952Y-52125476D01*
X65968571Y-52173095D01*
X66016190Y-52268333D01*
X66016190Y-52649285D01*
X66492380Y-51125476D02*
X66492380Y-51696904D01*
X66492380Y-51411190D02*
X65492380Y-51411190D01*
X65635238Y-51506428D01*
X65730476Y-51601666D01*
X65778095Y-51696904D01*
X65825714Y-50268333D02*
X66492380Y-50268333D01*
X65444761Y-50506428D02*
X66159047Y-50744523D01*
X66159047Y-50125476D01*
X63952380Y-52077857D02*
X63476190Y-52411190D01*
X63952380Y-52649285D02*
X62952380Y-52649285D01*
X62952380Y-52268333D01*
X63000000Y-52173095D01*
X63047619Y-52125476D01*
X63142857Y-52077857D01*
X63285714Y-52077857D01*
X63380952Y-52125476D01*
X63428571Y-52173095D01*
X63476190Y-52268333D01*
X63476190Y-52649285D01*
X63952380Y-51125476D02*
X63952380Y-51696904D01*
X63952380Y-51411190D02*
X62952380Y-51411190D01*
X63095238Y-51506428D01*
X63190476Y-51601666D01*
X63238095Y-51696904D01*
X62952380Y-50220714D02*
X62952380Y-50696904D01*
X63428571Y-50744523D01*
X63380952Y-50696904D01*
X63333333Y-50601666D01*
X63333333Y-50363571D01*
X63380952Y-50268333D01*
X63428571Y-50220714D01*
X63523809Y-50173095D01*
X63761904Y-50173095D01*
X63857142Y-50220714D01*
X63904761Y-50268333D01*
X63952380Y-50363571D01*
X63952380Y-50601666D01*
X63904761Y-50696904D01*
X63857142Y-50744523D01*
X62539761Y-61583333D02*
X62587380Y-61440476D01*
X62587380Y-61202380D01*
X62539761Y-61107142D01*
X62492142Y-61059523D01*
X62396904Y-61011904D01*
X62301666Y-61011904D01*
X62206428Y-61059523D01*
X62158809Y-61107142D01*
X62111190Y-61202380D01*
X62063571Y-61392857D01*
X62015952Y-61488095D01*
X61968333Y-61535714D01*
X61873095Y-61583333D01*
X61777857Y-61583333D01*
X61682619Y-61535714D01*
X61635000Y-61488095D01*
X61587380Y-61392857D01*
X61587380Y-61154761D01*
X61635000Y-61011904D01*
X61587380Y-60678571D02*
X62587380Y-60440476D01*
X61873095Y-60250000D01*
X62587380Y-60059523D01*
X61587380Y-59821428D01*
X62587380Y-58916666D02*
X62587380Y-59488095D01*
X62587380Y-59202380D02*
X61587380Y-59202380D01*
X61730238Y-59297619D01*
X61825476Y-59392857D01*
X61873095Y-59488095D01*
X13343095Y-55789380D02*
X13914523Y-55789380D01*
X13628809Y-56789380D02*
X13628809Y-55789380D01*
X14247857Y-56789380D02*
X14247857Y-55789380D01*
X14628809Y-55789380D01*
X14724047Y-55837000D01*
X14771666Y-55884619D01*
X14819285Y-55979857D01*
X14819285Y-56122714D01*
X14771666Y-56217952D01*
X14724047Y-56265571D01*
X14628809Y-56313190D01*
X14247857Y-56313190D01*
X15200238Y-55884619D02*
X15247857Y-55837000D01*
X15343095Y-55789380D01*
X15581190Y-55789380D01*
X15676428Y-55837000D01*
X15724047Y-55884619D01*
X15771666Y-55979857D01*
X15771666Y-56075095D01*
X15724047Y-56217952D01*
X15152619Y-56789380D01*
X15771666Y-56789380D01*
X15883095Y-56424380D02*
X16454523Y-56424380D01*
X16168809Y-57424380D02*
X16168809Y-56424380D01*
X16787857Y-57424380D02*
X16787857Y-56424380D01*
X17168809Y-56424380D01*
X17264047Y-56472000D01*
X17311666Y-56519619D01*
X17359285Y-56614857D01*
X17359285Y-56757714D01*
X17311666Y-56852952D01*
X17264047Y-56900571D01*
X17168809Y-56948190D01*
X16787857Y-56948190D01*
X17692619Y-56424380D02*
X18311666Y-56424380D01*
X17978333Y-56805333D01*
X18121190Y-56805333D01*
X18216428Y-56852952D01*
X18264047Y-56900571D01*
X18311666Y-56995809D01*
X18311666Y-57233904D01*
X18264047Y-57329142D01*
X18216428Y-57376761D01*
X18121190Y-57424380D01*
X17835476Y-57424380D01*
X17740238Y-57376761D01*
X17692619Y-57329142D01*
X18423095Y-55789380D02*
X18994523Y-55789380D01*
X18708809Y-56789380D02*
X18708809Y-55789380D01*
X19327857Y-56789380D02*
X19327857Y-55789380D01*
X19708809Y-55789380D01*
X19804047Y-55837000D01*
X19851666Y-55884619D01*
X19899285Y-55979857D01*
X19899285Y-56122714D01*
X19851666Y-56217952D01*
X19804047Y-56265571D01*
X19708809Y-56313190D01*
X19327857Y-56313190D01*
X20756428Y-56122714D02*
X20756428Y-56789380D01*
X20518333Y-55741761D02*
X20280238Y-56456047D01*
X20899285Y-56456047D01*
X19693095Y-72477380D02*
X20264523Y-72477380D01*
X19978809Y-73477380D02*
X19978809Y-72477380D01*
X20597857Y-73477380D02*
X20597857Y-72477380D01*
X20978809Y-72477380D01*
X21074047Y-72525000D01*
X21121666Y-72572619D01*
X21169285Y-72667857D01*
X21169285Y-72810714D01*
X21121666Y-72905952D01*
X21074047Y-72953571D01*
X20978809Y-73001190D01*
X20597857Y-73001190D01*
X22074047Y-72477380D02*
X21597857Y-72477380D01*
X21550238Y-72953571D01*
X21597857Y-72905952D01*
X21693095Y-72858333D01*
X21931190Y-72858333D01*
X22026428Y-72905952D01*
X22074047Y-72953571D01*
X22121666Y-73048809D01*
X22121666Y-73286904D01*
X22074047Y-73382142D01*
X22026428Y-73429761D01*
X21931190Y-73477380D01*
X21693095Y-73477380D01*
X21597857Y-73429761D01*
X21550238Y-73382142D01*
X28583095Y-70572380D02*
X29154523Y-70572380D01*
X28868809Y-71572380D02*
X28868809Y-70572380D01*
X29487857Y-71572380D02*
X29487857Y-70572380D01*
X29868809Y-70572380D01*
X29964047Y-70620000D01*
X30011666Y-70667619D01*
X30059285Y-70762857D01*
X30059285Y-70905714D01*
X30011666Y-71000952D01*
X29964047Y-71048571D01*
X29868809Y-71096190D01*
X29487857Y-71096190D01*
X30916428Y-70572380D02*
X30725952Y-70572380D01*
X30630714Y-70620000D01*
X30583095Y-70667619D01*
X30487857Y-70810476D01*
X30440238Y-71000952D01*
X30440238Y-71381904D01*
X30487857Y-71477142D01*
X30535476Y-71524761D01*
X30630714Y-71572380D01*
X30821190Y-71572380D01*
X30916428Y-71524761D01*
X30964047Y-71477142D01*
X31011666Y-71381904D01*
X31011666Y-71143809D01*
X30964047Y-71048571D01*
X30916428Y-71000952D01*
X30821190Y-70953333D01*
X30630714Y-70953333D01*
X30535476Y-71000952D01*
X30487857Y-71048571D01*
X30440238Y-71143809D01*
X23503095Y-55789380D02*
X24074523Y-55789380D01*
X23788809Y-56789380D02*
X23788809Y-55789380D01*
X24407857Y-56789380D02*
X24407857Y-55789380D01*
X24788809Y-55789380D01*
X24884047Y-55837000D01*
X24931666Y-55884619D01*
X24979285Y-55979857D01*
X24979285Y-56122714D01*
X24931666Y-56217952D01*
X24884047Y-56265571D01*
X24788809Y-56313190D01*
X24407857Y-56313190D01*
X25312619Y-55789380D02*
X25979285Y-55789380D01*
X25550714Y-56789380D01*
X20963095Y-55154380D02*
X21534523Y-55154380D01*
X21248809Y-56154380D02*
X21248809Y-55154380D01*
X21867857Y-56154380D02*
X21867857Y-55154380D01*
X22248809Y-55154380D01*
X22344047Y-55202000D01*
X22391666Y-55249619D01*
X22439285Y-55344857D01*
X22439285Y-55487714D01*
X22391666Y-55582952D01*
X22344047Y-55630571D01*
X22248809Y-55678190D01*
X21867857Y-55678190D01*
X23010714Y-55582952D02*
X22915476Y-55535333D01*
X22867857Y-55487714D01*
X22820238Y-55392476D01*
X22820238Y-55344857D01*
X22867857Y-55249619D01*
X22915476Y-55202000D01*
X23010714Y-55154380D01*
X23201190Y-55154380D01*
X23296428Y-55202000D01*
X23344047Y-55249619D01*
X23391666Y-55344857D01*
X23391666Y-55392476D01*
X23344047Y-55487714D01*
X23296428Y-55535333D01*
X23201190Y-55582952D01*
X23010714Y-55582952D01*
X22915476Y-55630571D01*
X22867857Y-55678190D01*
X22820238Y-55773428D01*
X22820238Y-55963904D01*
X22867857Y-56059142D01*
X22915476Y-56106761D01*
X23010714Y-56154380D01*
X23201190Y-56154380D01*
X23296428Y-56106761D01*
X23344047Y-56059142D01*
X23391666Y-55963904D01*
X23391666Y-55773428D01*
X23344047Y-55678190D01*
X23296428Y-55630571D01*
X23201190Y-55582952D01*
X26043095Y-55154380D02*
X26614523Y-55154380D01*
X26328809Y-56154380D02*
X26328809Y-55154380D01*
X26947857Y-56154380D02*
X26947857Y-55154380D01*
X27328809Y-55154380D01*
X27424047Y-55202000D01*
X27471666Y-55249619D01*
X27519285Y-55344857D01*
X27519285Y-55487714D01*
X27471666Y-55582952D01*
X27424047Y-55630571D01*
X27328809Y-55678190D01*
X26947857Y-55678190D01*
X27995476Y-56154380D02*
X28185952Y-56154380D01*
X28281190Y-56106761D01*
X28328809Y-56059142D01*
X28424047Y-55916285D01*
X28471666Y-55725809D01*
X28471666Y-55344857D01*
X28424047Y-55249619D01*
X28376428Y-55202000D01*
X28281190Y-55154380D01*
X28090714Y-55154380D01*
X27995476Y-55202000D01*
X27947857Y-55249619D01*
X27900238Y-55344857D01*
X27900238Y-55582952D01*
X27947857Y-55678190D01*
X27995476Y-55725809D01*
X28090714Y-55773428D01*
X28281190Y-55773428D01*
X28376428Y-55725809D01*
X28424047Y-55678190D01*
X28471666Y-55582952D01*
X26836904Y-67219380D02*
X27408333Y-67219380D01*
X27122619Y-68219380D02*
X27122619Y-67219380D01*
X27741666Y-68219380D02*
X27741666Y-67219380D01*
X28122619Y-67219380D01*
X28217857Y-67267000D01*
X28265476Y-67314619D01*
X28313095Y-67409857D01*
X28313095Y-67552714D01*
X28265476Y-67647952D01*
X28217857Y-67695571D01*
X28122619Y-67743190D01*
X27741666Y-67743190D01*
X29265476Y-68219380D02*
X28694047Y-68219380D01*
X28979761Y-68219380D02*
X28979761Y-67219380D01*
X28884523Y-67362238D01*
X28789285Y-67457476D01*
X28694047Y-67505095D01*
X29884523Y-67219380D02*
X29979761Y-67219380D01*
X30075000Y-67267000D01*
X30122619Y-67314619D01*
X30170238Y-67409857D01*
X30217857Y-67600333D01*
X30217857Y-67838428D01*
X30170238Y-68028904D01*
X30122619Y-68124142D01*
X30075000Y-68171761D01*
X29979761Y-68219380D01*
X29884523Y-68219380D01*
X29789285Y-68171761D01*
X29741666Y-68124142D01*
X29694047Y-68028904D01*
X29646428Y-67838428D01*
X29646428Y-67600333D01*
X29694047Y-67409857D01*
X29741666Y-67314619D01*
X29789285Y-67267000D01*
X29884523Y-67219380D01*
X24296904Y-70572380D02*
X24868333Y-70572380D01*
X24582619Y-71572380D02*
X24582619Y-70572380D01*
X25201666Y-71572380D02*
X25201666Y-70572380D01*
X25582619Y-70572380D01*
X25677857Y-70620000D01*
X25725476Y-70667619D01*
X25773095Y-70762857D01*
X25773095Y-70905714D01*
X25725476Y-71000952D01*
X25677857Y-71048571D01*
X25582619Y-71096190D01*
X25201666Y-71096190D01*
X26725476Y-71572380D02*
X26154047Y-71572380D01*
X26439761Y-71572380D02*
X26439761Y-70572380D01*
X26344523Y-70715238D01*
X26249285Y-70810476D01*
X26154047Y-70858095D01*
X27677857Y-71572380D02*
X27106428Y-71572380D01*
X27392142Y-71572380D02*
X27392142Y-70572380D01*
X27296904Y-70715238D01*
X27201666Y-70810476D01*
X27106428Y-70858095D01*
X56602380Y-70318095D02*
X56602380Y-69746666D01*
X57602380Y-70032380D02*
X56602380Y-70032380D01*
X57602380Y-69413333D02*
X56602380Y-69413333D01*
X56602380Y-69032380D01*
X56650000Y-68937142D01*
X56697619Y-68889523D01*
X56792857Y-68841904D01*
X56935714Y-68841904D01*
X57030952Y-68889523D01*
X57078571Y-68937142D01*
X57126190Y-69032380D01*
X57126190Y-69413333D01*
X57602380Y-67889523D02*
X57602380Y-68460952D01*
X57602380Y-68175238D02*
X56602380Y-68175238D01*
X56745238Y-68270476D01*
X56840476Y-68365714D01*
X56888095Y-68460952D01*
X56697619Y-67508571D02*
X56650000Y-67460952D01*
X56602380Y-67365714D01*
X56602380Y-67127619D01*
X56650000Y-67032380D01*
X56697619Y-66984761D01*
X56792857Y-66937142D01*
X56888095Y-66937142D01*
X57030952Y-66984761D01*
X57602380Y-67556190D01*
X57602380Y-66937142D01*
X59777380Y-67778095D02*
X59777380Y-67206666D01*
X60777380Y-67492380D02*
X59777380Y-67492380D01*
X60777380Y-66873333D02*
X59777380Y-66873333D01*
X59777380Y-66492380D01*
X59825000Y-66397142D01*
X59872619Y-66349523D01*
X59967857Y-66301904D01*
X60110714Y-66301904D01*
X60205952Y-66349523D01*
X60253571Y-66397142D01*
X60301190Y-66492380D01*
X60301190Y-66873333D01*
X60777380Y-65349523D02*
X60777380Y-65920952D01*
X60777380Y-65635238D02*
X59777380Y-65635238D01*
X59920238Y-65730476D01*
X60015476Y-65825714D01*
X60063095Y-65920952D01*
X59777380Y-65016190D02*
X59777380Y-64397142D01*
X60158333Y-64730476D01*
X60158333Y-64587619D01*
X60205952Y-64492380D01*
X60253571Y-64444761D01*
X60348809Y-64397142D01*
X60586904Y-64397142D01*
X60682142Y-64444761D01*
X60729761Y-64492380D01*
X60777380Y-64587619D01*
X60777380Y-64873333D01*
X60729761Y-64968571D01*
X60682142Y-65016190D01*
X59955380Y-62698095D02*
X59955380Y-62126666D01*
X60955380Y-62412380D02*
X59955380Y-62412380D01*
X60955380Y-61793333D02*
X59955380Y-61793333D01*
X59955380Y-61412380D01*
X60003000Y-61317142D01*
X60050619Y-61269523D01*
X60145857Y-61221904D01*
X60288714Y-61221904D01*
X60383952Y-61269523D01*
X60431571Y-61317142D01*
X60479190Y-61412380D01*
X60479190Y-61793333D01*
X60955380Y-60269523D02*
X60955380Y-60840952D01*
X60955380Y-60555238D02*
X59955380Y-60555238D01*
X60098238Y-60650476D01*
X60193476Y-60745714D01*
X60241095Y-60840952D01*
X60288714Y-59412380D02*
X60955380Y-59412380D01*
X59907761Y-59650476D02*
X60622047Y-59888571D01*
X60622047Y-59269523D01*
X56602380Y-65238095D02*
X56602380Y-64666666D01*
X57602380Y-64952380D02*
X56602380Y-64952380D01*
X57602380Y-64333333D02*
X56602380Y-64333333D01*
X56602380Y-63952380D01*
X56650000Y-63857142D01*
X56697619Y-63809523D01*
X56792857Y-63761904D01*
X56935714Y-63761904D01*
X57030952Y-63809523D01*
X57078571Y-63857142D01*
X57126190Y-63952380D01*
X57126190Y-64333333D01*
X57602380Y-62809523D02*
X57602380Y-63380952D01*
X57602380Y-63095238D02*
X56602380Y-63095238D01*
X56745238Y-63190476D01*
X56840476Y-63285714D01*
X56888095Y-63380952D01*
X56602380Y-61904761D02*
X56602380Y-62380952D01*
X57078571Y-62428571D01*
X57030952Y-62380952D01*
X56983333Y-62285714D01*
X56983333Y-62047619D01*
X57030952Y-61952380D01*
X57078571Y-61904761D01*
X57173809Y-61857142D01*
X57411904Y-61857142D01*
X57507142Y-61904761D01*
X57554761Y-61952380D01*
X57602380Y-62047619D01*
X57602380Y-62285714D01*
X57554761Y-62380952D01*
X57507142Y-62428571D01*
X59955380Y-72858095D02*
X59955380Y-72286666D01*
X60955380Y-72572380D02*
X59955380Y-72572380D01*
X60955380Y-71953333D02*
X59955380Y-71953333D01*
X59955380Y-71572380D01*
X60003000Y-71477142D01*
X60050619Y-71429523D01*
X60145857Y-71381904D01*
X60288714Y-71381904D01*
X60383952Y-71429523D01*
X60431571Y-71477142D01*
X60479190Y-71572380D01*
X60479190Y-71953333D01*
X60955380Y-70429523D02*
X60955380Y-71000952D01*
X60955380Y-70715238D02*
X59955380Y-70715238D01*
X60098238Y-70810476D01*
X60193476Y-70905714D01*
X60241095Y-71000952D01*
X59955380Y-69572380D02*
X59955380Y-69762857D01*
X60003000Y-69858095D01*
X60050619Y-69905714D01*
X60193476Y-70000952D01*
X60383952Y-70048571D01*
X60764904Y-70048571D01*
X60860142Y-70000952D01*
X60907761Y-69953333D01*
X60955380Y-69858095D01*
X60955380Y-69667619D01*
X60907761Y-69572380D01*
X60860142Y-69524761D01*
X60764904Y-69477142D01*
X60526809Y-69477142D01*
X60431571Y-69524761D01*
X60383952Y-69572380D01*
X60336333Y-69667619D01*
X60336333Y-69858095D01*
X60383952Y-69953333D01*
X60431571Y-70000952D01*
X60526809Y-70048571D01*
X56681904Y-56424380D02*
X57253333Y-56424380D01*
X56967619Y-57424380D02*
X56967619Y-56424380D01*
X57586666Y-57424380D02*
X57586666Y-56424380D01*
X57967619Y-56424380D01*
X58062857Y-56472000D01*
X58110476Y-56519619D01*
X58158095Y-56614857D01*
X58158095Y-56757714D01*
X58110476Y-56852952D01*
X58062857Y-56900571D01*
X57967619Y-56948190D01*
X57586666Y-56948190D01*
X59110476Y-57424380D02*
X58539047Y-57424380D01*
X58824761Y-57424380D02*
X58824761Y-56424380D01*
X58729523Y-56567238D01*
X58634285Y-56662476D01*
X58539047Y-56710095D01*
X59443809Y-56424380D02*
X60110476Y-56424380D01*
X59681904Y-57424380D01*
X16666902Y-68615601D02*
X16094482Y-69188021D01*
X16060810Y-69289036D01*
X16060810Y-69356380D01*
X16094482Y-69457395D01*
X16229169Y-69592082D01*
X16330184Y-69625754D01*
X16397528Y-69625754D01*
X16498543Y-69592082D01*
X17070963Y-69019662D01*
X17306665Y-69390052D02*
X17374008Y-69390052D01*
X17475024Y-69423723D01*
X17643382Y-69592082D01*
X17677054Y-69693097D01*
X17677054Y-69760441D01*
X17643382Y-69861456D01*
X17576039Y-69928800D01*
X17441352Y-69996143D01*
X16633230Y-69996143D01*
X17070963Y-70433876D01*
X83497380Y-61721904D02*
X84306904Y-61721904D01*
X84402142Y-61674285D01*
X84449761Y-61626666D01*
X84497380Y-61531428D01*
X84497380Y-61340952D01*
X84449761Y-61245714D01*
X84402142Y-61198095D01*
X84306904Y-61150476D01*
X83497380Y-61150476D01*
X83497380Y-60769523D02*
X83497380Y-60150476D01*
X83878333Y-60483809D01*
X83878333Y-60340952D01*
X83925952Y-60245714D01*
X83973571Y-60198095D01*
X84068809Y-60150476D01*
X84306904Y-60150476D01*
X84402142Y-60198095D01*
X84449761Y-60245714D01*
X84497380Y-60340952D01*
X84497380Y-60626666D01*
X84449761Y-60721904D01*
X84402142Y-60769523D01*
X50038095Y-60712380D02*
X50038095Y-61521904D01*
X50085714Y-61617142D01*
X50133333Y-61664761D01*
X50228571Y-61712380D01*
X50419047Y-61712380D01*
X50514285Y-61664761D01*
X50561904Y-61617142D01*
X50609523Y-61521904D01*
X50609523Y-60712380D01*
X51514285Y-61045714D02*
X51514285Y-61712380D01*
X51276190Y-60664761D02*
X51038095Y-61379047D01*
X51657142Y-61379047D01*
X40071190Y-70326190D02*
X40547380Y-70326190D01*
X39547380Y-70659523D02*
X40071190Y-70326190D01*
X39547380Y-69992857D01*
X40547380Y-69135714D02*
X40547380Y-69707142D01*
X40547380Y-69421428D02*
X39547380Y-69421428D01*
X39690238Y-69516666D01*
X39785476Y-69611904D01*
X39833095Y-69707142D01*
X14438333Y-74017142D02*
X14390714Y-74064761D01*
X14247857Y-74112380D01*
X14152619Y-74112380D01*
X14009761Y-74064761D01*
X13914523Y-73969523D01*
X13866904Y-73874285D01*
X13819285Y-73683809D01*
X13819285Y-73540952D01*
X13866904Y-73350476D01*
X13914523Y-73255238D01*
X14009761Y-73160000D01*
X14152619Y-73112380D01*
X14247857Y-73112380D01*
X14390714Y-73160000D01*
X14438333Y-73207619D01*
X15295476Y-73112380D02*
X15105000Y-73112380D01*
X15009761Y-73160000D01*
X14962142Y-73207619D01*
X14866904Y-73350476D01*
X14819285Y-73540952D01*
X14819285Y-73921904D01*
X14866904Y-74017142D01*
X14914523Y-74064761D01*
X15009761Y-74112380D01*
X15200238Y-74112380D01*
X15295476Y-74064761D01*
X15343095Y-74017142D01*
X15390714Y-73921904D01*
X15390714Y-73683809D01*
X15343095Y-73588571D01*
X15295476Y-73540952D01*
X15200238Y-73493333D01*
X15009761Y-73493333D01*
X14914523Y-73540952D01*
X14866904Y-73588571D01*
X14819285Y-73683809D01*
X8753332Y-66397142D02*
X8705713Y-66444761D01*
X8562856Y-66492380D01*
X8467618Y-66492380D01*
X8324760Y-66444761D01*
X8229522Y-66349523D01*
X8181903Y-66254285D01*
X8134284Y-66063809D01*
X8134284Y-65920952D01*
X8181903Y-65730476D01*
X8229522Y-65635238D01*
X8324760Y-65540000D01*
X8467618Y-65492380D01*
X8562856Y-65492380D01*
X8705713Y-65540000D01*
X8753332Y-65587619D01*
X9086665Y-65492380D02*
X9753332Y-65492380D01*
X9324760Y-66492380D01*
X27378333Y-59252142D02*
X27330714Y-59299761D01*
X27187857Y-59347380D01*
X27092619Y-59347380D01*
X26949761Y-59299761D01*
X26854523Y-59204523D01*
X26806904Y-59109285D01*
X26759285Y-58918809D01*
X26759285Y-58775952D01*
X26806904Y-58585476D01*
X26854523Y-58490238D01*
X26949761Y-58395000D01*
X27092619Y-58347380D01*
X27187857Y-58347380D01*
X27330714Y-58395000D01*
X27378333Y-58442619D01*
X27949761Y-58775952D02*
X27854523Y-58728333D01*
X27806904Y-58680714D01*
X27759285Y-58585476D01*
X27759285Y-58537857D01*
X27806904Y-58442619D01*
X27854523Y-58395000D01*
X27949761Y-58347380D01*
X28140238Y-58347380D01*
X28235476Y-58395000D01*
X28283095Y-58442619D01*
X28330714Y-58537857D01*
X28330714Y-58585476D01*
X28283095Y-58680714D01*
X28235476Y-58728333D01*
X28140238Y-58775952D01*
X27949761Y-58775952D01*
X27854523Y-58823571D01*
X27806904Y-58871190D01*
X27759285Y-58966428D01*
X27759285Y-59156904D01*
X27806904Y-59252142D01*
X27854523Y-59299761D01*
X27949761Y-59347380D01*
X28140238Y-59347380D01*
X28235476Y-59299761D01*
X28283095Y-59252142D01*
X28330714Y-59156904D01*
X28330714Y-58966428D01*
X28283095Y-58871190D01*
X28235476Y-58823571D01*
X28140238Y-58775952D01*
X67111666Y-68032380D02*
X67111666Y-68746666D01*
X67064047Y-68889523D01*
X66968809Y-68984761D01*
X66825952Y-69032380D01*
X66730714Y-69032380D01*
X67587857Y-69032380D02*
X67587857Y-68032380D01*
X67968809Y-68032380D01*
X68064047Y-68080000D01*
X68111666Y-68127619D01*
X68159285Y-68222857D01*
X68159285Y-68365714D01*
X68111666Y-68460952D01*
X68064047Y-68508571D01*
X67968809Y-68556190D01*
X67587857Y-68556190D01*
X69016428Y-68032380D02*
X68825952Y-68032380D01*
X68730714Y-68080000D01*
X68683095Y-68127619D01*
X68587857Y-68270476D01*
X68540238Y-68460952D01*
X68540238Y-68841904D01*
X68587857Y-68937142D01*
X68635476Y-68984761D01*
X68730714Y-69032380D01*
X68921190Y-69032380D01*
X69016428Y-68984761D01*
X69064047Y-68937142D01*
X69111666Y-68841904D01*
X69111666Y-68603809D01*
X69064047Y-68508571D01*
X69016428Y-68460952D01*
X68921190Y-68413333D01*
X68730714Y-68413333D01*
X68635476Y-68460952D01*
X68587857Y-68508571D01*
X68540238Y-68603809D01*
X31416666Y-24852380D02*
X31416666Y-25566666D01*
X31369047Y-25709523D01*
X31273809Y-25804761D01*
X31130952Y-25852380D01*
X31035714Y-25852380D01*
X31797619Y-24852380D02*
X32416666Y-24852380D01*
X32083333Y-25233333D01*
X32226190Y-25233333D01*
X32321428Y-25280952D01*
X32369047Y-25328571D01*
X32416666Y-25423809D01*
X32416666Y-25661904D01*
X32369047Y-25757142D01*
X32321428Y-25804761D01*
X32226190Y-25852380D01*
X31940476Y-25852380D01*
X31845238Y-25804761D01*
X31797619Y-25757142D01*
X31416666Y-9612380D02*
X31416666Y-10326666D01*
X31369047Y-10469523D01*
X31273809Y-10564761D01*
X31130952Y-10612380D01*
X31035714Y-10612380D01*
X32369047Y-9612380D02*
X31892857Y-9612380D01*
X31845238Y-10088571D01*
X31892857Y-10040952D01*
X31988095Y-9993333D01*
X32226190Y-9993333D01*
X32321428Y-10040952D01*
X32369047Y-10088571D01*
X32416666Y-10183809D01*
X32416666Y-10421904D01*
X32369047Y-10517142D01*
X32321428Y-10564761D01*
X32226190Y-10612380D01*
X31988095Y-10612380D01*
X31892857Y-10564761D01*
X31845238Y-10517142D01*
X31416666Y-40092380D02*
X31416666Y-40806666D01*
X31369047Y-40949523D01*
X31273809Y-41044761D01*
X31130952Y-41092380D01*
X31035714Y-41092380D01*
X31797619Y-40092380D02*
X32464285Y-40092380D01*
X32035714Y-41092380D01*
X38617142Y-60572857D02*
X38664761Y-60620476D01*
X38712380Y-60763333D01*
X38712380Y-60858571D01*
X38664761Y-61001428D01*
X38569523Y-61096666D01*
X38474285Y-61144285D01*
X38283809Y-61191904D01*
X38140952Y-61191904D01*
X37950476Y-61144285D01*
X37855238Y-61096666D01*
X37760000Y-61001428D01*
X37712380Y-60858571D01*
X37712380Y-60763333D01*
X37760000Y-60620476D01*
X37807619Y-60572857D01*
X38712380Y-59620476D02*
X38712380Y-60191904D01*
X38712380Y-59906190D02*
X37712380Y-59906190D01*
X37855238Y-60001428D01*
X37950476Y-60096666D01*
X37998095Y-60191904D01*
X37712380Y-58715714D02*
X37712380Y-59191904D01*
X38188571Y-59239523D01*
X38140952Y-59191904D01*
X38093333Y-59096666D01*
X38093333Y-58858571D01*
X38140952Y-58763333D01*
X38188571Y-58715714D01*
X38283809Y-58668095D01*
X38521904Y-58668095D01*
X38617142Y-58715714D01*
X38664761Y-58763333D01*
X38712380Y-58858571D01*
X38712380Y-59096666D01*
X38664761Y-59191904D01*
X38617142Y-59239523D01*
X31502142Y-70367142D02*
X31454523Y-70414761D01*
X31311666Y-70462380D01*
X31216428Y-70462380D01*
X31073571Y-70414761D01*
X30978333Y-70319523D01*
X30930714Y-70224285D01*
X30883095Y-70033809D01*
X30883095Y-69890952D01*
X30930714Y-69700476D01*
X30978333Y-69605238D01*
X31073571Y-69510000D01*
X31216428Y-69462380D01*
X31311666Y-69462380D01*
X31454523Y-69510000D01*
X31502142Y-69557619D01*
X32454523Y-70462380D02*
X31883095Y-70462380D01*
X32168809Y-70462380D02*
X32168809Y-69462380D01*
X32073571Y-69605238D01*
X31978333Y-69700476D01*
X31883095Y-69748095D01*
X33311666Y-69462380D02*
X33121190Y-69462380D01*
X33025952Y-69510000D01*
X32978333Y-69557619D01*
X32883095Y-69700476D01*
X32835476Y-69890952D01*
X32835476Y-70271904D01*
X32883095Y-70367142D01*
X32930714Y-70414761D01*
X33025952Y-70462380D01*
X33216428Y-70462380D01*
X33311666Y-70414761D01*
X33359285Y-70367142D01*
X33406904Y-70271904D01*
X33406904Y-70033809D01*
X33359285Y-69938571D01*
X33311666Y-69890952D01*
X33216428Y-69843333D01*
X33025952Y-69843333D01*
X32930714Y-69890952D01*
X32883095Y-69938571D01*
X32835476Y-70033809D01*
X29821190Y-62071190D02*
X30297380Y-62071190D01*
X29297380Y-62404523D02*
X29821190Y-62071190D01*
X29297380Y-61737857D01*
X29392619Y-61452142D02*
X29345000Y-61404523D01*
X29297380Y-61309285D01*
X29297380Y-61071190D01*
X29345000Y-60975952D01*
X29392619Y-60928333D01*
X29487857Y-60880714D01*
X29583095Y-60880714D01*
X29725952Y-60928333D01*
X30297380Y-61499761D01*
X30297380Y-60880714D01*
X70381904Y-39822380D02*
X70381904Y-38822380D01*
X70953333Y-39822380D02*
X70524761Y-39250952D01*
X70953333Y-38822380D02*
X70381904Y-39393809D01*
X71905714Y-39822380D02*
X71334285Y-39822380D01*
X71620000Y-39822380D02*
X71620000Y-38822380D01*
X71524761Y-38965238D01*
X71429523Y-39060476D01*
X71334285Y-39108095D01*
X97051904Y-39822380D02*
X97051904Y-38822380D01*
X97623333Y-39822380D02*
X97194761Y-39250952D01*
X97623333Y-38822380D02*
X97051904Y-39393809D01*
X98004285Y-38917619D02*
X98051904Y-38870000D01*
X98147142Y-38822380D01*
X98385238Y-38822380D01*
X98480476Y-38870000D01*
X98528095Y-38917619D01*
X98575714Y-39012857D01*
X98575714Y-39108095D01*
X98528095Y-39250952D01*
X97956666Y-39822380D01*
X98575714Y-39822380D01*
X123721904Y-39822380D02*
X123721904Y-38822380D01*
X124293333Y-39822380D02*
X123864761Y-39250952D01*
X124293333Y-38822380D02*
X123721904Y-39393809D01*
X124626666Y-38822380D02*
X125245714Y-38822380D01*
X124912380Y-39203333D01*
X125055238Y-39203333D01*
X125150476Y-39250952D01*
X125198095Y-39298571D01*
X125245714Y-39393809D01*
X125245714Y-39631904D01*
X125198095Y-39727142D01*
X125150476Y-39774761D01*
X125055238Y-39822380D01*
X124769523Y-39822380D01*
X124674285Y-39774761D01*
X124626666Y-39727142D01*
X111357142Y-68302142D02*
X111309523Y-68349761D01*
X111166666Y-68397380D01*
X111071428Y-68397380D01*
X110928571Y-68349761D01*
X110833333Y-68254523D01*
X110785714Y-68159285D01*
X110738095Y-67968809D01*
X110738095Y-67825952D01*
X110785714Y-67635476D01*
X110833333Y-67540238D01*
X110928571Y-67445000D01*
X111071428Y-67397380D01*
X111166666Y-67397380D01*
X111309523Y-67445000D01*
X111357142Y-67492619D01*
X112309523Y-68397380D02*
X111738095Y-68397380D01*
X112023809Y-68397380D02*
X112023809Y-67397380D01*
X111928571Y-67540238D01*
X111833333Y-67635476D01*
X111738095Y-67683095D01*
X112880952Y-67825952D02*
X112785714Y-67778333D01*
X112738095Y-67730714D01*
X112690476Y-67635476D01*
X112690476Y-67587857D01*
X112738095Y-67492619D01*
X112785714Y-67445000D01*
X112880952Y-67397380D01*
X113071428Y-67397380D01*
X113166666Y-67445000D01*
X113214285Y-67492619D01*
X113261904Y-67587857D01*
X113261904Y-67635476D01*
X113214285Y-67730714D01*
X113166666Y-67778333D01*
X113071428Y-67825952D01*
X112880952Y-67825952D01*
X112785714Y-67873571D01*
X112738095Y-67921190D01*
X112690476Y-68016428D01*
X112690476Y-68206904D01*
X112738095Y-68302142D01*
X112785714Y-68349761D01*
X112880952Y-68397380D01*
X113071428Y-68397380D01*
X113166666Y-68349761D01*
X113214285Y-68302142D01*
X113261904Y-68206904D01*
X113261904Y-68016428D01*
X113214285Y-67921190D01*
X113166666Y-67873571D01*
X113071428Y-67825952D01*
X109417142Y-65412857D02*
X109464761Y-65460476D01*
X109512380Y-65603333D01*
X109512380Y-65698571D01*
X109464761Y-65841428D01*
X109369523Y-65936666D01*
X109274285Y-65984285D01*
X109083809Y-66031904D01*
X108940952Y-66031904D01*
X108750476Y-65984285D01*
X108655238Y-65936666D01*
X108560000Y-65841428D01*
X108512380Y-65698571D01*
X108512380Y-65603333D01*
X108560000Y-65460476D01*
X108607619Y-65412857D01*
X109512380Y-64460476D02*
X109512380Y-65031904D01*
X109512380Y-64746190D02*
X108512380Y-64746190D01*
X108655238Y-64841428D01*
X108750476Y-64936666D01*
X108798095Y-65031904D01*
X109512380Y-63984285D02*
X109512380Y-63793809D01*
X109464761Y-63698571D01*
X109417142Y-63650952D01*
X109274285Y-63555714D01*
X109083809Y-63508095D01*
X108702857Y-63508095D01*
X108607619Y-63555714D01*
X108560000Y-63603333D01*
X108512380Y-63698571D01*
X108512380Y-63889047D01*
X108560000Y-63984285D01*
X108607619Y-64031904D01*
X108702857Y-64079523D01*
X108940952Y-64079523D01*
X109036190Y-64031904D01*
X109083809Y-63984285D01*
X109131428Y-63889047D01*
X109131428Y-63698571D01*
X109083809Y-63603333D01*
X109036190Y-63555714D01*
X108940952Y-63508095D01*
X125452142Y-64142857D02*
X125499761Y-64190476D01*
X125547380Y-64333333D01*
X125547380Y-64428571D01*
X125499761Y-64571428D01*
X125404523Y-64666666D01*
X125309285Y-64714285D01*
X125118809Y-64761904D01*
X124975952Y-64761904D01*
X124785476Y-64714285D01*
X124690238Y-64666666D01*
X124595000Y-64571428D01*
X124547380Y-64428571D01*
X124547380Y-64333333D01*
X124595000Y-64190476D01*
X124642619Y-64142857D01*
X124642619Y-63761904D02*
X124595000Y-63714285D01*
X124547380Y-63619047D01*
X124547380Y-63380952D01*
X124595000Y-63285714D01*
X124642619Y-63238095D01*
X124737857Y-63190476D01*
X124833095Y-63190476D01*
X124975952Y-63238095D01*
X125547380Y-63809523D01*
X125547380Y-63190476D01*
X125547380Y-62238095D02*
X125547380Y-62809523D01*
X125547380Y-62523809D02*
X124547380Y-62523809D01*
X124690238Y-62619047D01*
X124785476Y-62714285D01*
X124833095Y-62809523D01*
X104592380Y-57486666D02*
X104592380Y-57962857D01*
X103592380Y-57962857D01*
X103687619Y-57200952D02*
X103640000Y-57153333D01*
X103592380Y-57058095D01*
X103592380Y-56820000D01*
X103640000Y-56724761D01*
X103687619Y-56677142D01*
X103782857Y-56629523D01*
X103878095Y-56629523D01*
X104020952Y-56677142D01*
X104592380Y-57248571D01*
X104592380Y-56629523D01*
X111752142Y-72842380D02*
X111418809Y-72366190D01*
X111180714Y-72842380D02*
X111180714Y-71842380D01*
X111561666Y-71842380D01*
X111656904Y-71890000D01*
X111704523Y-71937619D01*
X111752142Y-72032857D01*
X111752142Y-72175714D01*
X111704523Y-72270952D01*
X111656904Y-72318571D01*
X111561666Y-72366190D01*
X111180714Y-72366190D01*
X112704523Y-72842380D02*
X112133095Y-72842380D01*
X112418809Y-72842380D02*
X112418809Y-71842380D01*
X112323571Y-71985238D01*
X112228333Y-72080476D01*
X112133095Y-72128095D01*
X113561666Y-71842380D02*
X113371190Y-71842380D01*
X113275952Y-71890000D01*
X113228333Y-71937619D01*
X113133095Y-72080476D01*
X113085476Y-72270952D01*
X113085476Y-72651904D01*
X113133095Y-72747142D01*
X113180714Y-72794761D01*
X113275952Y-72842380D01*
X113466428Y-72842380D01*
X113561666Y-72794761D01*
X113609285Y-72747142D01*
X113656904Y-72651904D01*
X113656904Y-72413809D01*
X113609285Y-72318571D01*
X113561666Y-72270952D01*
X113466428Y-72223333D01*
X113275952Y-72223333D01*
X113180714Y-72270952D01*
X113133095Y-72318571D01*
X113085476Y-72413809D01*
X123802380Y-63112857D02*
X123326190Y-63446190D01*
X123802380Y-63684285D02*
X122802380Y-63684285D01*
X122802380Y-63303333D01*
X122850000Y-63208095D01*
X122897619Y-63160476D01*
X122992857Y-63112857D01*
X123135714Y-63112857D01*
X123230952Y-63160476D01*
X123278571Y-63208095D01*
X123326190Y-63303333D01*
X123326190Y-63684285D01*
X123802380Y-62160476D02*
X123802380Y-62731904D01*
X123802380Y-62446190D02*
X122802380Y-62446190D01*
X122945238Y-62541428D01*
X123040476Y-62636666D01*
X123088095Y-62731904D01*
X122802380Y-61827142D02*
X122802380Y-61160476D01*
X123802380Y-61589047D01*
X125707380Y-67712857D02*
X125231190Y-68046190D01*
X125707380Y-68284285D02*
X124707380Y-68284285D01*
X124707380Y-67903333D01*
X124755000Y-67808095D01*
X124802619Y-67760476D01*
X124897857Y-67712857D01*
X125040714Y-67712857D01*
X125135952Y-67760476D01*
X125183571Y-67808095D01*
X125231190Y-67903333D01*
X125231190Y-68284285D01*
X125707380Y-66760476D02*
X125707380Y-67331904D01*
X125707380Y-67046190D02*
X124707380Y-67046190D01*
X124850238Y-67141428D01*
X124945476Y-67236666D01*
X124993095Y-67331904D01*
X125135952Y-66189047D02*
X125088333Y-66284285D01*
X125040714Y-66331904D01*
X124945476Y-66379523D01*
X124897857Y-66379523D01*
X124802619Y-66331904D01*
X124755000Y-66284285D01*
X124707380Y-66189047D01*
X124707380Y-65998571D01*
X124755000Y-65903333D01*
X124802619Y-65855714D01*
X124897857Y-65808095D01*
X124945476Y-65808095D01*
X125040714Y-65855714D01*
X125088333Y-65903333D01*
X125135952Y-65998571D01*
X125135952Y-66189047D01*
X125183571Y-66284285D01*
X125231190Y-66331904D01*
X125326428Y-66379523D01*
X125516904Y-66379523D01*
X125612142Y-66331904D01*
X125659761Y-66284285D01*
X125707380Y-66189047D01*
X125707380Y-65998571D01*
X125659761Y-65903333D01*
X125612142Y-65855714D01*
X125516904Y-65808095D01*
X125326428Y-65808095D01*
X125231190Y-65855714D01*
X125183571Y-65903333D01*
X125135952Y-65998571D01*
X111357142Y-70302380D02*
X111023809Y-69826190D01*
X110785714Y-70302380D02*
X110785714Y-69302380D01*
X111166666Y-69302380D01*
X111261904Y-69350000D01*
X111309523Y-69397619D01*
X111357142Y-69492857D01*
X111357142Y-69635714D01*
X111309523Y-69730952D01*
X111261904Y-69778571D01*
X111166666Y-69826190D01*
X110785714Y-69826190D01*
X112309523Y-70302380D02*
X111738095Y-70302380D01*
X112023809Y-70302380D02*
X112023809Y-69302380D01*
X111928571Y-69445238D01*
X111833333Y-69540476D01*
X111738095Y-69588095D01*
X112785714Y-70302380D02*
X112976190Y-70302380D01*
X113071428Y-70254761D01*
X113119047Y-70207142D01*
X113214285Y-70064285D01*
X113261904Y-69873809D01*
X113261904Y-69492857D01*
X113214285Y-69397619D01*
X113166666Y-69350000D01*
X113071428Y-69302380D01*
X112880952Y-69302380D01*
X112785714Y-69350000D01*
X112738095Y-69397619D01*
X112690476Y-69492857D01*
X112690476Y-69730952D01*
X112738095Y-69826190D01*
X112785714Y-69873809D01*
X112880952Y-69921428D01*
X113071428Y-69921428D01*
X113166666Y-69873809D01*
X113214285Y-69826190D01*
X113261904Y-69730952D01*
X112903095Y-59552380D02*
X112903095Y-60361904D01*
X112950714Y-60457142D01*
X112998333Y-60504761D01*
X113093571Y-60552380D01*
X113284047Y-60552380D01*
X113379285Y-60504761D01*
X113426904Y-60457142D01*
X113474523Y-60361904D01*
X113474523Y-59552380D01*
X114426904Y-59552380D02*
X113950714Y-59552380D01*
X113903095Y-60028571D01*
X113950714Y-59980952D01*
X114045952Y-59933333D01*
X114284047Y-59933333D01*
X114379285Y-59980952D01*
X114426904Y-60028571D01*
X114474523Y-60123809D01*
X114474523Y-60361904D01*
X114426904Y-60457142D01*
X114379285Y-60504761D01*
X114284047Y-60552380D01*
X114045952Y-60552380D01*
X113950714Y-60504761D01*
X113903095Y-60457142D01*
X121578904Y-55789380D02*
X122150333Y-55789380D01*
X121864619Y-56789380D02*
X121864619Y-55789380D01*
X122483666Y-56789380D02*
X122483666Y-55789380D01*
X122864619Y-55789380D01*
X122959857Y-55837000D01*
X123007476Y-55884619D01*
X123055095Y-55979857D01*
X123055095Y-56122714D01*
X123007476Y-56217952D01*
X122959857Y-56265571D01*
X122864619Y-56313190D01*
X122483666Y-56313190D01*
X124007476Y-56789380D02*
X123436047Y-56789380D01*
X123721761Y-56789380D02*
X123721761Y-55789380D01*
X123626523Y-55932238D01*
X123531285Y-56027476D01*
X123436047Y-56075095D01*
X124578904Y-56217952D02*
X124483666Y-56170333D01*
X124436047Y-56122714D01*
X124388428Y-56027476D01*
X124388428Y-55979857D01*
X124436047Y-55884619D01*
X124483666Y-55837000D01*
X124578904Y-55789380D01*
X124769380Y-55789380D01*
X124864619Y-55837000D01*
X124912238Y-55884619D01*
X124959857Y-55979857D01*
X124959857Y-56027476D01*
X124912238Y-56122714D01*
X124864619Y-56170333D01*
X124769380Y-56217952D01*
X124578904Y-56217952D01*
X124483666Y-56265571D01*
X124436047Y-56313190D01*
X124388428Y-56408428D01*
X124388428Y-56598904D01*
X124436047Y-56694142D01*
X124483666Y-56741761D01*
X124578904Y-56789380D01*
X124769380Y-56789380D01*
X124864619Y-56741761D01*
X124912238Y-56694142D01*
X124959857Y-56598904D01*
X124959857Y-56408428D01*
X124912238Y-56313190D01*
X124864619Y-56265571D01*
X124769380Y-56217952D01*
X109577142Y-70492857D02*
X109624761Y-70540476D01*
X109672380Y-70683333D01*
X109672380Y-70778571D01*
X109624761Y-70921428D01*
X109529523Y-71016666D01*
X109434285Y-71064285D01*
X109243809Y-71111904D01*
X109100952Y-71111904D01*
X108910476Y-71064285D01*
X108815238Y-71016666D01*
X108720000Y-70921428D01*
X108672380Y-70778571D01*
X108672380Y-70683333D01*
X108720000Y-70540476D01*
X108767619Y-70492857D01*
X109672380Y-69540476D02*
X109672380Y-70111904D01*
X109672380Y-69826190D02*
X108672380Y-69826190D01*
X108815238Y-69921428D01*
X108910476Y-70016666D01*
X108958095Y-70111904D01*
X108672380Y-69207142D02*
X108672380Y-68540476D01*
X109672380Y-68969047D01*
X129262142Y-55252857D02*
X129309761Y-55300476D01*
X129357380Y-55443333D01*
X129357380Y-55538571D01*
X129309761Y-55681428D01*
X129214523Y-55776666D01*
X129119285Y-55824285D01*
X128928809Y-55871904D01*
X128785952Y-55871904D01*
X128595476Y-55824285D01*
X128500238Y-55776666D01*
X128405000Y-55681428D01*
X128357380Y-55538571D01*
X128357380Y-55443333D01*
X128405000Y-55300476D01*
X128452619Y-55252857D01*
X128452619Y-54871904D02*
X128405000Y-54824285D01*
X128357380Y-54729047D01*
X128357380Y-54490952D01*
X128405000Y-54395714D01*
X128452619Y-54348095D01*
X128547857Y-54300476D01*
X128643095Y-54300476D01*
X128785952Y-54348095D01*
X129357380Y-54919523D01*
X129357380Y-54300476D01*
X128357380Y-53681428D02*
X128357380Y-53586190D01*
X128405000Y-53490952D01*
X128452619Y-53443333D01*
X128547857Y-53395714D01*
X128738333Y-53348095D01*
X128976428Y-53348095D01*
X129166904Y-53395714D01*
X129262142Y-53443333D01*
X129309761Y-53490952D01*
X129357380Y-53586190D01*
X129357380Y-53681428D01*
X129309761Y-53776666D01*
X129262142Y-53824285D01*
X129166904Y-53871904D01*
X128976428Y-53919523D01*
X128738333Y-53919523D01*
X128547857Y-53871904D01*
X128452619Y-53824285D01*
X128405000Y-53776666D01*
X128357380Y-53681428D01*
X134342142Y-55252857D02*
X134389761Y-55300476D01*
X134437380Y-55443333D01*
X134437380Y-55538571D01*
X134389761Y-55681428D01*
X134294523Y-55776666D01*
X134199285Y-55824285D01*
X134008809Y-55871904D01*
X133865952Y-55871904D01*
X133675476Y-55824285D01*
X133580238Y-55776666D01*
X133485000Y-55681428D01*
X133437380Y-55538571D01*
X133437380Y-55443333D01*
X133485000Y-55300476D01*
X133532619Y-55252857D01*
X133532619Y-54871904D02*
X133485000Y-54824285D01*
X133437380Y-54729047D01*
X133437380Y-54490952D01*
X133485000Y-54395714D01*
X133532619Y-54348095D01*
X133627857Y-54300476D01*
X133723095Y-54300476D01*
X133865952Y-54348095D01*
X134437380Y-54919523D01*
X134437380Y-54300476D01*
X133532619Y-53919523D02*
X133485000Y-53871904D01*
X133437380Y-53776666D01*
X133437380Y-53538571D01*
X133485000Y-53443333D01*
X133532619Y-53395714D01*
X133627857Y-53348095D01*
X133723095Y-53348095D01*
X133865952Y-53395714D01*
X134437380Y-53967142D01*
X134437380Y-53348095D01*
X116736904Y-56332380D02*
X116736904Y-55332380D01*
X116975000Y-55332380D01*
X117117857Y-55380000D01*
X117213095Y-55475238D01*
X117260714Y-55570476D01*
X117308333Y-55760952D01*
X117308333Y-55903809D01*
X117260714Y-56094285D01*
X117213095Y-56189523D01*
X117117857Y-56284761D01*
X116975000Y-56332380D01*
X116736904Y-56332380D01*
X118165476Y-55332380D02*
X117975000Y-55332380D01*
X117879761Y-55380000D01*
X117832142Y-55427619D01*
X117736904Y-55570476D01*
X117689285Y-55760952D01*
X117689285Y-56141904D01*
X117736904Y-56237142D01*
X117784523Y-56284761D01*
X117879761Y-56332380D01*
X118070238Y-56332380D01*
X118165476Y-56284761D01*
X118213095Y-56237142D01*
X118260714Y-56141904D01*
X118260714Y-55903809D01*
X118213095Y-55808571D01*
X118165476Y-55760952D01*
X118070238Y-55713333D01*
X117879761Y-55713333D01*
X117784523Y-55760952D01*
X117736904Y-55808571D01*
X117689285Y-55903809D01*
X98706666Y-65752380D02*
X98706666Y-66466666D01*
X98659047Y-66609523D01*
X98563809Y-66704761D01*
X98420952Y-66752380D01*
X98325714Y-66752380D01*
X99230476Y-66752380D02*
X99420952Y-66752380D01*
X99516190Y-66704761D01*
X99563809Y-66657142D01*
X99659047Y-66514285D01*
X99706666Y-66323809D01*
X99706666Y-65942857D01*
X99659047Y-65847619D01*
X99611428Y-65800000D01*
X99516190Y-65752380D01*
X99325714Y-65752380D01*
X99230476Y-65800000D01*
X99182857Y-65847619D01*
X99135238Y-65942857D01*
X99135238Y-66180952D01*
X99182857Y-66276190D01*
X99230476Y-66323809D01*
X99325714Y-66371428D01*
X99516190Y-66371428D01*
X99611428Y-66323809D01*
X99659047Y-66276190D01*
X99706666Y-66180952D01*
M02*
