M48
; DRILL file {KiCad (5.1.2)-1} date 10/06/2019 17:23:05
; FORMAT={-:-/ absolute / metric / decimal}
; #@! TF.CreationDate,2019-06-10T17:23:05-04:00
; #@! TF.GenerationSoftware,Kicad,Pcbnew,(5.1.2)-1
; #@! TF.FileFunction,Plated,1,4,PTH
FMAT,2
METRIC
T1C0.400
T2C0.600
T3C0.750
T4C0.800
T5C0.850
T6C0.950
T7C1.000
T8C1.100
T9C2.300
T10C2.500
%
G90
G05
T1
X3.175Y-26.67
X3.175Y-49.53
X4.445Y-10.16
X4.445Y-36.83
X6.35Y-20.32
X6.35Y-59.69
X6.35Y-63.5
X6.35Y-67.945
X6.862Y-15.822
X6.862Y-31.082
X6.862Y-46.343
X7.62Y-26.67
X7.62Y-41.275
X7.62Y-52.07
X7.62Y-63.5
X9.525Y-7.62
X9.525Y-57.785
X9.525Y-67.945
X9.525Y-72.39
X11.43Y-36.83
X12.865Y-71.356
X13.335Y-51.435
X14.731Y-59.123
X16.584Y-68.993
X17.399Y-65.024
X17.78Y-8.89
X18.415Y-65.405
X18.415Y-66.675
X19.617Y-67.341
X20.319Y-55.892
X20.955Y-51.435
X21.59Y-68.58
X21.679Y-62.2
X21.987Y-59.081
X22.225Y-63.5
X22.86Y-3.81
X23.337Y-59.816
X25.4Y-69.89
X26.416Y-68.326
X27.305Y-63.517
X28.575Y-64.77
X29.21Y-57.785
X29.21Y-71.12
X29.845Y-4.445
X30.48Y-66.675
X32.385Y-70.485
X33.02Y-74.295
X33.655Y-73.025
X34.925Y-60.325
X34.925Y-67.945
X35.56Y-5.715
X35.56Y-71.12
X36.195Y-56.515
X36.195Y-62.865
X37.465Y-70.485
X37.465Y-74.295
X38.772Y-61.968
X39.37Y-67.945
X39.37Y-71.12
X41.275Y-3.81
X41.91Y-66.04
X43.18Y-58.42
X45.02Y-66.138
X45.085Y-62.23
X46.355Y-59.69
X47.625Y-57.15
X47.796Y-61.64
X48.26Y-66.04
X48.26Y-67.945
X48.26Y-69.342
X48.26Y-74.295
X52.07Y-5.715
X53.34Y-58.42
X53.34Y-60.96
X53.34Y-64.77
X53.587Y-69.185
X55.245Y-71.12
X55.88Y-56.515
X56.394Y-67.847
X56.898Y-57.836
X57.15Y-60.96
X57.15Y-65.405
X57.15Y-71.755
X58.42Y-56.515
X59.69Y-74.295
X60.325Y-68.58
X60.96Y-63.5
X62.23Y-3.81
X62.23Y-60.325
X62.23Y-66.675
X65.405Y-70.485
X68.58Y-65.405
X68.58Y-73.66
X71.755Y-67.31
X73.025Y-60.96
X74.295Y-3.175
X76.835Y-58.42
X77.823Y-63.541
X79.735Y-56.46
X82.55Y-65.405
X83.185Y-56.515
X83.82Y-5.715
X86.36Y-57.15
X87.63Y-61.595
X91.44Y-66.04
X91.44Y-71.12
X92.075Y-55.245
X93.98Y-59.69
X95.25Y-3.81
X99.695Y-57.785
X102.235Y-63.5
X102.87Y-3.81
X109.22Y-72.39
X111.76Y-66.675
X112.395Y-3.81
X112.395Y-69.85
X112.649Y-68.453
X113.411Y-66.421
X115.57Y-62.865
X116.84Y-64.135
X118.745Y-69.85
X121.92Y-3.81
X123.825Y-69.85
X127.635Y-66.675
X128.27Y-2.54
X130.175Y-67.31
X132.08Y-66.04
X134.62Y-66.675
T2
X111.76Y-55.245
X121.92Y-65.405
T3
X11.43Y-30.48
X13.43Y-30.48
X15.43Y-30.48
X17.43Y-30.48
X19.43Y-30.48
X21.43Y-30.48
X11.43Y-45.72
X13.43Y-45.72
X15.43Y-45.72
X17.43Y-45.72
X19.43Y-45.72
X21.43Y-45.72
X11.43Y-15.24
X13.43Y-15.24
X15.43Y-15.24
X17.43Y-15.24
X19.43Y-15.24
X21.43Y-15.24
T4
X33.02Y-59.055
X33.02Y-63.935
T5
X4.224Y-58.952
X4.224Y-63.952
T6
X76.835Y-69.85
X79.335Y-69.85
X81.835Y-69.85
X84.335Y-69.85
T7
X106.68Y-64.135
X97.79Y-69.85
X100.29Y-69.85
T8
X64.135Y-57.0
X64.135Y-63.5
X68.635Y-57.0
X68.635Y-63.5
T9
X62.67Y-25.89
X71.12Y-16.39
X71.12Y-26.29
X71.12Y-34.29
X79.57Y-25.89
X116.01Y-25.89
X124.46Y-16.39
X124.46Y-26.29
X124.46Y-34.29
X132.91Y-25.89
X89.34Y-25.89
X97.79Y-16.39
X97.79Y-26.29
X97.79Y-34.29
X106.24Y-25.89
T10
X31.75Y-15.24
X41.91Y-15.24
X52.07Y-15.24
X31.75Y-45.72
X41.91Y-45.72
X52.07Y-45.72
X31.75Y-30.48
X41.91Y-30.48
X52.07Y-30.48
T2
G00X1.174Y-57.952
M15
G01X1.874Y-57.952
M16
G05
G00X1.874Y-64.952
M15
G01X1.174Y-64.952
M16
G05
T0
M30
