G04 #@! TF.GenerationSoftware,KiCad,Pcbnew,(5.1.2)-1*
G04 #@! TF.CreationDate,2019-06-10T17:23:03-04:00*
G04 #@! TF.ProjectId,pev_uvw_sw,7065765f-7576-4775-9f73-772e6b696361,rev?*
G04 #@! TF.SameCoordinates,Original*
G04 #@! TF.FileFunction,Soldermask,Bot*
G04 #@! TF.FilePolarity,Negative*
%FSLAX46Y46*%
G04 Gerber Fmt 4.6, Leading zero omitted, Abs format (unit mm)*
G04 Created by KiCad (PCBNEW (5.1.2)-1) date 2019-06-10 17:23:03*
%MOMM*%
%LPD*%
G04 APERTURE LIST*
%ADD10C,0.100000*%
G04 APERTURE END LIST*
D10*
G36*
X137458404Y-69947974D02*
G01*
X138040767Y-70189196D01*
X138040768Y-70189197D01*
X138564881Y-70539398D01*
X139010602Y-70985119D01*
X139244599Y-71335321D01*
X139360804Y-71509233D01*
X139602026Y-72091596D01*
X139725000Y-72709826D01*
X139725000Y-73340174D01*
X139602026Y-73958404D01*
X139360804Y-74540767D01*
X139360803Y-74540768D01*
X139010602Y-75064881D01*
X138564881Y-75510602D01*
X138214679Y-75744599D01*
X138040767Y-75860804D01*
X137458404Y-76102026D01*
X136840174Y-76225000D01*
X136209826Y-76225000D01*
X135591596Y-76102026D01*
X135009233Y-75860804D01*
X134835321Y-75744599D01*
X134485119Y-75510602D01*
X134039398Y-75064881D01*
X133689197Y-74540768D01*
X133689196Y-74540767D01*
X133447974Y-73958404D01*
X133325000Y-73340174D01*
X133325000Y-72709826D01*
X133447974Y-72091596D01*
X133689196Y-71509233D01*
X133805401Y-71335321D01*
X134039398Y-70985119D01*
X134485119Y-70539398D01*
X135009232Y-70189197D01*
X135009233Y-70189196D01*
X135591596Y-69947974D01*
X136209826Y-69825000D01*
X136840174Y-69825000D01*
X137458404Y-69947974D01*
X137458404Y-69947974D01*
G37*
G36*
X4108404Y-69947974D02*
G01*
X4690767Y-70189196D01*
X4690768Y-70189197D01*
X5214881Y-70539398D01*
X5660602Y-70985119D01*
X5894599Y-71335321D01*
X6010804Y-71509233D01*
X6252026Y-72091596D01*
X6375000Y-72709826D01*
X6375000Y-73340174D01*
X6252026Y-73958404D01*
X6010804Y-74540767D01*
X6010803Y-74540768D01*
X5660602Y-75064881D01*
X5214881Y-75510602D01*
X4864679Y-75744599D01*
X4690767Y-75860804D01*
X4108404Y-76102026D01*
X3490174Y-76225000D01*
X2859826Y-76225000D01*
X2241596Y-76102026D01*
X1659233Y-75860804D01*
X1485321Y-75744599D01*
X1135119Y-75510602D01*
X689398Y-75064881D01*
X339197Y-74540768D01*
X339196Y-74540767D01*
X97974Y-73958404D01*
X-25000Y-73340174D01*
X-25000Y-72709826D01*
X97974Y-72091596D01*
X339196Y-71509233D01*
X455401Y-71335321D01*
X689398Y-70985119D01*
X1135119Y-70539398D01*
X1659232Y-70189197D01*
X1659233Y-70189196D01*
X2241596Y-69947974D01*
X2859826Y-69825000D01*
X3490174Y-69825000D01*
X4108404Y-69947974D01*
X4108404Y-69947974D01*
G37*
G36*
X100466626Y-68812037D02*
G01*
X100636465Y-68863557D01*
X100636467Y-68863558D01*
X100792989Y-68947221D01*
X100930186Y-69059814D01*
X101013448Y-69161271D01*
X101042778Y-69197009D01*
X101126443Y-69353534D01*
X101177963Y-69523373D01*
X101191000Y-69655742D01*
X101191000Y-70044257D01*
X101177963Y-70176626D01*
X101126443Y-70346466D01*
X101042778Y-70502991D01*
X101013448Y-70538729D01*
X100930186Y-70640186D01*
X100842178Y-70712411D01*
X100792991Y-70752778D01*
X100636466Y-70836443D01*
X100466627Y-70887963D01*
X100290000Y-70905359D01*
X100113374Y-70887963D01*
X99943535Y-70836443D01*
X99787010Y-70752778D01*
X99649815Y-70640185D01*
X99537222Y-70502991D01*
X99453557Y-70346466D01*
X99402037Y-70176627D01*
X99389000Y-70044258D01*
X99389000Y-69655743D01*
X99402037Y-69523374D01*
X99453557Y-69353535D01*
X99453559Y-69353532D01*
X99537221Y-69197011D01*
X99649814Y-69059814D01*
X99763641Y-68966400D01*
X99787009Y-68947222D01*
X99943534Y-68863557D01*
X100113373Y-68812037D01*
X100290000Y-68794641D01*
X100466626Y-68812037D01*
X100466626Y-68812037D01*
G37*
G36*
X98548600Y-68802989D02*
G01*
X98581652Y-68813015D01*
X98612103Y-68829292D01*
X98638799Y-68851201D01*
X98660708Y-68877897D01*
X98676985Y-68908348D01*
X98687011Y-68941400D01*
X98691000Y-68981903D01*
X98691000Y-70718097D01*
X98687011Y-70758600D01*
X98676985Y-70791652D01*
X98660708Y-70822103D01*
X98638799Y-70848799D01*
X98612103Y-70870708D01*
X98581652Y-70886985D01*
X98548600Y-70897011D01*
X98508097Y-70901000D01*
X97071903Y-70901000D01*
X97031400Y-70897011D01*
X96998348Y-70886985D01*
X96967897Y-70870708D01*
X96941201Y-70848799D01*
X96919292Y-70822103D01*
X96903015Y-70791652D01*
X96892989Y-70758600D01*
X96889000Y-70718097D01*
X96889000Y-68981903D01*
X96892989Y-68941400D01*
X96903015Y-68908348D01*
X96919292Y-68877897D01*
X96941201Y-68851201D01*
X96967897Y-68829292D01*
X96998348Y-68813015D01*
X97031400Y-68802989D01*
X97071903Y-68799000D01*
X98508097Y-68799000D01*
X98548600Y-68802989D01*
X98548600Y-68802989D01*
G37*
G36*
X84511626Y-68837037D02*
G01*
X84681465Y-68888557D01*
X84681467Y-68888558D01*
X84837989Y-68972221D01*
X84975186Y-69084814D01*
X85058448Y-69186271D01*
X85087778Y-69222009D01*
X85171443Y-69378534D01*
X85222963Y-69548373D01*
X85222963Y-69548375D01*
X85236000Y-69680740D01*
X85236000Y-70019259D01*
X85229481Y-70085442D01*
X85222963Y-70151626D01*
X85171443Y-70321466D01*
X85087778Y-70477991D01*
X85067261Y-70502991D01*
X84975186Y-70615186D01*
X84886827Y-70687699D01*
X84837991Y-70727778D01*
X84681466Y-70811443D01*
X84511627Y-70862963D01*
X84335000Y-70880359D01*
X84158374Y-70862963D01*
X83988535Y-70811443D01*
X83832010Y-70727778D01*
X83694815Y-70615185D01*
X83582222Y-70477991D01*
X83498557Y-70321466D01*
X83447037Y-70151627D01*
X83434000Y-70019258D01*
X83434000Y-69680743D01*
X83436463Y-69655740D01*
X83447037Y-69548376D01*
X83447037Y-69548374D01*
X83498557Y-69378535D01*
X83582222Y-69222010D01*
X83602738Y-69197011D01*
X83694814Y-69084814D01*
X83796271Y-69001552D01*
X83832009Y-68972222D01*
X83988534Y-68888557D01*
X84158373Y-68837037D01*
X84335000Y-68819641D01*
X84511626Y-68837037D01*
X84511626Y-68837037D01*
G37*
G36*
X82011626Y-68837037D02*
G01*
X82181465Y-68888557D01*
X82181467Y-68888558D01*
X82337989Y-68972221D01*
X82475186Y-69084814D01*
X82558448Y-69186271D01*
X82587778Y-69222009D01*
X82671443Y-69378534D01*
X82722963Y-69548373D01*
X82722963Y-69548375D01*
X82736000Y-69680740D01*
X82736000Y-70019259D01*
X82729481Y-70085442D01*
X82722963Y-70151626D01*
X82671443Y-70321466D01*
X82587778Y-70477991D01*
X82567261Y-70502991D01*
X82475186Y-70615186D01*
X82386827Y-70687699D01*
X82337991Y-70727778D01*
X82181466Y-70811443D01*
X82011627Y-70862963D01*
X81835000Y-70880359D01*
X81658374Y-70862963D01*
X81488535Y-70811443D01*
X81332010Y-70727778D01*
X81194815Y-70615185D01*
X81082222Y-70477991D01*
X80998557Y-70321466D01*
X80947037Y-70151627D01*
X80934000Y-70019258D01*
X80934000Y-69680743D01*
X80936463Y-69655740D01*
X80947037Y-69548376D01*
X80947037Y-69548374D01*
X80998557Y-69378535D01*
X81082222Y-69222010D01*
X81102738Y-69197011D01*
X81194814Y-69084814D01*
X81296271Y-69001552D01*
X81332009Y-68972222D01*
X81488534Y-68888557D01*
X81658373Y-68837037D01*
X81835000Y-68819641D01*
X82011626Y-68837037D01*
X82011626Y-68837037D01*
G37*
G36*
X79511626Y-68837037D02*
G01*
X79681465Y-68888557D01*
X79681467Y-68888558D01*
X79837989Y-68972221D01*
X79975186Y-69084814D01*
X80058448Y-69186271D01*
X80087778Y-69222009D01*
X80171443Y-69378534D01*
X80222963Y-69548373D01*
X80222963Y-69548375D01*
X80236000Y-69680740D01*
X80236000Y-70019259D01*
X80229481Y-70085442D01*
X80222963Y-70151626D01*
X80171443Y-70321466D01*
X80087778Y-70477991D01*
X80067261Y-70502991D01*
X79975186Y-70615186D01*
X79886827Y-70687699D01*
X79837991Y-70727778D01*
X79681466Y-70811443D01*
X79511627Y-70862963D01*
X79335000Y-70880359D01*
X79158374Y-70862963D01*
X78988535Y-70811443D01*
X78832010Y-70727778D01*
X78694815Y-70615185D01*
X78582222Y-70477991D01*
X78498557Y-70321466D01*
X78447037Y-70151627D01*
X78434000Y-70019258D01*
X78434000Y-69680743D01*
X78436463Y-69655740D01*
X78447037Y-69548376D01*
X78447037Y-69548374D01*
X78498557Y-69378535D01*
X78582222Y-69222010D01*
X78602738Y-69197011D01*
X78694814Y-69084814D01*
X78796271Y-69001552D01*
X78832009Y-68972222D01*
X78988534Y-68888557D01*
X79158373Y-68837037D01*
X79335000Y-68819641D01*
X79511626Y-68837037D01*
X79511626Y-68837037D01*
G37*
G36*
X77593600Y-68827989D02*
G01*
X77626652Y-68838015D01*
X77657103Y-68854292D01*
X77683799Y-68876201D01*
X77705708Y-68902897D01*
X77721985Y-68933348D01*
X77732011Y-68966400D01*
X77736000Y-69006903D01*
X77736000Y-70693097D01*
X77732011Y-70733600D01*
X77721985Y-70766652D01*
X77705708Y-70797103D01*
X77683799Y-70823799D01*
X77657103Y-70845708D01*
X77626652Y-70861985D01*
X77593600Y-70872011D01*
X77553097Y-70876000D01*
X76116903Y-70876000D01*
X76076400Y-70872011D01*
X76043348Y-70861985D01*
X76012897Y-70845708D01*
X75986201Y-70823799D01*
X75964292Y-70797103D01*
X75948015Y-70766652D01*
X75937989Y-70733600D01*
X75934000Y-70693097D01*
X75934000Y-69006903D01*
X75937989Y-68966400D01*
X75948015Y-68933348D01*
X75964292Y-68902897D01*
X75986201Y-68876201D01*
X76012897Y-68854292D01*
X76043348Y-68838015D01*
X76076400Y-68827989D01*
X76116903Y-68824000D01*
X77553097Y-68824000D01*
X77593600Y-68827989D01*
X77593600Y-68827989D01*
G37*
G36*
X1937855Y-64304140D02*
G01*
X2001618Y-64310420D01*
X2092404Y-64337960D01*
X2124336Y-64347646D01*
X2237425Y-64408094D01*
X2336554Y-64489446D01*
X2417906Y-64588575D01*
X2478354Y-64701664D01*
X2478355Y-64701668D01*
X2515580Y-64824382D01*
X2528149Y-64952000D01*
X2515580Y-65079618D01*
X2488040Y-65170404D01*
X2478354Y-65202336D01*
X2417906Y-65315425D01*
X2336554Y-65414554D01*
X2237425Y-65495906D01*
X2124336Y-65556354D01*
X2092404Y-65566040D01*
X2001618Y-65593580D01*
X1937855Y-65599860D01*
X1905974Y-65603000D01*
X1142026Y-65603000D01*
X1110145Y-65599860D01*
X1046382Y-65593580D01*
X955596Y-65566040D01*
X923664Y-65556354D01*
X810575Y-65495906D01*
X711446Y-65414554D01*
X630094Y-65315425D01*
X569646Y-65202336D01*
X559960Y-65170404D01*
X532420Y-65079618D01*
X519851Y-64952000D01*
X532420Y-64824382D01*
X569645Y-64701668D01*
X569646Y-64701664D01*
X630094Y-64588575D01*
X711446Y-64489446D01*
X810575Y-64408094D01*
X923664Y-64347646D01*
X955596Y-64337960D01*
X1046382Y-64310420D01*
X1110145Y-64304140D01*
X1142026Y-64301000D01*
X1905974Y-64301000D01*
X1937855Y-64304140D01*
X1937855Y-64304140D01*
G37*
G36*
X33253642Y-63164781D02*
G01*
X33399414Y-63225162D01*
X33399416Y-63225163D01*
X33530608Y-63312822D01*
X33642178Y-63424392D01*
X33729837Y-63555584D01*
X33729838Y-63555586D01*
X33790219Y-63701358D01*
X33821000Y-63856107D01*
X33821000Y-64013893D01*
X33790219Y-64168642D01*
X33786197Y-64178351D01*
X33729837Y-64314416D01*
X33642178Y-64445608D01*
X33530608Y-64557178D01*
X33399416Y-64644837D01*
X33399415Y-64644838D01*
X33399414Y-64644838D01*
X33253642Y-64705219D01*
X33098893Y-64736000D01*
X32941107Y-64736000D01*
X32786358Y-64705219D01*
X32640586Y-64644838D01*
X32640585Y-64644838D01*
X32640584Y-64644837D01*
X32509392Y-64557178D01*
X32397822Y-64445608D01*
X32310163Y-64314416D01*
X32253803Y-64178351D01*
X32249781Y-64168642D01*
X32219000Y-64013893D01*
X32219000Y-63856107D01*
X32249781Y-63701358D01*
X32310162Y-63555586D01*
X32310163Y-63555584D01*
X32397822Y-63424392D01*
X32509392Y-63312822D01*
X32640584Y-63225163D01*
X32640586Y-63225162D01*
X32786358Y-63164781D01*
X32941107Y-63134000D01*
X33098893Y-63134000D01*
X33253642Y-63164781D01*
X33253642Y-63164781D01*
G37*
G36*
X4450348Y-63205820D02*
G01*
X4450350Y-63205821D01*
X4450351Y-63205821D01*
X4591574Y-63264317D01*
X4591577Y-63264319D01*
X4718669Y-63349239D01*
X4826761Y-63457331D01*
X4892411Y-63555584D01*
X4911683Y-63584426D01*
X4919589Y-63603514D01*
X4970180Y-63725652D01*
X5000000Y-63875569D01*
X5000000Y-64028431D01*
X4971846Y-64169973D01*
X4970179Y-64178351D01*
X4911683Y-64319574D01*
X4911681Y-64319577D01*
X4826761Y-64446669D01*
X4718669Y-64554761D01*
X4591577Y-64639681D01*
X4591574Y-64639683D01*
X4450351Y-64698179D01*
X4450350Y-64698179D01*
X4450348Y-64698180D01*
X4300431Y-64728000D01*
X4147569Y-64728000D01*
X3997652Y-64698180D01*
X3997650Y-64698179D01*
X3997649Y-64698179D01*
X3856426Y-64639683D01*
X3856423Y-64639681D01*
X3729331Y-64554761D01*
X3621239Y-64446669D01*
X3536319Y-64319577D01*
X3536317Y-64319574D01*
X3477821Y-64178351D01*
X3476155Y-64169973D01*
X3448000Y-64028431D01*
X3448000Y-63875569D01*
X3477820Y-63725652D01*
X3528411Y-63603514D01*
X3536317Y-63584426D01*
X3555589Y-63555584D01*
X3621239Y-63457331D01*
X3729331Y-63349239D01*
X3856423Y-63264319D01*
X3856426Y-63264317D01*
X3997649Y-63205821D01*
X3997650Y-63205821D01*
X3997652Y-63205820D01*
X4147569Y-63176000D01*
X4300431Y-63176000D01*
X4450348Y-63205820D01*
X4450348Y-63205820D01*
G37*
G36*
X64441564Y-62489389D02*
G01*
X64632833Y-62568615D01*
X64632835Y-62568616D01*
X64804973Y-62683635D01*
X64951365Y-62830027D01*
X65066385Y-63002167D01*
X65145611Y-63193436D01*
X65186000Y-63396484D01*
X65186000Y-63603516D01*
X65145611Y-63806564D01*
X65125089Y-63856108D01*
X65066384Y-63997835D01*
X64951365Y-64169973D01*
X64804973Y-64316365D01*
X64632835Y-64431384D01*
X64632834Y-64431385D01*
X64632833Y-64431385D01*
X64441564Y-64510611D01*
X64238516Y-64551000D01*
X64031484Y-64551000D01*
X63828436Y-64510611D01*
X63637167Y-64431385D01*
X63637166Y-64431385D01*
X63637165Y-64431384D01*
X63465027Y-64316365D01*
X63318635Y-64169973D01*
X63203616Y-63997835D01*
X63144911Y-63856108D01*
X63124389Y-63806564D01*
X63084000Y-63603516D01*
X63084000Y-63396484D01*
X63124389Y-63193436D01*
X63203615Y-63002167D01*
X63318635Y-62830027D01*
X63465027Y-62683635D01*
X63637165Y-62568616D01*
X63637167Y-62568615D01*
X63828436Y-62489389D01*
X64031484Y-62449000D01*
X64238516Y-62449000D01*
X64441564Y-62489389D01*
X64441564Y-62489389D01*
G37*
G36*
X68941564Y-62489389D02*
G01*
X69132833Y-62568615D01*
X69132835Y-62568616D01*
X69304973Y-62683635D01*
X69451365Y-62830027D01*
X69566385Y-63002167D01*
X69645611Y-63193436D01*
X69686000Y-63396484D01*
X69686000Y-63603516D01*
X69645611Y-63806564D01*
X69625089Y-63856108D01*
X69566384Y-63997835D01*
X69451365Y-64169973D01*
X69304973Y-64316365D01*
X69132835Y-64431384D01*
X69132834Y-64431385D01*
X69132833Y-64431385D01*
X68941564Y-64510611D01*
X68738516Y-64551000D01*
X68531484Y-64551000D01*
X68328436Y-64510611D01*
X68137167Y-64431385D01*
X68137166Y-64431385D01*
X68137165Y-64431384D01*
X67965027Y-64316365D01*
X67818635Y-64169973D01*
X67703616Y-63997835D01*
X67644911Y-63856108D01*
X67624389Y-63806564D01*
X67584000Y-63603516D01*
X67584000Y-63396484D01*
X67624389Y-63193436D01*
X67703615Y-63002167D01*
X67818635Y-62830027D01*
X67965027Y-62683635D01*
X68137165Y-62568616D01*
X68137167Y-62568615D01*
X68328436Y-62489389D01*
X68531484Y-62449000D01*
X68738516Y-62449000D01*
X68941564Y-62489389D01*
X68941564Y-62489389D01*
G37*
G36*
X33253642Y-58284781D02*
G01*
X33399414Y-58345162D01*
X33399416Y-58345163D01*
X33530608Y-58432822D01*
X33642178Y-58544392D01*
X33675044Y-58593580D01*
X33729838Y-58675586D01*
X33790219Y-58821358D01*
X33821000Y-58976107D01*
X33821000Y-59133893D01*
X33790219Y-59288642D01*
X33777406Y-59319574D01*
X33729837Y-59434416D01*
X33642178Y-59565608D01*
X33530608Y-59677178D01*
X33399416Y-59764837D01*
X33399415Y-59764838D01*
X33399414Y-59764838D01*
X33253642Y-59825219D01*
X33098893Y-59856000D01*
X32941107Y-59856000D01*
X32786358Y-59825219D01*
X32640586Y-59764838D01*
X32640585Y-59764838D01*
X32640584Y-59764837D01*
X32509392Y-59677178D01*
X32397822Y-59565608D01*
X32310163Y-59434416D01*
X32262594Y-59319574D01*
X32249781Y-59288642D01*
X32219000Y-59133893D01*
X32219000Y-58976107D01*
X32249781Y-58821358D01*
X32310162Y-58675586D01*
X32364956Y-58593580D01*
X32397822Y-58544392D01*
X32509392Y-58432822D01*
X32640584Y-58345163D01*
X32640586Y-58345162D01*
X32786358Y-58284781D01*
X32941107Y-58254000D01*
X33098893Y-58254000D01*
X33253642Y-58284781D01*
X33253642Y-58284781D01*
G37*
G36*
X4450348Y-58205820D02*
G01*
X4450350Y-58205821D01*
X4450351Y-58205821D01*
X4591574Y-58264317D01*
X4591577Y-58264319D01*
X4718669Y-58349239D01*
X4826761Y-58457331D01*
X4911681Y-58584423D01*
X4911683Y-58584426D01*
X4949442Y-58675586D01*
X4970180Y-58725652D01*
X5000000Y-58875569D01*
X5000000Y-59028431D01*
X4979023Y-59133893D01*
X4970179Y-59178351D01*
X4911683Y-59319574D01*
X4911681Y-59319577D01*
X4826761Y-59446669D01*
X4718669Y-59554761D01*
X4591577Y-59639681D01*
X4591574Y-59639683D01*
X4450351Y-59698179D01*
X4450350Y-59698179D01*
X4450348Y-59698180D01*
X4300431Y-59728000D01*
X4147569Y-59728000D01*
X3997652Y-59698180D01*
X3997650Y-59698179D01*
X3997649Y-59698179D01*
X3856426Y-59639683D01*
X3856423Y-59639681D01*
X3729331Y-59554761D01*
X3621239Y-59446669D01*
X3536319Y-59319577D01*
X3536317Y-59319574D01*
X3477821Y-59178351D01*
X3468978Y-59133893D01*
X3448000Y-59028431D01*
X3448000Y-58875569D01*
X3477820Y-58725652D01*
X3498558Y-58675586D01*
X3536317Y-58584426D01*
X3536319Y-58584423D01*
X3621239Y-58457331D01*
X3729331Y-58349239D01*
X3856423Y-58264319D01*
X3856426Y-58264317D01*
X3997649Y-58205821D01*
X3997650Y-58205821D01*
X3997652Y-58205820D01*
X4147569Y-58176000D01*
X4300431Y-58176000D01*
X4450348Y-58205820D01*
X4450348Y-58205820D01*
G37*
G36*
X1937855Y-57304140D02*
G01*
X2001618Y-57310420D01*
X2092404Y-57337960D01*
X2124336Y-57347646D01*
X2237425Y-57408094D01*
X2336554Y-57489446D01*
X2417906Y-57588575D01*
X2478354Y-57701664D01*
X2478355Y-57701668D01*
X2515580Y-57824382D01*
X2528149Y-57952000D01*
X2515580Y-58079618D01*
X2488040Y-58170404D01*
X2478354Y-58202336D01*
X2417906Y-58315425D01*
X2336554Y-58414554D01*
X2237425Y-58495906D01*
X2124336Y-58556354D01*
X2092404Y-58566040D01*
X2001618Y-58593580D01*
X1937855Y-58599860D01*
X1905974Y-58603000D01*
X1142026Y-58603000D01*
X1110145Y-58599860D01*
X1046382Y-58593580D01*
X955596Y-58566040D01*
X923664Y-58556354D01*
X810575Y-58495906D01*
X711446Y-58414554D01*
X630094Y-58315425D01*
X569646Y-58202336D01*
X559960Y-58170404D01*
X532420Y-58079618D01*
X519851Y-57952000D01*
X532420Y-57824382D01*
X569645Y-57701668D01*
X569646Y-57701664D01*
X630094Y-57588575D01*
X711446Y-57489446D01*
X810575Y-57408094D01*
X923664Y-57347646D01*
X955596Y-57337960D01*
X1046382Y-57310420D01*
X1110145Y-57304140D01*
X1142026Y-57301000D01*
X1905974Y-57301000D01*
X1937855Y-57304140D01*
X1937855Y-57304140D01*
G37*
G36*
X68941564Y-55989389D02*
G01*
X69132833Y-56068615D01*
X69132835Y-56068616D01*
X69304973Y-56183635D01*
X69451365Y-56330027D01*
X69566385Y-56502167D01*
X69645611Y-56693436D01*
X69686000Y-56896484D01*
X69686000Y-57103516D01*
X69645611Y-57306564D01*
X69566385Y-57497833D01*
X69566384Y-57497835D01*
X69451365Y-57669973D01*
X69304973Y-57816365D01*
X69132835Y-57931384D01*
X69132834Y-57931385D01*
X69132833Y-57931385D01*
X68941564Y-58010611D01*
X68738516Y-58051000D01*
X68531484Y-58051000D01*
X68328436Y-58010611D01*
X68137167Y-57931385D01*
X68137166Y-57931385D01*
X68137165Y-57931384D01*
X67965027Y-57816365D01*
X67818635Y-57669973D01*
X67703616Y-57497835D01*
X67703615Y-57497833D01*
X67624389Y-57306564D01*
X67584000Y-57103516D01*
X67584000Y-56896484D01*
X67624389Y-56693436D01*
X67703615Y-56502167D01*
X67818635Y-56330027D01*
X67965027Y-56183635D01*
X68137165Y-56068616D01*
X68137167Y-56068615D01*
X68328436Y-55989389D01*
X68531484Y-55949000D01*
X68738516Y-55949000D01*
X68941564Y-55989389D01*
X68941564Y-55989389D01*
G37*
G36*
X64441564Y-55989389D02*
G01*
X64632833Y-56068615D01*
X64632835Y-56068616D01*
X64804973Y-56183635D01*
X64951365Y-56330027D01*
X65066385Y-56502167D01*
X65145611Y-56693436D01*
X65186000Y-56896484D01*
X65186000Y-57103516D01*
X65145611Y-57306564D01*
X65066385Y-57497833D01*
X65066384Y-57497835D01*
X64951365Y-57669973D01*
X64804973Y-57816365D01*
X64632835Y-57931384D01*
X64632834Y-57931385D01*
X64632833Y-57931385D01*
X64441564Y-58010611D01*
X64238516Y-58051000D01*
X64031484Y-58051000D01*
X63828436Y-58010611D01*
X63637167Y-57931385D01*
X63637166Y-57931385D01*
X63637165Y-57931384D01*
X63465027Y-57816365D01*
X63318635Y-57669973D01*
X63203616Y-57497835D01*
X63203615Y-57497833D01*
X63124389Y-57306564D01*
X63084000Y-57103516D01*
X63084000Y-56896484D01*
X63124389Y-56693436D01*
X63203615Y-56502167D01*
X63318635Y-56330027D01*
X63465027Y-56183635D01*
X63637165Y-56068616D01*
X63637167Y-56068615D01*
X63828436Y-55989389D01*
X64031484Y-55949000D01*
X64238516Y-55949000D01*
X64441564Y-55989389D01*
X64441564Y-55989389D01*
G37*
G36*
X32494098Y-43267033D02*
G01*
X32958350Y-43459332D01*
X32958352Y-43459333D01*
X33376168Y-43738509D01*
X33731491Y-44093832D01*
X34010667Y-44511648D01*
X34010668Y-44511650D01*
X34202967Y-44975902D01*
X34301000Y-45468747D01*
X34301000Y-45971253D01*
X34202967Y-46464098D01*
X34010668Y-46928350D01*
X34010667Y-46928352D01*
X33731491Y-47346168D01*
X33376168Y-47701491D01*
X32958352Y-47980667D01*
X32958351Y-47980668D01*
X32958350Y-47980668D01*
X32494098Y-48172967D01*
X32001253Y-48271000D01*
X31498747Y-48271000D01*
X31005902Y-48172967D01*
X30541650Y-47980668D01*
X30541649Y-47980668D01*
X30541648Y-47980667D01*
X30123832Y-47701491D01*
X29768509Y-47346168D01*
X29489333Y-46928352D01*
X29489332Y-46928350D01*
X29297033Y-46464098D01*
X29199000Y-45971253D01*
X29199000Y-45468747D01*
X29297033Y-44975902D01*
X29489332Y-44511650D01*
X29489333Y-44511648D01*
X29768509Y-44093832D01*
X30123832Y-43738509D01*
X30541648Y-43459333D01*
X30541650Y-43459332D01*
X31005902Y-43267033D01*
X31498747Y-43169000D01*
X32001253Y-43169000D01*
X32494098Y-43267033D01*
X32494098Y-43267033D01*
G37*
G36*
X52814098Y-43267033D02*
G01*
X53278350Y-43459332D01*
X53278352Y-43459333D01*
X53696168Y-43738509D01*
X54051491Y-44093832D01*
X54330667Y-44511648D01*
X54330668Y-44511650D01*
X54522967Y-44975902D01*
X54621000Y-45468747D01*
X54621000Y-45971253D01*
X54522967Y-46464098D01*
X54330668Y-46928350D01*
X54330667Y-46928352D01*
X54051491Y-47346168D01*
X53696168Y-47701491D01*
X53278352Y-47980667D01*
X53278351Y-47980668D01*
X53278350Y-47980668D01*
X52814098Y-48172967D01*
X52321253Y-48271000D01*
X51818747Y-48271000D01*
X51325902Y-48172967D01*
X50861650Y-47980668D01*
X50861649Y-47980668D01*
X50861648Y-47980667D01*
X50443832Y-47701491D01*
X50088509Y-47346168D01*
X49809333Y-46928352D01*
X49809332Y-46928350D01*
X49617033Y-46464098D01*
X49519000Y-45971253D01*
X49519000Y-45468747D01*
X49617033Y-44975902D01*
X49809332Y-44511650D01*
X49809333Y-44511648D01*
X50088509Y-44093832D01*
X50443832Y-43738509D01*
X50861648Y-43459333D01*
X50861650Y-43459332D01*
X51325902Y-43267033D01*
X51818747Y-43169000D01*
X52321253Y-43169000D01*
X52814098Y-43267033D01*
X52814098Y-43267033D01*
G37*
G36*
X42654098Y-43267033D02*
G01*
X43118350Y-43459332D01*
X43118352Y-43459333D01*
X43536168Y-43738509D01*
X43891491Y-44093832D01*
X44170667Y-44511648D01*
X44170668Y-44511650D01*
X44362967Y-44975902D01*
X44461000Y-45468747D01*
X44461000Y-45971253D01*
X44362967Y-46464098D01*
X44170668Y-46928350D01*
X44170667Y-46928352D01*
X43891491Y-47346168D01*
X43536168Y-47701491D01*
X43118352Y-47980667D01*
X43118351Y-47980668D01*
X43118350Y-47980668D01*
X42654098Y-48172967D01*
X42161253Y-48271000D01*
X41658747Y-48271000D01*
X41165902Y-48172967D01*
X40701650Y-47980668D01*
X40701649Y-47980668D01*
X40701648Y-47980667D01*
X40283832Y-47701491D01*
X39928509Y-47346168D01*
X39649333Y-46928352D01*
X39649332Y-46928350D01*
X39457033Y-46464098D01*
X39359000Y-45971253D01*
X39359000Y-45468747D01*
X39457033Y-44975902D01*
X39649332Y-44511650D01*
X39649333Y-44511648D01*
X39928509Y-44093832D01*
X40283832Y-43738509D01*
X40701648Y-43459333D01*
X40701650Y-43459332D01*
X41165902Y-43267033D01*
X41658747Y-43169000D01*
X42161253Y-43169000D01*
X42654098Y-43267033D01*
X42654098Y-43267033D01*
G37*
G36*
X21557617Y-44803420D02*
G01*
X21638399Y-44827925D01*
X21680335Y-44840646D01*
X21793424Y-44901094D01*
X21892554Y-44982447D01*
X21973906Y-45081575D01*
X22034354Y-45194664D01*
X22044040Y-45226596D01*
X22071580Y-45317382D01*
X22081000Y-45413027D01*
X22081000Y-46026973D01*
X22071580Y-46122618D01*
X22044040Y-46213404D01*
X22034354Y-46245336D01*
X21973906Y-46358425D01*
X21892554Y-46457554D01*
X21793425Y-46538906D01*
X21680336Y-46599354D01*
X21648404Y-46609040D01*
X21557618Y-46636580D01*
X21430000Y-46649149D01*
X21302383Y-46636580D01*
X21211597Y-46609040D01*
X21179665Y-46599354D01*
X21066576Y-46538906D01*
X20967447Y-46457554D01*
X20886096Y-46358427D01*
X20886095Y-46358425D01*
X20825647Y-46245336D01*
X20825645Y-46245333D01*
X20813237Y-46204427D01*
X20788420Y-46122618D01*
X20779000Y-46026973D01*
X20779000Y-45413028D01*
X20788420Y-45317383D01*
X20825645Y-45194669D01*
X20825646Y-45194665D01*
X20886094Y-45081576D01*
X20967447Y-44982446D01*
X21066575Y-44901094D01*
X21179664Y-44840646D01*
X21221600Y-44827925D01*
X21302382Y-44803420D01*
X21430000Y-44790851D01*
X21557617Y-44803420D01*
X21557617Y-44803420D01*
G37*
G36*
X19557617Y-44803420D02*
G01*
X19638399Y-44827925D01*
X19680335Y-44840646D01*
X19793424Y-44901094D01*
X19892554Y-44982447D01*
X19973906Y-45081575D01*
X20034354Y-45194664D01*
X20044040Y-45226596D01*
X20071580Y-45317382D01*
X20081000Y-45413027D01*
X20081000Y-46026973D01*
X20071580Y-46122618D01*
X20044040Y-46213404D01*
X20034354Y-46245336D01*
X19973906Y-46358425D01*
X19892554Y-46457554D01*
X19793425Y-46538906D01*
X19680336Y-46599354D01*
X19648404Y-46609040D01*
X19557618Y-46636580D01*
X19430000Y-46649149D01*
X19302383Y-46636580D01*
X19211597Y-46609040D01*
X19179665Y-46599354D01*
X19066576Y-46538906D01*
X18967447Y-46457554D01*
X18886096Y-46358427D01*
X18886095Y-46358425D01*
X18825647Y-46245336D01*
X18825645Y-46245333D01*
X18813237Y-46204427D01*
X18788420Y-46122618D01*
X18779000Y-46026973D01*
X18779000Y-45413028D01*
X18788420Y-45317383D01*
X18825645Y-45194669D01*
X18825646Y-45194665D01*
X18886094Y-45081576D01*
X18967447Y-44982446D01*
X19066575Y-44901094D01*
X19179664Y-44840646D01*
X19221600Y-44827925D01*
X19302382Y-44803420D01*
X19430000Y-44790851D01*
X19557617Y-44803420D01*
X19557617Y-44803420D01*
G37*
G36*
X17557617Y-44803420D02*
G01*
X17638399Y-44827925D01*
X17680335Y-44840646D01*
X17793424Y-44901094D01*
X17892554Y-44982447D01*
X17973906Y-45081575D01*
X18034354Y-45194664D01*
X18044040Y-45226596D01*
X18071580Y-45317382D01*
X18081000Y-45413027D01*
X18081000Y-46026973D01*
X18071580Y-46122618D01*
X18044040Y-46213404D01*
X18034354Y-46245336D01*
X17973906Y-46358425D01*
X17892554Y-46457554D01*
X17793425Y-46538906D01*
X17680336Y-46599354D01*
X17648404Y-46609040D01*
X17557618Y-46636580D01*
X17430000Y-46649149D01*
X17302383Y-46636580D01*
X17211597Y-46609040D01*
X17179665Y-46599354D01*
X17066576Y-46538906D01*
X16967447Y-46457554D01*
X16886096Y-46358427D01*
X16886095Y-46358425D01*
X16825647Y-46245336D01*
X16825645Y-46245333D01*
X16813237Y-46204427D01*
X16788420Y-46122618D01*
X16779000Y-46026973D01*
X16779000Y-45413028D01*
X16788420Y-45317383D01*
X16825645Y-45194669D01*
X16825646Y-45194665D01*
X16886094Y-45081576D01*
X16967447Y-44982446D01*
X17066575Y-44901094D01*
X17179664Y-44840646D01*
X17221600Y-44827925D01*
X17302382Y-44803420D01*
X17430000Y-44790851D01*
X17557617Y-44803420D01*
X17557617Y-44803420D01*
G37*
G36*
X15557617Y-44803420D02*
G01*
X15638399Y-44827925D01*
X15680335Y-44840646D01*
X15793424Y-44901094D01*
X15892554Y-44982447D01*
X15973906Y-45081575D01*
X16034354Y-45194664D01*
X16044040Y-45226596D01*
X16071580Y-45317382D01*
X16081000Y-45413027D01*
X16081000Y-46026973D01*
X16071580Y-46122618D01*
X16044040Y-46213404D01*
X16034354Y-46245336D01*
X15973906Y-46358425D01*
X15892554Y-46457554D01*
X15793425Y-46538906D01*
X15680336Y-46599354D01*
X15648404Y-46609040D01*
X15557618Y-46636580D01*
X15430000Y-46649149D01*
X15302383Y-46636580D01*
X15211597Y-46609040D01*
X15179665Y-46599354D01*
X15066576Y-46538906D01*
X14967447Y-46457554D01*
X14886096Y-46358427D01*
X14886095Y-46358425D01*
X14825647Y-46245336D01*
X14825645Y-46245333D01*
X14813237Y-46204427D01*
X14788420Y-46122618D01*
X14779000Y-46026973D01*
X14779000Y-45413028D01*
X14788420Y-45317383D01*
X14825645Y-45194669D01*
X14825646Y-45194665D01*
X14886094Y-45081576D01*
X14967447Y-44982446D01*
X15066575Y-44901094D01*
X15179664Y-44840646D01*
X15221600Y-44827925D01*
X15302382Y-44803420D01*
X15430000Y-44790851D01*
X15557617Y-44803420D01*
X15557617Y-44803420D01*
G37*
G36*
X13557617Y-44803420D02*
G01*
X13638399Y-44827925D01*
X13680335Y-44840646D01*
X13793424Y-44901094D01*
X13892554Y-44982447D01*
X13973906Y-45081575D01*
X14034354Y-45194664D01*
X14044040Y-45226596D01*
X14071580Y-45317382D01*
X14081000Y-45413027D01*
X14081000Y-46026973D01*
X14071580Y-46122618D01*
X14044040Y-46213404D01*
X14034354Y-46245336D01*
X13973906Y-46358425D01*
X13892554Y-46457554D01*
X13793425Y-46538906D01*
X13680336Y-46599354D01*
X13648404Y-46609040D01*
X13557618Y-46636580D01*
X13430000Y-46649149D01*
X13302383Y-46636580D01*
X13211597Y-46609040D01*
X13179665Y-46599354D01*
X13066576Y-46538906D01*
X12967447Y-46457554D01*
X12886096Y-46358427D01*
X12886095Y-46358425D01*
X12825647Y-46245336D01*
X12825645Y-46245333D01*
X12813237Y-46204427D01*
X12788420Y-46122618D01*
X12779000Y-46026973D01*
X12779000Y-45413028D01*
X12788420Y-45317383D01*
X12825645Y-45194669D01*
X12825646Y-45194665D01*
X12886094Y-45081576D01*
X12967447Y-44982446D01*
X13066575Y-44901094D01*
X13179664Y-44840646D01*
X13221600Y-44827925D01*
X13302382Y-44803420D01*
X13430000Y-44790851D01*
X13557617Y-44803420D01*
X13557617Y-44803420D01*
G37*
G36*
X11921242Y-44798404D02*
G01*
X11958337Y-44809657D01*
X11992515Y-44827925D01*
X12022481Y-44852519D01*
X12047075Y-44882485D01*
X12065343Y-44916663D01*
X12076596Y-44953758D01*
X12081000Y-44998474D01*
X12081000Y-46441526D01*
X12076596Y-46486242D01*
X12065343Y-46523337D01*
X12047075Y-46557515D01*
X12022481Y-46587481D01*
X11992515Y-46612075D01*
X11958337Y-46630343D01*
X11921242Y-46641596D01*
X11876526Y-46646000D01*
X10983474Y-46646000D01*
X10938758Y-46641596D01*
X10901663Y-46630343D01*
X10867485Y-46612075D01*
X10837519Y-46587481D01*
X10812925Y-46557515D01*
X10794657Y-46523337D01*
X10783404Y-46486242D01*
X10779000Y-46441526D01*
X10779000Y-44998474D01*
X10783404Y-44953758D01*
X10794657Y-44916663D01*
X10812925Y-44882485D01*
X10837519Y-44852519D01*
X10867485Y-44827925D01*
X10901663Y-44809657D01*
X10938758Y-44798404D01*
X10983474Y-44794000D01*
X11876526Y-44794000D01*
X11921242Y-44798404D01*
X11921242Y-44798404D01*
G37*
G36*
X71395880Y-32049776D02*
G01*
X71776593Y-32125504D01*
X72186249Y-32295189D01*
X72554929Y-32541534D01*
X72868466Y-32855071D01*
X73114811Y-33223751D01*
X73284496Y-33633407D01*
X73371000Y-34068296D01*
X73371000Y-34511704D01*
X73284496Y-34946593D01*
X73114811Y-35356249D01*
X72868466Y-35724929D01*
X72554929Y-36038466D01*
X72186249Y-36284811D01*
X71776593Y-36454496D01*
X71395880Y-36530224D01*
X71341705Y-36541000D01*
X70898295Y-36541000D01*
X70844120Y-36530224D01*
X70463407Y-36454496D01*
X70053751Y-36284811D01*
X69685071Y-36038466D01*
X69371534Y-35724929D01*
X69125189Y-35356249D01*
X68955504Y-34946593D01*
X68869000Y-34511704D01*
X68869000Y-34068296D01*
X68955504Y-33633407D01*
X69125189Y-33223751D01*
X69371534Y-32855071D01*
X69685071Y-32541534D01*
X70053751Y-32295189D01*
X70463407Y-32125504D01*
X70844120Y-32049776D01*
X70898295Y-32039000D01*
X71341705Y-32039000D01*
X71395880Y-32049776D01*
X71395880Y-32049776D01*
G37*
G36*
X98065880Y-32049776D02*
G01*
X98446593Y-32125504D01*
X98856249Y-32295189D01*
X99224929Y-32541534D01*
X99538466Y-32855071D01*
X99784811Y-33223751D01*
X99954496Y-33633407D01*
X100041000Y-34068296D01*
X100041000Y-34511704D01*
X99954496Y-34946593D01*
X99784811Y-35356249D01*
X99538466Y-35724929D01*
X99224929Y-36038466D01*
X98856249Y-36284811D01*
X98446593Y-36454496D01*
X98065880Y-36530224D01*
X98011705Y-36541000D01*
X97568295Y-36541000D01*
X97514120Y-36530224D01*
X97133407Y-36454496D01*
X96723751Y-36284811D01*
X96355071Y-36038466D01*
X96041534Y-35724929D01*
X95795189Y-35356249D01*
X95625504Y-34946593D01*
X95539000Y-34511704D01*
X95539000Y-34068296D01*
X95625504Y-33633407D01*
X95795189Y-33223751D01*
X96041534Y-32855071D01*
X96355071Y-32541534D01*
X96723751Y-32295189D01*
X97133407Y-32125504D01*
X97514120Y-32049776D01*
X97568295Y-32039000D01*
X98011705Y-32039000D01*
X98065880Y-32049776D01*
X98065880Y-32049776D01*
G37*
G36*
X124735880Y-32049776D02*
G01*
X125116593Y-32125504D01*
X125526249Y-32295189D01*
X125894929Y-32541534D01*
X126208466Y-32855071D01*
X126454811Y-33223751D01*
X126624496Y-33633407D01*
X126711000Y-34068296D01*
X126711000Y-34511704D01*
X126624496Y-34946593D01*
X126454811Y-35356249D01*
X126208466Y-35724929D01*
X125894929Y-36038466D01*
X125526249Y-36284811D01*
X125116593Y-36454496D01*
X124735880Y-36530224D01*
X124681705Y-36541000D01*
X124238295Y-36541000D01*
X124184120Y-36530224D01*
X123803407Y-36454496D01*
X123393751Y-36284811D01*
X123025071Y-36038466D01*
X122711534Y-35724929D01*
X122465189Y-35356249D01*
X122295504Y-34946593D01*
X122209000Y-34511704D01*
X122209000Y-34068296D01*
X122295504Y-33633407D01*
X122465189Y-33223751D01*
X122711534Y-32855071D01*
X123025071Y-32541534D01*
X123393751Y-32295189D01*
X123803407Y-32125504D01*
X124184120Y-32049776D01*
X124238295Y-32039000D01*
X124681705Y-32039000D01*
X124735880Y-32049776D01*
X124735880Y-32049776D01*
G37*
G36*
X91448235Y-31298905D02*
G01*
X91611150Y-31331311D01*
X91678851Y-31359354D01*
X91811520Y-31414307D01*
X91991844Y-31534795D01*
X92145205Y-31688156D01*
X92265693Y-31868480D01*
X92265693Y-31868481D01*
X92348689Y-32068850D01*
X92391000Y-32281561D01*
X92391000Y-32498439D01*
X92348689Y-32711150D01*
X92336462Y-32740668D01*
X92265693Y-32911520D01*
X92145205Y-33091844D01*
X91991844Y-33245205D01*
X91811520Y-33365693D01*
X91711334Y-33407191D01*
X91611150Y-33448689D01*
X91504794Y-33469845D01*
X91398440Y-33491000D01*
X91181560Y-33491000D01*
X91075206Y-33469845D01*
X90968850Y-33448689D01*
X90768480Y-33365693D01*
X90588156Y-33245205D01*
X90434795Y-33091844D01*
X90314307Y-32911520D01*
X90243538Y-32740668D01*
X90231311Y-32711150D01*
X90189000Y-32498439D01*
X90189000Y-32281561D01*
X90231311Y-32068850D01*
X90314307Y-31868481D01*
X90314307Y-31868480D01*
X90434795Y-31688156D01*
X90588156Y-31534795D01*
X90768480Y-31414307D01*
X90901149Y-31359354D01*
X90968850Y-31331311D01*
X91131765Y-31298905D01*
X91181560Y-31289000D01*
X91398440Y-31289000D01*
X91448235Y-31298905D01*
X91448235Y-31298905D01*
G37*
G36*
X118118235Y-31298905D02*
G01*
X118281150Y-31331311D01*
X118348851Y-31359354D01*
X118481520Y-31414307D01*
X118661844Y-31534795D01*
X118815205Y-31688156D01*
X118935693Y-31868480D01*
X118935693Y-31868481D01*
X119018689Y-32068850D01*
X119061000Y-32281561D01*
X119061000Y-32498439D01*
X119018689Y-32711150D01*
X119006462Y-32740668D01*
X118935693Y-32911520D01*
X118815205Y-33091844D01*
X118661844Y-33245205D01*
X118481520Y-33365693D01*
X118381334Y-33407191D01*
X118281150Y-33448689D01*
X118174795Y-33469844D01*
X118068440Y-33491000D01*
X117851560Y-33491000D01*
X117745206Y-33469845D01*
X117638850Y-33448689D01*
X117438480Y-33365693D01*
X117258156Y-33245205D01*
X117104795Y-33091844D01*
X116984307Y-32911520D01*
X116913538Y-32740668D01*
X116901311Y-32711150D01*
X116859000Y-32498439D01*
X116859000Y-32281561D01*
X116901311Y-32068850D01*
X116984307Y-31868481D01*
X116984307Y-31868480D01*
X117104795Y-31688156D01*
X117258156Y-31534795D01*
X117438480Y-31414307D01*
X117571149Y-31359354D01*
X117638850Y-31331311D01*
X117801765Y-31298905D01*
X117851560Y-31289000D01*
X118068440Y-31289000D01*
X118118235Y-31298905D01*
X118118235Y-31298905D01*
G37*
G36*
X64778235Y-31298905D02*
G01*
X64941150Y-31331311D01*
X65008851Y-31359354D01*
X65141520Y-31414307D01*
X65321844Y-31534795D01*
X65475205Y-31688156D01*
X65595693Y-31868480D01*
X65595693Y-31868481D01*
X65678689Y-32068850D01*
X65721000Y-32281561D01*
X65721000Y-32498439D01*
X65678689Y-32711150D01*
X65666462Y-32740668D01*
X65595693Y-32911520D01*
X65475205Y-33091844D01*
X65321844Y-33245205D01*
X65141520Y-33365693D01*
X65041334Y-33407191D01*
X64941150Y-33448689D01*
X64834794Y-33469845D01*
X64728440Y-33491000D01*
X64511560Y-33491000D01*
X64405206Y-33469845D01*
X64298850Y-33448689D01*
X64098480Y-33365693D01*
X63918156Y-33245205D01*
X63764795Y-33091844D01*
X63644307Y-32911520D01*
X63573538Y-32740668D01*
X63561311Y-32711150D01*
X63519000Y-32498439D01*
X63519000Y-32281561D01*
X63561311Y-32068850D01*
X63644307Y-31868481D01*
X63644307Y-31868480D01*
X63764795Y-31688156D01*
X63918156Y-31534795D01*
X64098480Y-31414307D01*
X64231149Y-31359354D01*
X64298850Y-31331311D01*
X64461765Y-31298905D01*
X64511560Y-31289000D01*
X64728440Y-31289000D01*
X64778235Y-31298905D01*
X64778235Y-31298905D01*
G37*
G36*
X32494098Y-28027033D02*
G01*
X32769239Y-28141000D01*
X32958352Y-28219333D01*
X33376168Y-28498509D01*
X33731491Y-28853832D01*
X34010667Y-29271648D01*
X34010668Y-29271650D01*
X34202967Y-29735902D01*
X34301000Y-30228747D01*
X34301000Y-30731253D01*
X34202967Y-31224098D01*
X34124180Y-31414307D01*
X34010667Y-31688352D01*
X33731491Y-32106168D01*
X33376168Y-32461491D01*
X32958352Y-32740667D01*
X32958351Y-32740668D01*
X32958350Y-32740668D01*
X32494098Y-32932967D01*
X32001253Y-33031000D01*
X31498747Y-33031000D01*
X31005902Y-32932967D01*
X30541650Y-32740668D01*
X30541649Y-32740668D01*
X30541648Y-32740667D01*
X30123832Y-32461491D01*
X29768509Y-32106168D01*
X29489333Y-31688352D01*
X29375820Y-31414307D01*
X29297033Y-31224098D01*
X29199000Y-30731253D01*
X29199000Y-30228747D01*
X29297033Y-29735902D01*
X29489332Y-29271650D01*
X29489333Y-29271648D01*
X29768509Y-28853832D01*
X30123832Y-28498509D01*
X30541648Y-28219333D01*
X30730761Y-28141000D01*
X31005902Y-28027033D01*
X31498747Y-27929000D01*
X32001253Y-27929000D01*
X32494098Y-28027033D01*
X32494098Y-28027033D01*
G37*
G36*
X42654098Y-28027033D02*
G01*
X42929239Y-28141000D01*
X43118352Y-28219333D01*
X43536168Y-28498509D01*
X43891491Y-28853832D01*
X44170667Y-29271648D01*
X44170668Y-29271650D01*
X44362967Y-29735902D01*
X44461000Y-30228747D01*
X44461000Y-30731253D01*
X44362967Y-31224098D01*
X44284180Y-31414307D01*
X44170667Y-31688352D01*
X43891491Y-32106168D01*
X43536168Y-32461491D01*
X43118352Y-32740667D01*
X43118351Y-32740668D01*
X43118350Y-32740668D01*
X42654098Y-32932967D01*
X42161253Y-33031000D01*
X41658747Y-33031000D01*
X41165902Y-32932967D01*
X40701650Y-32740668D01*
X40701649Y-32740668D01*
X40701648Y-32740667D01*
X40283832Y-32461491D01*
X39928509Y-32106168D01*
X39649333Y-31688352D01*
X39535820Y-31414307D01*
X39457033Y-31224098D01*
X39359000Y-30731253D01*
X39359000Y-30228747D01*
X39457033Y-29735902D01*
X39649332Y-29271650D01*
X39649333Y-29271648D01*
X39928509Y-28853832D01*
X40283832Y-28498509D01*
X40701648Y-28219333D01*
X40890761Y-28141000D01*
X41165902Y-28027033D01*
X41658747Y-27929000D01*
X42161253Y-27929000D01*
X42654098Y-28027033D01*
X42654098Y-28027033D01*
G37*
G36*
X52814098Y-28027033D02*
G01*
X53089239Y-28141000D01*
X53278352Y-28219333D01*
X53696168Y-28498509D01*
X54051491Y-28853832D01*
X54330667Y-29271648D01*
X54330668Y-29271650D01*
X54522967Y-29735902D01*
X54621000Y-30228747D01*
X54621000Y-30731253D01*
X54522967Y-31224098D01*
X54444180Y-31414307D01*
X54330667Y-31688352D01*
X54051491Y-32106168D01*
X53696168Y-32461491D01*
X53278352Y-32740667D01*
X53278351Y-32740668D01*
X53278350Y-32740668D01*
X52814098Y-32932967D01*
X52321253Y-33031000D01*
X51818747Y-33031000D01*
X51325902Y-32932967D01*
X50861650Y-32740668D01*
X50861649Y-32740668D01*
X50861648Y-32740667D01*
X50443832Y-32461491D01*
X50088509Y-32106168D01*
X49809333Y-31688352D01*
X49695820Y-31414307D01*
X49617033Y-31224098D01*
X49519000Y-30731253D01*
X49519000Y-30228747D01*
X49617033Y-29735902D01*
X49809332Y-29271650D01*
X49809333Y-29271648D01*
X50088509Y-28853832D01*
X50443832Y-28498509D01*
X50861648Y-28219333D01*
X51050761Y-28141000D01*
X51325902Y-28027033D01*
X51818747Y-27929000D01*
X52321253Y-27929000D01*
X52814098Y-28027033D01*
X52814098Y-28027033D01*
G37*
G36*
X17557617Y-29563420D02*
G01*
X17638399Y-29587925D01*
X17680335Y-29600646D01*
X17793424Y-29661094D01*
X17892554Y-29742447D01*
X17973906Y-29841575D01*
X18034354Y-29954664D01*
X18044040Y-29986596D01*
X18071580Y-30077382D01*
X18081000Y-30173027D01*
X18081000Y-30786973D01*
X18071580Y-30882618D01*
X18044040Y-30973404D01*
X18034354Y-31005336D01*
X17973906Y-31118425D01*
X17892554Y-31217554D01*
X17793425Y-31298906D01*
X17680336Y-31359354D01*
X17648404Y-31369040D01*
X17557618Y-31396580D01*
X17430000Y-31409149D01*
X17302383Y-31396580D01*
X17211597Y-31369040D01*
X17179665Y-31359354D01*
X17066576Y-31298906D01*
X16967447Y-31217554D01*
X16886096Y-31118427D01*
X16886095Y-31118425D01*
X16825647Y-31005336D01*
X16825645Y-31005333D01*
X16813237Y-30964427D01*
X16788420Y-30882618D01*
X16779000Y-30786973D01*
X16779000Y-30173028D01*
X16788420Y-30077383D01*
X16825645Y-29954669D01*
X16825646Y-29954665D01*
X16886094Y-29841576D01*
X16967447Y-29742446D01*
X17066575Y-29661094D01*
X17179664Y-29600646D01*
X17221600Y-29587925D01*
X17302382Y-29563420D01*
X17430000Y-29550851D01*
X17557617Y-29563420D01*
X17557617Y-29563420D01*
G37*
G36*
X13557617Y-29563420D02*
G01*
X13638399Y-29587925D01*
X13680335Y-29600646D01*
X13793424Y-29661094D01*
X13892554Y-29742447D01*
X13973906Y-29841575D01*
X14034354Y-29954664D01*
X14044040Y-29986596D01*
X14071580Y-30077382D01*
X14081000Y-30173027D01*
X14081000Y-30786973D01*
X14071580Y-30882618D01*
X14044040Y-30973404D01*
X14034354Y-31005336D01*
X13973906Y-31118425D01*
X13892554Y-31217554D01*
X13793425Y-31298906D01*
X13680336Y-31359354D01*
X13648404Y-31369040D01*
X13557618Y-31396580D01*
X13430000Y-31409149D01*
X13302383Y-31396580D01*
X13211597Y-31369040D01*
X13179665Y-31359354D01*
X13066576Y-31298906D01*
X12967447Y-31217554D01*
X12886096Y-31118427D01*
X12886095Y-31118425D01*
X12825647Y-31005336D01*
X12825645Y-31005333D01*
X12813237Y-30964427D01*
X12788420Y-30882618D01*
X12779000Y-30786973D01*
X12779000Y-30173028D01*
X12788420Y-30077383D01*
X12825645Y-29954669D01*
X12825646Y-29954665D01*
X12886094Y-29841576D01*
X12967447Y-29742446D01*
X13066575Y-29661094D01*
X13179664Y-29600646D01*
X13221600Y-29587925D01*
X13302382Y-29563420D01*
X13430000Y-29550851D01*
X13557617Y-29563420D01*
X13557617Y-29563420D01*
G37*
G36*
X15557617Y-29563420D02*
G01*
X15638399Y-29587925D01*
X15680335Y-29600646D01*
X15793424Y-29661094D01*
X15892554Y-29742447D01*
X15973906Y-29841575D01*
X16034354Y-29954664D01*
X16044040Y-29986596D01*
X16071580Y-30077382D01*
X16081000Y-30173027D01*
X16081000Y-30786973D01*
X16071580Y-30882618D01*
X16044040Y-30973404D01*
X16034354Y-31005336D01*
X15973906Y-31118425D01*
X15892554Y-31217554D01*
X15793425Y-31298906D01*
X15680336Y-31359354D01*
X15648404Y-31369040D01*
X15557618Y-31396580D01*
X15430000Y-31409149D01*
X15302383Y-31396580D01*
X15211597Y-31369040D01*
X15179665Y-31359354D01*
X15066576Y-31298906D01*
X14967447Y-31217554D01*
X14886096Y-31118427D01*
X14886095Y-31118425D01*
X14825647Y-31005336D01*
X14825645Y-31005333D01*
X14813237Y-30964427D01*
X14788420Y-30882618D01*
X14779000Y-30786973D01*
X14779000Y-30173028D01*
X14788420Y-30077383D01*
X14825645Y-29954669D01*
X14825646Y-29954665D01*
X14886094Y-29841576D01*
X14967447Y-29742446D01*
X15066575Y-29661094D01*
X15179664Y-29600646D01*
X15221600Y-29587925D01*
X15302382Y-29563420D01*
X15430000Y-29550851D01*
X15557617Y-29563420D01*
X15557617Y-29563420D01*
G37*
G36*
X19557617Y-29563420D02*
G01*
X19638399Y-29587925D01*
X19680335Y-29600646D01*
X19793424Y-29661094D01*
X19892554Y-29742447D01*
X19973906Y-29841575D01*
X20034354Y-29954664D01*
X20044040Y-29986596D01*
X20071580Y-30077382D01*
X20081000Y-30173027D01*
X20081000Y-30786973D01*
X20071580Y-30882618D01*
X20044040Y-30973404D01*
X20034354Y-31005336D01*
X19973906Y-31118425D01*
X19892554Y-31217554D01*
X19793425Y-31298906D01*
X19680336Y-31359354D01*
X19648404Y-31369040D01*
X19557618Y-31396580D01*
X19430000Y-31409149D01*
X19302383Y-31396580D01*
X19211597Y-31369040D01*
X19179665Y-31359354D01*
X19066576Y-31298906D01*
X18967447Y-31217554D01*
X18886096Y-31118427D01*
X18886095Y-31118425D01*
X18825647Y-31005336D01*
X18825645Y-31005333D01*
X18813237Y-30964427D01*
X18788420Y-30882618D01*
X18779000Y-30786973D01*
X18779000Y-30173028D01*
X18788420Y-30077383D01*
X18825645Y-29954669D01*
X18825646Y-29954665D01*
X18886094Y-29841576D01*
X18967447Y-29742446D01*
X19066575Y-29661094D01*
X19179664Y-29600646D01*
X19221600Y-29587925D01*
X19302382Y-29563420D01*
X19430000Y-29550851D01*
X19557617Y-29563420D01*
X19557617Y-29563420D01*
G37*
G36*
X21557617Y-29563420D02*
G01*
X21638399Y-29587925D01*
X21680335Y-29600646D01*
X21793424Y-29661094D01*
X21892554Y-29742447D01*
X21973906Y-29841575D01*
X22034354Y-29954664D01*
X22044040Y-29986596D01*
X22071580Y-30077382D01*
X22081000Y-30173027D01*
X22081000Y-30786973D01*
X22071580Y-30882618D01*
X22044040Y-30973404D01*
X22034354Y-31005336D01*
X21973906Y-31118425D01*
X21892554Y-31217554D01*
X21793425Y-31298906D01*
X21680336Y-31359354D01*
X21648404Y-31369040D01*
X21557618Y-31396580D01*
X21430000Y-31409149D01*
X21302383Y-31396580D01*
X21211597Y-31369040D01*
X21179665Y-31359354D01*
X21066576Y-31298906D01*
X20967447Y-31217554D01*
X20886096Y-31118427D01*
X20886095Y-31118425D01*
X20825647Y-31005336D01*
X20825645Y-31005333D01*
X20813237Y-30964427D01*
X20788420Y-30882618D01*
X20779000Y-30786973D01*
X20779000Y-30173028D01*
X20788420Y-30077383D01*
X20825645Y-29954669D01*
X20825646Y-29954665D01*
X20886094Y-29841576D01*
X20967447Y-29742446D01*
X21066575Y-29661094D01*
X21179664Y-29600646D01*
X21221600Y-29587925D01*
X21302382Y-29563420D01*
X21430000Y-29550851D01*
X21557617Y-29563420D01*
X21557617Y-29563420D01*
G37*
G36*
X11921242Y-29558404D02*
G01*
X11958337Y-29569657D01*
X11992515Y-29587925D01*
X12022481Y-29612519D01*
X12047075Y-29642485D01*
X12065343Y-29676663D01*
X12076596Y-29713758D01*
X12081000Y-29758474D01*
X12081000Y-31201526D01*
X12076596Y-31246242D01*
X12065343Y-31283337D01*
X12047075Y-31317515D01*
X12022481Y-31347481D01*
X11992515Y-31372075D01*
X11958337Y-31390343D01*
X11921242Y-31401596D01*
X11876526Y-31406000D01*
X10983474Y-31406000D01*
X10938758Y-31401596D01*
X10901663Y-31390343D01*
X10867485Y-31372075D01*
X10837519Y-31347481D01*
X10812925Y-31317515D01*
X10794657Y-31283337D01*
X10783404Y-31246242D01*
X10779000Y-31201526D01*
X10779000Y-29758474D01*
X10783404Y-29713758D01*
X10794657Y-29676663D01*
X10812925Y-29642485D01*
X10837519Y-29612519D01*
X10867485Y-29587925D01*
X10901663Y-29569657D01*
X10938758Y-29558404D01*
X10983474Y-29554000D01*
X11876526Y-29554000D01*
X11921242Y-29558404D01*
X11921242Y-29558404D01*
G37*
G36*
X98065880Y-24049776D02*
G01*
X98446593Y-24125504D01*
X98856249Y-24295189D01*
X99224929Y-24541534D01*
X99538466Y-24855071D01*
X99784811Y-25223751D01*
X99954496Y-25633407D01*
X100041000Y-26068296D01*
X100041000Y-26511704D01*
X99954496Y-26946593D01*
X99784811Y-27356249D01*
X99538466Y-27724929D01*
X99224929Y-28038466D01*
X98856249Y-28284811D01*
X98446593Y-28454496D01*
X98065880Y-28530224D01*
X98011705Y-28541000D01*
X97568295Y-28541000D01*
X97514120Y-28530224D01*
X97133407Y-28454496D01*
X96723751Y-28284811D01*
X96355071Y-28038466D01*
X96041534Y-27724929D01*
X95795189Y-27356249D01*
X95625504Y-26946593D01*
X95539000Y-26511704D01*
X95539000Y-26068296D01*
X95625504Y-25633407D01*
X95795189Y-25223751D01*
X96041534Y-24855071D01*
X96355071Y-24541534D01*
X96723751Y-24295189D01*
X97133407Y-24125504D01*
X97514120Y-24049776D01*
X97568295Y-24039000D01*
X98011705Y-24039000D01*
X98065880Y-24049776D01*
X98065880Y-24049776D01*
G37*
G36*
X124735880Y-24049776D02*
G01*
X125116593Y-24125504D01*
X125526249Y-24295189D01*
X125894929Y-24541534D01*
X126208466Y-24855071D01*
X126454811Y-25223751D01*
X126624496Y-25633407D01*
X126711000Y-26068296D01*
X126711000Y-26511704D01*
X126624496Y-26946593D01*
X126454811Y-27356249D01*
X126208466Y-27724929D01*
X125894929Y-28038466D01*
X125526249Y-28284811D01*
X125116593Y-28454496D01*
X124735880Y-28530224D01*
X124681705Y-28541000D01*
X124238295Y-28541000D01*
X124184120Y-28530224D01*
X123803407Y-28454496D01*
X123393751Y-28284811D01*
X123025071Y-28038466D01*
X122711534Y-27724929D01*
X122465189Y-27356249D01*
X122295504Y-26946593D01*
X122209000Y-26511704D01*
X122209000Y-26068296D01*
X122295504Y-25633407D01*
X122465189Y-25223751D01*
X122711534Y-24855071D01*
X123025071Y-24541534D01*
X123393751Y-24295189D01*
X123803407Y-24125504D01*
X124184120Y-24049776D01*
X124238295Y-24039000D01*
X124681705Y-24039000D01*
X124735880Y-24049776D01*
X124735880Y-24049776D01*
G37*
G36*
X71395880Y-24049776D02*
G01*
X71776593Y-24125504D01*
X72186249Y-24295189D01*
X72554929Y-24541534D01*
X72868466Y-24855071D01*
X73114811Y-25223751D01*
X73284496Y-25633407D01*
X73371000Y-26068296D01*
X73371000Y-26511704D01*
X73284496Y-26946593D01*
X73114811Y-27356249D01*
X72868466Y-27724929D01*
X72554929Y-28038466D01*
X72186249Y-28284811D01*
X71776593Y-28454496D01*
X71395880Y-28530224D01*
X71341705Y-28541000D01*
X70898295Y-28541000D01*
X70844120Y-28530224D01*
X70463407Y-28454496D01*
X70053751Y-28284811D01*
X69685071Y-28038466D01*
X69371534Y-27724929D01*
X69125189Y-27356249D01*
X68955504Y-26946593D01*
X68869000Y-26511704D01*
X68869000Y-26068296D01*
X68955504Y-25633407D01*
X69125189Y-25223751D01*
X69371534Y-24855071D01*
X69685071Y-24541534D01*
X70053751Y-24295189D01*
X70463407Y-24125504D01*
X70844120Y-24049776D01*
X70898295Y-24039000D01*
X71341705Y-24039000D01*
X71395880Y-24049776D01*
X71395880Y-24049776D01*
G37*
G36*
X89615880Y-23649776D02*
G01*
X89996593Y-23725504D01*
X90406249Y-23895189D01*
X90774929Y-24141534D01*
X91088466Y-24455071D01*
X91334811Y-24823751D01*
X91504496Y-25233407D01*
X91591000Y-25668296D01*
X91591000Y-26111704D01*
X91504496Y-26546593D01*
X91334811Y-26956249D01*
X91088466Y-27324929D01*
X90774929Y-27638466D01*
X90406249Y-27884811D01*
X89996593Y-28054496D01*
X89615880Y-28130224D01*
X89561705Y-28141000D01*
X89118295Y-28141000D01*
X89064120Y-28130224D01*
X88683407Y-28054496D01*
X88273751Y-27884811D01*
X87905071Y-27638466D01*
X87591534Y-27324929D01*
X87345189Y-26956249D01*
X87175504Y-26546593D01*
X87089000Y-26111704D01*
X87089000Y-25668296D01*
X87175504Y-25233407D01*
X87345189Y-24823751D01*
X87591534Y-24455071D01*
X87905071Y-24141534D01*
X88273751Y-23895189D01*
X88683407Y-23725504D01*
X89064120Y-23649776D01*
X89118295Y-23639000D01*
X89561705Y-23639000D01*
X89615880Y-23649776D01*
X89615880Y-23649776D01*
G37*
G36*
X116285880Y-23649776D02*
G01*
X116666593Y-23725504D01*
X117076249Y-23895189D01*
X117444929Y-24141534D01*
X117758466Y-24455071D01*
X118004811Y-24823751D01*
X118174496Y-25233407D01*
X118261000Y-25668296D01*
X118261000Y-26111704D01*
X118174496Y-26546593D01*
X118004811Y-26956249D01*
X117758466Y-27324929D01*
X117444929Y-27638466D01*
X117076249Y-27884811D01*
X116666593Y-28054496D01*
X116285880Y-28130224D01*
X116231705Y-28141000D01*
X115788295Y-28141000D01*
X115734120Y-28130224D01*
X115353407Y-28054496D01*
X114943751Y-27884811D01*
X114575071Y-27638466D01*
X114261534Y-27324929D01*
X114015189Y-26956249D01*
X113845504Y-26546593D01*
X113759000Y-26111704D01*
X113759000Y-25668296D01*
X113845504Y-25233407D01*
X114015189Y-24823751D01*
X114261534Y-24455071D01*
X114575071Y-24141534D01*
X114943751Y-23895189D01*
X115353407Y-23725504D01*
X115734120Y-23649776D01*
X115788295Y-23639000D01*
X116231705Y-23639000D01*
X116285880Y-23649776D01*
X116285880Y-23649776D01*
G37*
G36*
X133185880Y-23649776D02*
G01*
X133566593Y-23725504D01*
X133976249Y-23895189D01*
X134344929Y-24141534D01*
X134658466Y-24455071D01*
X134904811Y-24823751D01*
X135074496Y-25233407D01*
X135161000Y-25668296D01*
X135161000Y-26111704D01*
X135074496Y-26546593D01*
X134904811Y-26956249D01*
X134658466Y-27324929D01*
X134344929Y-27638466D01*
X133976249Y-27884811D01*
X133566593Y-28054496D01*
X133185880Y-28130224D01*
X133131705Y-28141000D01*
X132688295Y-28141000D01*
X132634120Y-28130224D01*
X132253407Y-28054496D01*
X131843751Y-27884811D01*
X131475071Y-27638466D01*
X131161534Y-27324929D01*
X130915189Y-26956249D01*
X130745504Y-26546593D01*
X130659000Y-26111704D01*
X130659000Y-25668296D01*
X130745504Y-25233407D01*
X130915189Y-24823751D01*
X131161534Y-24455071D01*
X131475071Y-24141534D01*
X131843751Y-23895189D01*
X132253407Y-23725504D01*
X132634120Y-23649776D01*
X132688295Y-23639000D01*
X133131705Y-23639000D01*
X133185880Y-23649776D01*
X133185880Y-23649776D01*
G37*
G36*
X106515880Y-23649776D02*
G01*
X106896593Y-23725504D01*
X107306249Y-23895189D01*
X107674929Y-24141534D01*
X107988466Y-24455071D01*
X108234811Y-24823751D01*
X108404496Y-25233407D01*
X108491000Y-25668296D01*
X108491000Y-26111704D01*
X108404496Y-26546593D01*
X108234811Y-26956249D01*
X107988466Y-27324929D01*
X107674929Y-27638466D01*
X107306249Y-27884811D01*
X106896593Y-28054496D01*
X106515880Y-28130224D01*
X106461705Y-28141000D01*
X106018295Y-28141000D01*
X105964120Y-28130224D01*
X105583407Y-28054496D01*
X105173751Y-27884811D01*
X104805071Y-27638466D01*
X104491534Y-27324929D01*
X104245189Y-26956249D01*
X104075504Y-26546593D01*
X103989000Y-26111704D01*
X103989000Y-25668296D01*
X104075504Y-25233407D01*
X104245189Y-24823751D01*
X104491534Y-24455071D01*
X104805071Y-24141534D01*
X105173751Y-23895189D01*
X105583407Y-23725504D01*
X105964120Y-23649776D01*
X106018295Y-23639000D01*
X106461705Y-23639000D01*
X106515880Y-23649776D01*
X106515880Y-23649776D01*
G37*
G36*
X79845880Y-23649776D02*
G01*
X80226593Y-23725504D01*
X80636249Y-23895189D01*
X81004929Y-24141534D01*
X81318466Y-24455071D01*
X81564811Y-24823751D01*
X81734496Y-25233407D01*
X81821000Y-25668296D01*
X81821000Y-26111704D01*
X81734496Y-26546593D01*
X81564811Y-26956249D01*
X81318466Y-27324929D01*
X81004929Y-27638466D01*
X80636249Y-27884811D01*
X80226593Y-28054496D01*
X79845880Y-28130224D01*
X79791705Y-28141000D01*
X79348295Y-28141000D01*
X79294120Y-28130224D01*
X78913407Y-28054496D01*
X78503751Y-27884811D01*
X78135071Y-27638466D01*
X77821534Y-27324929D01*
X77575189Y-26956249D01*
X77405504Y-26546593D01*
X77319000Y-26111704D01*
X77319000Y-25668296D01*
X77405504Y-25233407D01*
X77575189Y-24823751D01*
X77821534Y-24455071D01*
X78135071Y-24141534D01*
X78503751Y-23895189D01*
X78913407Y-23725504D01*
X79294120Y-23649776D01*
X79348295Y-23639000D01*
X79791705Y-23639000D01*
X79845880Y-23649776D01*
X79845880Y-23649776D01*
G37*
G36*
X62945880Y-23649776D02*
G01*
X63326593Y-23725504D01*
X63736249Y-23895189D01*
X64104929Y-24141534D01*
X64418466Y-24455071D01*
X64664811Y-24823751D01*
X64834496Y-25233407D01*
X64921000Y-25668296D01*
X64921000Y-26111704D01*
X64834496Y-26546593D01*
X64664811Y-26956249D01*
X64418466Y-27324929D01*
X64104929Y-27638466D01*
X63736249Y-27884811D01*
X63326593Y-28054496D01*
X62945880Y-28130224D01*
X62891705Y-28141000D01*
X62448295Y-28141000D01*
X62394120Y-28130224D01*
X62013407Y-28054496D01*
X61603751Y-27884811D01*
X61235071Y-27638466D01*
X60921534Y-27324929D01*
X60675189Y-26956249D01*
X60505504Y-26546593D01*
X60419000Y-26111704D01*
X60419000Y-25668296D01*
X60505504Y-25233407D01*
X60675189Y-24823751D01*
X60921534Y-24455071D01*
X61235071Y-24141534D01*
X61603751Y-23895189D01*
X62013407Y-23725504D01*
X62394120Y-23649776D01*
X62448295Y-23639000D01*
X62891705Y-23639000D01*
X62945880Y-23649776D01*
X62945880Y-23649776D01*
G37*
G36*
X131174794Y-19210155D02*
G01*
X131281150Y-19231311D01*
X131481520Y-19314307D01*
X131661844Y-19434795D01*
X131815205Y-19588156D01*
X131935693Y-19768480D01*
X132018689Y-19968851D01*
X132061000Y-20181560D01*
X132061000Y-20398440D01*
X132018689Y-20611149D01*
X131935693Y-20811520D01*
X131815205Y-20991844D01*
X131661844Y-21145205D01*
X131481520Y-21265693D01*
X131281150Y-21348689D01*
X131174794Y-21369845D01*
X131068440Y-21391000D01*
X130851560Y-21391000D01*
X130745206Y-21369845D01*
X130638850Y-21348689D01*
X130538666Y-21307191D01*
X130438480Y-21265693D01*
X130258156Y-21145205D01*
X130104795Y-20991844D01*
X129984307Y-20811520D01*
X129901311Y-20611149D01*
X129859000Y-20398440D01*
X129859000Y-20181560D01*
X129901311Y-19968851D01*
X129984307Y-19768480D01*
X130104795Y-19588156D01*
X130258156Y-19434795D01*
X130438480Y-19314307D01*
X130538666Y-19272809D01*
X130638850Y-19231311D01*
X130745205Y-19210156D01*
X130851560Y-19189000D01*
X131068440Y-19189000D01*
X131174794Y-19210155D01*
X131174794Y-19210155D01*
G37*
G36*
X77834794Y-19210155D02*
G01*
X77941150Y-19231311D01*
X78141520Y-19314307D01*
X78321844Y-19434795D01*
X78475205Y-19588156D01*
X78595693Y-19768480D01*
X78678689Y-19968851D01*
X78721000Y-20181560D01*
X78721000Y-20398440D01*
X78678689Y-20611149D01*
X78595693Y-20811520D01*
X78475205Y-20991844D01*
X78321844Y-21145205D01*
X78141520Y-21265693D01*
X78041334Y-21307191D01*
X77941150Y-21348689D01*
X77834794Y-21369845D01*
X77728440Y-21391000D01*
X77511560Y-21391000D01*
X77405206Y-21369845D01*
X77298850Y-21348689D01*
X77198666Y-21307191D01*
X77098480Y-21265693D01*
X76918156Y-21145205D01*
X76764795Y-20991844D01*
X76644307Y-20811520D01*
X76561311Y-20611149D01*
X76519000Y-20398440D01*
X76519000Y-20181560D01*
X76561311Y-19968851D01*
X76644307Y-19768480D01*
X76764795Y-19588156D01*
X76918156Y-19434795D01*
X77098480Y-19314307D01*
X77298850Y-19231311D01*
X77405205Y-19210156D01*
X77511560Y-19189000D01*
X77728440Y-19189000D01*
X77834794Y-19210155D01*
X77834794Y-19210155D01*
G37*
G36*
X104504794Y-19210155D02*
G01*
X104611150Y-19231311D01*
X104811520Y-19314307D01*
X104991844Y-19434795D01*
X105145205Y-19588156D01*
X105265693Y-19768480D01*
X105348689Y-19968851D01*
X105391000Y-20181560D01*
X105391000Y-20398440D01*
X105348689Y-20611149D01*
X105265693Y-20811520D01*
X105145205Y-20991844D01*
X104991844Y-21145205D01*
X104811520Y-21265693D01*
X104611150Y-21348689D01*
X104504794Y-21369845D01*
X104398440Y-21391000D01*
X104181560Y-21391000D01*
X104075206Y-21369845D01*
X103968850Y-21348689D01*
X103868666Y-21307191D01*
X103768480Y-21265693D01*
X103588156Y-21145205D01*
X103434795Y-20991844D01*
X103314307Y-20811520D01*
X103231311Y-20611149D01*
X103189000Y-20398440D01*
X103189000Y-20181560D01*
X103231311Y-19968851D01*
X103314307Y-19768480D01*
X103434795Y-19588156D01*
X103588156Y-19434795D01*
X103768480Y-19314307D01*
X103868666Y-19272809D01*
X103968850Y-19231311D01*
X104075205Y-19210156D01*
X104181560Y-19189000D01*
X104398440Y-19189000D01*
X104504794Y-19210155D01*
X104504794Y-19210155D01*
G37*
G36*
X71395880Y-14149776D02*
G01*
X71776593Y-14225504D01*
X72186249Y-14395189D01*
X72554929Y-14641534D01*
X72868466Y-14955071D01*
X73114811Y-15323751D01*
X73284496Y-15733407D01*
X73371000Y-16168296D01*
X73371000Y-16611704D01*
X73284496Y-17046593D01*
X73114811Y-17456249D01*
X72868466Y-17824929D01*
X72554929Y-18138466D01*
X72186249Y-18384811D01*
X71776593Y-18554496D01*
X71395880Y-18630224D01*
X71341705Y-18641000D01*
X70898295Y-18641000D01*
X70844120Y-18630224D01*
X70463407Y-18554496D01*
X70053751Y-18384811D01*
X69685071Y-18138466D01*
X69371534Y-17824929D01*
X69125189Y-17456249D01*
X68955504Y-17046593D01*
X68869000Y-16611704D01*
X68869000Y-16168296D01*
X68955504Y-15733407D01*
X69125189Y-15323751D01*
X69371534Y-14955071D01*
X69685071Y-14641534D01*
X70053751Y-14395189D01*
X70463407Y-14225504D01*
X70844120Y-14149776D01*
X70898295Y-14139000D01*
X71341705Y-14139000D01*
X71395880Y-14149776D01*
X71395880Y-14149776D01*
G37*
G36*
X124735880Y-14149776D02*
G01*
X125116593Y-14225504D01*
X125526249Y-14395189D01*
X125894929Y-14641534D01*
X126208466Y-14955071D01*
X126454811Y-15323751D01*
X126624496Y-15733407D01*
X126711000Y-16168296D01*
X126711000Y-16611704D01*
X126624496Y-17046593D01*
X126454811Y-17456249D01*
X126208466Y-17824929D01*
X125894929Y-18138466D01*
X125526249Y-18384811D01*
X125116593Y-18554496D01*
X124735880Y-18630224D01*
X124681705Y-18641000D01*
X124238295Y-18641000D01*
X124184120Y-18630224D01*
X123803407Y-18554496D01*
X123393751Y-18384811D01*
X123025071Y-18138466D01*
X122711534Y-17824929D01*
X122465189Y-17456249D01*
X122295504Y-17046593D01*
X122209000Y-16611704D01*
X122209000Y-16168296D01*
X122295504Y-15733407D01*
X122465189Y-15323751D01*
X122711534Y-14955071D01*
X123025071Y-14641534D01*
X123393751Y-14395189D01*
X123803407Y-14225504D01*
X124184120Y-14149776D01*
X124238295Y-14139000D01*
X124681705Y-14139000D01*
X124735880Y-14149776D01*
X124735880Y-14149776D01*
G37*
G36*
X98065880Y-14149776D02*
G01*
X98446593Y-14225504D01*
X98856249Y-14395189D01*
X99224929Y-14641534D01*
X99538466Y-14955071D01*
X99784811Y-15323751D01*
X99954496Y-15733407D01*
X100041000Y-16168296D01*
X100041000Y-16611704D01*
X99954496Y-17046593D01*
X99784811Y-17456249D01*
X99538466Y-17824929D01*
X99224929Y-18138466D01*
X98856249Y-18384811D01*
X98446593Y-18554496D01*
X98065880Y-18630224D01*
X98011705Y-18641000D01*
X97568295Y-18641000D01*
X97514120Y-18630224D01*
X97133407Y-18554496D01*
X96723751Y-18384811D01*
X96355071Y-18138466D01*
X96041534Y-17824929D01*
X95795189Y-17456249D01*
X95625504Y-17046593D01*
X95539000Y-16611704D01*
X95539000Y-16168296D01*
X95625504Y-15733407D01*
X95795189Y-15323751D01*
X96041534Y-14955071D01*
X96355071Y-14641534D01*
X96723751Y-14395189D01*
X97133407Y-14225504D01*
X97514120Y-14149776D01*
X97568295Y-14139000D01*
X98011705Y-14139000D01*
X98065880Y-14149776D01*
X98065880Y-14149776D01*
G37*
G36*
X32494098Y-12787033D02*
G01*
X32958350Y-12979332D01*
X32958352Y-12979333D01*
X33376168Y-13258509D01*
X33731491Y-13613832D01*
X34010667Y-14031648D01*
X34010668Y-14031650D01*
X34202967Y-14495902D01*
X34301000Y-14988747D01*
X34301000Y-15491253D01*
X34202967Y-15984098D01*
X34010668Y-16448350D01*
X34010667Y-16448352D01*
X33731491Y-16866168D01*
X33376168Y-17221491D01*
X32958352Y-17500667D01*
X32958351Y-17500668D01*
X32958350Y-17500668D01*
X32494098Y-17692967D01*
X32001253Y-17791000D01*
X31498747Y-17791000D01*
X31005902Y-17692967D01*
X30541650Y-17500668D01*
X30541649Y-17500668D01*
X30541648Y-17500667D01*
X30123832Y-17221491D01*
X29768509Y-16866168D01*
X29489333Y-16448352D01*
X29489332Y-16448350D01*
X29297033Y-15984098D01*
X29199000Y-15491253D01*
X29199000Y-14988747D01*
X29297033Y-14495902D01*
X29489332Y-14031650D01*
X29489333Y-14031648D01*
X29768509Y-13613832D01*
X30123832Y-13258509D01*
X30541648Y-12979333D01*
X30541650Y-12979332D01*
X31005902Y-12787033D01*
X31498747Y-12689000D01*
X32001253Y-12689000D01*
X32494098Y-12787033D01*
X32494098Y-12787033D01*
G37*
G36*
X42654098Y-12787033D02*
G01*
X43118350Y-12979332D01*
X43118352Y-12979333D01*
X43536168Y-13258509D01*
X43891491Y-13613832D01*
X44170667Y-14031648D01*
X44170668Y-14031650D01*
X44362967Y-14495902D01*
X44461000Y-14988747D01*
X44461000Y-15491253D01*
X44362967Y-15984098D01*
X44170668Y-16448350D01*
X44170667Y-16448352D01*
X43891491Y-16866168D01*
X43536168Y-17221491D01*
X43118352Y-17500667D01*
X43118351Y-17500668D01*
X43118350Y-17500668D01*
X42654098Y-17692967D01*
X42161253Y-17791000D01*
X41658747Y-17791000D01*
X41165902Y-17692967D01*
X40701650Y-17500668D01*
X40701649Y-17500668D01*
X40701648Y-17500667D01*
X40283832Y-17221491D01*
X39928509Y-16866168D01*
X39649333Y-16448352D01*
X39649332Y-16448350D01*
X39457033Y-15984098D01*
X39359000Y-15491253D01*
X39359000Y-14988747D01*
X39457033Y-14495902D01*
X39649332Y-14031650D01*
X39649333Y-14031648D01*
X39928509Y-13613832D01*
X40283832Y-13258509D01*
X40701648Y-12979333D01*
X40701650Y-12979332D01*
X41165902Y-12787033D01*
X41658747Y-12689000D01*
X42161253Y-12689000D01*
X42654098Y-12787033D01*
X42654098Y-12787033D01*
G37*
G36*
X52814098Y-12787033D02*
G01*
X53278350Y-12979332D01*
X53278352Y-12979333D01*
X53696168Y-13258509D01*
X54051491Y-13613832D01*
X54330667Y-14031648D01*
X54330668Y-14031650D01*
X54522967Y-14495902D01*
X54621000Y-14988747D01*
X54621000Y-15491253D01*
X54522967Y-15984098D01*
X54330668Y-16448350D01*
X54330667Y-16448352D01*
X54051491Y-16866168D01*
X53696168Y-17221491D01*
X53278352Y-17500667D01*
X53278351Y-17500668D01*
X53278350Y-17500668D01*
X52814098Y-17692967D01*
X52321253Y-17791000D01*
X51818747Y-17791000D01*
X51325902Y-17692967D01*
X50861650Y-17500668D01*
X50861649Y-17500668D01*
X50861648Y-17500667D01*
X50443832Y-17221491D01*
X50088509Y-16866168D01*
X49809333Y-16448352D01*
X49809332Y-16448350D01*
X49617033Y-15984098D01*
X49519000Y-15491253D01*
X49519000Y-14988747D01*
X49617033Y-14495902D01*
X49809332Y-14031650D01*
X49809333Y-14031648D01*
X50088509Y-13613832D01*
X50443832Y-13258509D01*
X50861648Y-12979333D01*
X50861650Y-12979332D01*
X51325902Y-12787033D01*
X51818747Y-12689000D01*
X52321253Y-12689000D01*
X52814098Y-12787033D01*
X52814098Y-12787033D01*
G37*
G36*
X19557617Y-14323420D02*
G01*
X19638399Y-14347925D01*
X19680335Y-14360646D01*
X19793424Y-14421094D01*
X19892554Y-14502447D01*
X19973906Y-14601575D01*
X20034354Y-14714664D01*
X20044040Y-14746596D01*
X20071580Y-14837382D01*
X20081000Y-14933027D01*
X20081000Y-15546973D01*
X20071580Y-15642618D01*
X20044040Y-15733404D01*
X20034354Y-15765336D01*
X19973906Y-15878425D01*
X19892554Y-15977554D01*
X19793425Y-16058906D01*
X19680336Y-16119354D01*
X19648404Y-16129040D01*
X19557618Y-16156580D01*
X19430000Y-16169149D01*
X19302383Y-16156580D01*
X19211597Y-16129040D01*
X19179665Y-16119354D01*
X19066576Y-16058906D01*
X18967447Y-15977554D01*
X18886096Y-15878427D01*
X18886095Y-15878425D01*
X18825647Y-15765336D01*
X18825645Y-15765333D01*
X18813237Y-15724427D01*
X18788420Y-15642618D01*
X18779000Y-15546973D01*
X18779000Y-14933028D01*
X18788420Y-14837383D01*
X18825645Y-14714669D01*
X18825646Y-14714665D01*
X18886094Y-14601576D01*
X18967447Y-14502446D01*
X19066575Y-14421094D01*
X19179664Y-14360646D01*
X19221600Y-14347925D01*
X19302382Y-14323420D01*
X19430000Y-14310851D01*
X19557617Y-14323420D01*
X19557617Y-14323420D01*
G37*
G36*
X21557617Y-14323420D02*
G01*
X21638399Y-14347925D01*
X21680335Y-14360646D01*
X21793424Y-14421094D01*
X21892554Y-14502447D01*
X21973906Y-14601575D01*
X22034354Y-14714664D01*
X22044040Y-14746596D01*
X22071580Y-14837382D01*
X22081000Y-14933027D01*
X22081000Y-15546973D01*
X22071580Y-15642618D01*
X22044040Y-15733404D01*
X22034354Y-15765336D01*
X21973906Y-15878425D01*
X21892554Y-15977554D01*
X21793425Y-16058906D01*
X21680336Y-16119354D01*
X21648404Y-16129040D01*
X21557618Y-16156580D01*
X21430000Y-16169149D01*
X21302383Y-16156580D01*
X21211597Y-16129040D01*
X21179665Y-16119354D01*
X21066576Y-16058906D01*
X20967447Y-15977554D01*
X20886096Y-15878427D01*
X20886095Y-15878425D01*
X20825647Y-15765336D01*
X20825645Y-15765333D01*
X20813237Y-15724427D01*
X20788420Y-15642618D01*
X20779000Y-15546973D01*
X20779000Y-14933028D01*
X20788420Y-14837383D01*
X20825645Y-14714669D01*
X20825646Y-14714665D01*
X20886094Y-14601576D01*
X20967447Y-14502446D01*
X21066575Y-14421094D01*
X21179664Y-14360646D01*
X21221600Y-14347925D01*
X21302382Y-14323420D01*
X21430000Y-14310851D01*
X21557617Y-14323420D01*
X21557617Y-14323420D01*
G37*
G36*
X17557617Y-14323420D02*
G01*
X17638399Y-14347925D01*
X17680335Y-14360646D01*
X17793424Y-14421094D01*
X17892554Y-14502447D01*
X17973906Y-14601575D01*
X18034354Y-14714664D01*
X18044040Y-14746596D01*
X18071580Y-14837382D01*
X18081000Y-14933027D01*
X18081000Y-15546973D01*
X18071580Y-15642618D01*
X18044040Y-15733404D01*
X18034354Y-15765336D01*
X17973906Y-15878425D01*
X17892554Y-15977554D01*
X17793425Y-16058906D01*
X17680336Y-16119354D01*
X17648404Y-16129040D01*
X17557618Y-16156580D01*
X17430000Y-16169149D01*
X17302383Y-16156580D01*
X17211597Y-16129040D01*
X17179665Y-16119354D01*
X17066576Y-16058906D01*
X16967447Y-15977554D01*
X16886096Y-15878427D01*
X16886095Y-15878425D01*
X16825647Y-15765336D01*
X16825645Y-15765333D01*
X16813237Y-15724427D01*
X16788420Y-15642618D01*
X16779000Y-15546973D01*
X16779000Y-14933028D01*
X16788420Y-14837383D01*
X16825645Y-14714669D01*
X16825646Y-14714665D01*
X16886094Y-14601576D01*
X16967447Y-14502446D01*
X17066575Y-14421094D01*
X17179664Y-14360646D01*
X17221600Y-14347925D01*
X17302382Y-14323420D01*
X17430000Y-14310851D01*
X17557617Y-14323420D01*
X17557617Y-14323420D01*
G37*
G36*
X15557617Y-14323420D02*
G01*
X15638399Y-14347925D01*
X15680335Y-14360646D01*
X15793424Y-14421094D01*
X15892554Y-14502447D01*
X15973906Y-14601575D01*
X16034354Y-14714664D01*
X16044040Y-14746596D01*
X16071580Y-14837382D01*
X16081000Y-14933027D01*
X16081000Y-15546973D01*
X16071580Y-15642618D01*
X16044040Y-15733404D01*
X16034354Y-15765336D01*
X15973906Y-15878425D01*
X15892554Y-15977554D01*
X15793425Y-16058906D01*
X15680336Y-16119354D01*
X15648404Y-16129040D01*
X15557618Y-16156580D01*
X15430000Y-16169149D01*
X15302383Y-16156580D01*
X15211597Y-16129040D01*
X15179665Y-16119354D01*
X15066576Y-16058906D01*
X14967447Y-15977554D01*
X14886096Y-15878427D01*
X14886095Y-15878425D01*
X14825647Y-15765336D01*
X14825645Y-15765333D01*
X14813237Y-15724427D01*
X14788420Y-15642618D01*
X14779000Y-15546973D01*
X14779000Y-14933028D01*
X14788420Y-14837383D01*
X14825645Y-14714669D01*
X14825646Y-14714665D01*
X14886094Y-14601576D01*
X14967447Y-14502446D01*
X15066575Y-14421094D01*
X15179664Y-14360646D01*
X15221600Y-14347925D01*
X15302382Y-14323420D01*
X15430000Y-14310851D01*
X15557617Y-14323420D01*
X15557617Y-14323420D01*
G37*
G36*
X13557617Y-14323420D02*
G01*
X13638399Y-14347925D01*
X13680335Y-14360646D01*
X13793424Y-14421094D01*
X13892554Y-14502447D01*
X13973906Y-14601575D01*
X14034354Y-14714664D01*
X14044040Y-14746596D01*
X14071580Y-14837382D01*
X14081000Y-14933027D01*
X14081000Y-15546973D01*
X14071580Y-15642618D01*
X14044040Y-15733404D01*
X14034354Y-15765336D01*
X13973906Y-15878425D01*
X13892554Y-15977554D01*
X13793425Y-16058906D01*
X13680336Y-16119354D01*
X13648404Y-16129040D01*
X13557618Y-16156580D01*
X13430000Y-16169149D01*
X13302383Y-16156580D01*
X13211597Y-16129040D01*
X13179665Y-16119354D01*
X13066576Y-16058906D01*
X12967447Y-15977554D01*
X12886096Y-15878427D01*
X12886095Y-15878425D01*
X12825647Y-15765336D01*
X12825645Y-15765333D01*
X12813237Y-15724427D01*
X12788420Y-15642618D01*
X12779000Y-15546973D01*
X12779000Y-14933028D01*
X12788420Y-14837383D01*
X12825645Y-14714669D01*
X12825646Y-14714665D01*
X12886094Y-14601576D01*
X12967447Y-14502446D01*
X13066575Y-14421094D01*
X13179664Y-14360646D01*
X13221600Y-14347925D01*
X13302382Y-14323420D01*
X13430000Y-14310851D01*
X13557617Y-14323420D01*
X13557617Y-14323420D01*
G37*
G36*
X11921242Y-14318404D02*
G01*
X11958337Y-14329657D01*
X11992515Y-14347925D01*
X12022481Y-14372519D01*
X12047075Y-14402485D01*
X12065343Y-14436663D01*
X12076596Y-14473758D01*
X12081000Y-14518474D01*
X12081000Y-15961526D01*
X12076596Y-16006242D01*
X12065343Y-16043337D01*
X12047075Y-16077515D01*
X12022481Y-16107481D01*
X11992515Y-16132075D01*
X11958337Y-16150343D01*
X11921242Y-16161596D01*
X11876526Y-16166000D01*
X10983474Y-16166000D01*
X10938758Y-16161596D01*
X10901663Y-16150343D01*
X10867485Y-16132075D01*
X10837519Y-16107481D01*
X10812925Y-16077515D01*
X10794657Y-16043337D01*
X10783404Y-16006242D01*
X10779000Y-15961526D01*
X10779000Y-14518474D01*
X10783404Y-14473758D01*
X10794657Y-14436663D01*
X10812925Y-14402485D01*
X10837519Y-14372519D01*
X10867485Y-14347925D01*
X10901663Y-14329657D01*
X10938758Y-14318404D01*
X10983474Y-14314000D01*
X11876526Y-14314000D01*
X11921242Y-14318404D01*
X11921242Y-14318404D01*
G37*
G36*
X4108404Y-97974D02*
G01*
X4690767Y-339196D01*
X4690768Y-339197D01*
X5214881Y-689398D01*
X5660602Y-1135119D01*
X5894599Y-1485321D01*
X6010804Y-1659233D01*
X6252026Y-2241596D01*
X6375000Y-2859826D01*
X6375000Y-3490174D01*
X6252026Y-4108404D01*
X6010804Y-4690767D01*
X6010803Y-4690768D01*
X5660602Y-5214881D01*
X5214881Y-5660602D01*
X4864679Y-5894599D01*
X4690767Y-6010804D01*
X4108404Y-6252026D01*
X3490174Y-6375000D01*
X2859826Y-6375000D01*
X2241596Y-6252026D01*
X1659233Y-6010804D01*
X1485321Y-5894599D01*
X1135119Y-5660602D01*
X689398Y-5214881D01*
X339197Y-4690768D01*
X339196Y-4690767D01*
X97974Y-4108404D01*
X-25000Y-3490174D01*
X-25000Y-2859826D01*
X97974Y-2241596D01*
X339196Y-1659233D01*
X455401Y-1485321D01*
X689398Y-1135119D01*
X1135119Y-689398D01*
X1659232Y-339197D01*
X1659233Y-339196D01*
X2241596Y-97974D01*
X2859826Y25000D01*
X3490174Y25000D01*
X4108404Y-97974D01*
X4108404Y-97974D01*
G37*
G36*
X137458404Y-97974D02*
G01*
X138040767Y-339196D01*
X138040768Y-339197D01*
X138564881Y-689398D01*
X139010602Y-1135119D01*
X139244599Y-1485321D01*
X139360804Y-1659233D01*
X139602026Y-2241596D01*
X139725000Y-2859826D01*
X139725000Y-3490174D01*
X139602026Y-4108404D01*
X139360804Y-4690767D01*
X139360803Y-4690768D01*
X139010602Y-5214881D01*
X138564881Y-5660602D01*
X138214679Y-5894599D01*
X138040767Y-6010804D01*
X137458404Y-6252026D01*
X136840174Y-6375000D01*
X136209826Y-6375000D01*
X135591596Y-6252026D01*
X135009233Y-6010804D01*
X134835321Y-5894599D01*
X134485119Y-5660602D01*
X134039398Y-5214881D01*
X133689197Y-4690768D01*
X133689196Y-4690767D01*
X133447974Y-4108404D01*
X133325000Y-3490174D01*
X133325000Y-2859826D01*
X133447974Y-2241596D01*
X133689196Y-1659233D01*
X133805401Y-1485321D01*
X134039398Y-1135119D01*
X134485119Y-689398D01*
X135009232Y-339197D01*
X135009233Y-339196D01*
X135591596Y-97974D01*
X136209826Y25000D01*
X136840174Y25000D01*
X137458404Y-97974D01*
X137458404Y-97974D01*
G37*
M02*
