G04 #@! TF.GenerationSoftware,KiCad,Pcbnew,(5.1.2)-1*
G04 #@! TF.CreationDate,2019-06-10T17:23:03-04:00*
G04 #@! TF.ProjectId,pev_uvw_sw,7065765f-7576-4775-9f73-772e6b696361,rev?*
G04 #@! TF.SameCoordinates,Original*
G04 #@! TF.FileFunction,Copper,L4,Bot*
G04 #@! TF.FilePolarity,Positive*
%FSLAX46Y46*%
G04 Gerber Fmt 4.6, Leading zero omitted, Abs format (unit mm)*
G04 Created by KiCad (PCBNEW (5.1.2)-1) date 2019-06-10 17:23:03*
%MOMM*%
%LPD*%
G04 APERTURE LIST*
%ADD10C,1.450000*%
%ADD11O,1.900000X1.200000*%
%ADD12C,0.100000*%
%ADD13C,1.700000*%
%ADD14O,1.700000X1.950000*%
%ADD15C,1.200000*%
%ADD16O,1.200000X1.750000*%
%ADD17C,2.000000*%
%ADD18C,5.000000*%
%ADD19C,1.500000*%
%ADD20C,4.400000*%
%ADD21O,1.700000X2.000000*%
%ADD22C,0.800000*%
%ADD23C,1.600000*%
%ADD24C,1.000000*%
%ADD25C,0.600000*%
%ADD26C,0.250000*%
%ADD27C,0.900000*%
%ADD28C,0.400000*%
%ADD29C,0.254000*%
%ADD30C,0.127000*%
G04 APERTURE END LIST*
D10*
X4224000Y-58952000D03*
X4224000Y-63952000D03*
D11*
X1524000Y-57952000D03*
X1524000Y-64952000D03*
D12*
G36*
X77459504Y-68876204D02*
G01*
X77483773Y-68879804D01*
X77507571Y-68885765D01*
X77530671Y-68894030D01*
X77552849Y-68904520D01*
X77573893Y-68917133D01*
X77593598Y-68931747D01*
X77611777Y-68948223D01*
X77628253Y-68966402D01*
X77642867Y-68986107D01*
X77655480Y-69007151D01*
X77665970Y-69029329D01*
X77674235Y-69052429D01*
X77680196Y-69076227D01*
X77683796Y-69100496D01*
X77685000Y-69125000D01*
X77685000Y-70575000D01*
X77683796Y-70599504D01*
X77680196Y-70623773D01*
X77674235Y-70647571D01*
X77665970Y-70670671D01*
X77655480Y-70692849D01*
X77642867Y-70713893D01*
X77628253Y-70733598D01*
X77611777Y-70751777D01*
X77593598Y-70768253D01*
X77573893Y-70782867D01*
X77552849Y-70795480D01*
X77530671Y-70805970D01*
X77507571Y-70814235D01*
X77483773Y-70820196D01*
X77459504Y-70823796D01*
X77435000Y-70825000D01*
X76235000Y-70825000D01*
X76210496Y-70823796D01*
X76186227Y-70820196D01*
X76162429Y-70814235D01*
X76139329Y-70805970D01*
X76117151Y-70795480D01*
X76096107Y-70782867D01*
X76076402Y-70768253D01*
X76058223Y-70751777D01*
X76041747Y-70733598D01*
X76027133Y-70713893D01*
X76014520Y-70692849D01*
X76004030Y-70670671D01*
X75995765Y-70647571D01*
X75989804Y-70623773D01*
X75986204Y-70599504D01*
X75985000Y-70575000D01*
X75985000Y-69125000D01*
X75986204Y-69100496D01*
X75989804Y-69076227D01*
X75995765Y-69052429D01*
X76004030Y-69029329D01*
X76014520Y-69007151D01*
X76027133Y-68986107D01*
X76041747Y-68966402D01*
X76058223Y-68948223D01*
X76076402Y-68931747D01*
X76096107Y-68917133D01*
X76117151Y-68904520D01*
X76139329Y-68894030D01*
X76162429Y-68885765D01*
X76186227Y-68879804D01*
X76210496Y-68876204D01*
X76235000Y-68875000D01*
X77435000Y-68875000D01*
X77459504Y-68876204D01*
X77459504Y-68876204D01*
G37*
D13*
X76835000Y-69850000D03*
D14*
X79335000Y-69850000D03*
X81835000Y-69850000D03*
X84335000Y-69850000D03*
D12*
G36*
X11804505Y-14366204D02*
G01*
X11828773Y-14369804D01*
X11852572Y-14375765D01*
X11875671Y-14384030D01*
X11897850Y-14394520D01*
X11918893Y-14407132D01*
X11938599Y-14421747D01*
X11956777Y-14438223D01*
X11973253Y-14456401D01*
X11987868Y-14476107D01*
X12000480Y-14497150D01*
X12010970Y-14519329D01*
X12019235Y-14542428D01*
X12025196Y-14566227D01*
X12028796Y-14590495D01*
X12030000Y-14614999D01*
X12030000Y-15865001D01*
X12028796Y-15889505D01*
X12025196Y-15913773D01*
X12019235Y-15937572D01*
X12010970Y-15960671D01*
X12000480Y-15982850D01*
X11987868Y-16003893D01*
X11973253Y-16023599D01*
X11956777Y-16041777D01*
X11938599Y-16058253D01*
X11918893Y-16072868D01*
X11897850Y-16085480D01*
X11875671Y-16095970D01*
X11852572Y-16104235D01*
X11828773Y-16110196D01*
X11804505Y-16113796D01*
X11780001Y-16115000D01*
X11079999Y-16115000D01*
X11055495Y-16113796D01*
X11031227Y-16110196D01*
X11007428Y-16104235D01*
X10984329Y-16095970D01*
X10962150Y-16085480D01*
X10941107Y-16072868D01*
X10921401Y-16058253D01*
X10903223Y-16041777D01*
X10886747Y-16023599D01*
X10872132Y-16003893D01*
X10859520Y-15982850D01*
X10849030Y-15960671D01*
X10840765Y-15937572D01*
X10834804Y-15913773D01*
X10831204Y-15889505D01*
X10830000Y-15865001D01*
X10830000Y-14614999D01*
X10831204Y-14590495D01*
X10834804Y-14566227D01*
X10840765Y-14542428D01*
X10849030Y-14519329D01*
X10859520Y-14497150D01*
X10872132Y-14476107D01*
X10886747Y-14456401D01*
X10903223Y-14438223D01*
X10921401Y-14421747D01*
X10941107Y-14407132D01*
X10962150Y-14394520D01*
X10984329Y-14384030D01*
X11007428Y-14375765D01*
X11031227Y-14369804D01*
X11055495Y-14366204D01*
X11079999Y-14365000D01*
X11780001Y-14365000D01*
X11804505Y-14366204D01*
X11804505Y-14366204D01*
G37*
D15*
X11430000Y-15240000D03*
D16*
X13430000Y-15240000D03*
X15430000Y-15240000D03*
X17430000Y-15240000D03*
X19430000Y-15240000D03*
X21430000Y-15240000D03*
X21430000Y-30480000D03*
X19430000Y-30480000D03*
X17430000Y-30480000D03*
X15430000Y-30480000D03*
X13430000Y-30480000D03*
D12*
G36*
X11804505Y-29606204D02*
G01*
X11828773Y-29609804D01*
X11852572Y-29615765D01*
X11875671Y-29624030D01*
X11897850Y-29634520D01*
X11918893Y-29647132D01*
X11938599Y-29661747D01*
X11956777Y-29678223D01*
X11973253Y-29696401D01*
X11987868Y-29716107D01*
X12000480Y-29737150D01*
X12010970Y-29759329D01*
X12019235Y-29782428D01*
X12025196Y-29806227D01*
X12028796Y-29830495D01*
X12030000Y-29854999D01*
X12030000Y-31105001D01*
X12028796Y-31129505D01*
X12025196Y-31153773D01*
X12019235Y-31177572D01*
X12010970Y-31200671D01*
X12000480Y-31222850D01*
X11987868Y-31243893D01*
X11973253Y-31263599D01*
X11956777Y-31281777D01*
X11938599Y-31298253D01*
X11918893Y-31312868D01*
X11897850Y-31325480D01*
X11875671Y-31335970D01*
X11852572Y-31344235D01*
X11828773Y-31350196D01*
X11804505Y-31353796D01*
X11780001Y-31355000D01*
X11079999Y-31355000D01*
X11055495Y-31353796D01*
X11031227Y-31350196D01*
X11007428Y-31344235D01*
X10984329Y-31335970D01*
X10962150Y-31325480D01*
X10941107Y-31312868D01*
X10921401Y-31298253D01*
X10903223Y-31281777D01*
X10886747Y-31263599D01*
X10872132Y-31243893D01*
X10859520Y-31222850D01*
X10849030Y-31200671D01*
X10840765Y-31177572D01*
X10834804Y-31153773D01*
X10831204Y-31129505D01*
X10830000Y-31105001D01*
X10830000Y-29854999D01*
X10831204Y-29830495D01*
X10834804Y-29806227D01*
X10840765Y-29782428D01*
X10849030Y-29759329D01*
X10859520Y-29737150D01*
X10872132Y-29716107D01*
X10886747Y-29696401D01*
X10903223Y-29678223D01*
X10921401Y-29661747D01*
X10941107Y-29647132D01*
X10962150Y-29634520D01*
X10984329Y-29624030D01*
X11007428Y-29615765D01*
X11031227Y-29609804D01*
X11055495Y-29606204D01*
X11079999Y-29605000D01*
X11780001Y-29605000D01*
X11804505Y-29606204D01*
X11804505Y-29606204D01*
G37*
D15*
X11430000Y-30480000D03*
D12*
G36*
X11804505Y-44846204D02*
G01*
X11828773Y-44849804D01*
X11852572Y-44855765D01*
X11875671Y-44864030D01*
X11897850Y-44874520D01*
X11918893Y-44887132D01*
X11938599Y-44901747D01*
X11956777Y-44918223D01*
X11973253Y-44936401D01*
X11987868Y-44956107D01*
X12000480Y-44977150D01*
X12010970Y-44999329D01*
X12019235Y-45022428D01*
X12025196Y-45046227D01*
X12028796Y-45070495D01*
X12030000Y-45094999D01*
X12030000Y-46345001D01*
X12028796Y-46369505D01*
X12025196Y-46393773D01*
X12019235Y-46417572D01*
X12010970Y-46440671D01*
X12000480Y-46462850D01*
X11987868Y-46483893D01*
X11973253Y-46503599D01*
X11956777Y-46521777D01*
X11938599Y-46538253D01*
X11918893Y-46552868D01*
X11897850Y-46565480D01*
X11875671Y-46575970D01*
X11852572Y-46584235D01*
X11828773Y-46590196D01*
X11804505Y-46593796D01*
X11780001Y-46595000D01*
X11079999Y-46595000D01*
X11055495Y-46593796D01*
X11031227Y-46590196D01*
X11007428Y-46584235D01*
X10984329Y-46575970D01*
X10962150Y-46565480D01*
X10941107Y-46552868D01*
X10921401Y-46538253D01*
X10903223Y-46521777D01*
X10886747Y-46503599D01*
X10872132Y-46483893D01*
X10859520Y-46462850D01*
X10849030Y-46440671D01*
X10840765Y-46417572D01*
X10834804Y-46393773D01*
X10831204Y-46369505D01*
X10830000Y-46345001D01*
X10830000Y-45094999D01*
X10831204Y-45070495D01*
X10834804Y-45046227D01*
X10840765Y-45022428D01*
X10849030Y-44999329D01*
X10859520Y-44977150D01*
X10872132Y-44956107D01*
X10886747Y-44936401D01*
X10903223Y-44918223D01*
X10921401Y-44901747D01*
X10941107Y-44887132D01*
X10962150Y-44874520D01*
X10984329Y-44864030D01*
X11007428Y-44855765D01*
X11031227Y-44849804D01*
X11055495Y-44846204D01*
X11079999Y-44845000D01*
X11780001Y-44845000D01*
X11804505Y-44846204D01*
X11804505Y-44846204D01*
G37*
D15*
X11430000Y-45720000D03*
D16*
X13430000Y-45720000D03*
X15430000Y-45720000D03*
X17430000Y-45720000D03*
X19430000Y-45720000D03*
X21430000Y-45720000D03*
D17*
X68635000Y-63500000D03*
X64135000Y-63500000D03*
X68635000Y-57000000D03*
X64135000Y-57000000D03*
D18*
X52070000Y-30480000D03*
X41910000Y-30480000D03*
X31750000Y-30480000D03*
X31750000Y-15240000D03*
X41910000Y-15240000D03*
X52070000Y-15240000D03*
X31750000Y-45720000D03*
X41910000Y-45720000D03*
X52070000Y-45720000D03*
D19*
X33020000Y-59055000D03*
X33020000Y-63935000D03*
D20*
X79570000Y-25890000D03*
X62670000Y-25890000D03*
X71120000Y-16390000D03*
X71120000Y-26290000D03*
X71120000Y-34290000D03*
X97790000Y-34290000D03*
X97790000Y-26290000D03*
X97790000Y-16390000D03*
X89340000Y-25890000D03*
X106240000Y-25890000D03*
X124460000Y-34290000D03*
X124460000Y-26290000D03*
X124460000Y-16390000D03*
X116010000Y-25890000D03*
X132910000Y-25890000D03*
D12*
G36*
X98414504Y-68851204D02*
G01*
X98438773Y-68854804D01*
X98462571Y-68860765D01*
X98485671Y-68869030D01*
X98507849Y-68879520D01*
X98528893Y-68892133D01*
X98548598Y-68906747D01*
X98566777Y-68923223D01*
X98583253Y-68941402D01*
X98597867Y-68961107D01*
X98610480Y-68982151D01*
X98620970Y-69004329D01*
X98629235Y-69027429D01*
X98635196Y-69051227D01*
X98638796Y-69075496D01*
X98640000Y-69100000D01*
X98640000Y-70600000D01*
X98638796Y-70624504D01*
X98635196Y-70648773D01*
X98629235Y-70672571D01*
X98620970Y-70695671D01*
X98610480Y-70717849D01*
X98597867Y-70738893D01*
X98583253Y-70758598D01*
X98566777Y-70776777D01*
X98548598Y-70793253D01*
X98528893Y-70807867D01*
X98507849Y-70820480D01*
X98485671Y-70830970D01*
X98462571Y-70839235D01*
X98438773Y-70845196D01*
X98414504Y-70848796D01*
X98390000Y-70850000D01*
X97190000Y-70850000D01*
X97165496Y-70848796D01*
X97141227Y-70845196D01*
X97117429Y-70839235D01*
X97094329Y-70830970D01*
X97072151Y-70820480D01*
X97051107Y-70807867D01*
X97031402Y-70793253D01*
X97013223Y-70776777D01*
X96996747Y-70758598D01*
X96982133Y-70738893D01*
X96969520Y-70717849D01*
X96959030Y-70695671D01*
X96950765Y-70672571D01*
X96944804Y-70648773D01*
X96941204Y-70624504D01*
X96940000Y-70600000D01*
X96940000Y-69100000D01*
X96941204Y-69075496D01*
X96944804Y-69051227D01*
X96950765Y-69027429D01*
X96959030Y-69004329D01*
X96969520Y-68982151D01*
X96982133Y-68961107D01*
X96996747Y-68941402D01*
X97013223Y-68923223D01*
X97031402Y-68906747D01*
X97051107Y-68892133D01*
X97072151Y-68879520D01*
X97094329Y-68869030D01*
X97117429Y-68860765D01*
X97141227Y-68854804D01*
X97165496Y-68851204D01*
X97190000Y-68850000D01*
X98390000Y-68850000D01*
X98414504Y-68851204D01*
X98414504Y-68851204D01*
G37*
D13*
X97790000Y-69850000D03*
D21*
X100290000Y-69850000D03*
D22*
X48260000Y-67945000D03*
D23*
X106680000Y-64135000D03*
D22*
X134620000Y-66675000D03*
X132080000Y-66040000D03*
X130175000Y-67310000D03*
X127635000Y-66675000D03*
X113411000Y-66421000D03*
X112395000Y-69850000D03*
X112649000Y-68453000D03*
X111760000Y-66675000D03*
X115570000Y-62865000D03*
X25400000Y-69890000D03*
X48260000Y-66040000D03*
X37465000Y-70485000D03*
X39370000Y-71120000D03*
X39370000Y-67945000D03*
X41910000Y-66040000D03*
X45085000Y-62230000D03*
X46355000Y-59690000D03*
X35560000Y-71120000D03*
X60325000Y-68580000D03*
X62230000Y-66675000D03*
X60960000Y-63500000D03*
X62230000Y-60325000D03*
X29210000Y-57785000D03*
X36195000Y-56515000D03*
X36195000Y-62865000D03*
X28575000Y-64770000D03*
X30480000Y-66675000D03*
X53340000Y-58420000D03*
X35560000Y-5715000D03*
X41275000Y-3810000D03*
X52070000Y-5715000D03*
X62230000Y-3810000D03*
X74295000Y-3175000D03*
X83820000Y-5715000D03*
X95250000Y-3810000D03*
X102870000Y-3810000D03*
X121920000Y-3810000D03*
X112395000Y-3810000D03*
X128270000Y-2540000D03*
X29845000Y-4445000D03*
X22860000Y-3810000D03*
X9525000Y-7620000D03*
X17780000Y-8890000D03*
X6350000Y-20320000D03*
X7620000Y-26670000D03*
X3175000Y-26670000D03*
X4445000Y-36830000D03*
X11430000Y-36830000D03*
X7620000Y-41275000D03*
X3175000Y-49530000D03*
X7620000Y-52070000D03*
X13335000Y-51435000D03*
X20955000Y-51435000D03*
X6350000Y-67945000D03*
X9525000Y-72390000D03*
X9525000Y-67945000D03*
X37465000Y-74295000D03*
X48260000Y-74295000D03*
X59690000Y-74295000D03*
X68580000Y-73660000D03*
X86360000Y-57150000D03*
X87630000Y-61595000D03*
X92075000Y-55245000D03*
X93980000Y-59690000D03*
X99695000Y-57785000D03*
X102235000Y-63500000D03*
X91440000Y-66040000D03*
X91440000Y-71120000D03*
X9525000Y-57785000D03*
X53340000Y-60960000D03*
X33020000Y-74295000D03*
X4445000Y-10160000D03*
X71755000Y-67310000D03*
X58420000Y-56515000D03*
X55880000Y-56515000D03*
X73025000Y-60960000D03*
X32385000Y-70485000D03*
X29210000Y-71120000D03*
X6350000Y-63500000D03*
X77823100Y-63541200D03*
X6862200Y-46342500D03*
X56897500Y-57835900D03*
X79734600Y-56460400D03*
X16584400Y-68992800D03*
X12865400Y-71356300D03*
X6862200Y-15822500D03*
X6862200Y-31082500D03*
X53587500Y-69185000D03*
X14730600Y-59122900D03*
X45020500Y-66137500D03*
X56393800Y-67847500D03*
X43180000Y-58420000D03*
X65405000Y-70485000D03*
X116840000Y-64135000D03*
X109220000Y-72390000D03*
X6350000Y-59690000D03*
X26416000Y-68326000D03*
X17399000Y-65024000D03*
X7620000Y-63500000D03*
X47795700Y-61640000D03*
X23337500Y-59816400D03*
X19617300Y-67341000D03*
X20318502Y-55891897D03*
X38771600Y-61968400D03*
X21679500Y-62200200D03*
X27305000Y-63517000D03*
X34925000Y-67945000D03*
X21986800Y-59080800D03*
X34925000Y-60325000D03*
X82550000Y-65405000D03*
X68580000Y-65405000D03*
X21590000Y-68580000D03*
X33655000Y-73025000D03*
X18415000Y-65405000D03*
X83185000Y-56515000D03*
X18415000Y-66675000D03*
X76835000Y-58420000D03*
X57150000Y-71755000D03*
X47625000Y-57150000D03*
X53340000Y-64770000D03*
X57150000Y-60960000D03*
X55245000Y-71120000D03*
X57150000Y-65405000D03*
X22225000Y-63500000D03*
X48260000Y-69342000D03*
D24*
X121920000Y-65405000D03*
X111760000Y-55245000D03*
D22*
X123825000Y-69850000D03*
X118745000Y-69850000D03*
D25*
X115570000Y-72390000D02*
X109220000Y-72390000D01*
X116840000Y-71120000D02*
X115570000Y-72390000D01*
X116840000Y-64135000D02*
X116840000Y-71120000D01*
D26*
X7620000Y-63500000D02*
X9144000Y-65024000D01*
X9144000Y-65024000D02*
X17399000Y-65024000D01*
X23337500Y-59816400D02*
X24657100Y-61136000D01*
X24657100Y-61136000D02*
X47291700Y-61136000D01*
X47291700Y-61136000D02*
X47795700Y-61640000D01*
X20318502Y-66639798D02*
X20318502Y-56457582D01*
X20318502Y-56457582D02*
X20318502Y-55891897D01*
X19617300Y-67341000D02*
X20318502Y-66639798D01*
X21679500Y-62200200D02*
X38539800Y-62200200D01*
X38539800Y-62200200D02*
X38771600Y-61968400D01*
X27305000Y-63517000D02*
X29227000Y-63517000D01*
X29227000Y-63517000D02*
X30497000Y-63517000D01*
X30497000Y-63517000D02*
X34925000Y-67945000D01*
X34925000Y-60325000D02*
X26035000Y-60325000D01*
X24790800Y-59080800D02*
X21986800Y-59080800D01*
X26035000Y-60325000D02*
X24790800Y-59080800D01*
X82550000Y-65405000D02*
X68580000Y-65405000D01*
X21590000Y-68580000D02*
X26035000Y-73025000D01*
X26035000Y-73025000D02*
X33655000Y-73025000D01*
X18415000Y-65405000D02*
X18415000Y-55245000D01*
X19685000Y-54610000D02*
X62865000Y-54610000D01*
X62865000Y-54610000D02*
X63979999Y-55724999D01*
X82785001Y-56115001D02*
X83185000Y-56515000D01*
X63979999Y-55724999D02*
X82394999Y-55724999D01*
X82394999Y-55724999D02*
X82785001Y-56115001D01*
X18415000Y-55245000D02*
X19050000Y-54610000D01*
X19050000Y-54610000D02*
X19685000Y-54610000D01*
X59055000Y-55245000D02*
X62865000Y-59055000D01*
X20400002Y-55245000D02*
X59055000Y-55245000D01*
X62865000Y-59055000D02*
X76200000Y-59055000D01*
X76200000Y-59055000D02*
X76835000Y-58420000D01*
X20005541Y-55239896D02*
X20400002Y-55239896D01*
X18415000Y-66675000D02*
X19050000Y-66040000D01*
X19050000Y-66040000D02*
X19050000Y-65769002D01*
X19050000Y-65769002D02*
X19090001Y-65729001D01*
X19090001Y-65729001D02*
X19090001Y-55839999D01*
X19090001Y-55839999D02*
X19685000Y-55245000D01*
X20000437Y-55245000D02*
X20005541Y-55239896D01*
X19685000Y-55245000D02*
X20000437Y-55245000D01*
X57150000Y-71755000D02*
X57802000Y-71103000D01*
X57802000Y-71103000D02*
X57802000Y-60647000D01*
X57802000Y-60647000D02*
X54305000Y-57150000D01*
X54305000Y-57150000D02*
X47625000Y-57150000D01*
X57150000Y-60960000D02*
X53340000Y-64770000D01*
X57150000Y-65405000D02*
X55245000Y-67310000D01*
X55245000Y-67310000D02*
X55245000Y-71120000D01*
X22225000Y-63500000D02*
X22225000Y-65405000D01*
X22225000Y-65405000D02*
X26416000Y-69596000D01*
X26416000Y-69596000D02*
X47752000Y-69596000D01*
X47752000Y-69596000D02*
X48006000Y-69596000D01*
X48006000Y-69596000D02*
X48260000Y-69342000D01*
D27*
X121920000Y-65405000D02*
X112395000Y-55880000D01*
X112395000Y-55880000D02*
X111760000Y-55245000D01*
D28*
X123825000Y-69850000D02*
X118745000Y-69850000D01*
D29*
G36*
X63359736Y-30854364D02*
G01*
X63084364Y-31129736D01*
X62868005Y-31453539D01*
X62718975Y-31813330D01*
X62643000Y-32195282D01*
X62643000Y-32584718D01*
X62718975Y-32966670D01*
X62868005Y-33326461D01*
X63084364Y-33650264D01*
X63359736Y-33925636D01*
X63683539Y-34141995D01*
X64043330Y-34291025D01*
X64425282Y-34367000D01*
X64814718Y-34367000D01*
X65196670Y-34291025D01*
X65556461Y-34141995D01*
X65795884Y-33982017D01*
X67993000Y-33982017D01*
X67993000Y-34597983D01*
X68113169Y-35202112D01*
X68348889Y-35771190D01*
X68691101Y-36283346D01*
X69126654Y-36718899D01*
X69638810Y-37061111D01*
X70207888Y-37296831D01*
X70812017Y-37417000D01*
X71427983Y-37417000D01*
X72032112Y-37296831D01*
X72601190Y-37061111D01*
X73113346Y-36718899D01*
X73548899Y-36283346D01*
X73891111Y-35771190D01*
X74126831Y-35202112D01*
X74247000Y-34597983D01*
X74247000Y-33982017D01*
X74126831Y-33377888D01*
X73891111Y-32808810D01*
X73548899Y-32296654D01*
X73113346Y-31861101D01*
X72601190Y-31518889D01*
X72032112Y-31283169D01*
X71427983Y-31163000D01*
X70812017Y-31163000D01*
X70207888Y-31283169D01*
X69638810Y-31518889D01*
X69126654Y-31861101D01*
X68691101Y-32296654D01*
X68348889Y-32808810D01*
X68113169Y-33377888D01*
X67993000Y-33982017D01*
X65795884Y-33982017D01*
X65880264Y-33925636D01*
X66155636Y-33650264D01*
X66371995Y-33326461D01*
X66521025Y-32966670D01*
X66597000Y-32584718D01*
X66597000Y-32195282D01*
X66521025Y-31813330D01*
X66371995Y-31453539D01*
X66155636Y-31129736D01*
X65880264Y-30854364D01*
X65756998Y-30772000D01*
X90153002Y-30772000D01*
X90029736Y-30854364D01*
X89754364Y-31129736D01*
X89538005Y-31453539D01*
X89388975Y-31813330D01*
X89313000Y-32195282D01*
X89313000Y-32584718D01*
X89388975Y-32966670D01*
X89538005Y-33326461D01*
X89754364Y-33650264D01*
X90029736Y-33925636D01*
X90353539Y-34141995D01*
X90713330Y-34291025D01*
X91095282Y-34367000D01*
X91484718Y-34367000D01*
X91866670Y-34291025D01*
X92226461Y-34141995D01*
X92465884Y-33982017D01*
X94663000Y-33982017D01*
X94663000Y-34597983D01*
X94783169Y-35202112D01*
X95018889Y-35771190D01*
X95361101Y-36283346D01*
X95796654Y-36718899D01*
X96308810Y-37061111D01*
X96877888Y-37296831D01*
X97482017Y-37417000D01*
X98097983Y-37417000D01*
X98702112Y-37296831D01*
X99271190Y-37061111D01*
X99783346Y-36718899D01*
X99789094Y-36713151D01*
X122988615Y-36713151D01*
X123260946Y-37085332D01*
X123829328Y-37265544D01*
X124421946Y-37331408D01*
X125016027Y-37280392D01*
X125588740Y-37114457D01*
X125659054Y-37085332D01*
X125931385Y-36713151D01*
X124460000Y-35241766D01*
X122988615Y-36713151D01*
X99789094Y-36713151D01*
X100218899Y-36283346D01*
X100561111Y-35771190D01*
X100796831Y-35202112D01*
X100917000Y-34597983D01*
X100917000Y-33982017D01*
X100796831Y-33377888D01*
X100561111Y-32808810D01*
X100218899Y-32296654D01*
X99783346Y-31861101D01*
X99271190Y-31518889D01*
X98702112Y-31283169D01*
X98097983Y-31163000D01*
X97482017Y-31163000D01*
X96877888Y-31283169D01*
X96308810Y-31518889D01*
X95796654Y-31861101D01*
X95361101Y-32296654D01*
X95018889Y-32808810D01*
X94783169Y-33377888D01*
X94663000Y-33982017D01*
X92465884Y-33982017D01*
X92550264Y-33925636D01*
X92825636Y-33650264D01*
X93041995Y-33326461D01*
X93191025Y-32966670D01*
X93267000Y-32584718D01*
X93267000Y-32195282D01*
X93191025Y-31813330D01*
X93041995Y-31453539D01*
X92825636Y-31129736D01*
X92550264Y-30854364D01*
X92426998Y-30772000D01*
X116823002Y-30772000D01*
X116699736Y-30854364D01*
X116424364Y-31129736D01*
X116208005Y-31453539D01*
X116058975Y-31813330D01*
X115983000Y-32195282D01*
X115983000Y-32584718D01*
X116058975Y-32966670D01*
X116208005Y-33326461D01*
X116424364Y-33650264D01*
X116699736Y-33925636D01*
X117023539Y-34141995D01*
X117383330Y-34291025D01*
X117765282Y-34367000D01*
X118154718Y-34367000D01*
X118536670Y-34291025D01*
X118631015Y-34251946D01*
X121418592Y-34251946D01*
X121469608Y-34846027D01*
X121635543Y-35418740D01*
X121664668Y-35489054D01*
X122036849Y-35761385D01*
X123508234Y-34290000D01*
X125411766Y-34290000D01*
X126883151Y-35761385D01*
X127255332Y-35489054D01*
X127435544Y-34920672D01*
X127501408Y-34328054D01*
X127450392Y-33733973D01*
X127284457Y-33161260D01*
X127255332Y-33090946D01*
X126883151Y-32818615D01*
X125411766Y-34290000D01*
X123508234Y-34290000D01*
X122036849Y-32818615D01*
X121664668Y-33090946D01*
X121484456Y-33659328D01*
X121418592Y-34251946D01*
X118631015Y-34251946D01*
X118896461Y-34141995D01*
X119220264Y-33925636D01*
X119495636Y-33650264D01*
X119711995Y-33326461D01*
X119861025Y-32966670D01*
X119937000Y-32584718D01*
X119937000Y-32195282D01*
X119871671Y-31866849D01*
X122988615Y-31866849D01*
X124460000Y-33338234D01*
X125931385Y-31866849D01*
X125659054Y-31494668D01*
X125090672Y-31314456D01*
X124498054Y-31248592D01*
X123903973Y-31299608D01*
X123331260Y-31465543D01*
X123260946Y-31494668D01*
X122988615Y-31866849D01*
X119871671Y-31866849D01*
X119861025Y-31813330D01*
X119711995Y-31453539D01*
X119495636Y-31129736D01*
X119220264Y-30854364D01*
X119096998Y-30772000D01*
X138303000Y-30772000D01*
X138303000Y-53213000D01*
X24257000Y-53213000D01*
X24257000Y-45382470D01*
X28323000Y-45382470D01*
X28323000Y-46057530D01*
X28454697Y-46719619D01*
X28713032Y-47343293D01*
X29088075Y-47904585D01*
X29565415Y-48381925D01*
X30126707Y-48756968D01*
X30750381Y-49015303D01*
X31412470Y-49147000D01*
X32087530Y-49147000D01*
X32749619Y-49015303D01*
X33373293Y-48756968D01*
X33934585Y-48381925D01*
X34411925Y-47904585D01*
X34786968Y-47343293D01*
X35045303Y-46719619D01*
X35177000Y-46057530D01*
X35177000Y-45382470D01*
X38483000Y-45382470D01*
X38483000Y-46057530D01*
X38614697Y-46719619D01*
X38873032Y-47343293D01*
X39248075Y-47904585D01*
X39725415Y-48381925D01*
X40286707Y-48756968D01*
X40910381Y-49015303D01*
X41572470Y-49147000D01*
X42247530Y-49147000D01*
X42909619Y-49015303D01*
X43533293Y-48756968D01*
X44094585Y-48381925D01*
X44114553Y-48361957D01*
X50379809Y-48361957D01*
X50689673Y-48764832D01*
X51310213Y-48975615D01*
X51959951Y-49061287D01*
X52613918Y-49018554D01*
X53246983Y-48849060D01*
X53450327Y-48764832D01*
X53760191Y-48361957D01*
X52070000Y-46671766D01*
X50379809Y-48361957D01*
X44114553Y-48361957D01*
X44571925Y-47904585D01*
X44946968Y-47343293D01*
X45205303Y-46719619D01*
X45337000Y-46057530D01*
X45337000Y-45609951D01*
X48728713Y-45609951D01*
X48771446Y-46263918D01*
X48940940Y-46896983D01*
X49025168Y-47100327D01*
X49428043Y-47410191D01*
X51118234Y-45720000D01*
X53021766Y-45720000D01*
X54711957Y-47410191D01*
X55114832Y-47100327D01*
X55325615Y-46479787D01*
X55411287Y-45830049D01*
X55368554Y-45176082D01*
X55199060Y-44543017D01*
X55114832Y-44339673D01*
X54711957Y-44029809D01*
X53021766Y-45720000D01*
X51118234Y-45720000D01*
X49428043Y-44029809D01*
X49025168Y-44339673D01*
X48814385Y-44960213D01*
X48728713Y-45609951D01*
X45337000Y-45609951D01*
X45337000Y-45382470D01*
X45205303Y-44720381D01*
X44946968Y-44096707D01*
X44571925Y-43535415D01*
X44114553Y-43078043D01*
X50379809Y-43078043D01*
X52070000Y-44768234D01*
X53760191Y-43078043D01*
X53450327Y-42675168D01*
X52829787Y-42464385D01*
X52180049Y-42378713D01*
X51526082Y-42421446D01*
X50893017Y-42590940D01*
X50689673Y-42675168D01*
X50379809Y-43078043D01*
X44114553Y-43078043D01*
X44094585Y-43058075D01*
X43533293Y-42683032D01*
X42909619Y-42424697D01*
X42247530Y-42293000D01*
X41572470Y-42293000D01*
X40910381Y-42424697D01*
X40286707Y-42683032D01*
X39725415Y-43058075D01*
X39248075Y-43535415D01*
X38873032Y-44096707D01*
X38614697Y-44720381D01*
X38483000Y-45382470D01*
X35177000Y-45382470D01*
X35045303Y-44720381D01*
X34786968Y-44096707D01*
X34411925Y-43535415D01*
X33934585Y-43058075D01*
X33373293Y-42683032D01*
X32749619Y-42424697D01*
X32087530Y-42293000D01*
X31412470Y-42293000D01*
X30750381Y-42424697D01*
X30126707Y-42683032D01*
X29565415Y-43058075D01*
X29088075Y-43535415D01*
X28713032Y-44096707D01*
X28454697Y-44720381D01*
X28323000Y-45382470D01*
X24257000Y-45382470D01*
X24257000Y-39027000D01*
X59690000Y-39027000D01*
X59870849Y-39009188D01*
X60044748Y-38956436D01*
X60205014Y-38870772D01*
X60345488Y-38755488D01*
X60460772Y-38615014D01*
X60546436Y-38454748D01*
X60599188Y-38280849D01*
X60617000Y-38100000D01*
X60617000Y-30772000D01*
X63483002Y-30772000D01*
X63359736Y-30854364D01*
X63359736Y-30854364D01*
G37*
X63359736Y-30854364D02*
X63084364Y-31129736D01*
X62868005Y-31453539D01*
X62718975Y-31813330D01*
X62643000Y-32195282D01*
X62643000Y-32584718D01*
X62718975Y-32966670D01*
X62868005Y-33326461D01*
X63084364Y-33650264D01*
X63359736Y-33925636D01*
X63683539Y-34141995D01*
X64043330Y-34291025D01*
X64425282Y-34367000D01*
X64814718Y-34367000D01*
X65196670Y-34291025D01*
X65556461Y-34141995D01*
X65795884Y-33982017D01*
X67993000Y-33982017D01*
X67993000Y-34597983D01*
X68113169Y-35202112D01*
X68348889Y-35771190D01*
X68691101Y-36283346D01*
X69126654Y-36718899D01*
X69638810Y-37061111D01*
X70207888Y-37296831D01*
X70812017Y-37417000D01*
X71427983Y-37417000D01*
X72032112Y-37296831D01*
X72601190Y-37061111D01*
X73113346Y-36718899D01*
X73548899Y-36283346D01*
X73891111Y-35771190D01*
X74126831Y-35202112D01*
X74247000Y-34597983D01*
X74247000Y-33982017D01*
X74126831Y-33377888D01*
X73891111Y-32808810D01*
X73548899Y-32296654D01*
X73113346Y-31861101D01*
X72601190Y-31518889D01*
X72032112Y-31283169D01*
X71427983Y-31163000D01*
X70812017Y-31163000D01*
X70207888Y-31283169D01*
X69638810Y-31518889D01*
X69126654Y-31861101D01*
X68691101Y-32296654D01*
X68348889Y-32808810D01*
X68113169Y-33377888D01*
X67993000Y-33982017D01*
X65795884Y-33982017D01*
X65880264Y-33925636D01*
X66155636Y-33650264D01*
X66371995Y-33326461D01*
X66521025Y-32966670D01*
X66597000Y-32584718D01*
X66597000Y-32195282D01*
X66521025Y-31813330D01*
X66371995Y-31453539D01*
X66155636Y-31129736D01*
X65880264Y-30854364D01*
X65756998Y-30772000D01*
X90153002Y-30772000D01*
X90029736Y-30854364D01*
X89754364Y-31129736D01*
X89538005Y-31453539D01*
X89388975Y-31813330D01*
X89313000Y-32195282D01*
X89313000Y-32584718D01*
X89388975Y-32966670D01*
X89538005Y-33326461D01*
X89754364Y-33650264D01*
X90029736Y-33925636D01*
X90353539Y-34141995D01*
X90713330Y-34291025D01*
X91095282Y-34367000D01*
X91484718Y-34367000D01*
X91866670Y-34291025D01*
X92226461Y-34141995D01*
X92465884Y-33982017D01*
X94663000Y-33982017D01*
X94663000Y-34597983D01*
X94783169Y-35202112D01*
X95018889Y-35771190D01*
X95361101Y-36283346D01*
X95796654Y-36718899D01*
X96308810Y-37061111D01*
X96877888Y-37296831D01*
X97482017Y-37417000D01*
X98097983Y-37417000D01*
X98702112Y-37296831D01*
X99271190Y-37061111D01*
X99783346Y-36718899D01*
X99789094Y-36713151D01*
X122988615Y-36713151D01*
X123260946Y-37085332D01*
X123829328Y-37265544D01*
X124421946Y-37331408D01*
X125016027Y-37280392D01*
X125588740Y-37114457D01*
X125659054Y-37085332D01*
X125931385Y-36713151D01*
X124460000Y-35241766D01*
X122988615Y-36713151D01*
X99789094Y-36713151D01*
X100218899Y-36283346D01*
X100561111Y-35771190D01*
X100796831Y-35202112D01*
X100917000Y-34597983D01*
X100917000Y-33982017D01*
X100796831Y-33377888D01*
X100561111Y-32808810D01*
X100218899Y-32296654D01*
X99783346Y-31861101D01*
X99271190Y-31518889D01*
X98702112Y-31283169D01*
X98097983Y-31163000D01*
X97482017Y-31163000D01*
X96877888Y-31283169D01*
X96308810Y-31518889D01*
X95796654Y-31861101D01*
X95361101Y-32296654D01*
X95018889Y-32808810D01*
X94783169Y-33377888D01*
X94663000Y-33982017D01*
X92465884Y-33982017D01*
X92550264Y-33925636D01*
X92825636Y-33650264D01*
X93041995Y-33326461D01*
X93191025Y-32966670D01*
X93267000Y-32584718D01*
X93267000Y-32195282D01*
X93191025Y-31813330D01*
X93041995Y-31453539D01*
X92825636Y-31129736D01*
X92550264Y-30854364D01*
X92426998Y-30772000D01*
X116823002Y-30772000D01*
X116699736Y-30854364D01*
X116424364Y-31129736D01*
X116208005Y-31453539D01*
X116058975Y-31813330D01*
X115983000Y-32195282D01*
X115983000Y-32584718D01*
X116058975Y-32966670D01*
X116208005Y-33326461D01*
X116424364Y-33650264D01*
X116699736Y-33925636D01*
X117023539Y-34141995D01*
X117383330Y-34291025D01*
X117765282Y-34367000D01*
X118154718Y-34367000D01*
X118536670Y-34291025D01*
X118631015Y-34251946D01*
X121418592Y-34251946D01*
X121469608Y-34846027D01*
X121635543Y-35418740D01*
X121664668Y-35489054D01*
X122036849Y-35761385D01*
X123508234Y-34290000D01*
X125411766Y-34290000D01*
X126883151Y-35761385D01*
X127255332Y-35489054D01*
X127435544Y-34920672D01*
X127501408Y-34328054D01*
X127450392Y-33733973D01*
X127284457Y-33161260D01*
X127255332Y-33090946D01*
X126883151Y-32818615D01*
X125411766Y-34290000D01*
X123508234Y-34290000D01*
X122036849Y-32818615D01*
X121664668Y-33090946D01*
X121484456Y-33659328D01*
X121418592Y-34251946D01*
X118631015Y-34251946D01*
X118896461Y-34141995D01*
X119220264Y-33925636D01*
X119495636Y-33650264D01*
X119711995Y-33326461D01*
X119861025Y-32966670D01*
X119937000Y-32584718D01*
X119937000Y-32195282D01*
X119871671Y-31866849D01*
X122988615Y-31866849D01*
X124460000Y-33338234D01*
X125931385Y-31866849D01*
X125659054Y-31494668D01*
X125090672Y-31314456D01*
X124498054Y-31248592D01*
X123903973Y-31299608D01*
X123331260Y-31465543D01*
X123260946Y-31494668D01*
X122988615Y-31866849D01*
X119871671Y-31866849D01*
X119861025Y-31813330D01*
X119711995Y-31453539D01*
X119495636Y-31129736D01*
X119220264Y-30854364D01*
X119096998Y-30772000D01*
X138303000Y-30772000D01*
X138303000Y-53213000D01*
X24257000Y-53213000D01*
X24257000Y-45382470D01*
X28323000Y-45382470D01*
X28323000Y-46057530D01*
X28454697Y-46719619D01*
X28713032Y-47343293D01*
X29088075Y-47904585D01*
X29565415Y-48381925D01*
X30126707Y-48756968D01*
X30750381Y-49015303D01*
X31412470Y-49147000D01*
X32087530Y-49147000D01*
X32749619Y-49015303D01*
X33373293Y-48756968D01*
X33934585Y-48381925D01*
X34411925Y-47904585D01*
X34786968Y-47343293D01*
X35045303Y-46719619D01*
X35177000Y-46057530D01*
X35177000Y-45382470D01*
X38483000Y-45382470D01*
X38483000Y-46057530D01*
X38614697Y-46719619D01*
X38873032Y-47343293D01*
X39248075Y-47904585D01*
X39725415Y-48381925D01*
X40286707Y-48756968D01*
X40910381Y-49015303D01*
X41572470Y-49147000D01*
X42247530Y-49147000D01*
X42909619Y-49015303D01*
X43533293Y-48756968D01*
X44094585Y-48381925D01*
X44114553Y-48361957D01*
X50379809Y-48361957D01*
X50689673Y-48764832D01*
X51310213Y-48975615D01*
X51959951Y-49061287D01*
X52613918Y-49018554D01*
X53246983Y-48849060D01*
X53450327Y-48764832D01*
X53760191Y-48361957D01*
X52070000Y-46671766D01*
X50379809Y-48361957D01*
X44114553Y-48361957D01*
X44571925Y-47904585D01*
X44946968Y-47343293D01*
X45205303Y-46719619D01*
X45337000Y-46057530D01*
X45337000Y-45609951D01*
X48728713Y-45609951D01*
X48771446Y-46263918D01*
X48940940Y-46896983D01*
X49025168Y-47100327D01*
X49428043Y-47410191D01*
X51118234Y-45720000D01*
X53021766Y-45720000D01*
X54711957Y-47410191D01*
X55114832Y-47100327D01*
X55325615Y-46479787D01*
X55411287Y-45830049D01*
X55368554Y-45176082D01*
X55199060Y-44543017D01*
X55114832Y-44339673D01*
X54711957Y-44029809D01*
X53021766Y-45720000D01*
X51118234Y-45720000D01*
X49428043Y-44029809D01*
X49025168Y-44339673D01*
X48814385Y-44960213D01*
X48728713Y-45609951D01*
X45337000Y-45609951D01*
X45337000Y-45382470D01*
X45205303Y-44720381D01*
X44946968Y-44096707D01*
X44571925Y-43535415D01*
X44114553Y-43078043D01*
X50379809Y-43078043D01*
X52070000Y-44768234D01*
X53760191Y-43078043D01*
X53450327Y-42675168D01*
X52829787Y-42464385D01*
X52180049Y-42378713D01*
X51526082Y-42421446D01*
X50893017Y-42590940D01*
X50689673Y-42675168D01*
X50379809Y-43078043D01*
X44114553Y-43078043D01*
X44094585Y-43058075D01*
X43533293Y-42683032D01*
X42909619Y-42424697D01*
X42247530Y-42293000D01*
X41572470Y-42293000D01*
X40910381Y-42424697D01*
X40286707Y-42683032D01*
X39725415Y-43058075D01*
X39248075Y-43535415D01*
X38873032Y-44096707D01*
X38614697Y-44720381D01*
X38483000Y-45382470D01*
X35177000Y-45382470D01*
X35045303Y-44720381D01*
X34786968Y-44096707D01*
X34411925Y-43535415D01*
X33934585Y-43058075D01*
X33373293Y-42683032D01*
X32749619Y-42424697D01*
X32087530Y-42293000D01*
X31412470Y-42293000D01*
X30750381Y-42424697D01*
X30126707Y-42683032D01*
X29565415Y-43058075D01*
X29088075Y-43535415D01*
X28713032Y-44096707D01*
X28454697Y-44720381D01*
X28323000Y-45382470D01*
X24257000Y-45382470D01*
X24257000Y-39027000D01*
X59690000Y-39027000D01*
X59870849Y-39009188D01*
X60044748Y-38956436D01*
X60205014Y-38870772D01*
X60345488Y-38755488D01*
X60460772Y-38615014D01*
X60546436Y-38454748D01*
X60599188Y-38280849D01*
X60617000Y-38100000D01*
X60617000Y-30772000D01*
X63483002Y-30772000D01*
X63359736Y-30854364D01*
G36*
X76359736Y-21825636D02*
G01*
X76683539Y-22041995D01*
X77043330Y-22191025D01*
X77425282Y-22267000D01*
X77814718Y-22267000D01*
X78196670Y-22191025D01*
X78556461Y-22041995D01*
X78880264Y-21825636D01*
X78988900Y-21717000D01*
X102921100Y-21717000D01*
X103029736Y-21825636D01*
X103353539Y-22041995D01*
X103713330Y-22191025D01*
X104095282Y-22267000D01*
X104484718Y-22267000D01*
X104866670Y-22191025D01*
X105226461Y-22041995D01*
X105550264Y-21825636D01*
X105658900Y-21717000D01*
X129591100Y-21717000D01*
X129699736Y-21825636D01*
X130023539Y-22041995D01*
X130383330Y-22191025D01*
X130765282Y-22267000D01*
X131154718Y-22267000D01*
X131536670Y-22191025D01*
X131896461Y-22041995D01*
X132220264Y-21825636D01*
X132328900Y-21717000D01*
X138303000Y-21717000D01*
X138303000Y-29718000D01*
X59690000Y-29718000D01*
X59665224Y-29720440D01*
X59641399Y-29727667D01*
X59619443Y-29739403D01*
X59600197Y-29755197D01*
X59584403Y-29774443D01*
X59572667Y-29796399D01*
X59565440Y-29820224D01*
X59563000Y-29845000D01*
X59563000Y-37973000D01*
X24257000Y-37973000D01*
X24257000Y-30142470D01*
X28323000Y-30142470D01*
X28323000Y-30817530D01*
X28454697Y-31479619D01*
X28713032Y-32103293D01*
X29088075Y-32664585D01*
X29565415Y-33141925D01*
X30126707Y-33516968D01*
X30750381Y-33775303D01*
X31412470Y-33907000D01*
X32087530Y-33907000D01*
X32749619Y-33775303D01*
X33373293Y-33516968D01*
X33934585Y-33141925D01*
X34411925Y-32664585D01*
X34786968Y-32103293D01*
X35045303Y-31479619D01*
X35177000Y-30817530D01*
X35177000Y-30142470D01*
X38483000Y-30142470D01*
X38483000Y-30817530D01*
X38614697Y-31479619D01*
X38873032Y-32103293D01*
X39248075Y-32664585D01*
X39725415Y-33141925D01*
X40286707Y-33516968D01*
X40910381Y-33775303D01*
X41572470Y-33907000D01*
X42247530Y-33907000D01*
X42909619Y-33775303D01*
X43533293Y-33516968D01*
X44094585Y-33141925D01*
X44114553Y-33121957D01*
X50379809Y-33121957D01*
X50689673Y-33524832D01*
X51310213Y-33735615D01*
X51959951Y-33821287D01*
X52613918Y-33778554D01*
X53246983Y-33609060D01*
X53450327Y-33524832D01*
X53760191Y-33121957D01*
X52070000Y-31431766D01*
X50379809Y-33121957D01*
X44114553Y-33121957D01*
X44571925Y-32664585D01*
X44946968Y-32103293D01*
X45205303Y-31479619D01*
X45337000Y-30817530D01*
X45337000Y-30369951D01*
X48728713Y-30369951D01*
X48771446Y-31023918D01*
X48940940Y-31656983D01*
X49025168Y-31860327D01*
X49428043Y-32170191D01*
X51118234Y-30480000D01*
X53021766Y-30480000D01*
X54711957Y-32170191D01*
X55114832Y-31860327D01*
X55325615Y-31239787D01*
X55411287Y-30590049D01*
X55368554Y-29936082D01*
X55199060Y-29303017D01*
X55114832Y-29099673D01*
X54711957Y-28789809D01*
X53021766Y-30480000D01*
X51118234Y-30480000D01*
X49428043Y-28789809D01*
X49025168Y-29099673D01*
X48814385Y-29720213D01*
X48728713Y-30369951D01*
X45337000Y-30369951D01*
X45337000Y-30142470D01*
X45205303Y-29480381D01*
X44946968Y-28856707D01*
X44571925Y-28295415D01*
X44114553Y-27838043D01*
X50379809Y-27838043D01*
X52070000Y-29528234D01*
X53760191Y-27838043D01*
X53450327Y-27435168D01*
X52829787Y-27224385D01*
X52180049Y-27138713D01*
X51526082Y-27181446D01*
X50893017Y-27350940D01*
X50689673Y-27435168D01*
X50379809Y-27838043D01*
X44114553Y-27838043D01*
X44094585Y-27818075D01*
X43533293Y-27443032D01*
X42909619Y-27184697D01*
X42247530Y-27053000D01*
X41572470Y-27053000D01*
X40910381Y-27184697D01*
X40286707Y-27443032D01*
X39725415Y-27818075D01*
X39248075Y-28295415D01*
X38873032Y-28856707D01*
X38614697Y-29480381D01*
X38483000Y-30142470D01*
X35177000Y-30142470D01*
X35045303Y-29480381D01*
X34786968Y-28856707D01*
X34411925Y-28295415D01*
X33934585Y-27818075D01*
X33373293Y-27443032D01*
X32749619Y-27184697D01*
X32087530Y-27053000D01*
X31412470Y-27053000D01*
X30750381Y-27184697D01*
X30126707Y-27443032D01*
X29565415Y-27818075D01*
X29088075Y-28295415D01*
X28713032Y-28856707D01*
X28454697Y-29480381D01*
X28323000Y-30142470D01*
X24257000Y-30142470D01*
X24257000Y-25582017D01*
X59543000Y-25582017D01*
X59543000Y-26197983D01*
X59663169Y-26802112D01*
X59898889Y-27371190D01*
X60241101Y-27883346D01*
X60676654Y-28318899D01*
X61188810Y-28661111D01*
X61757888Y-28896831D01*
X62362017Y-29017000D01*
X62977983Y-29017000D01*
X63582112Y-28896831D01*
X64151190Y-28661111D01*
X64663346Y-28318899D01*
X65098899Y-27883346D01*
X65441111Y-27371190D01*
X65676831Y-26802112D01*
X65797000Y-26197983D01*
X65797000Y-25982017D01*
X67993000Y-25982017D01*
X67993000Y-26597983D01*
X68113169Y-27202112D01*
X68348889Y-27771190D01*
X68691101Y-28283346D01*
X69126654Y-28718899D01*
X69638810Y-29061111D01*
X70207888Y-29296831D01*
X70812017Y-29417000D01*
X71427983Y-29417000D01*
X72032112Y-29296831D01*
X72601190Y-29061111D01*
X73113346Y-28718899D01*
X73548899Y-28283346D01*
X73891111Y-27771190D01*
X74126831Y-27202112D01*
X74247000Y-26597983D01*
X74247000Y-25982017D01*
X74167435Y-25582017D01*
X76443000Y-25582017D01*
X76443000Y-26197983D01*
X76563169Y-26802112D01*
X76798889Y-27371190D01*
X77141101Y-27883346D01*
X77576654Y-28318899D01*
X78088810Y-28661111D01*
X78657888Y-28896831D01*
X79262017Y-29017000D01*
X79877983Y-29017000D01*
X80482112Y-28896831D01*
X81051190Y-28661111D01*
X81563346Y-28318899D01*
X81998899Y-27883346D01*
X82341111Y-27371190D01*
X82576831Y-26802112D01*
X82697000Y-26197983D01*
X82697000Y-25582017D01*
X86213000Y-25582017D01*
X86213000Y-26197983D01*
X86333169Y-26802112D01*
X86568889Y-27371190D01*
X86911101Y-27883346D01*
X87346654Y-28318899D01*
X87858810Y-28661111D01*
X88427888Y-28896831D01*
X89032017Y-29017000D01*
X89647983Y-29017000D01*
X90252112Y-28896831D01*
X90821190Y-28661111D01*
X91333346Y-28318899D01*
X91768899Y-27883346D01*
X92111111Y-27371190D01*
X92346831Y-26802112D01*
X92467000Y-26197983D01*
X92467000Y-25982017D01*
X94663000Y-25982017D01*
X94663000Y-26597983D01*
X94783169Y-27202112D01*
X95018889Y-27771190D01*
X95361101Y-28283346D01*
X95796654Y-28718899D01*
X96308810Y-29061111D01*
X96877888Y-29296831D01*
X97482017Y-29417000D01*
X98097983Y-29417000D01*
X98702112Y-29296831D01*
X99271190Y-29061111D01*
X99783346Y-28718899D01*
X100218899Y-28283346D01*
X100561111Y-27771190D01*
X100796831Y-27202112D01*
X100917000Y-26597983D01*
X100917000Y-25982017D01*
X100837435Y-25582017D01*
X103113000Y-25582017D01*
X103113000Y-26197983D01*
X103233169Y-26802112D01*
X103468889Y-27371190D01*
X103811101Y-27883346D01*
X104246654Y-28318899D01*
X104758810Y-28661111D01*
X105327888Y-28896831D01*
X105932017Y-29017000D01*
X106547983Y-29017000D01*
X107152112Y-28896831D01*
X107721190Y-28661111D01*
X108233346Y-28318899D01*
X108668899Y-27883346D01*
X109011111Y-27371190D01*
X109246831Y-26802112D01*
X109367000Y-26197983D01*
X109367000Y-25582017D01*
X112883000Y-25582017D01*
X112883000Y-26197983D01*
X113003169Y-26802112D01*
X113238889Y-27371190D01*
X113581101Y-27883346D01*
X114016654Y-28318899D01*
X114528810Y-28661111D01*
X115097888Y-28896831D01*
X115702017Y-29017000D01*
X116317983Y-29017000D01*
X116922112Y-28896831D01*
X117365554Y-28713151D01*
X122988615Y-28713151D01*
X123260946Y-29085332D01*
X123829328Y-29265544D01*
X124421946Y-29331408D01*
X125016027Y-29280392D01*
X125588740Y-29114457D01*
X125659054Y-29085332D01*
X125931385Y-28713151D01*
X124460000Y-27241766D01*
X122988615Y-28713151D01*
X117365554Y-28713151D01*
X117491190Y-28661111D01*
X118003346Y-28318899D01*
X118438899Y-27883346D01*
X118781111Y-27371190D01*
X119016831Y-26802112D01*
X119126266Y-26251946D01*
X121418592Y-26251946D01*
X121469608Y-26846027D01*
X121635543Y-27418740D01*
X121664668Y-27489054D01*
X122036849Y-27761385D01*
X123508234Y-26290000D01*
X125411766Y-26290000D01*
X126883151Y-27761385D01*
X127255332Y-27489054D01*
X127435544Y-26920672D01*
X127501408Y-26328054D01*
X127450392Y-25733973D01*
X127406366Y-25582017D01*
X129783000Y-25582017D01*
X129783000Y-26197983D01*
X129903169Y-26802112D01*
X130138889Y-27371190D01*
X130481101Y-27883346D01*
X130916654Y-28318899D01*
X131428810Y-28661111D01*
X131997888Y-28896831D01*
X132602017Y-29017000D01*
X133217983Y-29017000D01*
X133822112Y-28896831D01*
X134391190Y-28661111D01*
X134903346Y-28318899D01*
X135338899Y-27883346D01*
X135681111Y-27371190D01*
X135916831Y-26802112D01*
X136037000Y-26197983D01*
X136037000Y-25582017D01*
X135916831Y-24977888D01*
X135681111Y-24408810D01*
X135338899Y-23896654D01*
X134903346Y-23461101D01*
X134391190Y-23118889D01*
X133822112Y-22883169D01*
X133217983Y-22763000D01*
X132602017Y-22763000D01*
X131997888Y-22883169D01*
X131428810Y-23118889D01*
X130916654Y-23461101D01*
X130481101Y-23896654D01*
X130138889Y-24408810D01*
X129903169Y-24977888D01*
X129783000Y-25582017D01*
X127406366Y-25582017D01*
X127284457Y-25161260D01*
X127255332Y-25090946D01*
X126883151Y-24818615D01*
X125411766Y-26290000D01*
X123508234Y-26290000D01*
X122036849Y-24818615D01*
X121664668Y-25090946D01*
X121484456Y-25659328D01*
X121418592Y-26251946D01*
X119126266Y-26251946D01*
X119137000Y-26197983D01*
X119137000Y-25582017D01*
X119016831Y-24977888D01*
X118781111Y-24408810D01*
X118438899Y-23896654D01*
X118409094Y-23866849D01*
X122988615Y-23866849D01*
X124460000Y-25338234D01*
X125931385Y-23866849D01*
X125659054Y-23494668D01*
X125090672Y-23314456D01*
X124498054Y-23248592D01*
X123903973Y-23299608D01*
X123331260Y-23465543D01*
X123260946Y-23494668D01*
X122988615Y-23866849D01*
X118409094Y-23866849D01*
X118003346Y-23461101D01*
X117491190Y-23118889D01*
X116922112Y-22883169D01*
X116317983Y-22763000D01*
X115702017Y-22763000D01*
X115097888Y-22883169D01*
X114528810Y-23118889D01*
X114016654Y-23461101D01*
X113581101Y-23896654D01*
X113238889Y-24408810D01*
X113003169Y-24977888D01*
X112883000Y-25582017D01*
X109367000Y-25582017D01*
X109246831Y-24977888D01*
X109011111Y-24408810D01*
X108668899Y-23896654D01*
X108233346Y-23461101D01*
X107721190Y-23118889D01*
X107152112Y-22883169D01*
X106547983Y-22763000D01*
X105932017Y-22763000D01*
X105327888Y-22883169D01*
X104758810Y-23118889D01*
X104246654Y-23461101D01*
X103811101Y-23896654D01*
X103468889Y-24408810D01*
X103233169Y-24977888D01*
X103113000Y-25582017D01*
X100837435Y-25582017D01*
X100796831Y-25377888D01*
X100561111Y-24808810D01*
X100218899Y-24296654D01*
X99783346Y-23861101D01*
X99271190Y-23518889D01*
X98702112Y-23283169D01*
X98097983Y-23163000D01*
X97482017Y-23163000D01*
X96877888Y-23283169D01*
X96308810Y-23518889D01*
X95796654Y-23861101D01*
X95361101Y-24296654D01*
X95018889Y-24808810D01*
X94783169Y-25377888D01*
X94663000Y-25982017D01*
X92467000Y-25982017D01*
X92467000Y-25582017D01*
X92346831Y-24977888D01*
X92111111Y-24408810D01*
X91768899Y-23896654D01*
X91333346Y-23461101D01*
X90821190Y-23118889D01*
X90252112Y-22883169D01*
X89647983Y-22763000D01*
X89032017Y-22763000D01*
X88427888Y-22883169D01*
X87858810Y-23118889D01*
X87346654Y-23461101D01*
X86911101Y-23896654D01*
X86568889Y-24408810D01*
X86333169Y-24977888D01*
X86213000Y-25582017D01*
X82697000Y-25582017D01*
X82576831Y-24977888D01*
X82341111Y-24408810D01*
X81998899Y-23896654D01*
X81563346Y-23461101D01*
X81051190Y-23118889D01*
X80482112Y-22883169D01*
X79877983Y-22763000D01*
X79262017Y-22763000D01*
X78657888Y-22883169D01*
X78088810Y-23118889D01*
X77576654Y-23461101D01*
X77141101Y-23896654D01*
X76798889Y-24408810D01*
X76563169Y-24977888D01*
X76443000Y-25582017D01*
X74167435Y-25582017D01*
X74126831Y-25377888D01*
X73891111Y-24808810D01*
X73548899Y-24296654D01*
X73113346Y-23861101D01*
X72601190Y-23518889D01*
X72032112Y-23283169D01*
X71427983Y-23163000D01*
X70812017Y-23163000D01*
X70207888Y-23283169D01*
X69638810Y-23518889D01*
X69126654Y-23861101D01*
X68691101Y-24296654D01*
X68348889Y-24808810D01*
X68113169Y-25377888D01*
X67993000Y-25982017D01*
X65797000Y-25982017D01*
X65797000Y-25582017D01*
X65676831Y-24977888D01*
X65441111Y-24408810D01*
X65098899Y-23896654D01*
X64663346Y-23461101D01*
X64151190Y-23118889D01*
X63582112Y-22883169D01*
X62977983Y-22763000D01*
X62362017Y-22763000D01*
X61757888Y-22883169D01*
X61188810Y-23118889D01*
X60676654Y-23461101D01*
X60241101Y-23896654D01*
X59898889Y-24408810D01*
X59663169Y-24977888D01*
X59543000Y-25582017D01*
X24257000Y-25582017D01*
X24257000Y-21717000D01*
X76251100Y-21717000D01*
X76359736Y-21825636D01*
X76359736Y-21825636D01*
G37*
X76359736Y-21825636D02*
X76683539Y-22041995D01*
X77043330Y-22191025D01*
X77425282Y-22267000D01*
X77814718Y-22267000D01*
X78196670Y-22191025D01*
X78556461Y-22041995D01*
X78880264Y-21825636D01*
X78988900Y-21717000D01*
X102921100Y-21717000D01*
X103029736Y-21825636D01*
X103353539Y-22041995D01*
X103713330Y-22191025D01*
X104095282Y-22267000D01*
X104484718Y-22267000D01*
X104866670Y-22191025D01*
X105226461Y-22041995D01*
X105550264Y-21825636D01*
X105658900Y-21717000D01*
X129591100Y-21717000D01*
X129699736Y-21825636D01*
X130023539Y-22041995D01*
X130383330Y-22191025D01*
X130765282Y-22267000D01*
X131154718Y-22267000D01*
X131536670Y-22191025D01*
X131896461Y-22041995D01*
X132220264Y-21825636D01*
X132328900Y-21717000D01*
X138303000Y-21717000D01*
X138303000Y-29718000D01*
X59690000Y-29718000D01*
X59665224Y-29720440D01*
X59641399Y-29727667D01*
X59619443Y-29739403D01*
X59600197Y-29755197D01*
X59584403Y-29774443D01*
X59572667Y-29796399D01*
X59565440Y-29820224D01*
X59563000Y-29845000D01*
X59563000Y-37973000D01*
X24257000Y-37973000D01*
X24257000Y-30142470D01*
X28323000Y-30142470D01*
X28323000Y-30817530D01*
X28454697Y-31479619D01*
X28713032Y-32103293D01*
X29088075Y-32664585D01*
X29565415Y-33141925D01*
X30126707Y-33516968D01*
X30750381Y-33775303D01*
X31412470Y-33907000D01*
X32087530Y-33907000D01*
X32749619Y-33775303D01*
X33373293Y-33516968D01*
X33934585Y-33141925D01*
X34411925Y-32664585D01*
X34786968Y-32103293D01*
X35045303Y-31479619D01*
X35177000Y-30817530D01*
X35177000Y-30142470D01*
X38483000Y-30142470D01*
X38483000Y-30817530D01*
X38614697Y-31479619D01*
X38873032Y-32103293D01*
X39248075Y-32664585D01*
X39725415Y-33141925D01*
X40286707Y-33516968D01*
X40910381Y-33775303D01*
X41572470Y-33907000D01*
X42247530Y-33907000D01*
X42909619Y-33775303D01*
X43533293Y-33516968D01*
X44094585Y-33141925D01*
X44114553Y-33121957D01*
X50379809Y-33121957D01*
X50689673Y-33524832D01*
X51310213Y-33735615D01*
X51959951Y-33821287D01*
X52613918Y-33778554D01*
X53246983Y-33609060D01*
X53450327Y-33524832D01*
X53760191Y-33121957D01*
X52070000Y-31431766D01*
X50379809Y-33121957D01*
X44114553Y-33121957D01*
X44571925Y-32664585D01*
X44946968Y-32103293D01*
X45205303Y-31479619D01*
X45337000Y-30817530D01*
X45337000Y-30369951D01*
X48728713Y-30369951D01*
X48771446Y-31023918D01*
X48940940Y-31656983D01*
X49025168Y-31860327D01*
X49428043Y-32170191D01*
X51118234Y-30480000D01*
X53021766Y-30480000D01*
X54711957Y-32170191D01*
X55114832Y-31860327D01*
X55325615Y-31239787D01*
X55411287Y-30590049D01*
X55368554Y-29936082D01*
X55199060Y-29303017D01*
X55114832Y-29099673D01*
X54711957Y-28789809D01*
X53021766Y-30480000D01*
X51118234Y-30480000D01*
X49428043Y-28789809D01*
X49025168Y-29099673D01*
X48814385Y-29720213D01*
X48728713Y-30369951D01*
X45337000Y-30369951D01*
X45337000Y-30142470D01*
X45205303Y-29480381D01*
X44946968Y-28856707D01*
X44571925Y-28295415D01*
X44114553Y-27838043D01*
X50379809Y-27838043D01*
X52070000Y-29528234D01*
X53760191Y-27838043D01*
X53450327Y-27435168D01*
X52829787Y-27224385D01*
X52180049Y-27138713D01*
X51526082Y-27181446D01*
X50893017Y-27350940D01*
X50689673Y-27435168D01*
X50379809Y-27838043D01*
X44114553Y-27838043D01*
X44094585Y-27818075D01*
X43533293Y-27443032D01*
X42909619Y-27184697D01*
X42247530Y-27053000D01*
X41572470Y-27053000D01*
X40910381Y-27184697D01*
X40286707Y-27443032D01*
X39725415Y-27818075D01*
X39248075Y-28295415D01*
X38873032Y-28856707D01*
X38614697Y-29480381D01*
X38483000Y-30142470D01*
X35177000Y-30142470D01*
X35045303Y-29480381D01*
X34786968Y-28856707D01*
X34411925Y-28295415D01*
X33934585Y-27818075D01*
X33373293Y-27443032D01*
X32749619Y-27184697D01*
X32087530Y-27053000D01*
X31412470Y-27053000D01*
X30750381Y-27184697D01*
X30126707Y-27443032D01*
X29565415Y-27818075D01*
X29088075Y-28295415D01*
X28713032Y-28856707D01*
X28454697Y-29480381D01*
X28323000Y-30142470D01*
X24257000Y-30142470D01*
X24257000Y-25582017D01*
X59543000Y-25582017D01*
X59543000Y-26197983D01*
X59663169Y-26802112D01*
X59898889Y-27371190D01*
X60241101Y-27883346D01*
X60676654Y-28318899D01*
X61188810Y-28661111D01*
X61757888Y-28896831D01*
X62362017Y-29017000D01*
X62977983Y-29017000D01*
X63582112Y-28896831D01*
X64151190Y-28661111D01*
X64663346Y-28318899D01*
X65098899Y-27883346D01*
X65441111Y-27371190D01*
X65676831Y-26802112D01*
X65797000Y-26197983D01*
X65797000Y-25982017D01*
X67993000Y-25982017D01*
X67993000Y-26597983D01*
X68113169Y-27202112D01*
X68348889Y-27771190D01*
X68691101Y-28283346D01*
X69126654Y-28718899D01*
X69638810Y-29061111D01*
X70207888Y-29296831D01*
X70812017Y-29417000D01*
X71427983Y-29417000D01*
X72032112Y-29296831D01*
X72601190Y-29061111D01*
X73113346Y-28718899D01*
X73548899Y-28283346D01*
X73891111Y-27771190D01*
X74126831Y-27202112D01*
X74247000Y-26597983D01*
X74247000Y-25982017D01*
X74167435Y-25582017D01*
X76443000Y-25582017D01*
X76443000Y-26197983D01*
X76563169Y-26802112D01*
X76798889Y-27371190D01*
X77141101Y-27883346D01*
X77576654Y-28318899D01*
X78088810Y-28661111D01*
X78657888Y-28896831D01*
X79262017Y-29017000D01*
X79877983Y-29017000D01*
X80482112Y-28896831D01*
X81051190Y-28661111D01*
X81563346Y-28318899D01*
X81998899Y-27883346D01*
X82341111Y-27371190D01*
X82576831Y-26802112D01*
X82697000Y-26197983D01*
X82697000Y-25582017D01*
X86213000Y-25582017D01*
X86213000Y-26197983D01*
X86333169Y-26802112D01*
X86568889Y-27371190D01*
X86911101Y-27883346D01*
X87346654Y-28318899D01*
X87858810Y-28661111D01*
X88427888Y-28896831D01*
X89032017Y-29017000D01*
X89647983Y-29017000D01*
X90252112Y-28896831D01*
X90821190Y-28661111D01*
X91333346Y-28318899D01*
X91768899Y-27883346D01*
X92111111Y-27371190D01*
X92346831Y-26802112D01*
X92467000Y-26197983D01*
X92467000Y-25982017D01*
X94663000Y-25982017D01*
X94663000Y-26597983D01*
X94783169Y-27202112D01*
X95018889Y-27771190D01*
X95361101Y-28283346D01*
X95796654Y-28718899D01*
X96308810Y-29061111D01*
X96877888Y-29296831D01*
X97482017Y-29417000D01*
X98097983Y-29417000D01*
X98702112Y-29296831D01*
X99271190Y-29061111D01*
X99783346Y-28718899D01*
X100218899Y-28283346D01*
X100561111Y-27771190D01*
X100796831Y-27202112D01*
X100917000Y-26597983D01*
X100917000Y-25982017D01*
X100837435Y-25582017D01*
X103113000Y-25582017D01*
X103113000Y-26197983D01*
X103233169Y-26802112D01*
X103468889Y-27371190D01*
X103811101Y-27883346D01*
X104246654Y-28318899D01*
X104758810Y-28661111D01*
X105327888Y-28896831D01*
X105932017Y-29017000D01*
X106547983Y-29017000D01*
X107152112Y-28896831D01*
X107721190Y-28661111D01*
X108233346Y-28318899D01*
X108668899Y-27883346D01*
X109011111Y-27371190D01*
X109246831Y-26802112D01*
X109367000Y-26197983D01*
X109367000Y-25582017D01*
X112883000Y-25582017D01*
X112883000Y-26197983D01*
X113003169Y-26802112D01*
X113238889Y-27371190D01*
X113581101Y-27883346D01*
X114016654Y-28318899D01*
X114528810Y-28661111D01*
X115097888Y-28896831D01*
X115702017Y-29017000D01*
X116317983Y-29017000D01*
X116922112Y-28896831D01*
X117365554Y-28713151D01*
X122988615Y-28713151D01*
X123260946Y-29085332D01*
X123829328Y-29265544D01*
X124421946Y-29331408D01*
X125016027Y-29280392D01*
X125588740Y-29114457D01*
X125659054Y-29085332D01*
X125931385Y-28713151D01*
X124460000Y-27241766D01*
X122988615Y-28713151D01*
X117365554Y-28713151D01*
X117491190Y-28661111D01*
X118003346Y-28318899D01*
X118438899Y-27883346D01*
X118781111Y-27371190D01*
X119016831Y-26802112D01*
X119126266Y-26251946D01*
X121418592Y-26251946D01*
X121469608Y-26846027D01*
X121635543Y-27418740D01*
X121664668Y-27489054D01*
X122036849Y-27761385D01*
X123508234Y-26290000D01*
X125411766Y-26290000D01*
X126883151Y-27761385D01*
X127255332Y-27489054D01*
X127435544Y-26920672D01*
X127501408Y-26328054D01*
X127450392Y-25733973D01*
X127406366Y-25582017D01*
X129783000Y-25582017D01*
X129783000Y-26197983D01*
X129903169Y-26802112D01*
X130138889Y-27371190D01*
X130481101Y-27883346D01*
X130916654Y-28318899D01*
X131428810Y-28661111D01*
X131997888Y-28896831D01*
X132602017Y-29017000D01*
X133217983Y-29017000D01*
X133822112Y-28896831D01*
X134391190Y-28661111D01*
X134903346Y-28318899D01*
X135338899Y-27883346D01*
X135681111Y-27371190D01*
X135916831Y-26802112D01*
X136037000Y-26197983D01*
X136037000Y-25582017D01*
X135916831Y-24977888D01*
X135681111Y-24408810D01*
X135338899Y-23896654D01*
X134903346Y-23461101D01*
X134391190Y-23118889D01*
X133822112Y-22883169D01*
X133217983Y-22763000D01*
X132602017Y-22763000D01*
X131997888Y-22883169D01*
X131428810Y-23118889D01*
X130916654Y-23461101D01*
X130481101Y-23896654D01*
X130138889Y-24408810D01*
X129903169Y-24977888D01*
X129783000Y-25582017D01*
X127406366Y-25582017D01*
X127284457Y-25161260D01*
X127255332Y-25090946D01*
X126883151Y-24818615D01*
X125411766Y-26290000D01*
X123508234Y-26290000D01*
X122036849Y-24818615D01*
X121664668Y-25090946D01*
X121484456Y-25659328D01*
X121418592Y-26251946D01*
X119126266Y-26251946D01*
X119137000Y-26197983D01*
X119137000Y-25582017D01*
X119016831Y-24977888D01*
X118781111Y-24408810D01*
X118438899Y-23896654D01*
X118409094Y-23866849D01*
X122988615Y-23866849D01*
X124460000Y-25338234D01*
X125931385Y-23866849D01*
X125659054Y-23494668D01*
X125090672Y-23314456D01*
X124498054Y-23248592D01*
X123903973Y-23299608D01*
X123331260Y-23465543D01*
X123260946Y-23494668D01*
X122988615Y-23866849D01*
X118409094Y-23866849D01*
X118003346Y-23461101D01*
X117491190Y-23118889D01*
X116922112Y-22883169D01*
X116317983Y-22763000D01*
X115702017Y-22763000D01*
X115097888Y-22883169D01*
X114528810Y-23118889D01*
X114016654Y-23461101D01*
X113581101Y-23896654D01*
X113238889Y-24408810D01*
X113003169Y-24977888D01*
X112883000Y-25582017D01*
X109367000Y-25582017D01*
X109246831Y-24977888D01*
X109011111Y-24408810D01*
X108668899Y-23896654D01*
X108233346Y-23461101D01*
X107721190Y-23118889D01*
X107152112Y-22883169D01*
X106547983Y-22763000D01*
X105932017Y-22763000D01*
X105327888Y-22883169D01*
X104758810Y-23118889D01*
X104246654Y-23461101D01*
X103811101Y-23896654D01*
X103468889Y-24408810D01*
X103233169Y-24977888D01*
X103113000Y-25582017D01*
X100837435Y-25582017D01*
X100796831Y-25377888D01*
X100561111Y-24808810D01*
X100218899Y-24296654D01*
X99783346Y-23861101D01*
X99271190Y-23518889D01*
X98702112Y-23283169D01*
X98097983Y-23163000D01*
X97482017Y-23163000D01*
X96877888Y-23283169D01*
X96308810Y-23518889D01*
X95796654Y-23861101D01*
X95361101Y-24296654D01*
X95018889Y-24808810D01*
X94783169Y-25377888D01*
X94663000Y-25982017D01*
X92467000Y-25982017D01*
X92467000Y-25582017D01*
X92346831Y-24977888D01*
X92111111Y-24408810D01*
X91768899Y-23896654D01*
X91333346Y-23461101D01*
X90821190Y-23118889D01*
X90252112Y-22883169D01*
X89647983Y-22763000D01*
X89032017Y-22763000D01*
X88427888Y-22883169D01*
X87858810Y-23118889D01*
X87346654Y-23461101D01*
X86911101Y-23896654D01*
X86568889Y-24408810D01*
X86333169Y-24977888D01*
X86213000Y-25582017D01*
X82697000Y-25582017D01*
X82576831Y-24977888D01*
X82341111Y-24408810D01*
X81998899Y-23896654D01*
X81563346Y-23461101D01*
X81051190Y-23118889D01*
X80482112Y-22883169D01*
X79877983Y-22763000D01*
X79262017Y-22763000D01*
X78657888Y-22883169D01*
X78088810Y-23118889D01*
X77576654Y-23461101D01*
X77141101Y-23896654D01*
X76798889Y-24408810D01*
X76563169Y-24977888D01*
X76443000Y-25582017D01*
X74167435Y-25582017D01*
X74126831Y-25377888D01*
X73891111Y-24808810D01*
X73548899Y-24296654D01*
X73113346Y-23861101D01*
X72601190Y-23518889D01*
X72032112Y-23283169D01*
X71427983Y-23163000D01*
X70812017Y-23163000D01*
X70207888Y-23283169D01*
X69638810Y-23518889D01*
X69126654Y-23861101D01*
X68691101Y-24296654D01*
X68348889Y-24808810D01*
X68113169Y-25377888D01*
X67993000Y-25982017D01*
X65797000Y-25982017D01*
X65797000Y-25582017D01*
X65676831Y-24977888D01*
X65441111Y-24408810D01*
X65098899Y-23896654D01*
X64663346Y-23461101D01*
X64151190Y-23118889D01*
X63582112Y-22883169D01*
X62977983Y-22763000D01*
X62362017Y-22763000D01*
X61757888Y-22883169D01*
X61188810Y-23118889D01*
X60676654Y-23461101D01*
X60241101Y-23896654D01*
X59898889Y-24408810D01*
X59663169Y-24977888D01*
X59543000Y-25582017D01*
X24257000Y-25582017D01*
X24257000Y-21717000D01*
X76251100Y-21717000D01*
X76359736Y-21825636D01*
G36*
X138303000Y-20663000D02*
G01*
X132901537Y-20663000D01*
X132937000Y-20484718D01*
X132937000Y-20095282D01*
X132861025Y-19713330D01*
X132711995Y-19353539D01*
X132495636Y-19029736D01*
X132220264Y-18754364D01*
X131896461Y-18538005D01*
X131536670Y-18388975D01*
X131154718Y-18313000D01*
X130765282Y-18313000D01*
X130383330Y-18388975D01*
X130023539Y-18538005D01*
X129699736Y-18754364D01*
X129424364Y-19029736D01*
X129208005Y-19353539D01*
X129058975Y-19713330D01*
X128983000Y-20095282D01*
X128983000Y-20484718D01*
X129018463Y-20663000D01*
X106231537Y-20663000D01*
X106267000Y-20484718D01*
X106267000Y-20095282D01*
X106191025Y-19713330D01*
X106041995Y-19353539D01*
X105825636Y-19029736D01*
X105609051Y-18813151D01*
X122988615Y-18813151D01*
X123260946Y-19185332D01*
X123829328Y-19365544D01*
X124421946Y-19431408D01*
X125016027Y-19380392D01*
X125588740Y-19214457D01*
X125659054Y-19185332D01*
X125931385Y-18813151D01*
X124460000Y-17341766D01*
X122988615Y-18813151D01*
X105609051Y-18813151D01*
X105550264Y-18754364D01*
X105226461Y-18538005D01*
X104866670Y-18388975D01*
X104484718Y-18313000D01*
X104095282Y-18313000D01*
X103713330Y-18388975D01*
X103353539Y-18538005D01*
X103029736Y-18754364D01*
X102754364Y-19029736D01*
X102538005Y-19353539D01*
X102388975Y-19713330D01*
X102313000Y-20095282D01*
X102313000Y-20484718D01*
X102348463Y-20663000D01*
X79561537Y-20663000D01*
X79597000Y-20484718D01*
X79597000Y-20095282D01*
X79521025Y-19713330D01*
X79371995Y-19353539D01*
X79155636Y-19029736D01*
X78880264Y-18754364D01*
X78556461Y-18538005D01*
X78196670Y-18388975D01*
X77814718Y-18313000D01*
X77425282Y-18313000D01*
X77043330Y-18388975D01*
X76683539Y-18538005D01*
X76359736Y-18754364D01*
X76084364Y-19029736D01*
X75868005Y-19353539D01*
X75718975Y-19713330D01*
X75643000Y-20095282D01*
X75643000Y-20484718D01*
X75678463Y-20663000D01*
X24257000Y-20663000D01*
X24257000Y-14902470D01*
X28323000Y-14902470D01*
X28323000Y-15577530D01*
X28454697Y-16239619D01*
X28713032Y-16863293D01*
X29088075Y-17424585D01*
X29565415Y-17901925D01*
X30126707Y-18276968D01*
X30750381Y-18535303D01*
X31412470Y-18667000D01*
X32087530Y-18667000D01*
X32749619Y-18535303D01*
X33373293Y-18276968D01*
X33934585Y-17901925D01*
X34411925Y-17424585D01*
X34786968Y-16863293D01*
X35045303Y-16239619D01*
X35177000Y-15577530D01*
X35177000Y-14902470D01*
X38483000Y-14902470D01*
X38483000Y-15577530D01*
X38614697Y-16239619D01*
X38873032Y-16863293D01*
X39248075Y-17424585D01*
X39725415Y-17901925D01*
X40286707Y-18276968D01*
X40910381Y-18535303D01*
X41572470Y-18667000D01*
X42247530Y-18667000D01*
X42909619Y-18535303D01*
X43533293Y-18276968D01*
X44094585Y-17901925D01*
X44114553Y-17881957D01*
X50379809Y-17881957D01*
X50689673Y-18284832D01*
X51310213Y-18495615D01*
X51959951Y-18581287D01*
X52613918Y-18538554D01*
X53246983Y-18369060D01*
X53450327Y-18284832D01*
X53760191Y-17881957D01*
X52070000Y-16191766D01*
X50379809Y-17881957D01*
X44114553Y-17881957D01*
X44571925Y-17424585D01*
X44946968Y-16863293D01*
X45205303Y-16239619D01*
X45337000Y-15577530D01*
X45337000Y-15129951D01*
X48728713Y-15129951D01*
X48771446Y-15783918D01*
X48940940Y-16416983D01*
X49025168Y-16620327D01*
X49428043Y-16930191D01*
X51118234Y-15240000D01*
X53021766Y-15240000D01*
X54711957Y-16930191D01*
X55114832Y-16620327D01*
X55297683Y-16082017D01*
X67993000Y-16082017D01*
X67993000Y-16697983D01*
X68113169Y-17302112D01*
X68348889Y-17871190D01*
X68691101Y-18383346D01*
X69126654Y-18818899D01*
X69638810Y-19161111D01*
X70207888Y-19396831D01*
X70812017Y-19517000D01*
X71427983Y-19517000D01*
X72032112Y-19396831D01*
X72601190Y-19161111D01*
X73113346Y-18818899D01*
X73548899Y-18383346D01*
X73891111Y-17871190D01*
X74126831Y-17302112D01*
X74247000Y-16697983D01*
X74247000Y-16082017D01*
X94663000Y-16082017D01*
X94663000Y-16697983D01*
X94783169Y-17302112D01*
X95018889Y-17871190D01*
X95361101Y-18383346D01*
X95796654Y-18818899D01*
X96308810Y-19161111D01*
X96877888Y-19396831D01*
X97482017Y-19517000D01*
X98097983Y-19517000D01*
X98702112Y-19396831D01*
X99271190Y-19161111D01*
X99783346Y-18818899D01*
X100218899Y-18383346D01*
X100561111Y-17871190D01*
X100796831Y-17302112D01*
X100917000Y-16697983D01*
X100917000Y-16351946D01*
X121418592Y-16351946D01*
X121469608Y-16946027D01*
X121635543Y-17518740D01*
X121664668Y-17589054D01*
X122036849Y-17861385D01*
X123508234Y-16390000D01*
X125411766Y-16390000D01*
X126883151Y-17861385D01*
X127255332Y-17589054D01*
X127435544Y-17020672D01*
X127501408Y-16428054D01*
X127450392Y-15833973D01*
X127284457Y-15261260D01*
X127255332Y-15190946D01*
X126883151Y-14918615D01*
X125411766Y-16390000D01*
X123508234Y-16390000D01*
X122036849Y-14918615D01*
X121664668Y-15190946D01*
X121484456Y-15759328D01*
X121418592Y-16351946D01*
X100917000Y-16351946D01*
X100917000Y-16082017D01*
X100796831Y-15477888D01*
X100561111Y-14908810D01*
X100218899Y-14396654D01*
X99789094Y-13966849D01*
X122988615Y-13966849D01*
X124460000Y-15438234D01*
X125931385Y-13966849D01*
X125659054Y-13594668D01*
X125090672Y-13414456D01*
X124498054Y-13348592D01*
X123903973Y-13399608D01*
X123331260Y-13565543D01*
X123260946Y-13594668D01*
X122988615Y-13966849D01*
X99789094Y-13966849D01*
X99783346Y-13961101D01*
X99271190Y-13618889D01*
X98702112Y-13383169D01*
X98097983Y-13263000D01*
X97482017Y-13263000D01*
X96877888Y-13383169D01*
X96308810Y-13618889D01*
X95796654Y-13961101D01*
X95361101Y-14396654D01*
X95018889Y-14908810D01*
X94783169Y-15477888D01*
X94663000Y-16082017D01*
X74247000Y-16082017D01*
X74126831Y-15477888D01*
X73891111Y-14908810D01*
X73548899Y-14396654D01*
X73113346Y-13961101D01*
X72601190Y-13618889D01*
X72032112Y-13383169D01*
X71427983Y-13263000D01*
X70812017Y-13263000D01*
X70207888Y-13383169D01*
X69638810Y-13618889D01*
X69126654Y-13961101D01*
X68691101Y-14396654D01*
X68348889Y-14908810D01*
X68113169Y-15477888D01*
X67993000Y-16082017D01*
X55297683Y-16082017D01*
X55325615Y-15999787D01*
X55411287Y-15350049D01*
X55368554Y-14696082D01*
X55199060Y-14063017D01*
X55114832Y-13859673D01*
X54711957Y-13549809D01*
X53021766Y-15240000D01*
X51118234Y-15240000D01*
X49428043Y-13549809D01*
X49025168Y-13859673D01*
X48814385Y-14480213D01*
X48728713Y-15129951D01*
X45337000Y-15129951D01*
X45337000Y-14902470D01*
X45205303Y-14240381D01*
X44946968Y-13616707D01*
X44571925Y-13055415D01*
X44114553Y-12598043D01*
X50379809Y-12598043D01*
X52070000Y-14288234D01*
X53760191Y-12598043D01*
X53450327Y-12195168D01*
X52829787Y-11984385D01*
X52180049Y-11898713D01*
X51526082Y-11941446D01*
X50893017Y-12110940D01*
X50689673Y-12195168D01*
X50379809Y-12598043D01*
X44114553Y-12598043D01*
X44094585Y-12578075D01*
X43533293Y-12203032D01*
X42909619Y-11944697D01*
X42247530Y-11813000D01*
X41572470Y-11813000D01*
X40910381Y-11944697D01*
X40286707Y-12203032D01*
X39725415Y-12578075D01*
X39248075Y-13055415D01*
X38873032Y-13616707D01*
X38614697Y-14240381D01*
X38483000Y-14902470D01*
X35177000Y-14902470D01*
X35045303Y-14240381D01*
X34786968Y-13616707D01*
X34411925Y-13055415D01*
X33934585Y-12578075D01*
X33373293Y-12203032D01*
X32749619Y-11944697D01*
X32087530Y-11813000D01*
X31412470Y-11813000D01*
X30750381Y-11944697D01*
X30126707Y-12203032D01*
X29565415Y-12578075D01*
X29088075Y-13055415D01*
X28713032Y-13616707D01*
X28454697Y-14240381D01*
X28323000Y-14902470D01*
X24257000Y-14902470D01*
X24257000Y-7747000D01*
X138303000Y-7747000D01*
X138303000Y-20663000D01*
X138303000Y-20663000D01*
G37*
X138303000Y-20663000D02*
X132901537Y-20663000D01*
X132937000Y-20484718D01*
X132937000Y-20095282D01*
X132861025Y-19713330D01*
X132711995Y-19353539D01*
X132495636Y-19029736D01*
X132220264Y-18754364D01*
X131896461Y-18538005D01*
X131536670Y-18388975D01*
X131154718Y-18313000D01*
X130765282Y-18313000D01*
X130383330Y-18388975D01*
X130023539Y-18538005D01*
X129699736Y-18754364D01*
X129424364Y-19029736D01*
X129208005Y-19353539D01*
X129058975Y-19713330D01*
X128983000Y-20095282D01*
X128983000Y-20484718D01*
X129018463Y-20663000D01*
X106231537Y-20663000D01*
X106267000Y-20484718D01*
X106267000Y-20095282D01*
X106191025Y-19713330D01*
X106041995Y-19353539D01*
X105825636Y-19029736D01*
X105609051Y-18813151D01*
X122988615Y-18813151D01*
X123260946Y-19185332D01*
X123829328Y-19365544D01*
X124421946Y-19431408D01*
X125016027Y-19380392D01*
X125588740Y-19214457D01*
X125659054Y-19185332D01*
X125931385Y-18813151D01*
X124460000Y-17341766D01*
X122988615Y-18813151D01*
X105609051Y-18813151D01*
X105550264Y-18754364D01*
X105226461Y-18538005D01*
X104866670Y-18388975D01*
X104484718Y-18313000D01*
X104095282Y-18313000D01*
X103713330Y-18388975D01*
X103353539Y-18538005D01*
X103029736Y-18754364D01*
X102754364Y-19029736D01*
X102538005Y-19353539D01*
X102388975Y-19713330D01*
X102313000Y-20095282D01*
X102313000Y-20484718D01*
X102348463Y-20663000D01*
X79561537Y-20663000D01*
X79597000Y-20484718D01*
X79597000Y-20095282D01*
X79521025Y-19713330D01*
X79371995Y-19353539D01*
X79155636Y-19029736D01*
X78880264Y-18754364D01*
X78556461Y-18538005D01*
X78196670Y-18388975D01*
X77814718Y-18313000D01*
X77425282Y-18313000D01*
X77043330Y-18388975D01*
X76683539Y-18538005D01*
X76359736Y-18754364D01*
X76084364Y-19029736D01*
X75868005Y-19353539D01*
X75718975Y-19713330D01*
X75643000Y-20095282D01*
X75643000Y-20484718D01*
X75678463Y-20663000D01*
X24257000Y-20663000D01*
X24257000Y-14902470D01*
X28323000Y-14902470D01*
X28323000Y-15577530D01*
X28454697Y-16239619D01*
X28713032Y-16863293D01*
X29088075Y-17424585D01*
X29565415Y-17901925D01*
X30126707Y-18276968D01*
X30750381Y-18535303D01*
X31412470Y-18667000D01*
X32087530Y-18667000D01*
X32749619Y-18535303D01*
X33373293Y-18276968D01*
X33934585Y-17901925D01*
X34411925Y-17424585D01*
X34786968Y-16863293D01*
X35045303Y-16239619D01*
X35177000Y-15577530D01*
X35177000Y-14902470D01*
X38483000Y-14902470D01*
X38483000Y-15577530D01*
X38614697Y-16239619D01*
X38873032Y-16863293D01*
X39248075Y-17424585D01*
X39725415Y-17901925D01*
X40286707Y-18276968D01*
X40910381Y-18535303D01*
X41572470Y-18667000D01*
X42247530Y-18667000D01*
X42909619Y-18535303D01*
X43533293Y-18276968D01*
X44094585Y-17901925D01*
X44114553Y-17881957D01*
X50379809Y-17881957D01*
X50689673Y-18284832D01*
X51310213Y-18495615D01*
X51959951Y-18581287D01*
X52613918Y-18538554D01*
X53246983Y-18369060D01*
X53450327Y-18284832D01*
X53760191Y-17881957D01*
X52070000Y-16191766D01*
X50379809Y-17881957D01*
X44114553Y-17881957D01*
X44571925Y-17424585D01*
X44946968Y-16863293D01*
X45205303Y-16239619D01*
X45337000Y-15577530D01*
X45337000Y-15129951D01*
X48728713Y-15129951D01*
X48771446Y-15783918D01*
X48940940Y-16416983D01*
X49025168Y-16620327D01*
X49428043Y-16930191D01*
X51118234Y-15240000D01*
X53021766Y-15240000D01*
X54711957Y-16930191D01*
X55114832Y-16620327D01*
X55297683Y-16082017D01*
X67993000Y-16082017D01*
X67993000Y-16697983D01*
X68113169Y-17302112D01*
X68348889Y-17871190D01*
X68691101Y-18383346D01*
X69126654Y-18818899D01*
X69638810Y-19161111D01*
X70207888Y-19396831D01*
X70812017Y-19517000D01*
X71427983Y-19517000D01*
X72032112Y-19396831D01*
X72601190Y-19161111D01*
X73113346Y-18818899D01*
X73548899Y-18383346D01*
X73891111Y-17871190D01*
X74126831Y-17302112D01*
X74247000Y-16697983D01*
X74247000Y-16082017D01*
X94663000Y-16082017D01*
X94663000Y-16697983D01*
X94783169Y-17302112D01*
X95018889Y-17871190D01*
X95361101Y-18383346D01*
X95796654Y-18818899D01*
X96308810Y-19161111D01*
X96877888Y-19396831D01*
X97482017Y-19517000D01*
X98097983Y-19517000D01*
X98702112Y-19396831D01*
X99271190Y-19161111D01*
X99783346Y-18818899D01*
X100218899Y-18383346D01*
X100561111Y-17871190D01*
X100796831Y-17302112D01*
X100917000Y-16697983D01*
X100917000Y-16351946D01*
X121418592Y-16351946D01*
X121469608Y-16946027D01*
X121635543Y-17518740D01*
X121664668Y-17589054D01*
X122036849Y-17861385D01*
X123508234Y-16390000D01*
X125411766Y-16390000D01*
X126883151Y-17861385D01*
X127255332Y-17589054D01*
X127435544Y-17020672D01*
X127501408Y-16428054D01*
X127450392Y-15833973D01*
X127284457Y-15261260D01*
X127255332Y-15190946D01*
X126883151Y-14918615D01*
X125411766Y-16390000D01*
X123508234Y-16390000D01*
X122036849Y-14918615D01*
X121664668Y-15190946D01*
X121484456Y-15759328D01*
X121418592Y-16351946D01*
X100917000Y-16351946D01*
X100917000Y-16082017D01*
X100796831Y-15477888D01*
X100561111Y-14908810D01*
X100218899Y-14396654D01*
X99789094Y-13966849D01*
X122988615Y-13966849D01*
X124460000Y-15438234D01*
X125931385Y-13966849D01*
X125659054Y-13594668D01*
X125090672Y-13414456D01*
X124498054Y-13348592D01*
X123903973Y-13399608D01*
X123331260Y-13565543D01*
X123260946Y-13594668D01*
X122988615Y-13966849D01*
X99789094Y-13966849D01*
X99783346Y-13961101D01*
X99271190Y-13618889D01*
X98702112Y-13383169D01*
X98097983Y-13263000D01*
X97482017Y-13263000D01*
X96877888Y-13383169D01*
X96308810Y-13618889D01*
X95796654Y-13961101D01*
X95361101Y-14396654D01*
X95018889Y-14908810D01*
X94783169Y-15477888D01*
X94663000Y-16082017D01*
X74247000Y-16082017D01*
X74126831Y-15477888D01*
X73891111Y-14908810D01*
X73548899Y-14396654D01*
X73113346Y-13961101D01*
X72601190Y-13618889D01*
X72032112Y-13383169D01*
X71427983Y-13263000D01*
X70812017Y-13263000D01*
X70207888Y-13383169D01*
X69638810Y-13618889D01*
X69126654Y-13961101D01*
X68691101Y-14396654D01*
X68348889Y-14908810D01*
X68113169Y-15477888D01*
X67993000Y-16082017D01*
X55297683Y-16082017D01*
X55325615Y-15999787D01*
X55411287Y-15350049D01*
X55368554Y-14696082D01*
X55199060Y-14063017D01*
X55114832Y-13859673D01*
X54711957Y-13549809D01*
X53021766Y-15240000D01*
X51118234Y-15240000D01*
X49428043Y-13549809D01*
X49025168Y-13859673D01*
X48814385Y-14480213D01*
X48728713Y-15129951D01*
X45337000Y-15129951D01*
X45337000Y-14902470D01*
X45205303Y-14240381D01*
X44946968Y-13616707D01*
X44571925Y-13055415D01*
X44114553Y-12598043D01*
X50379809Y-12598043D01*
X52070000Y-14288234D01*
X53760191Y-12598043D01*
X53450327Y-12195168D01*
X52829787Y-11984385D01*
X52180049Y-11898713D01*
X51526082Y-11941446D01*
X50893017Y-12110940D01*
X50689673Y-12195168D01*
X50379809Y-12598043D01*
X44114553Y-12598043D01*
X44094585Y-12578075D01*
X43533293Y-12203032D01*
X42909619Y-11944697D01*
X42247530Y-11813000D01*
X41572470Y-11813000D01*
X40910381Y-11944697D01*
X40286707Y-12203032D01*
X39725415Y-12578075D01*
X39248075Y-13055415D01*
X38873032Y-13616707D01*
X38614697Y-14240381D01*
X38483000Y-14902470D01*
X35177000Y-14902470D01*
X35045303Y-14240381D01*
X34786968Y-13616707D01*
X34411925Y-13055415D01*
X33934585Y-12578075D01*
X33373293Y-12203032D01*
X32749619Y-11944697D01*
X32087530Y-11813000D01*
X31412470Y-11813000D01*
X30750381Y-11944697D01*
X30126707Y-12203032D01*
X29565415Y-12578075D01*
X29088075Y-13055415D01*
X28713032Y-13616707D01*
X28454697Y-14240381D01*
X28323000Y-14902470D01*
X24257000Y-14902470D01*
X24257000Y-7747000D01*
X138303000Y-7747000D01*
X138303000Y-20663000D01*
D30*
G36*
X133524023Y-712162D02*
G01*
X133101211Y-1344946D01*
X132809972Y-2048059D01*
X132661500Y-2794478D01*
X132661500Y-3555522D01*
X132809972Y-4301941D01*
X133101211Y-5005054D01*
X133524023Y-5637838D01*
X134062162Y-6175977D01*
X134694946Y-6598789D01*
X135075694Y-6756500D01*
X24130000Y-6756500D01*
X23961540Y-6773092D01*
X23799553Y-6822230D01*
X23650265Y-6902026D01*
X23519413Y-7009413D01*
X23412026Y-7140265D01*
X23332230Y-7289553D01*
X23283092Y-7451540D01*
X23266500Y-7620000D01*
X23266500Y-53340000D01*
X23283092Y-53508460D01*
X23332230Y-53670447D01*
X23412026Y-53819735D01*
X23488977Y-53913500D01*
X19084216Y-53913500D01*
X19050000Y-53910130D01*
X19015784Y-53913500D01*
X18913462Y-53923578D01*
X18782171Y-53963404D01*
X18661173Y-54028079D01*
X18555117Y-54115117D01*
X18533305Y-54141696D01*
X17946696Y-54728305D01*
X17920118Y-54750117D01*
X17833080Y-54856173D01*
X17823936Y-54873281D01*
X17768404Y-54977172D01*
X17728578Y-55108462D01*
X17715130Y-55245000D01*
X17718501Y-55279226D01*
X17718500Y-64104797D01*
X17682376Y-64089834D01*
X17494684Y-64052500D01*
X17303316Y-64052500D01*
X17115624Y-64089834D01*
X16938822Y-64163068D01*
X16779705Y-64269386D01*
X16721591Y-64327500D01*
X9432499Y-64327500D01*
X8591500Y-63486501D01*
X8591500Y-63404316D01*
X8554166Y-63216624D01*
X8480932Y-63039822D01*
X8374614Y-62880705D01*
X8239295Y-62745386D01*
X8080178Y-62639068D01*
X7903376Y-62565834D01*
X7715684Y-62528500D01*
X7524316Y-62528500D01*
X7336624Y-62565834D01*
X7159822Y-62639068D01*
X7000705Y-62745386D01*
X6865386Y-62880705D01*
X6759068Y-63039822D01*
X6685834Y-63216624D01*
X6648500Y-63404316D01*
X6648500Y-63595684D01*
X6685834Y-63783376D01*
X6759068Y-63960178D01*
X6865386Y-64119295D01*
X7000705Y-64254614D01*
X7159822Y-64360932D01*
X7336624Y-64434166D01*
X7524316Y-64471500D01*
X7606501Y-64471500D01*
X8627300Y-65492299D01*
X8649117Y-65518883D01*
X8755173Y-65605921D01*
X8876171Y-65670596D01*
X8967635Y-65698341D01*
X9007461Y-65710422D01*
X9020439Y-65711700D01*
X9109784Y-65720500D01*
X9109791Y-65720500D01*
X9143999Y-65723869D01*
X9178207Y-65720500D01*
X16721591Y-65720500D01*
X16779705Y-65778614D01*
X16938822Y-65884932D01*
X17115624Y-65958166D01*
X17303316Y-65995500D01*
X17494684Y-65995500D01*
X17623964Y-65969785D01*
X17660386Y-66024295D01*
X17676091Y-66040000D01*
X17660386Y-66055705D01*
X17554068Y-66214822D01*
X17480834Y-66391624D01*
X17443500Y-66579316D01*
X17443500Y-66770684D01*
X17480834Y-66958376D01*
X17554068Y-67135178D01*
X17660386Y-67294295D01*
X17795705Y-67429614D01*
X17954822Y-67535932D01*
X18131624Y-67609166D01*
X18319316Y-67646500D01*
X18510684Y-67646500D01*
X18680804Y-67612661D01*
X18683134Y-67624376D01*
X18756368Y-67801178D01*
X18862686Y-67960295D01*
X18998005Y-68095614D01*
X19157122Y-68201932D01*
X19333924Y-68275166D01*
X19521616Y-68312500D01*
X19712984Y-68312500D01*
X19900676Y-68275166D01*
X20077478Y-68201932D01*
X20236595Y-68095614D01*
X20371914Y-67960295D01*
X20478232Y-67801178D01*
X20551466Y-67624376D01*
X20588800Y-67436684D01*
X20588800Y-67354499D01*
X20786806Y-67156493D01*
X20813384Y-67134681D01*
X20900423Y-67028625D01*
X20965098Y-66907627D01*
X21004924Y-66776336D01*
X21015002Y-66674014D01*
X21015002Y-66674007D01*
X21018371Y-66639799D01*
X21015002Y-66605591D01*
X21015002Y-62909611D01*
X21060205Y-62954814D01*
X21219322Y-63061132D01*
X21335336Y-63109187D01*
X21290834Y-63216624D01*
X21253500Y-63404316D01*
X21253500Y-63595684D01*
X21290834Y-63783376D01*
X21364068Y-63960178D01*
X21470386Y-64119295D01*
X21528500Y-64177409D01*
X21528501Y-65370774D01*
X21525130Y-65405000D01*
X21538578Y-65541538D01*
X21578404Y-65672828D01*
X21608430Y-65729001D01*
X21643080Y-65793827D01*
X21730118Y-65899883D01*
X21756696Y-65921695D01*
X25899305Y-70064305D01*
X25921117Y-70090883D01*
X26027173Y-70177921D01*
X26148171Y-70242596D01*
X26279461Y-70282422D01*
X26415999Y-70295870D01*
X26450215Y-70292500D01*
X47971784Y-70292500D01*
X48006000Y-70295870D01*
X48052606Y-70291280D01*
X48164316Y-70313500D01*
X48355684Y-70313500D01*
X48543376Y-70276166D01*
X48720178Y-70202932D01*
X48879295Y-70096614D01*
X49014614Y-69961295D01*
X49120932Y-69802178D01*
X49194166Y-69625376D01*
X49231500Y-69437684D01*
X49231500Y-69246316D01*
X49194166Y-69058624D01*
X49120932Y-68881822D01*
X49014614Y-68722705D01*
X48879295Y-68587386D01*
X48720178Y-68481068D01*
X48543376Y-68407834D01*
X48355684Y-68370500D01*
X48164316Y-68370500D01*
X47976624Y-68407834D01*
X47799822Y-68481068D01*
X47640705Y-68587386D01*
X47505386Y-68722705D01*
X47399068Y-68881822D01*
X47391746Y-68899500D01*
X35106149Y-68899500D01*
X35208376Y-68879166D01*
X35385178Y-68805932D01*
X35544295Y-68699614D01*
X35679614Y-68564295D01*
X35785932Y-68405178D01*
X35859166Y-68228376D01*
X35896500Y-68040684D01*
X35896500Y-67849316D01*
X35859166Y-67661624D01*
X35785932Y-67484822D01*
X35679614Y-67325705D01*
X35544295Y-67190386D01*
X35385178Y-67084068D01*
X35208376Y-67010834D01*
X35020684Y-66973500D01*
X34938500Y-66973500D01*
X34006816Y-66041816D01*
X44049000Y-66041816D01*
X44049000Y-66233184D01*
X44086334Y-66420876D01*
X44159568Y-66597678D01*
X44265886Y-66756795D01*
X44401205Y-66892114D01*
X44560322Y-66998432D01*
X44737124Y-67071666D01*
X44924816Y-67109000D01*
X45116184Y-67109000D01*
X45303876Y-67071666D01*
X45480678Y-66998432D01*
X45639795Y-66892114D01*
X45775114Y-66756795D01*
X45881432Y-66597678D01*
X45954666Y-66420876D01*
X45992000Y-66233184D01*
X45992000Y-66041816D01*
X45954666Y-65854124D01*
X45881432Y-65677322D01*
X45775114Y-65518205D01*
X45639795Y-65382886D01*
X45480678Y-65276568D01*
X45303876Y-65203334D01*
X45116184Y-65166000D01*
X44924816Y-65166000D01*
X44737124Y-65203334D01*
X44560322Y-65276568D01*
X44401205Y-65382886D01*
X44265886Y-65518205D01*
X44159568Y-65677322D01*
X44086334Y-65854124D01*
X44049000Y-66041816D01*
X34006816Y-66041816D01*
X33209663Y-65244663D01*
X33405467Y-65205715D01*
X33645965Y-65106098D01*
X33862407Y-64961476D01*
X34046476Y-64777407D01*
X34191098Y-64560965D01*
X34290715Y-64320467D01*
X34341500Y-64065156D01*
X34341500Y-63804844D01*
X34290715Y-63549533D01*
X34191098Y-63309035D01*
X34046476Y-63092593D01*
X33862407Y-62908524D01*
X33844711Y-62896700D01*
X38474062Y-62896700D01*
X38488224Y-62902566D01*
X38675916Y-62939900D01*
X38867284Y-62939900D01*
X39054976Y-62902566D01*
X39231778Y-62829332D01*
X39390895Y-62723014D01*
X39526214Y-62587695D01*
X39632532Y-62428578D01*
X39705766Y-62251776D01*
X39743100Y-62064084D01*
X39743100Y-61872716D01*
X39735101Y-61832500D01*
X46843458Y-61832500D01*
X46861534Y-61923376D01*
X46934768Y-62100178D01*
X47041086Y-62259295D01*
X47176405Y-62394614D01*
X47335522Y-62500932D01*
X47512324Y-62574166D01*
X47700016Y-62611500D01*
X47891384Y-62611500D01*
X48079076Y-62574166D01*
X48255878Y-62500932D01*
X48414995Y-62394614D01*
X48550314Y-62259295D01*
X48656632Y-62100178D01*
X48729866Y-61923376D01*
X48767200Y-61735684D01*
X48767200Y-61544316D01*
X48729866Y-61356624D01*
X48656632Y-61179822D01*
X48550314Y-61020705D01*
X48414995Y-60885386D01*
X48255878Y-60779068D01*
X48079076Y-60705834D01*
X47891384Y-60668500D01*
X47809199Y-60668500D01*
X47808399Y-60667700D01*
X47786583Y-60641117D01*
X47680527Y-60554079D01*
X47559529Y-60489404D01*
X47428238Y-60449578D01*
X47325916Y-60439500D01*
X47291700Y-60436130D01*
X47257484Y-60439500D01*
X35892757Y-60439500D01*
X35896500Y-60420684D01*
X35896500Y-60229316D01*
X35859166Y-60041624D01*
X35785932Y-59864822D01*
X35679614Y-59705705D01*
X35544295Y-59570386D01*
X35385178Y-59464068D01*
X35208376Y-59390834D01*
X35020684Y-59353500D01*
X34829316Y-59353500D01*
X34641624Y-59390834D01*
X34464822Y-59464068D01*
X34305705Y-59570386D01*
X34247591Y-59628500D01*
X34212830Y-59628500D01*
X34290715Y-59440467D01*
X34341500Y-59185156D01*
X34341500Y-58924844D01*
X34290715Y-58669533D01*
X34191098Y-58429035D01*
X34121127Y-58324316D01*
X42208500Y-58324316D01*
X42208500Y-58515684D01*
X42245834Y-58703376D01*
X42319068Y-58880178D01*
X42425386Y-59039295D01*
X42560705Y-59174614D01*
X42719822Y-59280932D01*
X42896624Y-59354166D01*
X43084316Y-59391500D01*
X43275684Y-59391500D01*
X43463376Y-59354166D01*
X43640178Y-59280932D01*
X43799295Y-59174614D01*
X43934614Y-59039295D01*
X44040932Y-58880178D01*
X44114166Y-58703376D01*
X44151500Y-58515684D01*
X44151500Y-58324316D01*
X44114166Y-58136624D01*
X44040932Y-57959822D01*
X43934614Y-57800705D01*
X43799295Y-57665386D01*
X43640178Y-57559068D01*
X43463376Y-57485834D01*
X43275684Y-57448500D01*
X43084316Y-57448500D01*
X42896624Y-57485834D01*
X42719822Y-57559068D01*
X42560705Y-57665386D01*
X42425386Y-57800705D01*
X42319068Y-57959822D01*
X42245834Y-58136624D01*
X42208500Y-58324316D01*
X34121127Y-58324316D01*
X34046476Y-58212593D01*
X33862407Y-58028524D01*
X33645965Y-57883902D01*
X33405467Y-57784285D01*
X33150156Y-57733500D01*
X32889844Y-57733500D01*
X32634533Y-57784285D01*
X32394035Y-57883902D01*
X32177593Y-58028524D01*
X31993524Y-58212593D01*
X31848902Y-58429035D01*
X31749285Y-58669533D01*
X31698500Y-58924844D01*
X31698500Y-59185156D01*
X31749285Y-59440467D01*
X31827170Y-59628500D01*
X26323500Y-59628500D01*
X25307500Y-58612500D01*
X25285683Y-58585917D01*
X25179627Y-58498879D01*
X25058629Y-58434204D01*
X24927338Y-58394378D01*
X24825016Y-58384300D01*
X24790800Y-58380930D01*
X24756584Y-58384300D01*
X22664209Y-58384300D01*
X22606095Y-58326186D01*
X22446978Y-58219868D01*
X22270176Y-58146634D01*
X22082484Y-58109300D01*
X21891116Y-58109300D01*
X21703424Y-58146634D01*
X21526622Y-58219868D01*
X21367505Y-58326186D01*
X21232186Y-58461505D01*
X21125868Y-58620622D01*
X21052634Y-58797424D01*
X21015300Y-58985116D01*
X21015300Y-59176484D01*
X21052634Y-59364176D01*
X21125868Y-59540978D01*
X21232186Y-59700095D01*
X21367505Y-59835414D01*
X21526622Y-59941732D01*
X21703424Y-60014966D01*
X21891116Y-60052300D01*
X22082484Y-60052300D01*
X22270176Y-60014966D01*
X22377612Y-59970464D01*
X22403334Y-60099776D01*
X22476568Y-60276578D01*
X22582886Y-60435695D01*
X22718205Y-60571014D01*
X22877322Y-60677332D01*
X23054124Y-60750566D01*
X23241816Y-60787900D01*
X23324001Y-60787900D01*
X24039800Y-61503700D01*
X22356909Y-61503700D01*
X22298795Y-61445586D01*
X22139678Y-61339268D01*
X21962876Y-61266034D01*
X21775184Y-61228700D01*
X21583816Y-61228700D01*
X21396124Y-61266034D01*
X21219322Y-61339268D01*
X21060205Y-61445586D01*
X21015002Y-61490789D01*
X21015002Y-57054316D01*
X46653500Y-57054316D01*
X46653500Y-57245684D01*
X46690834Y-57433376D01*
X46764068Y-57610178D01*
X46870386Y-57769295D01*
X47005705Y-57904614D01*
X47164822Y-58010932D01*
X47341624Y-58084166D01*
X47529316Y-58121500D01*
X47720684Y-58121500D01*
X47908376Y-58084166D01*
X48085178Y-58010932D01*
X48244295Y-57904614D01*
X48302409Y-57846500D01*
X54016501Y-57846500D01*
X56453046Y-60283045D01*
X56395386Y-60340705D01*
X56289068Y-60499822D01*
X56215834Y-60676624D01*
X56178500Y-60864316D01*
X56178500Y-60946500D01*
X53326501Y-63798500D01*
X53244316Y-63798500D01*
X53056624Y-63835834D01*
X52879822Y-63909068D01*
X52720705Y-64015386D01*
X52585386Y-64150705D01*
X52479068Y-64309822D01*
X52405834Y-64486624D01*
X52368500Y-64674316D01*
X52368500Y-64865684D01*
X52405834Y-65053376D01*
X52479068Y-65230178D01*
X52585386Y-65389295D01*
X52720705Y-65524614D01*
X52879822Y-65630932D01*
X53056624Y-65704166D01*
X53244316Y-65741500D01*
X53435684Y-65741500D01*
X53623376Y-65704166D01*
X53800178Y-65630932D01*
X53959295Y-65524614D01*
X54094614Y-65389295D01*
X54200932Y-65230178D01*
X54274166Y-65053376D01*
X54311500Y-64865684D01*
X54311500Y-64783499D01*
X57105501Y-61989499D01*
X57105501Y-64433500D01*
X57054316Y-64433500D01*
X56866624Y-64470834D01*
X56689822Y-64544068D01*
X56530705Y-64650386D01*
X56395386Y-64785705D01*
X56289068Y-64944822D01*
X56215834Y-65121624D01*
X56178500Y-65309316D01*
X56178500Y-65391500D01*
X54776696Y-66793305D01*
X54750117Y-66815118D01*
X54663079Y-66921174D01*
X54621784Y-66998432D01*
X54598404Y-67042172D01*
X54558578Y-67173462D01*
X54545130Y-67310000D01*
X54548500Y-67344216D01*
X54548500Y-69036531D01*
X54521666Y-68901624D01*
X54448432Y-68724822D01*
X54342114Y-68565705D01*
X54206795Y-68430386D01*
X54047678Y-68324068D01*
X53870876Y-68250834D01*
X53683184Y-68213500D01*
X53491816Y-68213500D01*
X53304124Y-68250834D01*
X53127322Y-68324068D01*
X52968205Y-68430386D01*
X52832886Y-68565705D01*
X52726568Y-68724822D01*
X52653334Y-68901624D01*
X52616000Y-69089316D01*
X52616000Y-69280684D01*
X52653334Y-69468376D01*
X52726568Y-69645178D01*
X52832886Y-69804295D01*
X52968205Y-69939614D01*
X53127322Y-70045932D01*
X53304124Y-70119166D01*
X53491816Y-70156500D01*
X53683184Y-70156500D01*
X53870876Y-70119166D01*
X54047678Y-70045932D01*
X54206795Y-69939614D01*
X54342114Y-69804295D01*
X54448432Y-69645178D01*
X54521666Y-69468376D01*
X54548501Y-69333469D01*
X54548501Y-70442590D01*
X54490386Y-70500705D01*
X54384068Y-70659822D01*
X54310834Y-70836624D01*
X54273500Y-71024316D01*
X54273500Y-71215684D01*
X54310834Y-71403376D01*
X54384068Y-71580178D01*
X54490386Y-71739295D01*
X54625705Y-71874614D01*
X54784822Y-71980932D01*
X54961624Y-72054166D01*
X55149316Y-72091500D01*
X55340684Y-72091500D01*
X55528376Y-72054166D01*
X55705178Y-71980932D01*
X55864295Y-71874614D01*
X55999614Y-71739295D01*
X56105932Y-71580178D01*
X56179166Y-71403376D01*
X56216500Y-71215684D01*
X56216500Y-71024316D01*
X56179166Y-70836624D01*
X56105932Y-70659822D01*
X55999614Y-70500705D01*
X55941500Y-70442591D01*
X55941500Y-68711695D01*
X56110424Y-68781666D01*
X56298116Y-68819000D01*
X56489484Y-68819000D01*
X56677176Y-68781666D01*
X56853978Y-68708432D01*
X57013095Y-68602114D01*
X57105500Y-68509709D01*
X57105500Y-70783500D01*
X57054316Y-70783500D01*
X56866624Y-70820834D01*
X56689822Y-70894068D01*
X56530705Y-71000386D01*
X56395386Y-71135705D01*
X56289068Y-71294822D01*
X56215834Y-71471624D01*
X56178500Y-71659316D01*
X56178500Y-71850684D01*
X56215834Y-72038376D01*
X56289068Y-72215178D01*
X56395386Y-72374295D01*
X56530705Y-72509614D01*
X56689822Y-72615932D01*
X56866624Y-72689166D01*
X57054316Y-72726500D01*
X57245684Y-72726500D01*
X57433376Y-72689166D01*
X57610178Y-72615932D01*
X57769295Y-72509614D01*
X57904614Y-72374295D01*
X57958053Y-72294316D01*
X108248500Y-72294316D01*
X108248500Y-72485684D01*
X108285834Y-72673376D01*
X108359068Y-72850178D01*
X108465386Y-73009295D01*
X108600705Y-73144614D01*
X108759822Y-73250932D01*
X108936624Y-73324166D01*
X109124316Y-73361500D01*
X109315684Y-73361500D01*
X109503376Y-73324166D01*
X109654665Y-73261500D01*
X115527195Y-73261500D01*
X115570000Y-73265716D01*
X115612805Y-73261500D01*
X115740844Y-73248889D01*
X115905122Y-73199056D01*
X116056522Y-73118131D01*
X116189225Y-73009225D01*
X116216519Y-72975968D01*
X117425978Y-71766510D01*
X117459225Y-71739225D01*
X117489840Y-71701921D01*
X117568131Y-71606522D01*
X117609531Y-71529068D01*
X117649056Y-71455122D01*
X117698889Y-71290844D01*
X117711500Y-71162805D01*
X117715716Y-71120001D01*
X117711500Y-71077196D01*
X117711500Y-69754316D01*
X117773500Y-69754316D01*
X117773500Y-69945684D01*
X117810834Y-70133376D01*
X117884068Y-70310178D01*
X117990386Y-70469295D01*
X118125705Y-70604614D01*
X118284822Y-70710932D01*
X118461624Y-70784166D01*
X118649316Y-70821500D01*
X118840684Y-70821500D01*
X119028376Y-70784166D01*
X119205178Y-70710932D01*
X119339023Y-70621500D01*
X123230977Y-70621500D01*
X123364822Y-70710932D01*
X123541624Y-70784166D01*
X123729316Y-70821500D01*
X123920684Y-70821500D01*
X124108376Y-70784166D01*
X124285178Y-70710932D01*
X124444295Y-70604614D01*
X124579614Y-70469295D01*
X124685932Y-70310178D01*
X124759166Y-70133376D01*
X124796500Y-69945684D01*
X124796500Y-69754316D01*
X124759166Y-69566624D01*
X124685932Y-69389822D01*
X124579614Y-69230705D01*
X124444295Y-69095386D01*
X124285178Y-68989068D01*
X124108376Y-68915834D01*
X123920684Y-68878500D01*
X123729316Y-68878500D01*
X123541624Y-68915834D01*
X123364822Y-68989068D01*
X123230977Y-69078500D01*
X119339023Y-69078500D01*
X119205178Y-68989068D01*
X119028376Y-68915834D01*
X118840684Y-68878500D01*
X118649316Y-68878500D01*
X118461624Y-68915834D01*
X118284822Y-68989068D01*
X118125705Y-69095386D01*
X117990386Y-69230705D01*
X117884068Y-69389822D01*
X117810834Y-69566624D01*
X117773500Y-69754316D01*
X117711500Y-69754316D01*
X117711500Y-64569665D01*
X117774166Y-64418376D01*
X117811500Y-64230684D01*
X117811500Y-64039316D01*
X117774166Y-63851624D01*
X117700932Y-63674822D01*
X117594614Y-63515705D01*
X117459295Y-63380386D01*
X117300178Y-63274068D01*
X117123376Y-63200834D01*
X116935684Y-63163500D01*
X116744316Y-63163500D01*
X116556624Y-63200834D01*
X116379822Y-63274068D01*
X116220705Y-63380386D01*
X116085386Y-63515705D01*
X115979068Y-63674822D01*
X115905834Y-63851624D01*
X115868500Y-64039316D01*
X115868500Y-64230684D01*
X115905834Y-64418376D01*
X115968500Y-64569665D01*
X115968501Y-70759011D01*
X115209014Y-71518500D01*
X109654665Y-71518500D01*
X109503376Y-71455834D01*
X109315684Y-71418500D01*
X109124316Y-71418500D01*
X108936624Y-71455834D01*
X108759822Y-71529068D01*
X108600705Y-71635386D01*
X108465386Y-71770705D01*
X108359068Y-71929822D01*
X108285834Y-72106624D01*
X108248500Y-72294316D01*
X57958053Y-72294316D01*
X58010932Y-72215178D01*
X58084166Y-72038376D01*
X58121500Y-71850684D01*
X58121500Y-71768500D01*
X58270309Y-71619691D01*
X58296882Y-71597883D01*
X58318691Y-71571309D01*
X58318694Y-71571306D01*
X58351681Y-71531111D01*
X58383921Y-71491827D01*
X58448596Y-71370829D01*
X58488422Y-71239538D01*
X58490772Y-71215684D01*
X58501870Y-71103001D01*
X58498500Y-71068785D01*
X58498500Y-70389316D01*
X64433500Y-70389316D01*
X64433500Y-70580684D01*
X64470834Y-70768376D01*
X64544068Y-70945178D01*
X64650386Y-71104295D01*
X64785705Y-71239614D01*
X64944822Y-71345932D01*
X65121624Y-71419166D01*
X65309316Y-71456500D01*
X65500684Y-71456500D01*
X65688376Y-71419166D01*
X65865178Y-71345932D01*
X66024295Y-71239614D01*
X66159614Y-71104295D01*
X66265932Y-70945178D01*
X66315711Y-70825000D01*
X75665964Y-70825000D01*
X75672094Y-70887241D01*
X75690249Y-70947090D01*
X75719731Y-71002247D01*
X75759407Y-71050593D01*
X75807753Y-71090269D01*
X75862910Y-71119751D01*
X75922759Y-71137906D01*
X75985000Y-71144036D01*
X76565125Y-71142500D01*
X76644500Y-71063125D01*
X76644500Y-70040500D01*
X75746875Y-70040500D01*
X75667500Y-70119875D01*
X75665964Y-70825000D01*
X66315711Y-70825000D01*
X66339166Y-70768376D01*
X66376500Y-70580684D01*
X66376500Y-70389316D01*
X66339166Y-70201624D01*
X66265932Y-70024822D01*
X66159614Y-69865705D01*
X66024295Y-69730386D01*
X65865178Y-69624068D01*
X65688376Y-69550834D01*
X65500684Y-69513500D01*
X65309316Y-69513500D01*
X65121624Y-69550834D01*
X64944822Y-69624068D01*
X64785705Y-69730386D01*
X64650386Y-69865705D01*
X64544068Y-70024822D01*
X64470834Y-70201624D01*
X64433500Y-70389316D01*
X58498500Y-70389316D01*
X58498500Y-68875000D01*
X75665964Y-68875000D01*
X75667500Y-69580125D01*
X75746875Y-69659500D01*
X76644500Y-69659500D01*
X76644500Y-68636875D01*
X77025500Y-68636875D01*
X77025500Y-69659500D01*
X77045500Y-69659500D01*
X77045500Y-70040500D01*
X77025500Y-70040500D01*
X77025500Y-71063125D01*
X77104875Y-71142500D01*
X77685000Y-71144036D01*
X77747241Y-71137906D01*
X77807090Y-71119751D01*
X77862247Y-71090269D01*
X77910593Y-71050593D01*
X77950269Y-71002247D01*
X77979751Y-70947090D01*
X77997906Y-70887241D01*
X78004036Y-70825000D01*
X78003289Y-70481852D01*
X78015351Y-70521617D01*
X78147347Y-70768564D01*
X78324985Y-70985016D01*
X78541437Y-71162653D01*
X78788384Y-71294649D01*
X79056338Y-71375932D01*
X79335000Y-71403378D01*
X79613663Y-71375932D01*
X79881617Y-71294649D01*
X80128564Y-71162653D01*
X80345016Y-70985016D01*
X80522653Y-70768563D01*
X80585000Y-70651921D01*
X80647347Y-70768564D01*
X80824985Y-70985016D01*
X81041437Y-71162653D01*
X81288384Y-71294649D01*
X81556338Y-71375932D01*
X81835000Y-71403378D01*
X82113663Y-71375932D01*
X82381617Y-71294649D01*
X82628564Y-71162653D01*
X82845016Y-70985016D01*
X83022653Y-70768563D01*
X83085000Y-70651921D01*
X83147347Y-70768564D01*
X83324985Y-70985016D01*
X83541437Y-71162653D01*
X83788384Y-71294649D01*
X84056338Y-71375932D01*
X84335000Y-71403378D01*
X84613663Y-71375932D01*
X84881617Y-71294649D01*
X85128564Y-71162653D01*
X85345016Y-70985016D01*
X85522653Y-70768563D01*
X85654649Y-70521616D01*
X85735932Y-70253662D01*
X85756500Y-70044832D01*
X85756500Y-69655167D01*
X85735932Y-69446337D01*
X85654649Y-69178383D01*
X85612753Y-69100000D01*
X96365735Y-69100000D01*
X96365735Y-70600000D01*
X96381573Y-70760806D01*
X96428478Y-70915433D01*
X96504649Y-71057937D01*
X96607157Y-71182843D01*
X96732063Y-71285351D01*
X96874567Y-71361522D01*
X97029194Y-71408427D01*
X97190000Y-71424265D01*
X98390000Y-71424265D01*
X98550806Y-71408427D01*
X98705433Y-71361522D01*
X98847937Y-71285351D01*
X98972843Y-71182843D01*
X99075351Y-71057937D01*
X99151522Y-70915433D01*
X99198427Y-70760806D01*
X99214265Y-70600000D01*
X99214265Y-70445639D01*
X99318523Y-70642820D01*
X99462598Y-70819994D01*
X99638469Y-70965656D01*
X99839378Y-71074209D01*
X99921656Y-71107871D01*
X100099500Y-71071320D01*
X100099500Y-70040500D01*
X100480500Y-70040500D01*
X100480500Y-71071320D01*
X100658344Y-71107871D01*
X100740622Y-71074209D01*
X100941531Y-70965656D01*
X101117402Y-70819994D01*
X101261477Y-70642820D01*
X101368218Y-70440943D01*
X101433524Y-70222121D01*
X101374818Y-70040500D01*
X100480500Y-70040500D01*
X100099500Y-70040500D01*
X100079500Y-70040500D01*
X100079500Y-69659500D01*
X100099500Y-69659500D01*
X100099500Y-68628680D01*
X100480500Y-68628680D01*
X100480500Y-69659500D01*
X101374818Y-69659500D01*
X101433524Y-69477879D01*
X101368218Y-69259057D01*
X101261477Y-69057180D01*
X101117402Y-68880006D01*
X100941531Y-68734344D01*
X100740622Y-68625791D01*
X100658344Y-68592129D01*
X100480500Y-68628680D01*
X100099500Y-68628680D01*
X99921656Y-68592129D01*
X99839378Y-68625791D01*
X99638469Y-68734344D01*
X99462598Y-68880006D01*
X99318523Y-69057180D01*
X99214265Y-69254361D01*
X99214265Y-69100000D01*
X99198427Y-68939194D01*
X99151522Y-68784567D01*
X99075351Y-68642063D01*
X98972843Y-68517157D01*
X98847937Y-68414649D01*
X98705433Y-68338478D01*
X98550806Y-68291573D01*
X98390000Y-68275735D01*
X97190000Y-68275735D01*
X97029194Y-68291573D01*
X96874567Y-68338478D01*
X96732063Y-68414649D01*
X96607157Y-68517157D01*
X96504649Y-68642063D01*
X96428478Y-68784567D01*
X96381573Y-68939194D01*
X96365735Y-69100000D01*
X85612753Y-69100000D01*
X85522653Y-68931436D01*
X85345015Y-68714984D01*
X85128563Y-68537347D01*
X84881616Y-68405351D01*
X84613662Y-68324068D01*
X84335000Y-68296622D01*
X84056337Y-68324068D01*
X83788383Y-68405351D01*
X83541436Y-68537347D01*
X83324984Y-68714985D01*
X83147347Y-68931437D01*
X83085000Y-69048079D01*
X83022653Y-68931436D01*
X82845015Y-68714984D01*
X82628563Y-68537347D01*
X82381616Y-68405351D01*
X82113662Y-68324068D01*
X81835000Y-68296622D01*
X81556337Y-68324068D01*
X81288383Y-68405351D01*
X81041436Y-68537347D01*
X80824984Y-68714985D01*
X80647347Y-68931437D01*
X80585000Y-69048079D01*
X80522653Y-68931436D01*
X80345015Y-68714984D01*
X80128563Y-68537347D01*
X79881616Y-68405351D01*
X79613662Y-68324068D01*
X79335000Y-68296622D01*
X79056337Y-68324068D01*
X78788383Y-68405351D01*
X78541436Y-68537347D01*
X78324984Y-68714985D01*
X78147347Y-68931437D01*
X78015351Y-69178384D01*
X78003289Y-69218149D01*
X78004036Y-68875000D01*
X77997906Y-68812759D01*
X77979751Y-68752910D01*
X77950269Y-68697753D01*
X77910593Y-68649407D01*
X77862247Y-68609731D01*
X77807090Y-68580249D01*
X77747241Y-68562094D01*
X77685000Y-68555964D01*
X77104875Y-68557500D01*
X77025500Y-68636875D01*
X76644500Y-68636875D01*
X76565125Y-68557500D01*
X75985000Y-68555964D01*
X75922759Y-68562094D01*
X75862910Y-68580249D01*
X75807753Y-68609731D01*
X75759407Y-68649407D01*
X75719731Y-68697753D01*
X75690249Y-68752910D01*
X75672094Y-68812759D01*
X75665964Y-68875000D01*
X58498500Y-68875000D01*
X58498500Y-65309316D01*
X67608500Y-65309316D01*
X67608500Y-65500684D01*
X67645834Y-65688376D01*
X67719068Y-65865178D01*
X67825386Y-66024295D01*
X67960705Y-66159614D01*
X68119822Y-66265932D01*
X68296624Y-66339166D01*
X68484316Y-66376500D01*
X68675684Y-66376500D01*
X68863376Y-66339166D01*
X69040178Y-66265932D01*
X69199295Y-66159614D01*
X69257409Y-66101500D01*
X81872591Y-66101500D01*
X81930705Y-66159614D01*
X82089822Y-66265932D01*
X82266624Y-66339166D01*
X82454316Y-66376500D01*
X82645684Y-66376500D01*
X82833376Y-66339166D01*
X83010178Y-66265932D01*
X83169295Y-66159614D01*
X83304614Y-66024295D01*
X83410932Y-65865178D01*
X83484166Y-65688376D01*
X83521500Y-65500684D01*
X83521500Y-65309316D01*
X83484166Y-65121624D01*
X83410932Y-64944822D01*
X83304614Y-64785705D01*
X83169295Y-64650386D01*
X83010178Y-64544068D01*
X82833376Y-64470834D01*
X82645684Y-64433500D01*
X82454316Y-64433500D01*
X82266624Y-64470834D01*
X82089822Y-64544068D01*
X81930705Y-64650386D01*
X81872591Y-64708500D01*
X69257409Y-64708500D01*
X69229608Y-64680699D01*
X69250938Y-64671864D01*
X69369919Y-64504327D01*
X68635000Y-63769408D01*
X67900081Y-64504327D01*
X67989937Y-64630854D01*
X67960705Y-64650386D01*
X67825386Y-64785705D01*
X67719068Y-64944822D01*
X67645834Y-65121624D01*
X67608500Y-65309316D01*
X58498500Y-65309316D01*
X58498500Y-63345221D01*
X62563500Y-63345221D01*
X62563500Y-63654779D01*
X62623892Y-63958390D01*
X62742355Y-64244384D01*
X62914336Y-64501773D01*
X63133227Y-64720664D01*
X63390616Y-64892645D01*
X63676610Y-65011108D01*
X63980221Y-65071500D01*
X64289779Y-65071500D01*
X64593390Y-65011108D01*
X64879384Y-64892645D01*
X65136773Y-64720664D01*
X65355664Y-64501773D01*
X65527645Y-64244384D01*
X65646108Y-63958390D01*
X65706500Y-63654779D01*
X65706500Y-63379400D01*
X67316629Y-63379400D01*
X67318433Y-63638919D01*
X67370832Y-63893099D01*
X67463136Y-64115938D01*
X67630673Y-64234919D01*
X68365592Y-63500000D01*
X68904408Y-63500000D01*
X69639327Y-64234919D01*
X69806864Y-64115938D01*
X69904511Y-63875484D01*
X69953371Y-63620600D01*
X69952154Y-63445516D01*
X76851600Y-63445516D01*
X76851600Y-63636884D01*
X76888934Y-63824576D01*
X76962168Y-64001378D01*
X77068486Y-64160495D01*
X77203805Y-64295814D01*
X77362922Y-64402132D01*
X77539724Y-64475366D01*
X77727416Y-64512700D01*
X77918784Y-64512700D01*
X78106476Y-64475366D01*
X78283278Y-64402132D01*
X78442395Y-64295814D01*
X78577714Y-64160495D01*
X78684032Y-64001378D01*
X78757266Y-63824576D01*
X78794600Y-63636884D01*
X78794600Y-63445516D01*
X78757266Y-63257824D01*
X78684032Y-63081022D01*
X78577714Y-62921905D01*
X78442395Y-62786586D01*
X78283278Y-62680268D01*
X78106476Y-62607034D01*
X77918784Y-62569700D01*
X77727416Y-62569700D01*
X77539724Y-62607034D01*
X77362922Y-62680268D01*
X77203805Y-62786586D01*
X77068486Y-62921905D01*
X76962168Y-63081022D01*
X76888934Y-63257824D01*
X76851600Y-63445516D01*
X69952154Y-63445516D01*
X69951567Y-63361081D01*
X69899168Y-63106901D01*
X69806864Y-62884062D01*
X69639327Y-62765081D01*
X68904408Y-63500000D01*
X68365592Y-63500000D01*
X67630673Y-62765081D01*
X67463136Y-62884062D01*
X67365489Y-63124516D01*
X67316629Y-63379400D01*
X65706500Y-63379400D01*
X65706500Y-63345221D01*
X65646108Y-63041610D01*
X65527645Y-62755616D01*
X65355664Y-62498227D01*
X65353110Y-62495673D01*
X67900081Y-62495673D01*
X68635000Y-63230592D01*
X69369919Y-62495673D01*
X69250938Y-62328136D01*
X69010484Y-62230489D01*
X68755600Y-62181629D01*
X68496081Y-62183433D01*
X68241901Y-62235832D01*
X68019062Y-62328136D01*
X67900081Y-62495673D01*
X65353110Y-62495673D01*
X65136773Y-62279336D01*
X64879384Y-62107355D01*
X64593390Y-61988892D01*
X64289779Y-61928500D01*
X63980221Y-61928500D01*
X63676610Y-61988892D01*
X63390616Y-62107355D01*
X63133227Y-62279336D01*
X62914336Y-62498227D01*
X62742355Y-62755616D01*
X62623892Y-63041610D01*
X62563500Y-63345221D01*
X58498500Y-63345221D01*
X58498500Y-60681216D01*
X58501870Y-60647000D01*
X58488422Y-60510462D01*
X58448596Y-60379171D01*
X58420023Y-60325715D01*
X58383921Y-60258173D01*
X58296883Y-60152117D01*
X58270305Y-60130305D01*
X56947400Y-58807400D01*
X56993184Y-58807400D01*
X57180876Y-58770066D01*
X57357678Y-58696832D01*
X57516795Y-58590514D01*
X57652114Y-58455195D01*
X57758432Y-58296078D01*
X57831666Y-58119276D01*
X57869000Y-57931584D01*
X57869000Y-57740216D01*
X57831666Y-57552524D01*
X57758432Y-57375722D01*
X57652114Y-57216605D01*
X57516795Y-57081286D01*
X57357678Y-56974968D01*
X57180876Y-56901734D01*
X56993184Y-56864400D01*
X56801816Y-56864400D01*
X56614124Y-56901734D01*
X56437322Y-56974968D01*
X56278205Y-57081286D01*
X56142886Y-57216605D01*
X56036568Y-57375722D01*
X55963334Y-57552524D01*
X55926000Y-57740216D01*
X55926000Y-57786001D01*
X54821700Y-56681701D01*
X54799883Y-56655117D01*
X54693827Y-56568079D01*
X54572829Y-56503404D01*
X54441538Y-56463578D01*
X54339216Y-56453500D01*
X54305000Y-56450130D01*
X54270784Y-56453500D01*
X48302409Y-56453500D01*
X48244295Y-56395386D01*
X48085178Y-56289068D01*
X47908376Y-56215834D01*
X47720684Y-56178500D01*
X47529316Y-56178500D01*
X47341624Y-56215834D01*
X47164822Y-56289068D01*
X47005705Y-56395386D01*
X46870386Y-56530705D01*
X46764068Y-56689822D01*
X46690834Y-56866624D01*
X46653500Y-57054316D01*
X21015002Y-57054316D01*
X21015002Y-56569306D01*
X21073116Y-56511192D01*
X21179434Y-56352075D01*
X21252668Y-56175273D01*
X21290002Y-55987581D01*
X21290002Y-55941500D01*
X58766501Y-55941500D01*
X62348305Y-59523305D01*
X62370117Y-59549883D01*
X62476173Y-59636921D01*
X62594363Y-59700095D01*
X62597171Y-59701596D01*
X62728462Y-59741422D01*
X62865000Y-59754870D01*
X62899216Y-59751500D01*
X76165784Y-59751500D01*
X76200000Y-59754870D01*
X76336538Y-59741422D01*
X76382776Y-59727396D01*
X76467829Y-59701596D01*
X76588827Y-59636921D01*
X76694883Y-59549883D01*
X76716699Y-59523300D01*
X76848499Y-59391500D01*
X76930684Y-59391500D01*
X77118376Y-59354166D01*
X77295178Y-59280932D01*
X77454295Y-59174614D01*
X77589614Y-59039295D01*
X77695932Y-58880178D01*
X77769166Y-58703376D01*
X77806500Y-58515684D01*
X77806500Y-58324316D01*
X77769166Y-58136624D01*
X77695932Y-57959822D01*
X77589614Y-57800705D01*
X77454295Y-57665386D01*
X77295178Y-57559068D01*
X77118376Y-57485834D01*
X76930684Y-57448500D01*
X76739316Y-57448500D01*
X76551624Y-57485834D01*
X76374822Y-57559068D01*
X76215705Y-57665386D01*
X76080386Y-57800705D01*
X75974068Y-57959822D01*
X75900834Y-58136624D01*
X75863500Y-58324316D01*
X75863500Y-58358500D01*
X64930486Y-58358500D01*
X65136773Y-58220664D01*
X65353110Y-58004327D01*
X67900081Y-58004327D01*
X68019062Y-58171864D01*
X68259516Y-58269511D01*
X68514400Y-58318371D01*
X68773919Y-58316567D01*
X69028099Y-58264168D01*
X69250938Y-58171864D01*
X69369919Y-58004327D01*
X68635000Y-57269408D01*
X67900081Y-58004327D01*
X65353110Y-58004327D01*
X65355664Y-58001773D01*
X65527645Y-57744384D01*
X65646108Y-57458390D01*
X65706500Y-57154779D01*
X65706500Y-56845221D01*
X65646108Y-56541610D01*
X65596356Y-56421499D01*
X67447933Y-56421499D01*
X67365489Y-56624516D01*
X67316629Y-56879400D01*
X67318433Y-57138919D01*
X67370832Y-57393099D01*
X67463136Y-57615938D01*
X67630673Y-57734919D01*
X68365592Y-57000000D01*
X68351450Y-56985858D01*
X68620858Y-56716450D01*
X68635000Y-56730592D01*
X68649142Y-56716450D01*
X68918550Y-56985858D01*
X68904408Y-57000000D01*
X69639327Y-57734919D01*
X69806864Y-57615938D01*
X69904511Y-57375484D01*
X69953371Y-57120600D01*
X69951567Y-56861081D01*
X69899168Y-56606901D01*
X69822371Y-56421499D01*
X78763100Y-56421499D01*
X78763100Y-56556084D01*
X78800434Y-56743776D01*
X78873668Y-56920578D01*
X78979986Y-57079695D01*
X79115305Y-57215014D01*
X79274422Y-57321332D01*
X79451224Y-57394566D01*
X79638916Y-57431900D01*
X79830284Y-57431900D01*
X80017976Y-57394566D01*
X80194778Y-57321332D01*
X80353895Y-57215014D01*
X80489214Y-57079695D01*
X80595532Y-56920578D01*
X80668766Y-56743776D01*
X80706100Y-56556084D01*
X80706100Y-56421499D01*
X82106500Y-56421499D01*
X82213500Y-56528499D01*
X82213500Y-56610684D01*
X82250834Y-56798376D01*
X82324068Y-56975178D01*
X82430386Y-57134295D01*
X82565705Y-57269614D01*
X82724822Y-57375932D01*
X82901624Y-57449166D01*
X83089316Y-57486500D01*
X83280684Y-57486500D01*
X83468376Y-57449166D01*
X83645178Y-57375932D01*
X83804295Y-57269614D01*
X83939614Y-57134295D01*
X84045932Y-56975178D01*
X84119166Y-56798376D01*
X84156500Y-56610684D01*
X84156500Y-56419316D01*
X84119166Y-56231624D01*
X84045932Y-56054822D01*
X83939614Y-55895705D01*
X83804295Y-55760386D01*
X83645178Y-55654068D01*
X83468376Y-55580834D01*
X83280684Y-55543500D01*
X83198499Y-55543500D01*
X82911699Y-55256700D01*
X82889882Y-55230116D01*
X82783826Y-55143078D01*
X82662828Y-55078403D01*
X82531537Y-55038577D01*
X82429215Y-55028499D01*
X82394999Y-55025129D01*
X82360783Y-55028499D01*
X64268499Y-55028499D01*
X63443499Y-54203500D01*
X111503646Y-54203500D01*
X111447455Y-54214677D01*
X111252454Y-54295449D01*
X111076958Y-54412711D01*
X110927711Y-54561958D01*
X110810449Y-54737454D01*
X110729677Y-54932455D01*
X110688500Y-55139466D01*
X110688500Y-55350534D01*
X110729677Y-55557545D01*
X110810449Y-55752546D01*
X110927711Y-55928042D01*
X111076958Y-56077289D01*
X111252454Y-56194551D01*
X111273757Y-56203375D01*
X111637211Y-56566829D01*
X120961626Y-65891245D01*
X120970449Y-65912546D01*
X121087711Y-66088042D01*
X121236958Y-66237289D01*
X121412454Y-66354551D01*
X121607455Y-66435323D01*
X121814466Y-66476500D01*
X122025534Y-66476500D01*
X122232545Y-66435323D01*
X122427546Y-66354551D01*
X122603042Y-66237289D01*
X122752289Y-66088042D01*
X122869551Y-65912546D01*
X122950323Y-65717545D01*
X122991500Y-65510534D01*
X122991500Y-65299466D01*
X122950323Y-65092455D01*
X122869551Y-64897454D01*
X122752289Y-64721958D01*
X122603042Y-64572711D01*
X122427546Y-64455449D01*
X122406245Y-64446626D01*
X113081829Y-55122211D01*
X112718375Y-54758757D01*
X112709551Y-54737454D01*
X112592289Y-54561958D01*
X112443042Y-54412711D01*
X112267546Y-54295449D01*
X112072545Y-54214677D01*
X112016354Y-54203500D01*
X138430000Y-54203500D01*
X138598460Y-54186908D01*
X138760447Y-54137770D01*
X138909735Y-54057974D01*
X139001500Y-53982665D01*
X139001500Y-70037685D01*
X138987838Y-70024023D01*
X138355054Y-69601211D01*
X137651941Y-69309972D01*
X136905522Y-69161500D01*
X136144478Y-69161500D01*
X135398059Y-69309972D01*
X134694946Y-69601211D01*
X134062162Y-70024023D01*
X133524023Y-70562162D01*
X133101211Y-71194946D01*
X132809972Y-71898059D01*
X132661500Y-72644478D01*
X132661500Y-73405522D01*
X132809972Y-74151941D01*
X133101211Y-74855054D01*
X133524023Y-75487838D01*
X133537685Y-75501500D01*
X6162315Y-75501500D01*
X6175977Y-75487838D01*
X6598789Y-74855054D01*
X6890028Y-74151941D01*
X7038500Y-73405522D01*
X7038500Y-72644478D01*
X6890028Y-71898059D01*
X6625991Y-71260616D01*
X11893900Y-71260616D01*
X11893900Y-71451984D01*
X11931234Y-71639676D01*
X12004468Y-71816478D01*
X12110786Y-71975595D01*
X12246105Y-72110914D01*
X12405222Y-72217232D01*
X12582024Y-72290466D01*
X12769716Y-72327800D01*
X12961084Y-72327800D01*
X13148776Y-72290466D01*
X13325578Y-72217232D01*
X13484695Y-72110914D01*
X13620014Y-71975595D01*
X13726332Y-71816478D01*
X13799566Y-71639676D01*
X13836900Y-71451984D01*
X13836900Y-71260616D01*
X13799566Y-71072924D01*
X13726332Y-70896122D01*
X13620014Y-70737005D01*
X13484695Y-70601686D01*
X13325578Y-70495368D01*
X13148776Y-70422134D01*
X12961084Y-70384800D01*
X12769716Y-70384800D01*
X12582024Y-70422134D01*
X12405222Y-70495368D01*
X12246105Y-70601686D01*
X12110786Y-70737005D01*
X12004468Y-70896122D01*
X11931234Y-71072924D01*
X11893900Y-71260616D01*
X6625991Y-71260616D01*
X6598789Y-71194946D01*
X6175977Y-70562162D01*
X5637838Y-70024023D01*
X5005054Y-69601211D01*
X4301941Y-69309972D01*
X3555522Y-69161500D01*
X2794478Y-69161500D01*
X2048059Y-69309972D01*
X1344946Y-69601211D01*
X712162Y-70024023D01*
X698500Y-70037685D01*
X698500Y-68897116D01*
X15612900Y-68897116D01*
X15612900Y-69088484D01*
X15650234Y-69276176D01*
X15723468Y-69452978D01*
X15829786Y-69612095D01*
X15965105Y-69747414D01*
X16124222Y-69853732D01*
X16301024Y-69926966D01*
X16488716Y-69964300D01*
X16680084Y-69964300D01*
X16867776Y-69926966D01*
X17044578Y-69853732D01*
X17203695Y-69747414D01*
X17339014Y-69612095D01*
X17445332Y-69452978D01*
X17518566Y-69276176D01*
X17555900Y-69088484D01*
X17555900Y-68897116D01*
X17518566Y-68709424D01*
X17445332Y-68532622D01*
X17413056Y-68484316D01*
X20618500Y-68484316D01*
X20618500Y-68675684D01*
X20655834Y-68863376D01*
X20729068Y-69040178D01*
X20835386Y-69199295D01*
X20970705Y-69334614D01*
X21129822Y-69440932D01*
X21306624Y-69514166D01*
X21494316Y-69551500D01*
X21576501Y-69551500D01*
X25518305Y-73493305D01*
X25540117Y-73519883D01*
X25646173Y-73606921D01*
X25767171Y-73671596D01*
X25867904Y-73702153D01*
X25898461Y-73711422D01*
X26034999Y-73724870D01*
X26069215Y-73721500D01*
X32977591Y-73721500D01*
X33035705Y-73779614D01*
X33194822Y-73885932D01*
X33371624Y-73959166D01*
X33559316Y-73996500D01*
X33750684Y-73996500D01*
X33938376Y-73959166D01*
X34115178Y-73885932D01*
X34274295Y-73779614D01*
X34409614Y-73644295D01*
X34515932Y-73485178D01*
X34589166Y-73308376D01*
X34626500Y-73120684D01*
X34626500Y-72929316D01*
X34589166Y-72741624D01*
X34515932Y-72564822D01*
X34409614Y-72405705D01*
X34274295Y-72270386D01*
X34115178Y-72164068D01*
X33938376Y-72090834D01*
X33750684Y-72053500D01*
X33559316Y-72053500D01*
X33371624Y-72090834D01*
X33194822Y-72164068D01*
X33035705Y-72270386D01*
X32977591Y-72328500D01*
X26323500Y-72328500D01*
X22561500Y-68566501D01*
X22561500Y-68484316D01*
X22524166Y-68296624D01*
X22450932Y-68119822D01*
X22344614Y-67960705D01*
X22209295Y-67825386D01*
X22050178Y-67719068D01*
X21873376Y-67645834D01*
X21685684Y-67608500D01*
X21494316Y-67608500D01*
X21306624Y-67645834D01*
X21129822Y-67719068D01*
X20970705Y-67825386D01*
X20835386Y-67960705D01*
X20729068Y-68119822D01*
X20655834Y-68296624D01*
X20618500Y-68484316D01*
X17413056Y-68484316D01*
X17339014Y-68373505D01*
X17203695Y-68238186D01*
X17044578Y-68131868D01*
X16867776Y-68058634D01*
X16680084Y-68021300D01*
X16488716Y-68021300D01*
X16301024Y-68058634D01*
X16124222Y-68131868D01*
X15965105Y-68238186D01*
X15829786Y-68373505D01*
X15723468Y-68532622D01*
X15650234Y-68709424D01*
X15612900Y-68897116D01*
X698500Y-68897116D01*
X698500Y-66026189D01*
X723517Y-66039561D01*
X944346Y-66106549D01*
X1116452Y-66123500D01*
X1931548Y-66123500D01*
X2103654Y-66106549D01*
X2324483Y-66039561D01*
X2528000Y-65930779D01*
X2706383Y-65784383D01*
X2852779Y-65606000D01*
X2961561Y-65402483D01*
X3028549Y-65181654D01*
X3051168Y-64952000D01*
X3028549Y-64722346D01*
X2961561Y-64501517D01*
X2852779Y-64298000D01*
X2706383Y-64119617D01*
X2528000Y-63973221D01*
X2324483Y-63864439D01*
X2192183Y-63824306D01*
X2927500Y-63824306D01*
X2927500Y-64079694D01*
X2977324Y-64330175D01*
X3075057Y-64566123D01*
X3216943Y-64778470D01*
X3397530Y-64959057D01*
X3609877Y-65100943D01*
X3845825Y-65198676D01*
X4096306Y-65248500D01*
X4351694Y-65248500D01*
X4602175Y-65198676D01*
X4838123Y-65100943D01*
X5050470Y-64959057D01*
X5231057Y-64778470D01*
X5372943Y-64566123D01*
X5470676Y-64330175D01*
X5520500Y-64079694D01*
X5520500Y-63824306D01*
X5470676Y-63573825D01*
X5372943Y-63337877D01*
X5231057Y-63125530D01*
X5050470Y-62944943D01*
X4838123Y-62803057D01*
X4602175Y-62705324D01*
X4351694Y-62655500D01*
X4096306Y-62655500D01*
X3845825Y-62705324D01*
X3609877Y-62803057D01*
X3397530Y-62944943D01*
X3216943Y-63125530D01*
X3075057Y-63337877D01*
X2977324Y-63573825D01*
X2927500Y-63824306D01*
X2192183Y-63824306D01*
X2103654Y-63797451D01*
X1931548Y-63780500D01*
X1116452Y-63780500D01*
X944346Y-63797451D01*
X723517Y-63864439D01*
X698500Y-63877811D01*
X698500Y-59026189D01*
X723517Y-59039561D01*
X944346Y-59106549D01*
X1116452Y-59123500D01*
X1931548Y-59123500D01*
X2103654Y-59106549D01*
X2324483Y-59039561D01*
X2528000Y-58930779D01*
X2657736Y-58824306D01*
X2927500Y-58824306D01*
X2927500Y-59079694D01*
X2977324Y-59330175D01*
X3075057Y-59566123D01*
X3216943Y-59778470D01*
X3397530Y-59959057D01*
X3609877Y-60100943D01*
X3845825Y-60198676D01*
X4096306Y-60248500D01*
X4351694Y-60248500D01*
X4602175Y-60198676D01*
X4838123Y-60100943D01*
X5050470Y-59959057D01*
X5231057Y-59778470D01*
X5372943Y-59566123D01*
X5394423Y-59514266D01*
X5378500Y-59594316D01*
X5378500Y-59785684D01*
X5415834Y-59973376D01*
X5489068Y-60150178D01*
X5595386Y-60309295D01*
X5730705Y-60444614D01*
X5889822Y-60550932D01*
X6066624Y-60624166D01*
X6254316Y-60661500D01*
X6445684Y-60661500D01*
X6633376Y-60624166D01*
X6810178Y-60550932D01*
X6969295Y-60444614D01*
X7104614Y-60309295D01*
X7210932Y-60150178D01*
X7284166Y-59973376D01*
X7321500Y-59785684D01*
X7321500Y-59594316D01*
X7284166Y-59406624D01*
X7210932Y-59229822D01*
X7104614Y-59070705D01*
X7061125Y-59027216D01*
X13759100Y-59027216D01*
X13759100Y-59218584D01*
X13796434Y-59406276D01*
X13869668Y-59583078D01*
X13975986Y-59742195D01*
X14111305Y-59877514D01*
X14270422Y-59983832D01*
X14447224Y-60057066D01*
X14634916Y-60094400D01*
X14826284Y-60094400D01*
X15013976Y-60057066D01*
X15190778Y-59983832D01*
X15349895Y-59877514D01*
X15485214Y-59742195D01*
X15591532Y-59583078D01*
X15664766Y-59406276D01*
X15702100Y-59218584D01*
X15702100Y-59027216D01*
X15664766Y-58839524D01*
X15591532Y-58662722D01*
X15485214Y-58503605D01*
X15349895Y-58368286D01*
X15190778Y-58261968D01*
X15013976Y-58188734D01*
X14826284Y-58151400D01*
X14634916Y-58151400D01*
X14447224Y-58188734D01*
X14270422Y-58261968D01*
X14111305Y-58368286D01*
X13975986Y-58503605D01*
X13869668Y-58662722D01*
X13796434Y-58839524D01*
X13759100Y-59027216D01*
X7061125Y-59027216D01*
X6969295Y-58935386D01*
X6810178Y-58829068D01*
X6633376Y-58755834D01*
X6445684Y-58718500D01*
X6254316Y-58718500D01*
X6066624Y-58755834D01*
X5889822Y-58829068D01*
X5730705Y-58935386D01*
X5595386Y-59070705D01*
X5491303Y-59226477D01*
X5520500Y-59079694D01*
X5520500Y-58824306D01*
X5470676Y-58573825D01*
X5372943Y-58337877D01*
X5231057Y-58125530D01*
X5050470Y-57944943D01*
X4838123Y-57803057D01*
X4602175Y-57705324D01*
X4351694Y-57655500D01*
X4096306Y-57655500D01*
X3845825Y-57705324D01*
X3609877Y-57803057D01*
X3397530Y-57944943D01*
X3216943Y-58125530D01*
X3075057Y-58337877D01*
X2977324Y-58573825D01*
X2927500Y-58824306D01*
X2657736Y-58824306D01*
X2706383Y-58784383D01*
X2852779Y-58606000D01*
X2961561Y-58402483D01*
X3028549Y-58181654D01*
X3051168Y-57952000D01*
X3028549Y-57722346D01*
X2961561Y-57501517D01*
X2852779Y-57298000D01*
X2706383Y-57119617D01*
X2528000Y-56973221D01*
X2324483Y-56864439D01*
X2103654Y-56797451D01*
X1931548Y-56780500D01*
X1116452Y-56780500D01*
X944346Y-56797451D01*
X723517Y-56864439D01*
X698500Y-56877811D01*
X698500Y-46246816D01*
X5890700Y-46246816D01*
X5890700Y-46438184D01*
X5928034Y-46625876D01*
X6001268Y-46802678D01*
X6107586Y-46961795D01*
X6242905Y-47097114D01*
X6402022Y-47203432D01*
X6578824Y-47276666D01*
X6766516Y-47314000D01*
X6957884Y-47314000D01*
X7145576Y-47276666D01*
X7322378Y-47203432D01*
X7481495Y-47097114D01*
X7616814Y-46961795D01*
X7723132Y-46802678D01*
X7796366Y-46625876D01*
X7802507Y-46595000D01*
X10510964Y-46595000D01*
X10517094Y-46657241D01*
X10535249Y-46717090D01*
X10564731Y-46772247D01*
X10604407Y-46820593D01*
X10652753Y-46860269D01*
X10707910Y-46889751D01*
X10767759Y-46907906D01*
X10830000Y-46914036D01*
X11160125Y-46912500D01*
X11239500Y-46833125D01*
X11239500Y-45910500D01*
X10591875Y-45910500D01*
X10512500Y-45989875D01*
X10510964Y-46595000D01*
X7802507Y-46595000D01*
X7833700Y-46438184D01*
X7833700Y-46246816D01*
X7796366Y-46059124D01*
X7723132Y-45882322D01*
X7616814Y-45723205D01*
X7481495Y-45587886D01*
X7322378Y-45481568D01*
X7145576Y-45408334D01*
X6957884Y-45371000D01*
X6766516Y-45371000D01*
X6578824Y-45408334D01*
X6402022Y-45481568D01*
X6242905Y-45587886D01*
X6107586Y-45723205D01*
X6001268Y-45882322D01*
X5928034Y-46059124D01*
X5890700Y-46246816D01*
X698500Y-46246816D01*
X698500Y-44845000D01*
X10510964Y-44845000D01*
X10512500Y-45450125D01*
X10591875Y-45529500D01*
X11239500Y-45529500D01*
X11239500Y-44606875D01*
X11620500Y-44606875D01*
X11620500Y-45529500D01*
X11640500Y-45529500D01*
X11640500Y-45910500D01*
X11620500Y-45910500D01*
X11620500Y-46833125D01*
X11699875Y-46912500D01*
X12030000Y-46914036D01*
X12092241Y-46907906D01*
X12152090Y-46889751D01*
X12207247Y-46860269D01*
X12255593Y-46820593D01*
X12295269Y-46772247D01*
X12324751Y-46717090D01*
X12342906Y-46657241D01*
X12349036Y-46595000D01*
X12348686Y-46457170D01*
X12451222Y-46649000D01*
X12597618Y-46827383D01*
X12776001Y-46973779D01*
X12979518Y-47082561D01*
X13200347Y-47149549D01*
X13430000Y-47172168D01*
X13659654Y-47149549D01*
X13880483Y-47082561D01*
X14084000Y-46973779D01*
X14262383Y-46827383D01*
X14408779Y-46649000D01*
X14430000Y-46609297D01*
X14451222Y-46649000D01*
X14597618Y-46827383D01*
X14776001Y-46973779D01*
X14979518Y-47082561D01*
X15200347Y-47149549D01*
X15430000Y-47172168D01*
X15659654Y-47149549D01*
X15880483Y-47082561D01*
X16084000Y-46973779D01*
X16262383Y-46827383D01*
X16408779Y-46649000D01*
X16430000Y-46609297D01*
X16451222Y-46649000D01*
X16597618Y-46827383D01*
X16776001Y-46973779D01*
X16979518Y-47082561D01*
X17200347Y-47149549D01*
X17430000Y-47172168D01*
X17659654Y-47149549D01*
X17880483Y-47082561D01*
X18084000Y-46973779D01*
X18262383Y-46827383D01*
X18408779Y-46649000D01*
X18430000Y-46609297D01*
X18451222Y-46649000D01*
X18597618Y-46827383D01*
X18776001Y-46973779D01*
X18979518Y-47082561D01*
X19200347Y-47149549D01*
X19430000Y-47172168D01*
X19659654Y-47149549D01*
X19880483Y-47082561D01*
X20084000Y-46973779D01*
X20262383Y-46827383D01*
X20408779Y-46649000D01*
X20430000Y-46609297D01*
X20451222Y-46649000D01*
X20597618Y-46827383D01*
X20776001Y-46973779D01*
X20979518Y-47082561D01*
X21200347Y-47149549D01*
X21430000Y-47172168D01*
X21659654Y-47149549D01*
X21880483Y-47082561D01*
X22084000Y-46973779D01*
X22262383Y-46827383D01*
X22408779Y-46649000D01*
X22517561Y-46445482D01*
X22584549Y-46224653D01*
X22601500Y-46052547D01*
X22601500Y-45387452D01*
X22584549Y-45215346D01*
X22517561Y-44994517D01*
X22408779Y-44791000D01*
X22262383Y-44612617D01*
X22083999Y-44466221D01*
X21880482Y-44357439D01*
X21659653Y-44290451D01*
X21430000Y-44267832D01*
X21200346Y-44290451D01*
X20979517Y-44357439D01*
X20776000Y-44466221D01*
X20597617Y-44612617D01*
X20451221Y-44791001D01*
X20430000Y-44830702D01*
X20408779Y-44791000D01*
X20262383Y-44612617D01*
X20083999Y-44466221D01*
X19880482Y-44357439D01*
X19659653Y-44290451D01*
X19430000Y-44267832D01*
X19200346Y-44290451D01*
X18979517Y-44357439D01*
X18776000Y-44466221D01*
X18597617Y-44612617D01*
X18451221Y-44791001D01*
X18430000Y-44830702D01*
X18408779Y-44791000D01*
X18262383Y-44612617D01*
X18083999Y-44466221D01*
X17880482Y-44357439D01*
X17659653Y-44290451D01*
X17430000Y-44267832D01*
X17200346Y-44290451D01*
X16979517Y-44357439D01*
X16776000Y-44466221D01*
X16597617Y-44612617D01*
X16451221Y-44791001D01*
X16430000Y-44830702D01*
X16408779Y-44791000D01*
X16262383Y-44612617D01*
X16083999Y-44466221D01*
X15880482Y-44357439D01*
X15659653Y-44290451D01*
X15430000Y-44267832D01*
X15200346Y-44290451D01*
X14979517Y-44357439D01*
X14776000Y-44466221D01*
X14597617Y-44612617D01*
X14451221Y-44791001D01*
X14430000Y-44830702D01*
X14408779Y-44791000D01*
X14262383Y-44612617D01*
X14083999Y-44466221D01*
X13880482Y-44357439D01*
X13659653Y-44290451D01*
X13430000Y-44267832D01*
X13200346Y-44290451D01*
X12979517Y-44357439D01*
X12776000Y-44466221D01*
X12597617Y-44612617D01*
X12451221Y-44791001D01*
X12348686Y-44982830D01*
X12349036Y-44845000D01*
X12342906Y-44782759D01*
X12324751Y-44722910D01*
X12295269Y-44667753D01*
X12255593Y-44619407D01*
X12207247Y-44579731D01*
X12152090Y-44550249D01*
X12092241Y-44532094D01*
X12030000Y-44525964D01*
X11699875Y-44527500D01*
X11620500Y-44606875D01*
X11239500Y-44606875D01*
X11160125Y-44527500D01*
X10830000Y-44525964D01*
X10767759Y-44532094D01*
X10707910Y-44550249D01*
X10652753Y-44579731D01*
X10604407Y-44619407D01*
X10564731Y-44667753D01*
X10535249Y-44722910D01*
X10517094Y-44782759D01*
X10510964Y-44845000D01*
X698500Y-44845000D01*
X698500Y-30986816D01*
X5890700Y-30986816D01*
X5890700Y-31178184D01*
X5928034Y-31365876D01*
X6001268Y-31542678D01*
X6107586Y-31701795D01*
X6242905Y-31837114D01*
X6402022Y-31943432D01*
X6578824Y-32016666D01*
X6766516Y-32054000D01*
X6957884Y-32054000D01*
X7145576Y-32016666D01*
X7322378Y-31943432D01*
X7481495Y-31837114D01*
X7616814Y-31701795D01*
X7723132Y-31542678D01*
X7796366Y-31365876D01*
X7798529Y-31355000D01*
X10510964Y-31355000D01*
X10517094Y-31417241D01*
X10535249Y-31477090D01*
X10564731Y-31532247D01*
X10604407Y-31580593D01*
X10652753Y-31620269D01*
X10707910Y-31649751D01*
X10767759Y-31667906D01*
X10830000Y-31674036D01*
X11160125Y-31672500D01*
X11239500Y-31593125D01*
X11239500Y-30670500D01*
X10591875Y-30670500D01*
X10512500Y-30749875D01*
X10510964Y-31355000D01*
X7798529Y-31355000D01*
X7833700Y-31178184D01*
X7833700Y-30986816D01*
X7796366Y-30799124D01*
X7723132Y-30622322D01*
X7616814Y-30463205D01*
X7481495Y-30327886D01*
X7322378Y-30221568D01*
X7145576Y-30148334D01*
X6957884Y-30111000D01*
X6766516Y-30111000D01*
X6578824Y-30148334D01*
X6402022Y-30221568D01*
X6242905Y-30327886D01*
X6107586Y-30463205D01*
X6001268Y-30622322D01*
X5928034Y-30799124D01*
X5890700Y-30986816D01*
X698500Y-30986816D01*
X698500Y-29605000D01*
X10510964Y-29605000D01*
X10512500Y-30210125D01*
X10591875Y-30289500D01*
X11239500Y-30289500D01*
X11239500Y-29366875D01*
X11620500Y-29366875D01*
X11620500Y-30289500D01*
X11640500Y-30289500D01*
X11640500Y-30670500D01*
X11620500Y-30670500D01*
X11620500Y-31593125D01*
X11699875Y-31672500D01*
X12030000Y-31674036D01*
X12092241Y-31667906D01*
X12152090Y-31649751D01*
X12207247Y-31620269D01*
X12255593Y-31580593D01*
X12295269Y-31532247D01*
X12324751Y-31477090D01*
X12342906Y-31417241D01*
X12349036Y-31355000D01*
X12348686Y-31217170D01*
X12451222Y-31409000D01*
X12597618Y-31587383D01*
X12776001Y-31733779D01*
X12979518Y-31842561D01*
X13200347Y-31909549D01*
X13430000Y-31932168D01*
X13659654Y-31909549D01*
X13880483Y-31842561D01*
X14084000Y-31733779D01*
X14262383Y-31587383D01*
X14408779Y-31409000D01*
X14430000Y-31369297D01*
X14451222Y-31409000D01*
X14597618Y-31587383D01*
X14776001Y-31733779D01*
X14979518Y-31842561D01*
X15200347Y-31909549D01*
X15430000Y-31932168D01*
X15659654Y-31909549D01*
X15880483Y-31842561D01*
X16084000Y-31733779D01*
X16262383Y-31587383D01*
X16408779Y-31409000D01*
X16430000Y-31369297D01*
X16451222Y-31409000D01*
X16597618Y-31587383D01*
X16776001Y-31733779D01*
X16979518Y-31842561D01*
X17200347Y-31909549D01*
X17430000Y-31932168D01*
X17659654Y-31909549D01*
X17880483Y-31842561D01*
X18084000Y-31733779D01*
X18262383Y-31587383D01*
X18408779Y-31409000D01*
X18430000Y-31369297D01*
X18451222Y-31409000D01*
X18597618Y-31587383D01*
X18776001Y-31733779D01*
X18979518Y-31842561D01*
X19200347Y-31909549D01*
X19430000Y-31932168D01*
X19659654Y-31909549D01*
X19880483Y-31842561D01*
X20084000Y-31733779D01*
X20262383Y-31587383D01*
X20408779Y-31409000D01*
X20430000Y-31369297D01*
X20451222Y-31409000D01*
X20597618Y-31587383D01*
X20776001Y-31733779D01*
X20979518Y-31842561D01*
X21200347Y-31909549D01*
X21430000Y-31932168D01*
X21659654Y-31909549D01*
X21880483Y-31842561D01*
X22084000Y-31733779D01*
X22262383Y-31587383D01*
X22408779Y-31409000D01*
X22517561Y-31205482D01*
X22584549Y-30984653D01*
X22601500Y-30812547D01*
X22601500Y-30147452D01*
X22584549Y-29975346D01*
X22517561Y-29754517D01*
X22408779Y-29551000D01*
X22262383Y-29372617D01*
X22083999Y-29226221D01*
X21880482Y-29117439D01*
X21659653Y-29050451D01*
X21430000Y-29027832D01*
X21200346Y-29050451D01*
X20979517Y-29117439D01*
X20776000Y-29226221D01*
X20597617Y-29372617D01*
X20451221Y-29551001D01*
X20430000Y-29590702D01*
X20408779Y-29551000D01*
X20262383Y-29372617D01*
X20083999Y-29226221D01*
X19880482Y-29117439D01*
X19659653Y-29050451D01*
X19430000Y-29027832D01*
X19200346Y-29050451D01*
X18979517Y-29117439D01*
X18776000Y-29226221D01*
X18597617Y-29372617D01*
X18451221Y-29551001D01*
X18430000Y-29590702D01*
X18408779Y-29551000D01*
X18262383Y-29372617D01*
X18083999Y-29226221D01*
X17880482Y-29117439D01*
X17659653Y-29050451D01*
X17430000Y-29027832D01*
X17200346Y-29050451D01*
X16979517Y-29117439D01*
X16776000Y-29226221D01*
X16597617Y-29372617D01*
X16451221Y-29551001D01*
X16430000Y-29590702D01*
X16408779Y-29551000D01*
X16262383Y-29372617D01*
X16083999Y-29226221D01*
X15880482Y-29117439D01*
X15659653Y-29050451D01*
X15430000Y-29027832D01*
X15200346Y-29050451D01*
X14979517Y-29117439D01*
X14776000Y-29226221D01*
X14597617Y-29372617D01*
X14451221Y-29551001D01*
X14430000Y-29590702D01*
X14408779Y-29551000D01*
X14262383Y-29372617D01*
X14083999Y-29226221D01*
X13880482Y-29117439D01*
X13659653Y-29050451D01*
X13430000Y-29027832D01*
X13200346Y-29050451D01*
X12979517Y-29117439D01*
X12776000Y-29226221D01*
X12597617Y-29372617D01*
X12451221Y-29551001D01*
X12348686Y-29742830D01*
X12349036Y-29605000D01*
X12342906Y-29542759D01*
X12324751Y-29482910D01*
X12295269Y-29427753D01*
X12255593Y-29379407D01*
X12207247Y-29339731D01*
X12152090Y-29310249D01*
X12092241Y-29292094D01*
X12030000Y-29285964D01*
X11699875Y-29287500D01*
X11620500Y-29366875D01*
X11239500Y-29366875D01*
X11160125Y-29287500D01*
X10830000Y-29285964D01*
X10767759Y-29292094D01*
X10707910Y-29310249D01*
X10652753Y-29339731D01*
X10604407Y-29379407D01*
X10564731Y-29427753D01*
X10535249Y-29482910D01*
X10517094Y-29542759D01*
X10510964Y-29605000D01*
X698500Y-29605000D01*
X698500Y-15726816D01*
X5890700Y-15726816D01*
X5890700Y-15918184D01*
X5928034Y-16105876D01*
X6001268Y-16282678D01*
X6107586Y-16441795D01*
X6242905Y-16577114D01*
X6402022Y-16683432D01*
X6578824Y-16756666D01*
X6766516Y-16794000D01*
X6957884Y-16794000D01*
X7145576Y-16756666D01*
X7322378Y-16683432D01*
X7481495Y-16577114D01*
X7616814Y-16441795D01*
X7723132Y-16282678D01*
X7792586Y-16115000D01*
X10510964Y-16115000D01*
X10517094Y-16177241D01*
X10535249Y-16237090D01*
X10564731Y-16292247D01*
X10604407Y-16340593D01*
X10652753Y-16380269D01*
X10707910Y-16409751D01*
X10767759Y-16427906D01*
X10830000Y-16434036D01*
X11160125Y-16432500D01*
X11239500Y-16353125D01*
X11239500Y-15430500D01*
X10591875Y-15430500D01*
X10512500Y-15509875D01*
X10510964Y-16115000D01*
X7792586Y-16115000D01*
X7796366Y-16105876D01*
X7833700Y-15918184D01*
X7833700Y-15726816D01*
X7796366Y-15539124D01*
X7723132Y-15362322D01*
X7616814Y-15203205D01*
X7481495Y-15067886D01*
X7322378Y-14961568D01*
X7145576Y-14888334D01*
X6957884Y-14851000D01*
X6766516Y-14851000D01*
X6578824Y-14888334D01*
X6402022Y-14961568D01*
X6242905Y-15067886D01*
X6107586Y-15203205D01*
X6001268Y-15362322D01*
X5928034Y-15539124D01*
X5890700Y-15726816D01*
X698500Y-15726816D01*
X698500Y-14365000D01*
X10510964Y-14365000D01*
X10512500Y-14970125D01*
X10591875Y-15049500D01*
X11239500Y-15049500D01*
X11239500Y-14126875D01*
X11620500Y-14126875D01*
X11620500Y-15049500D01*
X11640500Y-15049500D01*
X11640500Y-15430500D01*
X11620500Y-15430500D01*
X11620500Y-16353125D01*
X11699875Y-16432500D01*
X12030000Y-16434036D01*
X12092241Y-16427906D01*
X12152090Y-16409751D01*
X12207247Y-16380269D01*
X12255593Y-16340593D01*
X12295269Y-16292247D01*
X12324751Y-16237090D01*
X12342906Y-16177241D01*
X12349036Y-16115000D01*
X12348686Y-15977170D01*
X12451222Y-16169000D01*
X12597618Y-16347383D01*
X12776001Y-16493779D01*
X12979518Y-16602561D01*
X13200347Y-16669549D01*
X13430000Y-16692168D01*
X13659654Y-16669549D01*
X13880483Y-16602561D01*
X14084000Y-16493779D01*
X14262383Y-16347383D01*
X14408779Y-16169000D01*
X14430000Y-16129297D01*
X14451222Y-16169000D01*
X14597618Y-16347383D01*
X14776001Y-16493779D01*
X14979518Y-16602561D01*
X15200347Y-16669549D01*
X15430000Y-16692168D01*
X15659654Y-16669549D01*
X15880483Y-16602561D01*
X16084000Y-16493779D01*
X16262383Y-16347383D01*
X16408779Y-16169000D01*
X16430000Y-16129297D01*
X16451222Y-16169000D01*
X16597618Y-16347383D01*
X16776001Y-16493779D01*
X16979518Y-16602561D01*
X17200347Y-16669549D01*
X17430000Y-16692168D01*
X17659654Y-16669549D01*
X17880483Y-16602561D01*
X18084000Y-16493779D01*
X18262383Y-16347383D01*
X18408779Y-16169000D01*
X18430000Y-16129297D01*
X18451222Y-16169000D01*
X18597618Y-16347383D01*
X18776001Y-16493779D01*
X18979518Y-16602561D01*
X19200347Y-16669549D01*
X19430000Y-16692168D01*
X19659654Y-16669549D01*
X19880483Y-16602561D01*
X20084000Y-16493779D01*
X20262383Y-16347383D01*
X20408779Y-16169000D01*
X20430000Y-16129297D01*
X20451222Y-16169000D01*
X20597618Y-16347383D01*
X20776001Y-16493779D01*
X20979518Y-16602561D01*
X21200347Y-16669549D01*
X21430000Y-16692168D01*
X21659654Y-16669549D01*
X21880483Y-16602561D01*
X22084000Y-16493779D01*
X22262383Y-16347383D01*
X22408779Y-16169000D01*
X22517561Y-15965482D01*
X22584549Y-15744653D01*
X22601500Y-15572547D01*
X22601500Y-14907452D01*
X22584549Y-14735346D01*
X22517561Y-14514517D01*
X22408779Y-14311000D01*
X22262383Y-14132617D01*
X22083999Y-13986221D01*
X21880482Y-13877439D01*
X21659653Y-13810451D01*
X21430000Y-13787832D01*
X21200346Y-13810451D01*
X20979517Y-13877439D01*
X20776000Y-13986221D01*
X20597617Y-14132617D01*
X20451221Y-14311001D01*
X20430000Y-14350702D01*
X20408779Y-14311000D01*
X20262383Y-14132617D01*
X20083999Y-13986221D01*
X19880482Y-13877439D01*
X19659653Y-13810451D01*
X19430000Y-13787832D01*
X19200346Y-13810451D01*
X18979517Y-13877439D01*
X18776000Y-13986221D01*
X18597617Y-14132617D01*
X18451221Y-14311001D01*
X18430000Y-14350702D01*
X18408779Y-14311000D01*
X18262383Y-14132617D01*
X18083999Y-13986221D01*
X17880482Y-13877439D01*
X17659653Y-13810451D01*
X17430000Y-13787832D01*
X17200346Y-13810451D01*
X16979517Y-13877439D01*
X16776000Y-13986221D01*
X16597617Y-14132617D01*
X16451221Y-14311001D01*
X16430000Y-14350702D01*
X16408779Y-14311000D01*
X16262383Y-14132617D01*
X16083999Y-13986221D01*
X15880482Y-13877439D01*
X15659653Y-13810451D01*
X15430000Y-13787832D01*
X15200346Y-13810451D01*
X14979517Y-13877439D01*
X14776000Y-13986221D01*
X14597617Y-14132617D01*
X14451221Y-14311001D01*
X14430000Y-14350702D01*
X14408779Y-14311000D01*
X14262383Y-14132617D01*
X14083999Y-13986221D01*
X13880482Y-13877439D01*
X13659653Y-13810451D01*
X13430000Y-13787832D01*
X13200346Y-13810451D01*
X12979517Y-13877439D01*
X12776000Y-13986221D01*
X12597617Y-14132617D01*
X12451221Y-14311001D01*
X12348686Y-14502830D01*
X12349036Y-14365000D01*
X12342906Y-14302759D01*
X12324751Y-14242910D01*
X12295269Y-14187753D01*
X12255593Y-14139407D01*
X12207247Y-14099731D01*
X12152090Y-14070249D01*
X12092241Y-14052094D01*
X12030000Y-14045964D01*
X11699875Y-14047500D01*
X11620500Y-14126875D01*
X11239500Y-14126875D01*
X11160125Y-14047500D01*
X10830000Y-14045964D01*
X10767759Y-14052094D01*
X10707910Y-14070249D01*
X10652753Y-14099731D01*
X10604407Y-14139407D01*
X10564731Y-14187753D01*
X10535249Y-14242910D01*
X10517094Y-14302759D01*
X10510964Y-14365000D01*
X698500Y-14365000D01*
X698500Y-6162315D01*
X712162Y-6175977D01*
X1344946Y-6598789D01*
X2048059Y-6890028D01*
X2794478Y-7038500D01*
X3555522Y-7038500D01*
X4301941Y-6890028D01*
X5005054Y-6598789D01*
X5637838Y-6175977D01*
X6175977Y-5637838D01*
X6598789Y-5005054D01*
X6890028Y-4301941D01*
X7038500Y-3555522D01*
X7038500Y-2794478D01*
X6890028Y-2048059D01*
X6598789Y-1344946D01*
X6175977Y-712162D01*
X6162315Y-698500D01*
X133537685Y-698500D01*
X133524023Y-712162D01*
X133524023Y-712162D01*
G37*
X133524023Y-712162D02*
X133101211Y-1344946D01*
X132809972Y-2048059D01*
X132661500Y-2794478D01*
X132661500Y-3555522D01*
X132809972Y-4301941D01*
X133101211Y-5005054D01*
X133524023Y-5637838D01*
X134062162Y-6175977D01*
X134694946Y-6598789D01*
X135075694Y-6756500D01*
X24130000Y-6756500D01*
X23961540Y-6773092D01*
X23799553Y-6822230D01*
X23650265Y-6902026D01*
X23519413Y-7009413D01*
X23412026Y-7140265D01*
X23332230Y-7289553D01*
X23283092Y-7451540D01*
X23266500Y-7620000D01*
X23266500Y-53340000D01*
X23283092Y-53508460D01*
X23332230Y-53670447D01*
X23412026Y-53819735D01*
X23488977Y-53913500D01*
X19084216Y-53913500D01*
X19050000Y-53910130D01*
X19015784Y-53913500D01*
X18913462Y-53923578D01*
X18782171Y-53963404D01*
X18661173Y-54028079D01*
X18555117Y-54115117D01*
X18533305Y-54141696D01*
X17946696Y-54728305D01*
X17920118Y-54750117D01*
X17833080Y-54856173D01*
X17823936Y-54873281D01*
X17768404Y-54977172D01*
X17728578Y-55108462D01*
X17715130Y-55245000D01*
X17718501Y-55279226D01*
X17718500Y-64104797D01*
X17682376Y-64089834D01*
X17494684Y-64052500D01*
X17303316Y-64052500D01*
X17115624Y-64089834D01*
X16938822Y-64163068D01*
X16779705Y-64269386D01*
X16721591Y-64327500D01*
X9432499Y-64327500D01*
X8591500Y-63486501D01*
X8591500Y-63404316D01*
X8554166Y-63216624D01*
X8480932Y-63039822D01*
X8374614Y-62880705D01*
X8239295Y-62745386D01*
X8080178Y-62639068D01*
X7903376Y-62565834D01*
X7715684Y-62528500D01*
X7524316Y-62528500D01*
X7336624Y-62565834D01*
X7159822Y-62639068D01*
X7000705Y-62745386D01*
X6865386Y-62880705D01*
X6759068Y-63039822D01*
X6685834Y-63216624D01*
X6648500Y-63404316D01*
X6648500Y-63595684D01*
X6685834Y-63783376D01*
X6759068Y-63960178D01*
X6865386Y-64119295D01*
X7000705Y-64254614D01*
X7159822Y-64360932D01*
X7336624Y-64434166D01*
X7524316Y-64471500D01*
X7606501Y-64471500D01*
X8627300Y-65492299D01*
X8649117Y-65518883D01*
X8755173Y-65605921D01*
X8876171Y-65670596D01*
X8967635Y-65698341D01*
X9007461Y-65710422D01*
X9020439Y-65711700D01*
X9109784Y-65720500D01*
X9109791Y-65720500D01*
X9143999Y-65723869D01*
X9178207Y-65720500D01*
X16721591Y-65720500D01*
X16779705Y-65778614D01*
X16938822Y-65884932D01*
X17115624Y-65958166D01*
X17303316Y-65995500D01*
X17494684Y-65995500D01*
X17623964Y-65969785D01*
X17660386Y-66024295D01*
X17676091Y-66040000D01*
X17660386Y-66055705D01*
X17554068Y-66214822D01*
X17480834Y-66391624D01*
X17443500Y-66579316D01*
X17443500Y-66770684D01*
X17480834Y-66958376D01*
X17554068Y-67135178D01*
X17660386Y-67294295D01*
X17795705Y-67429614D01*
X17954822Y-67535932D01*
X18131624Y-67609166D01*
X18319316Y-67646500D01*
X18510684Y-67646500D01*
X18680804Y-67612661D01*
X18683134Y-67624376D01*
X18756368Y-67801178D01*
X18862686Y-67960295D01*
X18998005Y-68095614D01*
X19157122Y-68201932D01*
X19333924Y-68275166D01*
X19521616Y-68312500D01*
X19712984Y-68312500D01*
X19900676Y-68275166D01*
X20077478Y-68201932D01*
X20236595Y-68095614D01*
X20371914Y-67960295D01*
X20478232Y-67801178D01*
X20551466Y-67624376D01*
X20588800Y-67436684D01*
X20588800Y-67354499D01*
X20786806Y-67156493D01*
X20813384Y-67134681D01*
X20900423Y-67028625D01*
X20965098Y-66907627D01*
X21004924Y-66776336D01*
X21015002Y-66674014D01*
X21015002Y-66674007D01*
X21018371Y-66639799D01*
X21015002Y-66605591D01*
X21015002Y-62909611D01*
X21060205Y-62954814D01*
X21219322Y-63061132D01*
X21335336Y-63109187D01*
X21290834Y-63216624D01*
X21253500Y-63404316D01*
X21253500Y-63595684D01*
X21290834Y-63783376D01*
X21364068Y-63960178D01*
X21470386Y-64119295D01*
X21528500Y-64177409D01*
X21528501Y-65370774D01*
X21525130Y-65405000D01*
X21538578Y-65541538D01*
X21578404Y-65672828D01*
X21608430Y-65729001D01*
X21643080Y-65793827D01*
X21730118Y-65899883D01*
X21756696Y-65921695D01*
X25899305Y-70064305D01*
X25921117Y-70090883D01*
X26027173Y-70177921D01*
X26148171Y-70242596D01*
X26279461Y-70282422D01*
X26415999Y-70295870D01*
X26450215Y-70292500D01*
X47971784Y-70292500D01*
X48006000Y-70295870D01*
X48052606Y-70291280D01*
X48164316Y-70313500D01*
X48355684Y-70313500D01*
X48543376Y-70276166D01*
X48720178Y-70202932D01*
X48879295Y-70096614D01*
X49014614Y-69961295D01*
X49120932Y-69802178D01*
X49194166Y-69625376D01*
X49231500Y-69437684D01*
X49231500Y-69246316D01*
X49194166Y-69058624D01*
X49120932Y-68881822D01*
X49014614Y-68722705D01*
X48879295Y-68587386D01*
X48720178Y-68481068D01*
X48543376Y-68407834D01*
X48355684Y-68370500D01*
X48164316Y-68370500D01*
X47976624Y-68407834D01*
X47799822Y-68481068D01*
X47640705Y-68587386D01*
X47505386Y-68722705D01*
X47399068Y-68881822D01*
X47391746Y-68899500D01*
X35106149Y-68899500D01*
X35208376Y-68879166D01*
X35385178Y-68805932D01*
X35544295Y-68699614D01*
X35679614Y-68564295D01*
X35785932Y-68405178D01*
X35859166Y-68228376D01*
X35896500Y-68040684D01*
X35896500Y-67849316D01*
X35859166Y-67661624D01*
X35785932Y-67484822D01*
X35679614Y-67325705D01*
X35544295Y-67190386D01*
X35385178Y-67084068D01*
X35208376Y-67010834D01*
X35020684Y-66973500D01*
X34938500Y-66973500D01*
X34006816Y-66041816D01*
X44049000Y-66041816D01*
X44049000Y-66233184D01*
X44086334Y-66420876D01*
X44159568Y-66597678D01*
X44265886Y-66756795D01*
X44401205Y-66892114D01*
X44560322Y-66998432D01*
X44737124Y-67071666D01*
X44924816Y-67109000D01*
X45116184Y-67109000D01*
X45303876Y-67071666D01*
X45480678Y-66998432D01*
X45639795Y-66892114D01*
X45775114Y-66756795D01*
X45881432Y-66597678D01*
X45954666Y-66420876D01*
X45992000Y-66233184D01*
X45992000Y-66041816D01*
X45954666Y-65854124D01*
X45881432Y-65677322D01*
X45775114Y-65518205D01*
X45639795Y-65382886D01*
X45480678Y-65276568D01*
X45303876Y-65203334D01*
X45116184Y-65166000D01*
X44924816Y-65166000D01*
X44737124Y-65203334D01*
X44560322Y-65276568D01*
X44401205Y-65382886D01*
X44265886Y-65518205D01*
X44159568Y-65677322D01*
X44086334Y-65854124D01*
X44049000Y-66041816D01*
X34006816Y-66041816D01*
X33209663Y-65244663D01*
X33405467Y-65205715D01*
X33645965Y-65106098D01*
X33862407Y-64961476D01*
X34046476Y-64777407D01*
X34191098Y-64560965D01*
X34290715Y-64320467D01*
X34341500Y-64065156D01*
X34341500Y-63804844D01*
X34290715Y-63549533D01*
X34191098Y-63309035D01*
X34046476Y-63092593D01*
X33862407Y-62908524D01*
X33844711Y-62896700D01*
X38474062Y-62896700D01*
X38488224Y-62902566D01*
X38675916Y-62939900D01*
X38867284Y-62939900D01*
X39054976Y-62902566D01*
X39231778Y-62829332D01*
X39390895Y-62723014D01*
X39526214Y-62587695D01*
X39632532Y-62428578D01*
X39705766Y-62251776D01*
X39743100Y-62064084D01*
X39743100Y-61872716D01*
X39735101Y-61832500D01*
X46843458Y-61832500D01*
X46861534Y-61923376D01*
X46934768Y-62100178D01*
X47041086Y-62259295D01*
X47176405Y-62394614D01*
X47335522Y-62500932D01*
X47512324Y-62574166D01*
X47700016Y-62611500D01*
X47891384Y-62611500D01*
X48079076Y-62574166D01*
X48255878Y-62500932D01*
X48414995Y-62394614D01*
X48550314Y-62259295D01*
X48656632Y-62100178D01*
X48729866Y-61923376D01*
X48767200Y-61735684D01*
X48767200Y-61544316D01*
X48729866Y-61356624D01*
X48656632Y-61179822D01*
X48550314Y-61020705D01*
X48414995Y-60885386D01*
X48255878Y-60779068D01*
X48079076Y-60705834D01*
X47891384Y-60668500D01*
X47809199Y-60668500D01*
X47808399Y-60667700D01*
X47786583Y-60641117D01*
X47680527Y-60554079D01*
X47559529Y-60489404D01*
X47428238Y-60449578D01*
X47325916Y-60439500D01*
X47291700Y-60436130D01*
X47257484Y-60439500D01*
X35892757Y-60439500D01*
X35896500Y-60420684D01*
X35896500Y-60229316D01*
X35859166Y-60041624D01*
X35785932Y-59864822D01*
X35679614Y-59705705D01*
X35544295Y-59570386D01*
X35385178Y-59464068D01*
X35208376Y-59390834D01*
X35020684Y-59353500D01*
X34829316Y-59353500D01*
X34641624Y-59390834D01*
X34464822Y-59464068D01*
X34305705Y-59570386D01*
X34247591Y-59628500D01*
X34212830Y-59628500D01*
X34290715Y-59440467D01*
X34341500Y-59185156D01*
X34341500Y-58924844D01*
X34290715Y-58669533D01*
X34191098Y-58429035D01*
X34121127Y-58324316D01*
X42208500Y-58324316D01*
X42208500Y-58515684D01*
X42245834Y-58703376D01*
X42319068Y-58880178D01*
X42425386Y-59039295D01*
X42560705Y-59174614D01*
X42719822Y-59280932D01*
X42896624Y-59354166D01*
X43084316Y-59391500D01*
X43275684Y-59391500D01*
X43463376Y-59354166D01*
X43640178Y-59280932D01*
X43799295Y-59174614D01*
X43934614Y-59039295D01*
X44040932Y-58880178D01*
X44114166Y-58703376D01*
X44151500Y-58515684D01*
X44151500Y-58324316D01*
X44114166Y-58136624D01*
X44040932Y-57959822D01*
X43934614Y-57800705D01*
X43799295Y-57665386D01*
X43640178Y-57559068D01*
X43463376Y-57485834D01*
X43275684Y-57448500D01*
X43084316Y-57448500D01*
X42896624Y-57485834D01*
X42719822Y-57559068D01*
X42560705Y-57665386D01*
X42425386Y-57800705D01*
X42319068Y-57959822D01*
X42245834Y-58136624D01*
X42208500Y-58324316D01*
X34121127Y-58324316D01*
X34046476Y-58212593D01*
X33862407Y-58028524D01*
X33645965Y-57883902D01*
X33405467Y-57784285D01*
X33150156Y-57733500D01*
X32889844Y-57733500D01*
X32634533Y-57784285D01*
X32394035Y-57883902D01*
X32177593Y-58028524D01*
X31993524Y-58212593D01*
X31848902Y-58429035D01*
X31749285Y-58669533D01*
X31698500Y-58924844D01*
X31698500Y-59185156D01*
X31749285Y-59440467D01*
X31827170Y-59628500D01*
X26323500Y-59628500D01*
X25307500Y-58612500D01*
X25285683Y-58585917D01*
X25179627Y-58498879D01*
X25058629Y-58434204D01*
X24927338Y-58394378D01*
X24825016Y-58384300D01*
X24790800Y-58380930D01*
X24756584Y-58384300D01*
X22664209Y-58384300D01*
X22606095Y-58326186D01*
X22446978Y-58219868D01*
X22270176Y-58146634D01*
X22082484Y-58109300D01*
X21891116Y-58109300D01*
X21703424Y-58146634D01*
X21526622Y-58219868D01*
X21367505Y-58326186D01*
X21232186Y-58461505D01*
X21125868Y-58620622D01*
X21052634Y-58797424D01*
X21015300Y-58985116D01*
X21015300Y-59176484D01*
X21052634Y-59364176D01*
X21125868Y-59540978D01*
X21232186Y-59700095D01*
X21367505Y-59835414D01*
X21526622Y-59941732D01*
X21703424Y-60014966D01*
X21891116Y-60052300D01*
X22082484Y-60052300D01*
X22270176Y-60014966D01*
X22377612Y-59970464D01*
X22403334Y-60099776D01*
X22476568Y-60276578D01*
X22582886Y-60435695D01*
X22718205Y-60571014D01*
X22877322Y-60677332D01*
X23054124Y-60750566D01*
X23241816Y-60787900D01*
X23324001Y-60787900D01*
X24039800Y-61503700D01*
X22356909Y-61503700D01*
X22298795Y-61445586D01*
X22139678Y-61339268D01*
X21962876Y-61266034D01*
X21775184Y-61228700D01*
X21583816Y-61228700D01*
X21396124Y-61266034D01*
X21219322Y-61339268D01*
X21060205Y-61445586D01*
X21015002Y-61490789D01*
X21015002Y-57054316D01*
X46653500Y-57054316D01*
X46653500Y-57245684D01*
X46690834Y-57433376D01*
X46764068Y-57610178D01*
X46870386Y-57769295D01*
X47005705Y-57904614D01*
X47164822Y-58010932D01*
X47341624Y-58084166D01*
X47529316Y-58121500D01*
X47720684Y-58121500D01*
X47908376Y-58084166D01*
X48085178Y-58010932D01*
X48244295Y-57904614D01*
X48302409Y-57846500D01*
X54016501Y-57846500D01*
X56453046Y-60283045D01*
X56395386Y-60340705D01*
X56289068Y-60499822D01*
X56215834Y-60676624D01*
X56178500Y-60864316D01*
X56178500Y-60946500D01*
X53326501Y-63798500D01*
X53244316Y-63798500D01*
X53056624Y-63835834D01*
X52879822Y-63909068D01*
X52720705Y-64015386D01*
X52585386Y-64150705D01*
X52479068Y-64309822D01*
X52405834Y-64486624D01*
X52368500Y-64674316D01*
X52368500Y-64865684D01*
X52405834Y-65053376D01*
X52479068Y-65230178D01*
X52585386Y-65389295D01*
X52720705Y-65524614D01*
X52879822Y-65630932D01*
X53056624Y-65704166D01*
X53244316Y-65741500D01*
X53435684Y-65741500D01*
X53623376Y-65704166D01*
X53800178Y-65630932D01*
X53959295Y-65524614D01*
X54094614Y-65389295D01*
X54200932Y-65230178D01*
X54274166Y-65053376D01*
X54311500Y-64865684D01*
X54311500Y-64783499D01*
X57105501Y-61989499D01*
X57105501Y-64433500D01*
X57054316Y-64433500D01*
X56866624Y-64470834D01*
X56689822Y-64544068D01*
X56530705Y-64650386D01*
X56395386Y-64785705D01*
X56289068Y-64944822D01*
X56215834Y-65121624D01*
X56178500Y-65309316D01*
X56178500Y-65391500D01*
X54776696Y-66793305D01*
X54750117Y-66815118D01*
X54663079Y-66921174D01*
X54621784Y-66998432D01*
X54598404Y-67042172D01*
X54558578Y-67173462D01*
X54545130Y-67310000D01*
X54548500Y-67344216D01*
X54548500Y-69036531D01*
X54521666Y-68901624D01*
X54448432Y-68724822D01*
X54342114Y-68565705D01*
X54206795Y-68430386D01*
X54047678Y-68324068D01*
X53870876Y-68250834D01*
X53683184Y-68213500D01*
X53491816Y-68213500D01*
X53304124Y-68250834D01*
X53127322Y-68324068D01*
X52968205Y-68430386D01*
X52832886Y-68565705D01*
X52726568Y-68724822D01*
X52653334Y-68901624D01*
X52616000Y-69089316D01*
X52616000Y-69280684D01*
X52653334Y-69468376D01*
X52726568Y-69645178D01*
X52832886Y-69804295D01*
X52968205Y-69939614D01*
X53127322Y-70045932D01*
X53304124Y-70119166D01*
X53491816Y-70156500D01*
X53683184Y-70156500D01*
X53870876Y-70119166D01*
X54047678Y-70045932D01*
X54206795Y-69939614D01*
X54342114Y-69804295D01*
X54448432Y-69645178D01*
X54521666Y-69468376D01*
X54548501Y-69333469D01*
X54548501Y-70442590D01*
X54490386Y-70500705D01*
X54384068Y-70659822D01*
X54310834Y-70836624D01*
X54273500Y-71024316D01*
X54273500Y-71215684D01*
X54310834Y-71403376D01*
X54384068Y-71580178D01*
X54490386Y-71739295D01*
X54625705Y-71874614D01*
X54784822Y-71980932D01*
X54961624Y-72054166D01*
X55149316Y-72091500D01*
X55340684Y-72091500D01*
X55528376Y-72054166D01*
X55705178Y-71980932D01*
X55864295Y-71874614D01*
X55999614Y-71739295D01*
X56105932Y-71580178D01*
X56179166Y-71403376D01*
X56216500Y-71215684D01*
X56216500Y-71024316D01*
X56179166Y-70836624D01*
X56105932Y-70659822D01*
X55999614Y-70500705D01*
X55941500Y-70442591D01*
X55941500Y-68711695D01*
X56110424Y-68781666D01*
X56298116Y-68819000D01*
X56489484Y-68819000D01*
X56677176Y-68781666D01*
X56853978Y-68708432D01*
X57013095Y-68602114D01*
X57105500Y-68509709D01*
X57105500Y-70783500D01*
X57054316Y-70783500D01*
X56866624Y-70820834D01*
X56689822Y-70894068D01*
X56530705Y-71000386D01*
X56395386Y-71135705D01*
X56289068Y-71294822D01*
X56215834Y-71471624D01*
X56178500Y-71659316D01*
X56178500Y-71850684D01*
X56215834Y-72038376D01*
X56289068Y-72215178D01*
X56395386Y-72374295D01*
X56530705Y-72509614D01*
X56689822Y-72615932D01*
X56866624Y-72689166D01*
X57054316Y-72726500D01*
X57245684Y-72726500D01*
X57433376Y-72689166D01*
X57610178Y-72615932D01*
X57769295Y-72509614D01*
X57904614Y-72374295D01*
X57958053Y-72294316D01*
X108248500Y-72294316D01*
X108248500Y-72485684D01*
X108285834Y-72673376D01*
X108359068Y-72850178D01*
X108465386Y-73009295D01*
X108600705Y-73144614D01*
X108759822Y-73250932D01*
X108936624Y-73324166D01*
X109124316Y-73361500D01*
X109315684Y-73361500D01*
X109503376Y-73324166D01*
X109654665Y-73261500D01*
X115527195Y-73261500D01*
X115570000Y-73265716D01*
X115612805Y-73261500D01*
X115740844Y-73248889D01*
X115905122Y-73199056D01*
X116056522Y-73118131D01*
X116189225Y-73009225D01*
X116216519Y-72975968D01*
X117425978Y-71766510D01*
X117459225Y-71739225D01*
X117489840Y-71701921D01*
X117568131Y-71606522D01*
X117609531Y-71529068D01*
X117649056Y-71455122D01*
X117698889Y-71290844D01*
X117711500Y-71162805D01*
X117715716Y-71120001D01*
X117711500Y-71077196D01*
X117711500Y-69754316D01*
X117773500Y-69754316D01*
X117773500Y-69945684D01*
X117810834Y-70133376D01*
X117884068Y-70310178D01*
X117990386Y-70469295D01*
X118125705Y-70604614D01*
X118284822Y-70710932D01*
X118461624Y-70784166D01*
X118649316Y-70821500D01*
X118840684Y-70821500D01*
X119028376Y-70784166D01*
X119205178Y-70710932D01*
X119339023Y-70621500D01*
X123230977Y-70621500D01*
X123364822Y-70710932D01*
X123541624Y-70784166D01*
X123729316Y-70821500D01*
X123920684Y-70821500D01*
X124108376Y-70784166D01*
X124285178Y-70710932D01*
X124444295Y-70604614D01*
X124579614Y-70469295D01*
X124685932Y-70310178D01*
X124759166Y-70133376D01*
X124796500Y-69945684D01*
X124796500Y-69754316D01*
X124759166Y-69566624D01*
X124685932Y-69389822D01*
X124579614Y-69230705D01*
X124444295Y-69095386D01*
X124285178Y-68989068D01*
X124108376Y-68915834D01*
X123920684Y-68878500D01*
X123729316Y-68878500D01*
X123541624Y-68915834D01*
X123364822Y-68989068D01*
X123230977Y-69078500D01*
X119339023Y-69078500D01*
X119205178Y-68989068D01*
X119028376Y-68915834D01*
X118840684Y-68878500D01*
X118649316Y-68878500D01*
X118461624Y-68915834D01*
X118284822Y-68989068D01*
X118125705Y-69095386D01*
X117990386Y-69230705D01*
X117884068Y-69389822D01*
X117810834Y-69566624D01*
X117773500Y-69754316D01*
X117711500Y-69754316D01*
X117711500Y-64569665D01*
X117774166Y-64418376D01*
X117811500Y-64230684D01*
X117811500Y-64039316D01*
X117774166Y-63851624D01*
X117700932Y-63674822D01*
X117594614Y-63515705D01*
X117459295Y-63380386D01*
X117300178Y-63274068D01*
X117123376Y-63200834D01*
X116935684Y-63163500D01*
X116744316Y-63163500D01*
X116556624Y-63200834D01*
X116379822Y-63274068D01*
X116220705Y-63380386D01*
X116085386Y-63515705D01*
X115979068Y-63674822D01*
X115905834Y-63851624D01*
X115868500Y-64039316D01*
X115868500Y-64230684D01*
X115905834Y-64418376D01*
X115968500Y-64569665D01*
X115968501Y-70759011D01*
X115209014Y-71518500D01*
X109654665Y-71518500D01*
X109503376Y-71455834D01*
X109315684Y-71418500D01*
X109124316Y-71418500D01*
X108936624Y-71455834D01*
X108759822Y-71529068D01*
X108600705Y-71635386D01*
X108465386Y-71770705D01*
X108359068Y-71929822D01*
X108285834Y-72106624D01*
X108248500Y-72294316D01*
X57958053Y-72294316D01*
X58010932Y-72215178D01*
X58084166Y-72038376D01*
X58121500Y-71850684D01*
X58121500Y-71768500D01*
X58270309Y-71619691D01*
X58296882Y-71597883D01*
X58318691Y-71571309D01*
X58318694Y-71571306D01*
X58351681Y-71531111D01*
X58383921Y-71491827D01*
X58448596Y-71370829D01*
X58488422Y-71239538D01*
X58490772Y-71215684D01*
X58501870Y-71103001D01*
X58498500Y-71068785D01*
X58498500Y-70389316D01*
X64433500Y-70389316D01*
X64433500Y-70580684D01*
X64470834Y-70768376D01*
X64544068Y-70945178D01*
X64650386Y-71104295D01*
X64785705Y-71239614D01*
X64944822Y-71345932D01*
X65121624Y-71419166D01*
X65309316Y-71456500D01*
X65500684Y-71456500D01*
X65688376Y-71419166D01*
X65865178Y-71345932D01*
X66024295Y-71239614D01*
X66159614Y-71104295D01*
X66265932Y-70945178D01*
X66315711Y-70825000D01*
X75665964Y-70825000D01*
X75672094Y-70887241D01*
X75690249Y-70947090D01*
X75719731Y-71002247D01*
X75759407Y-71050593D01*
X75807753Y-71090269D01*
X75862910Y-71119751D01*
X75922759Y-71137906D01*
X75985000Y-71144036D01*
X76565125Y-71142500D01*
X76644500Y-71063125D01*
X76644500Y-70040500D01*
X75746875Y-70040500D01*
X75667500Y-70119875D01*
X75665964Y-70825000D01*
X66315711Y-70825000D01*
X66339166Y-70768376D01*
X66376500Y-70580684D01*
X66376500Y-70389316D01*
X66339166Y-70201624D01*
X66265932Y-70024822D01*
X66159614Y-69865705D01*
X66024295Y-69730386D01*
X65865178Y-69624068D01*
X65688376Y-69550834D01*
X65500684Y-69513500D01*
X65309316Y-69513500D01*
X65121624Y-69550834D01*
X64944822Y-69624068D01*
X64785705Y-69730386D01*
X64650386Y-69865705D01*
X64544068Y-70024822D01*
X64470834Y-70201624D01*
X64433500Y-70389316D01*
X58498500Y-70389316D01*
X58498500Y-68875000D01*
X75665964Y-68875000D01*
X75667500Y-69580125D01*
X75746875Y-69659500D01*
X76644500Y-69659500D01*
X76644500Y-68636875D01*
X77025500Y-68636875D01*
X77025500Y-69659500D01*
X77045500Y-69659500D01*
X77045500Y-70040500D01*
X77025500Y-70040500D01*
X77025500Y-71063125D01*
X77104875Y-71142500D01*
X77685000Y-71144036D01*
X77747241Y-71137906D01*
X77807090Y-71119751D01*
X77862247Y-71090269D01*
X77910593Y-71050593D01*
X77950269Y-71002247D01*
X77979751Y-70947090D01*
X77997906Y-70887241D01*
X78004036Y-70825000D01*
X78003289Y-70481852D01*
X78015351Y-70521617D01*
X78147347Y-70768564D01*
X78324985Y-70985016D01*
X78541437Y-71162653D01*
X78788384Y-71294649D01*
X79056338Y-71375932D01*
X79335000Y-71403378D01*
X79613663Y-71375932D01*
X79881617Y-71294649D01*
X80128564Y-71162653D01*
X80345016Y-70985016D01*
X80522653Y-70768563D01*
X80585000Y-70651921D01*
X80647347Y-70768564D01*
X80824985Y-70985016D01*
X81041437Y-71162653D01*
X81288384Y-71294649D01*
X81556338Y-71375932D01*
X81835000Y-71403378D01*
X82113663Y-71375932D01*
X82381617Y-71294649D01*
X82628564Y-71162653D01*
X82845016Y-70985016D01*
X83022653Y-70768563D01*
X83085000Y-70651921D01*
X83147347Y-70768564D01*
X83324985Y-70985016D01*
X83541437Y-71162653D01*
X83788384Y-71294649D01*
X84056338Y-71375932D01*
X84335000Y-71403378D01*
X84613663Y-71375932D01*
X84881617Y-71294649D01*
X85128564Y-71162653D01*
X85345016Y-70985016D01*
X85522653Y-70768563D01*
X85654649Y-70521616D01*
X85735932Y-70253662D01*
X85756500Y-70044832D01*
X85756500Y-69655167D01*
X85735932Y-69446337D01*
X85654649Y-69178383D01*
X85612753Y-69100000D01*
X96365735Y-69100000D01*
X96365735Y-70600000D01*
X96381573Y-70760806D01*
X96428478Y-70915433D01*
X96504649Y-71057937D01*
X96607157Y-71182843D01*
X96732063Y-71285351D01*
X96874567Y-71361522D01*
X97029194Y-71408427D01*
X97190000Y-71424265D01*
X98390000Y-71424265D01*
X98550806Y-71408427D01*
X98705433Y-71361522D01*
X98847937Y-71285351D01*
X98972843Y-71182843D01*
X99075351Y-71057937D01*
X99151522Y-70915433D01*
X99198427Y-70760806D01*
X99214265Y-70600000D01*
X99214265Y-70445639D01*
X99318523Y-70642820D01*
X99462598Y-70819994D01*
X99638469Y-70965656D01*
X99839378Y-71074209D01*
X99921656Y-71107871D01*
X100099500Y-71071320D01*
X100099500Y-70040500D01*
X100480500Y-70040500D01*
X100480500Y-71071320D01*
X100658344Y-71107871D01*
X100740622Y-71074209D01*
X100941531Y-70965656D01*
X101117402Y-70819994D01*
X101261477Y-70642820D01*
X101368218Y-70440943D01*
X101433524Y-70222121D01*
X101374818Y-70040500D01*
X100480500Y-70040500D01*
X100099500Y-70040500D01*
X100079500Y-70040500D01*
X100079500Y-69659500D01*
X100099500Y-69659500D01*
X100099500Y-68628680D01*
X100480500Y-68628680D01*
X100480500Y-69659500D01*
X101374818Y-69659500D01*
X101433524Y-69477879D01*
X101368218Y-69259057D01*
X101261477Y-69057180D01*
X101117402Y-68880006D01*
X100941531Y-68734344D01*
X100740622Y-68625791D01*
X100658344Y-68592129D01*
X100480500Y-68628680D01*
X100099500Y-68628680D01*
X99921656Y-68592129D01*
X99839378Y-68625791D01*
X99638469Y-68734344D01*
X99462598Y-68880006D01*
X99318523Y-69057180D01*
X99214265Y-69254361D01*
X99214265Y-69100000D01*
X99198427Y-68939194D01*
X99151522Y-68784567D01*
X99075351Y-68642063D01*
X98972843Y-68517157D01*
X98847937Y-68414649D01*
X98705433Y-68338478D01*
X98550806Y-68291573D01*
X98390000Y-68275735D01*
X97190000Y-68275735D01*
X97029194Y-68291573D01*
X96874567Y-68338478D01*
X96732063Y-68414649D01*
X96607157Y-68517157D01*
X96504649Y-68642063D01*
X96428478Y-68784567D01*
X96381573Y-68939194D01*
X96365735Y-69100000D01*
X85612753Y-69100000D01*
X85522653Y-68931436D01*
X85345015Y-68714984D01*
X85128563Y-68537347D01*
X84881616Y-68405351D01*
X84613662Y-68324068D01*
X84335000Y-68296622D01*
X84056337Y-68324068D01*
X83788383Y-68405351D01*
X83541436Y-68537347D01*
X83324984Y-68714985D01*
X83147347Y-68931437D01*
X83085000Y-69048079D01*
X83022653Y-68931436D01*
X82845015Y-68714984D01*
X82628563Y-68537347D01*
X82381616Y-68405351D01*
X82113662Y-68324068D01*
X81835000Y-68296622D01*
X81556337Y-68324068D01*
X81288383Y-68405351D01*
X81041436Y-68537347D01*
X80824984Y-68714985D01*
X80647347Y-68931437D01*
X80585000Y-69048079D01*
X80522653Y-68931436D01*
X80345015Y-68714984D01*
X80128563Y-68537347D01*
X79881616Y-68405351D01*
X79613662Y-68324068D01*
X79335000Y-68296622D01*
X79056337Y-68324068D01*
X78788383Y-68405351D01*
X78541436Y-68537347D01*
X78324984Y-68714985D01*
X78147347Y-68931437D01*
X78015351Y-69178384D01*
X78003289Y-69218149D01*
X78004036Y-68875000D01*
X77997906Y-68812759D01*
X77979751Y-68752910D01*
X77950269Y-68697753D01*
X77910593Y-68649407D01*
X77862247Y-68609731D01*
X77807090Y-68580249D01*
X77747241Y-68562094D01*
X77685000Y-68555964D01*
X77104875Y-68557500D01*
X77025500Y-68636875D01*
X76644500Y-68636875D01*
X76565125Y-68557500D01*
X75985000Y-68555964D01*
X75922759Y-68562094D01*
X75862910Y-68580249D01*
X75807753Y-68609731D01*
X75759407Y-68649407D01*
X75719731Y-68697753D01*
X75690249Y-68752910D01*
X75672094Y-68812759D01*
X75665964Y-68875000D01*
X58498500Y-68875000D01*
X58498500Y-65309316D01*
X67608500Y-65309316D01*
X67608500Y-65500684D01*
X67645834Y-65688376D01*
X67719068Y-65865178D01*
X67825386Y-66024295D01*
X67960705Y-66159614D01*
X68119822Y-66265932D01*
X68296624Y-66339166D01*
X68484316Y-66376500D01*
X68675684Y-66376500D01*
X68863376Y-66339166D01*
X69040178Y-66265932D01*
X69199295Y-66159614D01*
X69257409Y-66101500D01*
X81872591Y-66101500D01*
X81930705Y-66159614D01*
X82089822Y-66265932D01*
X82266624Y-66339166D01*
X82454316Y-66376500D01*
X82645684Y-66376500D01*
X82833376Y-66339166D01*
X83010178Y-66265932D01*
X83169295Y-66159614D01*
X83304614Y-66024295D01*
X83410932Y-65865178D01*
X83484166Y-65688376D01*
X83521500Y-65500684D01*
X83521500Y-65309316D01*
X83484166Y-65121624D01*
X83410932Y-64944822D01*
X83304614Y-64785705D01*
X83169295Y-64650386D01*
X83010178Y-64544068D01*
X82833376Y-64470834D01*
X82645684Y-64433500D01*
X82454316Y-64433500D01*
X82266624Y-64470834D01*
X82089822Y-64544068D01*
X81930705Y-64650386D01*
X81872591Y-64708500D01*
X69257409Y-64708500D01*
X69229608Y-64680699D01*
X69250938Y-64671864D01*
X69369919Y-64504327D01*
X68635000Y-63769408D01*
X67900081Y-64504327D01*
X67989937Y-64630854D01*
X67960705Y-64650386D01*
X67825386Y-64785705D01*
X67719068Y-64944822D01*
X67645834Y-65121624D01*
X67608500Y-65309316D01*
X58498500Y-65309316D01*
X58498500Y-63345221D01*
X62563500Y-63345221D01*
X62563500Y-63654779D01*
X62623892Y-63958390D01*
X62742355Y-64244384D01*
X62914336Y-64501773D01*
X63133227Y-64720664D01*
X63390616Y-64892645D01*
X63676610Y-65011108D01*
X63980221Y-65071500D01*
X64289779Y-65071500D01*
X64593390Y-65011108D01*
X64879384Y-64892645D01*
X65136773Y-64720664D01*
X65355664Y-64501773D01*
X65527645Y-64244384D01*
X65646108Y-63958390D01*
X65706500Y-63654779D01*
X65706500Y-63379400D01*
X67316629Y-63379400D01*
X67318433Y-63638919D01*
X67370832Y-63893099D01*
X67463136Y-64115938D01*
X67630673Y-64234919D01*
X68365592Y-63500000D01*
X68904408Y-63500000D01*
X69639327Y-64234919D01*
X69806864Y-64115938D01*
X69904511Y-63875484D01*
X69953371Y-63620600D01*
X69952154Y-63445516D01*
X76851600Y-63445516D01*
X76851600Y-63636884D01*
X76888934Y-63824576D01*
X76962168Y-64001378D01*
X77068486Y-64160495D01*
X77203805Y-64295814D01*
X77362922Y-64402132D01*
X77539724Y-64475366D01*
X77727416Y-64512700D01*
X77918784Y-64512700D01*
X78106476Y-64475366D01*
X78283278Y-64402132D01*
X78442395Y-64295814D01*
X78577714Y-64160495D01*
X78684032Y-64001378D01*
X78757266Y-63824576D01*
X78794600Y-63636884D01*
X78794600Y-63445516D01*
X78757266Y-63257824D01*
X78684032Y-63081022D01*
X78577714Y-62921905D01*
X78442395Y-62786586D01*
X78283278Y-62680268D01*
X78106476Y-62607034D01*
X77918784Y-62569700D01*
X77727416Y-62569700D01*
X77539724Y-62607034D01*
X77362922Y-62680268D01*
X77203805Y-62786586D01*
X77068486Y-62921905D01*
X76962168Y-63081022D01*
X76888934Y-63257824D01*
X76851600Y-63445516D01*
X69952154Y-63445516D01*
X69951567Y-63361081D01*
X69899168Y-63106901D01*
X69806864Y-62884062D01*
X69639327Y-62765081D01*
X68904408Y-63500000D01*
X68365592Y-63500000D01*
X67630673Y-62765081D01*
X67463136Y-62884062D01*
X67365489Y-63124516D01*
X67316629Y-63379400D01*
X65706500Y-63379400D01*
X65706500Y-63345221D01*
X65646108Y-63041610D01*
X65527645Y-62755616D01*
X65355664Y-62498227D01*
X65353110Y-62495673D01*
X67900081Y-62495673D01*
X68635000Y-63230592D01*
X69369919Y-62495673D01*
X69250938Y-62328136D01*
X69010484Y-62230489D01*
X68755600Y-62181629D01*
X68496081Y-62183433D01*
X68241901Y-62235832D01*
X68019062Y-62328136D01*
X67900081Y-62495673D01*
X65353110Y-62495673D01*
X65136773Y-62279336D01*
X64879384Y-62107355D01*
X64593390Y-61988892D01*
X64289779Y-61928500D01*
X63980221Y-61928500D01*
X63676610Y-61988892D01*
X63390616Y-62107355D01*
X63133227Y-62279336D01*
X62914336Y-62498227D01*
X62742355Y-62755616D01*
X62623892Y-63041610D01*
X62563500Y-63345221D01*
X58498500Y-63345221D01*
X58498500Y-60681216D01*
X58501870Y-60647000D01*
X58488422Y-60510462D01*
X58448596Y-60379171D01*
X58420023Y-60325715D01*
X58383921Y-60258173D01*
X58296883Y-60152117D01*
X58270305Y-60130305D01*
X56947400Y-58807400D01*
X56993184Y-58807400D01*
X57180876Y-58770066D01*
X57357678Y-58696832D01*
X57516795Y-58590514D01*
X57652114Y-58455195D01*
X57758432Y-58296078D01*
X57831666Y-58119276D01*
X57869000Y-57931584D01*
X57869000Y-57740216D01*
X57831666Y-57552524D01*
X57758432Y-57375722D01*
X57652114Y-57216605D01*
X57516795Y-57081286D01*
X57357678Y-56974968D01*
X57180876Y-56901734D01*
X56993184Y-56864400D01*
X56801816Y-56864400D01*
X56614124Y-56901734D01*
X56437322Y-56974968D01*
X56278205Y-57081286D01*
X56142886Y-57216605D01*
X56036568Y-57375722D01*
X55963334Y-57552524D01*
X55926000Y-57740216D01*
X55926000Y-57786001D01*
X54821700Y-56681701D01*
X54799883Y-56655117D01*
X54693827Y-56568079D01*
X54572829Y-56503404D01*
X54441538Y-56463578D01*
X54339216Y-56453500D01*
X54305000Y-56450130D01*
X54270784Y-56453500D01*
X48302409Y-56453500D01*
X48244295Y-56395386D01*
X48085178Y-56289068D01*
X47908376Y-56215834D01*
X47720684Y-56178500D01*
X47529316Y-56178500D01*
X47341624Y-56215834D01*
X47164822Y-56289068D01*
X47005705Y-56395386D01*
X46870386Y-56530705D01*
X46764068Y-56689822D01*
X46690834Y-56866624D01*
X46653500Y-57054316D01*
X21015002Y-57054316D01*
X21015002Y-56569306D01*
X21073116Y-56511192D01*
X21179434Y-56352075D01*
X21252668Y-56175273D01*
X21290002Y-55987581D01*
X21290002Y-55941500D01*
X58766501Y-55941500D01*
X62348305Y-59523305D01*
X62370117Y-59549883D01*
X62476173Y-59636921D01*
X62594363Y-59700095D01*
X62597171Y-59701596D01*
X62728462Y-59741422D01*
X62865000Y-59754870D01*
X62899216Y-59751500D01*
X76165784Y-59751500D01*
X76200000Y-59754870D01*
X76336538Y-59741422D01*
X76382776Y-59727396D01*
X76467829Y-59701596D01*
X76588827Y-59636921D01*
X76694883Y-59549883D01*
X76716699Y-59523300D01*
X76848499Y-59391500D01*
X76930684Y-59391500D01*
X77118376Y-59354166D01*
X77295178Y-59280932D01*
X77454295Y-59174614D01*
X77589614Y-59039295D01*
X77695932Y-58880178D01*
X77769166Y-58703376D01*
X77806500Y-58515684D01*
X77806500Y-58324316D01*
X77769166Y-58136624D01*
X77695932Y-57959822D01*
X77589614Y-57800705D01*
X77454295Y-57665386D01*
X77295178Y-57559068D01*
X77118376Y-57485834D01*
X76930684Y-57448500D01*
X76739316Y-57448500D01*
X76551624Y-57485834D01*
X76374822Y-57559068D01*
X76215705Y-57665386D01*
X76080386Y-57800705D01*
X75974068Y-57959822D01*
X75900834Y-58136624D01*
X75863500Y-58324316D01*
X75863500Y-58358500D01*
X64930486Y-58358500D01*
X65136773Y-58220664D01*
X65353110Y-58004327D01*
X67900081Y-58004327D01*
X68019062Y-58171864D01*
X68259516Y-58269511D01*
X68514400Y-58318371D01*
X68773919Y-58316567D01*
X69028099Y-58264168D01*
X69250938Y-58171864D01*
X69369919Y-58004327D01*
X68635000Y-57269408D01*
X67900081Y-58004327D01*
X65353110Y-58004327D01*
X65355664Y-58001773D01*
X65527645Y-57744384D01*
X65646108Y-57458390D01*
X65706500Y-57154779D01*
X65706500Y-56845221D01*
X65646108Y-56541610D01*
X65596356Y-56421499D01*
X67447933Y-56421499D01*
X67365489Y-56624516D01*
X67316629Y-56879400D01*
X67318433Y-57138919D01*
X67370832Y-57393099D01*
X67463136Y-57615938D01*
X67630673Y-57734919D01*
X68365592Y-57000000D01*
X68351450Y-56985858D01*
X68620858Y-56716450D01*
X68635000Y-56730592D01*
X68649142Y-56716450D01*
X68918550Y-56985858D01*
X68904408Y-57000000D01*
X69639327Y-57734919D01*
X69806864Y-57615938D01*
X69904511Y-57375484D01*
X69953371Y-57120600D01*
X69951567Y-56861081D01*
X69899168Y-56606901D01*
X69822371Y-56421499D01*
X78763100Y-56421499D01*
X78763100Y-56556084D01*
X78800434Y-56743776D01*
X78873668Y-56920578D01*
X78979986Y-57079695D01*
X79115305Y-57215014D01*
X79274422Y-57321332D01*
X79451224Y-57394566D01*
X79638916Y-57431900D01*
X79830284Y-57431900D01*
X80017976Y-57394566D01*
X80194778Y-57321332D01*
X80353895Y-57215014D01*
X80489214Y-57079695D01*
X80595532Y-56920578D01*
X80668766Y-56743776D01*
X80706100Y-56556084D01*
X80706100Y-56421499D01*
X82106500Y-56421499D01*
X82213500Y-56528499D01*
X82213500Y-56610684D01*
X82250834Y-56798376D01*
X82324068Y-56975178D01*
X82430386Y-57134295D01*
X82565705Y-57269614D01*
X82724822Y-57375932D01*
X82901624Y-57449166D01*
X83089316Y-57486500D01*
X83280684Y-57486500D01*
X83468376Y-57449166D01*
X83645178Y-57375932D01*
X83804295Y-57269614D01*
X83939614Y-57134295D01*
X84045932Y-56975178D01*
X84119166Y-56798376D01*
X84156500Y-56610684D01*
X84156500Y-56419316D01*
X84119166Y-56231624D01*
X84045932Y-56054822D01*
X83939614Y-55895705D01*
X83804295Y-55760386D01*
X83645178Y-55654068D01*
X83468376Y-55580834D01*
X83280684Y-55543500D01*
X83198499Y-55543500D01*
X82911699Y-55256700D01*
X82889882Y-55230116D01*
X82783826Y-55143078D01*
X82662828Y-55078403D01*
X82531537Y-55038577D01*
X82429215Y-55028499D01*
X82394999Y-55025129D01*
X82360783Y-55028499D01*
X64268499Y-55028499D01*
X63443499Y-54203500D01*
X111503646Y-54203500D01*
X111447455Y-54214677D01*
X111252454Y-54295449D01*
X111076958Y-54412711D01*
X110927711Y-54561958D01*
X110810449Y-54737454D01*
X110729677Y-54932455D01*
X110688500Y-55139466D01*
X110688500Y-55350534D01*
X110729677Y-55557545D01*
X110810449Y-55752546D01*
X110927711Y-55928042D01*
X111076958Y-56077289D01*
X111252454Y-56194551D01*
X111273757Y-56203375D01*
X111637211Y-56566829D01*
X120961626Y-65891245D01*
X120970449Y-65912546D01*
X121087711Y-66088042D01*
X121236958Y-66237289D01*
X121412454Y-66354551D01*
X121607455Y-66435323D01*
X121814466Y-66476500D01*
X122025534Y-66476500D01*
X122232545Y-66435323D01*
X122427546Y-66354551D01*
X122603042Y-66237289D01*
X122752289Y-66088042D01*
X122869551Y-65912546D01*
X122950323Y-65717545D01*
X122991500Y-65510534D01*
X122991500Y-65299466D01*
X122950323Y-65092455D01*
X122869551Y-64897454D01*
X122752289Y-64721958D01*
X122603042Y-64572711D01*
X122427546Y-64455449D01*
X122406245Y-64446626D01*
X113081829Y-55122211D01*
X112718375Y-54758757D01*
X112709551Y-54737454D01*
X112592289Y-54561958D01*
X112443042Y-54412711D01*
X112267546Y-54295449D01*
X112072545Y-54214677D01*
X112016354Y-54203500D01*
X138430000Y-54203500D01*
X138598460Y-54186908D01*
X138760447Y-54137770D01*
X138909735Y-54057974D01*
X139001500Y-53982665D01*
X139001500Y-70037685D01*
X138987838Y-70024023D01*
X138355054Y-69601211D01*
X137651941Y-69309972D01*
X136905522Y-69161500D01*
X136144478Y-69161500D01*
X135398059Y-69309972D01*
X134694946Y-69601211D01*
X134062162Y-70024023D01*
X133524023Y-70562162D01*
X133101211Y-71194946D01*
X132809972Y-71898059D01*
X132661500Y-72644478D01*
X132661500Y-73405522D01*
X132809972Y-74151941D01*
X133101211Y-74855054D01*
X133524023Y-75487838D01*
X133537685Y-75501500D01*
X6162315Y-75501500D01*
X6175977Y-75487838D01*
X6598789Y-74855054D01*
X6890028Y-74151941D01*
X7038500Y-73405522D01*
X7038500Y-72644478D01*
X6890028Y-71898059D01*
X6625991Y-71260616D01*
X11893900Y-71260616D01*
X11893900Y-71451984D01*
X11931234Y-71639676D01*
X12004468Y-71816478D01*
X12110786Y-71975595D01*
X12246105Y-72110914D01*
X12405222Y-72217232D01*
X12582024Y-72290466D01*
X12769716Y-72327800D01*
X12961084Y-72327800D01*
X13148776Y-72290466D01*
X13325578Y-72217232D01*
X13484695Y-72110914D01*
X13620014Y-71975595D01*
X13726332Y-71816478D01*
X13799566Y-71639676D01*
X13836900Y-71451984D01*
X13836900Y-71260616D01*
X13799566Y-71072924D01*
X13726332Y-70896122D01*
X13620014Y-70737005D01*
X13484695Y-70601686D01*
X13325578Y-70495368D01*
X13148776Y-70422134D01*
X12961084Y-70384800D01*
X12769716Y-70384800D01*
X12582024Y-70422134D01*
X12405222Y-70495368D01*
X12246105Y-70601686D01*
X12110786Y-70737005D01*
X12004468Y-70896122D01*
X11931234Y-71072924D01*
X11893900Y-71260616D01*
X6625991Y-71260616D01*
X6598789Y-71194946D01*
X6175977Y-70562162D01*
X5637838Y-70024023D01*
X5005054Y-69601211D01*
X4301941Y-69309972D01*
X3555522Y-69161500D01*
X2794478Y-69161500D01*
X2048059Y-69309972D01*
X1344946Y-69601211D01*
X712162Y-70024023D01*
X698500Y-70037685D01*
X698500Y-68897116D01*
X15612900Y-68897116D01*
X15612900Y-69088484D01*
X15650234Y-69276176D01*
X15723468Y-69452978D01*
X15829786Y-69612095D01*
X15965105Y-69747414D01*
X16124222Y-69853732D01*
X16301024Y-69926966D01*
X16488716Y-69964300D01*
X16680084Y-69964300D01*
X16867776Y-69926966D01*
X17044578Y-69853732D01*
X17203695Y-69747414D01*
X17339014Y-69612095D01*
X17445332Y-69452978D01*
X17518566Y-69276176D01*
X17555900Y-69088484D01*
X17555900Y-68897116D01*
X17518566Y-68709424D01*
X17445332Y-68532622D01*
X17413056Y-68484316D01*
X20618500Y-68484316D01*
X20618500Y-68675684D01*
X20655834Y-68863376D01*
X20729068Y-69040178D01*
X20835386Y-69199295D01*
X20970705Y-69334614D01*
X21129822Y-69440932D01*
X21306624Y-69514166D01*
X21494316Y-69551500D01*
X21576501Y-69551500D01*
X25518305Y-73493305D01*
X25540117Y-73519883D01*
X25646173Y-73606921D01*
X25767171Y-73671596D01*
X25867904Y-73702153D01*
X25898461Y-73711422D01*
X26034999Y-73724870D01*
X26069215Y-73721500D01*
X32977591Y-73721500D01*
X33035705Y-73779614D01*
X33194822Y-73885932D01*
X33371624Y-73959166D01*
X33559316Y-73996500D01*
X33750684Y-73996500D01*
X33938376Y-73959166D01*
X34115178Y-73885932D01*
X34274295Y-73779614D01*
X34409614Y-73644295D01*
X34515932Y-73485178D01*
X34589166Y-73308376D01*
X34626500Y-73120684D01*
X34626500Y-72929316D01*
X34589166Y-72741624D01*
X34515932Y-72564822D01*
X34409614Y-72405705D01*
X34274295Y-72270386D01*
X34115178Y-72164068D01*
X33938376Y-72090834D01*
X33750684Y-72053500D01*
X33559316Y-72053500D01*
X33371624Y-72090834D01*
X33194822Y-72164068D01*
X33035705Y-72270386D01*
X32977591Y-72328500D01*
X26323500Y-72328500D01*
X22561500Y-68566501D01*
X22561500Y-68484316D01*
X22524166Y-68296624D01*
X22450932Y-68119822D01*
X22344614Y-67960705D01*
X22209295Y-67825386D01*
X22050178Y-67719068D01*
X21873376Y-67645834D01*
X21685684Y-67608500D01*
X21494316Y-67608500D01*
X21306624Y-67645834D01*
X21129822Y-67719068D01*
X20970705Y-67825386D01*
X20835386Y-67960705D01*
X20729068Y-68119822D01*
X20655834Y-68296624D01*
X20618500Y-68484316D01*
X17413056Y-68484316D01*
X17339014Y-68373505D01*
X17203695Y-68238186D01*
X17044578Y-68131868D01*
X16867776Y-68058634D01*
X16680084Y-68021300D01*
X16488716Y-68021300D01*
X16301024Y-68058634D01*
X16124222Y-68131868D01*
X15965105Y-68238186D01*
X15829786Y-68373505D01*
X15723468Y-68532622D01*
X15650234Y-68709424D01*
X15612900Y-68897116D01*
X698500Y-68897116D01*
X698500Y-66026189D01*
X723517Y-66039561D01*
X944346Y-66106549D01*
X1116452Y-66123500D01*
X1931548Y-66123500D01*
X2103654Y-66106549D01*
X2324483Y-66039561D01*
X2528000Y-65930779D01*
X2706383Y-65784383D01*
X2852779Y-65606000D01*
X2961561Y-65402483D01*
X3028549Y-65181654D01*
X3051168Y-64952000D01*
X3028549Y-64722346D01*
X2961561Y-64501517D01*
X2852779Y-64298000D01*
X2706383Y-64119617D01*
X2528000Y-63973221D01*
X2324483Y-63864439D01*
X2192183Y-63824306D01*
X2927500Y-63824306D01*
X2927500Y-64079694D01*
X2977324Y-64330175D01*
X3075057Y-64566123D01*
X3216943Y-64778470D01*
X3397530Y-64959057D01*
X3609877Y-65100943D01*
X3845825Y-65198676D01*
X4096306Y-65248500D01*
X4351694Y-65248500D01*
X4602175Y-65198676D01*
X4838123Y-65100943D01*
X5050470Y-64959057D01*
X5231057Y-64778470D01*
X5372943Y-64566123D01*
X5470676Y-64330175D01*
X5520500Y-64079694D01*
X5520500Y-63824306D01*
X5470676Y-63573825D01*
X5372943Y-63337877D01*
X5231057Y-63125530D01*
X5050470Y-62944943D01*
X4838123Y-62803057D01*
X4602175Y-62705324D01*
X4351694Y-62655500D01*
X4096306Y-62655500D01*
X3845825Y-62705324D01*
X3609877Y-62803057D01*
X3397530Y-62944943D01*
X3216943Y-63125530D01*
X3075057Y-63337877D01*
X2977324Y-63573825D01*
X2927500Y-63824306D01*
X2192183Y-63824306D01*
X2103654Y-63797451D01*
X1931548Y-63780500D01*
X1116452Y-63780500D01*
X944346Y-63797451D01*
X723517Y-63864439D01*
X698500Y-63877811D01*
X698500Y-59026189D01*
X723517Y-59039561D01*
X944346Y-59106549D01*
X1116452Y-59123500D01*
X1931548Y-59123500D01*
X2103654Y-59106549D01*
X2324483Y-59039561D01*
X2528000Y-58930779D01*
X2657736Y-58824306D01*
X2927500Y-58824306D01*
X2927500Y-59079694D01*
X2977324Y-59330175D01*
X3075057Y-59566123D01*
X3216943Y-59778470D01*
X3397530Y-59959057D01*
X3609877Y-60100943D01*
X3845825Y-60198676D01*
X4096306Y-60248500D01*
X4351694Y-60248500D01*
X4602175Y-60198676D01*
X4838123Y-60100943D01*
X5050470Y-59959057D01*
X5231057Y-59778470D01*
X5372943Y-59566123D01*
X5394423Y-59514266D01*
X5378500Y-59594316D01*
X5378500Y-59785684D01*
X5415834Y-59973376D01*
X5489068Y-60150178D01*
X5595386Y-60309295D01*
X5730705Y-60444614D01*
X5889822Y-60550932D01*
X6066624Y-60624166D01*
X6254316Y-60661500D01*
X6445684Y-60661500D01*
X6633376Y-60624166D01*
X6810178Y-60550932D01*
X6969295Y-60444614D01*
X7104614Y-60309295D01*
X7210932Y-60150178D01*
X7284166Y-59973376D01*
X7321500Y-59785684D01*
X7321500Y-59594316D01*
X7284166Y-59406624D01*
X7210932Y-59229822D01*
X7104614Y-59070705D01*
X7061125Y-59027216D01*
X13759100Y-59027216D01*
X13759100Y-59218584D01*
X13796434Y-59406276D01*
X13869668Y-59583078D01*
X13975986Y-59742195D01*
X14111305Y-59877514D01*
X14270422Y-59983832D01*
X14447224Y-60057066D01*
X14634916Y-60094400D01*
X14826284Y-60094400D01*
X15013976Y-60057066D01*
X15190778Y-59983832D01*
X15349895Y-59877514D01*
X15485214Y-59742195D01*
X15591532Y-59583078D01*
X15664766Y-59406276D01*
X15702100Y-59218584D01*
X15702100Y-59027216D01*
X15664766Y-58839524D01*
X15591532Y-58662722D01*
X15485214Y-58503605D01*
X15349895Y-58368286D01*
X15190778Y-58261968D01*
X15013976Y-58188734D01*
X14826284Y-58151400D01*
X14634916Y-58151400D01*
X14447224Y-58188734D01*
X14270422Y-58261968D01*
X14111305Y-58368286D01*
X13975986Y-58503605D01*
X13869668Y-58662722D01*
X13796434Y-58839524D01*
X13759100Y-59027216D01*
X7061125Y-59027216D01*
X6969295Y-58935386D01*
X6810178Y-58829068D01*
X6633376Y-58755834D01*
X6445684Y-58718500D01*
X6254316Y-58718500D01*
X6066624Y-58755834D01*
X5889822Y-58829068D01*
X5730705Y-58935386D01*
X5595386Y-59070705D01*
X5491303Y-59226477D01*
X5520500Y-59079694D01*
X5520500Y-58824306D01*
X5470676Y-58573825D01*
X5372943Y-58337877D01*
X5231057Y-58125530D01*
X5050470Y-57944943D01*
X4838123Y-57803057D01*
X4602175Y-57705324D01*
X4351694Y-57655500D01*
X4096306Y-57655500D01*
X3845825Y-57705324D01*
X3609877Y-57803057D01*
X3397530Y-57944943D01*
X3216943Y-58125530D01*
X3075057Y-58337877D01*
X2977324Y-58573825D01*
X2927500Y-58824306D01*
X2657736Y-58824306D01*
X2706383Y-58784383D01*
X2852779Y-58606000D01*
X2961561Y-58402483D01*
X3028549Y-58181654D01*
X3051168Y-57952000D01*
X3028549Y-57722346D01*
X2961561Y-57501517D01*
X2852779Y-57298000D01*
X2706383Y-57119617D01*
X2528000Y-56973221D01*
X2324483Y-56864439D01*
X2103654Y-56797451D01*
X1931548Y-56780500D01*
X1116452Y-56780500D01*
X944346Y-56797451D01*
X723517Y-56864439D01*
X698500Y-56877811D01*
X698500Y-46246816D01*
X5890700Y-46246816D01*
X5890700Y-46438184D01*
X5928034Y-46625876D01*
X6001268Y-46802678D01*
X6107586Y-46961795D01*
X6242905Y-47097114D01*
X6402022Y-47203432D01*
X6578824Y-47276666D01*
X6766516Y-47314000D01*
X6957884Y-47314000D01*
X7145576Y-47276666D01*
X7322378Y-47203432D01*
X7481495Y-47097114D01*
X7616814Y-46961795D01*
X7723132Y-46802678D01*
X7796366Y-46625876D01*
X7802507Y-46595000D01*
X10510964Y-46595000D01*
X10517094Y-46657241D01*
X10535249Y-46717090D01*
X10564731Y-46772247D01*
X10604407Y-46820593D01*
X10652753Y-46860269D01*
X10707910Y-46889751D01*
X10767759Y-46907906D01*
X10830000Y-46914036D01*
X11160125Y-46912500D01*
X11239500Y-46833125D01*
X11239500Y-45910500D01*
X10591875Y-45910500D01*
X10512500Y-45989875D01*
X10510964Y-46595000D01*
X7802507Y-46595000D01*
X7833700Y-46438184D01*
X7833700Y-46246816D01*
X7796366Y-46059124D01*
X7723132Y-45882322D01*
X7616814Y-45723205D01*
X7481495Y-45587886D01*
X7322378Y-45481568D01*
X7145576Y-45408334D01*
X6957884Y-45371000D01*
X6766516Y-45371000D01*
X6578824Y-45408334D01*
X6402022Y-45481568D01*
X6242905Y-45587886D01*
X6107586Y-45723205D01*
X6001268Y-45882322D01*
X5928034Y-46059124D01*
X5890700Y-46246816D01*
X698500Y-46246816D01*
X698500Y-44845000D01*
X10510964Y-44845000D01*
X10512500Y-45450125D01*
X10591875Y-45529500D01*
X11239500Y-45529500D01*
X11239500Y-44606875D01*
X11620500Y-44606875D01*
X11620500Y-45529500D01*
X11640500Y-45529500D01*
X11640500Y-45910500D01*
X11620500Y-45910500D01*
X11620500Y-46833125D01*
X11699875Y-46912500D01*
X12030000Y-46914036D01*
X12092241Y-46907906D01*
X12152090Y-46889751D01*
X12207247Y-46860269D01*
X12255593Y-46820593D01*
X12295269Y-46772247D01*
X12324751Y-46717090D01*
X12342906Y-46657241D01*
X12349036Y-46595000D01*
X12348686Y-46457170D01*
X12451222Y-46649000D01*
X12597618Y-46827383D01*
X12776001Y-46973779D01*
X12979518Y-47082561D01*
X13200347Y-47149549D01*
X13430000Y-47172168D01*
X13659654Y-47149549D01*
X13880483Y-47082561D01*
X14084000Y-46973779D01*
X14262383Y-46827383D01*
X14408779Y-46649000D01*
X14430000Y-46609297D01*
X14451222Y-46649000D01*
X14597618Y-46827383D01*
X14776001Y-46973779D01*
X14979518Y-47082561D01*
X15200347Y-47149549D01*
X15430000Y-47172168D01*
X15659654Y-47149549D01*
X15880483Y-47082561D01*
X16084000Y-46973779D01*
X16262383Y-46827383D01*
X16408779Y-46649000D01*
X16430000Y-46609297D01*
X16451222Y-46649000D01*
X16597618Y-46827383D01*
X16776001Y-46973779D01*
X16979518Y-47082561D01*
X17200347Y-47149549D01*
X17430000Y-47172168D01*
X17659654Y-47149549D01*
X17880483Y-47082561D01*
X18084000Y-46973779D01*
X18262383Y-46827383D01*
X18408779Y-46649000D01*
X18430000Y-46609297D01*
X18451222Y-46649000D01*
X18597618Y-46827383D01*
X18776001Y-46973779D01*
X18979518Y-47082561D01*
X19200347Y-47149549D01*
X19430000Y-47172168D01*
X19659654Y-47149549D01*
X19880483Y-47082561D01*
X20084000Y-46973779D01*
X20262383Y-46827383D01*
X20408779Y-46649000D01*
X20430000Y-46609297D01*
X20451222Y-46649000D01*
X20597618Y-46827383D01*
X20776001Y-46973779D01*
X20979518Y-47082561D01*
X21200347Y-47149549D01*
X21430000Y-47172168D01*
X21659654Y-47149549D01*
X21880483Y-47082561D01*
X22084000Y-46973779D01*
X22262383Y-46827383D01*
X22408779Y-46649000D01*
X22517561Y-46445482D01*
X22584549Y-46224653D01*
X22601500Y-46052547D01*
X22601500Y-45387452D01*
X22584549Y-45215346D01*
X22517561Y-44994517D01*
X22408779Y-44791000D01*
X22262383Y-44612617D01*
X22083999Y-44466221D01*
X21880482Y-44357439D01*
X21659653Y-44290451D01*
X21430000Y-44267832D01*
X21200346Y-44290451D01*
X20979517Y-44357439D01*
X20776000Y-44466221D01*
X20597617Y-44612617D01*
X20451221Y-44791001D01*
X20430000Y-44830702D01*
X20408779Y-44791000D01*
X20262383Y-44612617D01*
X20083999Y-44466221D01*
X19880482Y-44357439D01*
X19659653Y-44290451D01*
X19430000Y-44267832D01*
X19200346Y-44290451D01*
X18979517Y-44357439D01*
X18776000Y-44466221D01*
X18597617Y-44612617D01*
X18451221Y-44791001D01*
X18430000Y-44830702D01*
X18408779Y-44791000D01*
X18262383Y-44612617D01*
X18083999Y-44466221D01*
X17880482Y-44357439D01*
X17659653Y-44290451D01*
X17430000Y-44267832D01*
X17200346Y-44290451D01*
X16979517Y-44357439D01*
X16776000Y-44466221D01*
X16597617Y-44612617D01*
X16451221Y-44791001D01*
X16430000Y-44830702D01*
X16408779Y-44791000D01*
X16262383Y-44612617D01*
X16083999Y-44466221D01*
X15880482Y-44357439D01*
X15659653Y-44290451D01*
X15430000Y-44267832D01*
X15200346Y-44290451D01*
X14979517Y-44357439D01*
X14776000Y-44466221D01*
X14597617Y-44612617D01*
X14451221Y-44791001D01*
X14430000Y-44830702D01*
X14408779Y-44791000D01*
X14262383Y-44612617D01*
X14083999Y-44466221D01*
X13880482Y-44357439D01*
X13659653Y-44290451D01*
X13430000Y-44267832D01*
X13200346Y-44290451D01*
X12979517Y-44357439D01*
X12776000Y-44466221D01*
X12597617Y-44612617D01*
X12451221Y-44791001D01*
X12348686Y-44982830D01*
X12349036Y-44845000D01*
X12342906Y-44782759D01*
X12324751Y-44722910D01*
X12295269Y-44667753D01*
X12255593Y-44619407D01*
X12207247Y-44579731D01*
X12152090Y-44550249D01*
X12092241Y-44532094D01*
X12030000Y-44525964D01*
X11699875Y-44527500D01*
X11620500Y-44606875D01*
X11239500Y-44606875D01*
X11160125Y-44527500D01*
X10830000Y-44525964D01*
X10767759Y-44532094D01*
X10707910Y-44550249D01*
X10652753Y-44579731D01*
X10604407Y-44619407D01*
X10564731Y-44667753D01*
X10535249Y-44722910D01*
X10517094Y-44782759D01*
X10510964Y-44845000D01*
X698500Y-44845000D01*
X698500Y-30986816D01*
X5890700Y-30986816D01*
X5890700Y-31178184D01*
X5928034Y-31365876D01*
X6001268Y-31542678D01*
X6107586Y-31701795D01*
X6242905Y-31837114D01*
X6402022Y-31943432D01*
X6578824Y-32016666D01*
X6766516Y-32054000D01*
X6957884Y-32054000D01*
X7145576Y-32016666D01*
X7322378Y-31943432D01*
X7481495Y-31837114D01*
X7616814Y-31701795D01*
X7723132Y-31542678D01*
X7796366Y-31365876D01*
X7798529Y-31355000D01*
X10510964Y-31355000D01*
X10517094Y-31417241D01*
X10535249Y-31477090D01*
X10564731Y-31532247D01*
X10604407Y-31580593D01*
X10652753Y-31620269D01*
X10707910Y-31649751D01*
X10767759Y-31667906D01*
X10830000Y-31674036D01*
X11160125Y-31672500D01*
X11239500Y-31593125D01*
X11239500Y-30670500D01*
X10591875Y-30670500D01*
X10512500Y-30749875D01*
X10510964Y-31355000D01*
X7798529Y-31355000D01*
X7833700Y-31178184D01*
X7833700Y-30986816D01*
X7796366Y-30799124D01*
X7723132Y-30622322D01*
X7616814Y-30463205D01*
X7481495Y-30327886D01*
X7322378Y-30221568D01*
X7145576Y-30148334D01*
X6957884Y-30111000D01*
X6766516Y-30111000D01*
X6578824Y-30148334D01*
X6402022Y-30221568D01*
X6242905Y-30327886D01*
X6107586Y-30463205D01*
X6001268Y-30622322D01*
X5928034Y-30799124D01*
X5890700Y-30986816D01*
X698500Y-30986816D01*
X698500Y-29605000D01*
X10510964Y-29605000D01*
X10512500Y-30210125D01*
X10591875Y-30289500D01*
X11239500Y-30289500D01*
X11239500Y-29366875D01*
X11620500Y-29366875D01*
X11620500Y-30289500D01*
X11640500Y-30289500D01*
X11640500Y-30670500D01*
X11620500Y-30670500D01*
X11620500Y-31593125D01*
X11699875Y-31672500D01*
X12030000Y-31674036D01*
X12092241Y-31667906D01*
X12152090Y-31649751D01*
X12207247Y-31620269D01*
X12255593Y-31580593D01*
X12295269Y-31532247D01*
X12324751Y-31477090D01*
X12342906Y-31417241D01*
X12349036Y-31355000D01*
X12348686Y-31217170D01*
X12451222Y-31409000D01*
X12597618Y-31587383D01*
X12776001Y-31733779D01*
X12979518Y-31842561D01*
X13200347Y-31909549D01*
X13430000Y-31932168D01*
X13659654Y-31909549D01*
X13880483Y-31842561D01*
X14084000Y-31733779D01*
X14262383Y-31587383D01*
X14408779Y-31409000D01*
X14430000Y-31369297D01*
X14451222Y-31409000D01*
X14597618Y-31587383D01*
X14776001Y-31733779D01*
X14979518Y-31842561D01*
X15200347Y-31909549D01*
X15430000Y-31932168D01*
X15659654Y-31909549D01*
X15880483Y-31842561D01*
X16084000Y-31733779D01*
X16262383Y-31587383D01*
X16408779Y-31409000D01*
X16430000Y-31369297D01*
X16451222Y-31409000D01*
X16597618Y-31587383D01*
X16776001Y-31733779D01*
X16979518Y-31842561D01*
X17200347Y-31909549D01*
X17430000Y-31932168D01*
X17659654Y-31909549D01*
X17880483Y-31842561D01*
X18084000Y-31733779D01*
X18262383Y-31587383D01*
X18408779Y-31409000D01*
X18430000Y-31369297D01*
X18451222Y-31409000D01*
X18597618Y-31587383D01*
X18776001Y-31733779D01*
X18979518Y-31842561D01*
X19200347Y-31909549D01*
X19430000Y-31932168D01*
X19659654Y-31909549D01*
X19880483Y-31842561D01*
X20084000Y-31733779D01*
X20262383Y-31587383D01*
X20408779Y-31409000D01*
X20430000Y-31369297D01*
X20451222Y-31409000D01*
X20597618Y-31587383D01*
X20776001Y-31733779D01*
X20979518Y-31842561D01*
X21200347Y-31909549D01*
X21430000Y-31932168D01*
X21659654Y-31909549D01*
X21880483Y-31842561D01*
X22084000Y-31733779D01*
X22262383Y-31587383D01*
X22408779Y-31409000D01*
X22517561Y-31205482D01*
X22584549Y-30984653D01*
X22601500Y-30812547D01*
X22601500Y-30147452D01*
X22584549Y-29975346D01*
X22517561Y-29754517D01*
X22408779Y-29551000D01*
X22262383Y-29372617D01*
X22083999Y-29226221D01*
X21880482Y-29117439D01*
X21659653Y-29050451D01*
X21430000Y-29027832D01*
X21200346Y-29050451D01*
X20979517Y-29117439D01*
X20776000Y-29226221D01*
X20597617Y-29372617D01*
X20451221Y-29551001D01*
X20430000Y-29590702D01*
X20408779Y-29551000D01*
X20262383Y-29372617D01*
X20083999Y-29226221D01*
X19880482Y-29117439D01*
X19659653Y-29050451D01*
X19430000Y-29027832D01*
X19200346Y-29050451D01*
X18979517Y-29117439D01*
X18776000Y-29226221D01*
X18597617Y-29372617D01*
X18451221Y-29551001D01*
X18430000Y-29590702D01*
X18408779Y-29551000D01*
X18262383Y-29372617D01*
X18083999Y-29226221D01*
X17880482Y-29117439D01*
X17659653Y-29050451D01*
X17430000Y-29027832D01*
X17200346Y-29050451D01*
X16979517Y-29117439D01*
X16776000Y-29226221D01*
X16597617Y-29372617D01*
X16451221Y-29551001D01*
X16430000Y-29590702D01*
X16408779Y-29551000D01*
X16262383Y-29372617D01*
X16083999Y-29226221D01*
X15880482Y-29117439D01*
X15659653Y-29050451D01*
X15430000Y-29027832D01*
X15200346Y-29050451D01*
X14979517Y-29117439D01*
X14776000Y-29226221D01*
X14597617Y-29372617D01*
X14451221Y-29551001D01*
X14430000Y-29590702D01*
X14408779Y-29551000D01*
X14262383Y-29372617D01*
X14083999Y-29226221D01*
X13880482Y-29117439D01*
X13659653Y-29050451D01*
X13430000Y-29027832D01*
X13200346Y-29050451D01*
X12979517Y-29117439D01*
X12776000Y-29226221D01*
X12597617Y-29372617D01*
X12451221Y-29551001D01*
X12348686Y-29742830D01*
X12349036Y-29605000D01*
X12342906Y-29542759D01*
X12324751Y-29482910D01*
X12295269Y-29427753D01*
X12255593Y-29379407D01*
X12207247Y-29339731D01*
X12152090Y-29310249D01*
X12092241Y-29292094D01*
X12030000Y-29285964D01*
X11699875Y-29287500D01*
X11620500Y-29366875D01*
X11239500Y-29366875D01*
X11160125Y-29287500D01*
X10830000Y-29285964D01*
X10767759Y-29292094D01*
X10707910Y-29310249D01*
X10652753Y-29339731D01*
X10604407Y-29379407D01*
X10564731Y-29427753D01*
X10535249Y-29482910D01*
X10517094Y-29542759D01*
X10510964Y-29605000D01*
X698500Y-29605000D01*
X698500Y-15726816D01*
X5890700Y-15726816D01*
X5890700Y-15918184D01*
X5928034Y-16105876D01*
X6001268Y-16282678D01*
X6107586Y-16441795D01*
X6242905Y-16577114D01*
X6402022Y-16683432D01*
X6578824Y-16756666D01*
X6766516Y-16794000D01*
X6957884Y-16794000D01*
X7145576Y-16756666D01*
X7322378Y-16683432D01*
X7481495Y-16577114D01*
X7616814Y-16441795D01*
X7723132Y-16282678D01*
X7792586Y-16115000D01*
X10510964Y-16115000D01*
X10517094Y-16177241D01*
X10535249Y-16237090D01*
X10564731Y-16292247D01*
X10604407Y-16340593D01*
X10652753Y-16380269D01*
X10707910Y-16409751D01*
X10767759Y-16427906D01*
X10830000Y-16434036D01*
X11160125Y-16432500D01*
X11239500Y-16353125D01*
X11239500Y-15430500D01*
X10591875Y-15430500D01*
X10512500Y-15509875D01*
X10510964Y-16115000D01*
X7792586Y-16115000D01*
X7796366Y-16105876D01*
X7833700Y-15918184D01*
X7833700Y-15726816D01*
X7796366Y-15539124D01*
X7723132Y-15362322D01*
X7616814Y-15203205D01*
X7481495Y-15067886D01*
X7322378Y-14961568D01*
X7145576Y-14888334D01*
X6957884Y-14851000D01*
X6766516Y-14851000D01*
X6578824Y-14888334D01*
X6402022Y-14961568D01*
X6242905Y-15067886D01*
X6107586Y-15203205D01*
X6001268Y-15362322D01*
X5928034Y-15539124D01*
X5890700Y-15726816D01*
X698500Y-15726816D01*
X698500Y-14365000D01*
X10510964Y-14365000D01*
X10512500Y-14970125D01*
X10591875Y-15049500D01*
X11239500Y-15049500D01*
X11239500Y-14126875D01*
X11620500Y-14126875D01*
X11620500Y-15049500D01*
X11640500Y-15049500D01*
X11640500Y-15430500D01*
X11620500Y-15430500D01*
X11620500Y-16353125D01*
X11699875Y-16432500D01*
X12030000Y-16434036D01*
X12092241Y-16427906D01*
X12152090Y-16409751D01*
X12207247Y-16380269D01*
X12255593Y-16340593D01*
X12295269Y-16292247D01*
X12324751Y-16237090D01*
X12342906Y-16177241D01*
X12349036Y-16115000D01*
X12348686Y-15977170D01*
X12451222Y-16169000D01*
X12597618Y-16347383D01*
X12776001Y-16493779D01*
X12979518Y-16602561D01*
X13200347Y-16669549D01*
X13430000Y-16692168D01*
X13659654Y-16669549D01*
X13880483Y-16602561D01*
X14084000Y-16493779D01*
X14262383Y-16347383D01*
X14408779Y-16169000D01*
X14430000Y-16129297D01*
X14451222Y-16169000D01*
X14597618Y-16347383D01*
X14776001Y-16493779D01*
X14979518Y-16602561D01*
X15200347Y-16669549D01*
X15430000Y-16692168D01*
X15659654Y-16669549D01*
X15880483Y-16602561D01*
X16084000Y-16493779D01*
X16262383Y-16347383D01*
X16408779Y-16169000D01*
X16430000Y-16129297D01*
X16451222Y-16169000D01*
X16597618Y-16347383D01*
X16776001Y-16493779D01*
X16979518Y-16602561D01*
X17200347Y-16669549D01*
X17430000Y-16692168D01*
X17659654Y-16669549D01*
X17880483Y-16602561D01*
X18084000Y-16493779D01*
X18262383Y-16347383D01*
X18408779Y-16169000D01*
X18430000Y-16129297D01*
X18451222Y-16169000D01*
X18597618Y-16347383D01*
X18776001Y-16493779D01*
X18979518Y-16602561D01*
X19200347Y-16669549D01*
X19430000Y-16692168D01*
X19659654Y-16669549D01*
X19880483Y-16602561D01*
X20084000Y-16493779D01*
X20262383Y-16347383D01*
X20408779Y-16169000D01*
X20430000Y-16129297D01*
X20451222Y-16169000D01*
X20597618Y-16347383D01*
X20776001Y-16493779D01*
X20979518Y-16602561D01*
X21200347Y-16669549D01*
X21430000Y-16692168D01*
X21659654Y-16669549D01*
X21880483Y-16602561D01*
X22084000Y-16493779D01*
X22262383Y-16347383D01*
X22408779Y-16169000D01*
X22517561Y-15965482D01*
X22584549Y-15744653D01*
X22601500Y-15572547D01*
X22601500Y-14907452D01*
X22584549Y-14735346D01*
X22517561Y-14514517D01*
X22408779Y-14311000D01*
X22262383Y-14132617D01*
X22083999Y-13986221D01*
X21880482Y-13877439D01*
X21659653Y-13810451D01*
X21430000Y-13787832D01*
X21200346Y-13810451D01*
X20979517Y-13877439D01*
X20776000Y-13986221D01*
X20597617Y-14132617D01*
X20451221Y-14311001D01*
X20430000Y-14350702D01*
X20408779Y-14311000D01*
X20262383Y-14132617D01*
X20083999Y-13986221D01*
X19880482Y-13877439D01*
X19659653Y-13810451D01*
X19430000Y-13787832D01*
X19200346Y-13810451D01*
X18979517Y-13877439D01*
X18776000Y-13986221D01*
X18597617Y-14132617D01*
X18451221Y-14311001D01*
X18430000Y-14350702D01*
X18408779Y-14311000D01*
X18262383Y-14132617D01*
X18083999Y-13986221D01*
X17880482Y-13877439D01*
X17659653Y-13810451D01*
X17430000Y-13787832D01*
X17200346Y-13810451D01*
X16979517Y-13877439D01*
X16776000Y-13986221D01*
X16597617Y-14132617D01*
X16451221Y-14311001D01*
X16430000Y-14350702D01*
X16408779Y-14311000D01*
X16262383Y-14132617D01*
X16083999Y-13986221D01*
X15880482Y-13877439D01*
X15659653Y-13810451D01*
X15430000Y-13787832D01*
X15200346Y-13810451D01*
X14979517Y-13877439D01*
X14776000Y-13986221D01*
X14597617Y-14132617D01*
X14451221Y-14311001D01*
X14430000Y-14350702D01*
X14408779Y-14311000D01*
X14262383Y-14132617D01*
X14083999Y-13986221D01*
X13880482Y-13877439D01*
X13659653Y-13810451D01*
X13430000Y-13787832D01*
X13200346Y-13810451D01*
X12979517Y-13877439D01*
X12776000Y-13986221D01*
X12597617Y-14132617D01*
X12451221Y-14311001D01*
X12348686Y-14502830D01*
X12349036Y-14365000D01*
X12342906Y-14302759D01*
X12324751Y-14242910D01*
X12295269Y-14187753D01*
X12255593Y-14139407D01*
X12207247Y-14099731D01*
X12152090Y-14070249D01*
X12092241Y-14052094D01*
X12030000Y-14045964D01*
X11699875Y-14047500D01*
X11620500Y-14126875D01*
X11239500Y-14126875D01*
X11160125Y-14047500D01*
X10830000Y-14045964D01*
X10767759Y-14052094D01*
X10707910Y-14070249D01*
X10652753Y-14099731D01*
X10604407Y-14139407D01*
X10564731Y-14187753D01*
X10535249Y-14242910D01*
X10517094Y-14302759D01*
X10510964Y-14365000D01*
X698500Y-14365000D01*
X698500Y-6162315D01*
X712162Y-6175977D01*
X1344946Y-6598789D01*
X2048059Y-6890028D01*
X2794478Y-7038500D01*
X3555522Y-7038500D01*
X4301941Y-6890028D01*
X5005054Y-6598789D01*
X5637838Y-6175977D01*
X6175977Y-5637838D01*
X6598789Y-5005054D01*
X6890028Y-4301941D01*
X7038500Y-3555522D01*
X7038500Y-2794478D01*
X6890028Y-2048059D01*
X6598789Y-1344946D01*
X6175977Y-712162D01*
X6162315Y-698500D01*
X133537685Y-698500D01*
X133524023Y-712162D01*
G36*
X26550386Y-62897705D02*
G01*
X26444068Y-63056822D01*
X26370834Y-63233624D01*
X26333500Y-63421316D01*
X26333500Y-63612684D01*
X26370834Y-63800376D01*
X26444068Y-63977178D01*
X26550386Y-64136295D01*
X26685705Y-64271614D01*
X26844822Y-64377932D01*
X27021624Y-64451166D01*
X27209316Y-64488500D01*
X27400684Y-64488500D01*
X27588376Y-64451166D01*
X27765178Y-64377932D01*
X27924295Y-64271614D01*
X27982409Y-64213500D01*
X30208501Y-64213500D01*
X33953500Y-67958500D01*
X33953500Y-68040684D01*
X33990834Y-68228376D01*
X34064068Y-68405178D01*
X34170386Y-68564295D01*
X34305705Y-68699614D01*
X34464822Y-68805932D01*
X34641624Y-68879166D01*
X34743851Y-68899500D01*
X27201213Y-68899500D01*
X27276932Y-68786178D01*
X27350166Y-68609376D01*
X27387500Y-68421684D01*
X27387500Y-68230316D01*
X27350166Y-68042624D01*
X27276932Y-67865822D01*
X27170614Y-67706705D01*
X27035295Y-67571386D01*
X26876178Y-67465068D01*
X26699376Y-67391834D01*
X26511684Y-67354500D01*
X26320316Y-67354500D01*
X26132624Y-67391834D01*
X25955822Y-67465068D01*
X25796705Y-67571386D01*
X25661386Y-67706705D01*
X25601432Y-67796433D01*
X22921500Y-65116501D01*
X22921500Y-64177409D01*
X22979614Y-64119295D01*
X23085932Y-63960178D01*
X23159166Y-63783376D01*
X23196500Y-63595684D01*
X23196500Y-63404316D01*
X23159166Y-63216624D01*
X23085932Y-63039822D01*
X22990301Y-62896700D01*
X26551391Y-62896700D01*
X26550386Y-62897705D01*
X26550386Y-62897705D01*
G37*
X26550386Y-62897705D02*
X26444068Y-63056822D01*
X26370834Y-63233624D01*
X26333500Y-63421316D01*
X26333500Y-63612684D01*
X26370834Y-63800376D01*
X26444068Y-63977178D01*
X26550386Y-64136295D01*
X26685705Y-64271614D01*
X26844822Y-64377932D01*
X27021624Y-64451166D01*
X27209316Y-64488500D01*
X27400684Y-64488500D01*
X27588376Y-64451166D01*
X27765178Y-64377932D01*
X27924295Y-64271614D01*
X27982409Y-64213500D01*
X30208501Y-64213500D01*
X33953500Y-67958500D01*
X33953500Y-68040684D01*
X33990834Y-68228376D01*
X34064068Y-68405178D01*
X34170386Y-68564295D01*
X34305705Y-68699614D01*
X34464822Y-68805932D01*
X34641624Y-68879166D01*
X34743851Y-68899500D01*
X27201213Y-68899500D01*
X27276932Y-68786178D01*
X27350166Y-68609376D01*
X27387500Y-68421684D01*
X27387500Y-68230316D01*
X27350166Y-68042624D01*
X27276932Y-67865822D01*
X27170614Y-67706705D01*
X27035295Y-67571386D01*
X26876178Y-67465068D01*
X26699376Y-67391834D01*
X26511684Y-67354500D01*
X26320316Y-67354500D01*
X26132624Y-67391834D01*
X25955822Y-67465068D01*
X25796705Y-67571386D01*
X25661386Y-67706705D01*
X25601432Y-67796433D01*
X22921500Y-65116501D01*
X22921500Y-64177409D01*
X22979614Y-64119295D01*
X23085932Y-63960178D01*
X23159166Y-63783376D01*
X23196500Y-63595684D01*
X23196500Y-63404316D01*
X23159166Y-63216624D01*
X23085932Y-63039822D01*
X22990301Y-62896700D01*
X26551391Y-62896700D01*
X26550386Y-62897705D01*
M02*
